<svg width="96" height="50" viewBox="0 0 96 50" fill="none" xmlns="http://www.w3.org/2000/svg">
<g opacity="0.3">
<path d="M0.862524 10.5486L14.8924 24.5855L0.862523 38.6154L0.862522 42.3661L18.6431 24.5855L0.862524 6.80498L0.862524 10.5486Z" fill="#EF4444"/>
<path d="M16.5929 0.0665272L12.8422 0.0665271L37.3613 24.5856L12.8422 49.1047L16.5929 49.1047L41.105 24.5856L16.5929 0.0665272Z" fill="#EF4444"/>
<path d="M5.35494 0.0665272L1.61129 0.0665271L26.1304 24.5856L1.61129 49.1047L5.35493 49.1047L29.874 24.5856L5.35494 0.0665272Z" fill="#EF4444"/>
<path d="M96 0.843246L95.2163 0.0665283L91.4726 0.0665281L96 4.59388L96 0.843246Z" fill="#EF4444"/>
<path d="M96 12.0812L83.9854 0.0665278L80.2417 0.0665276L96 15.8248L96 12.0812Z" fill="#EF4444"/>
<path d="M0.862483 21.7798L3.66147 24.5857L0.862483 27.3847L0.862482 31.1354L7.41211 24.5857L0.862483 18.0361L0.862483 21.7798Z" fill="#EF4444"/>
<path d="M96 23.3121L72.7544 0.0665273L69.0038 0.0665271L93.5229 24.5856L69.0038 49.1047L72.7544 49.1047L96 25.8592L96 23.3121Z" fill="#EF4444"/>
<path d="M96 33.3393L80.2417 49.1046L83.9854 49.1046L96 37.0899L96 33.3393Z" fill="#EF4444"/>
<path d="M96 44.5773L91.4726 49.1046L95.2163 49.1046L96 48.3209L96 44.5773Z" fill="#EF4444"/>
<path d="M39.0546 0.0665272L35.311 0.0665271L59.8231 24.5856L35.311 49.1047L39.0546 49.1047L63.5737 24.5856L39.0546 0.0665272Z" fill="#EF4444"/>
<path d="M27.8237 0.0665272L24.073 0.0665271L48.5921 24.5856L24.073 49.1047L27.8237 49.1047L52.3428 24.5856L27.8237 0.0665272Z" fill="#EF4444"/>
<path d="M61.5236 0.0665272L57.7729 0.0665271L82.292 24.5856L57.7729 49.1047L61.5235 49.1047L86.0356 24.5856L61.5236 0.0665272Z" fill="#EF4444"/>
<path d="M50.2856 0.0665272L46.542 0.0665271L71.061 24.5856L46.542 49.1047L50.2856 49.1047L74.8047 24.5856L50.2856 0.0665272Z" fill="#EF4444"/>
</g>
</svg>
