<svg width="242" height="141" viewBox="0 0 242 141" fill="none" xmlns="http://www.w3.org/2000/svg">
<path d="M90.3532 45.1915C88.3324 43.2389 86.6749 41.6891 85.0704 40.086C77.3203 32.3745 66.0585 30.0649 56.4919 34.3651C46.5924 38.8172 40.7647 48.4508 41.5443 59.6419C41.7183 62.2327 40.9085 63.0304 38.5471 63.623C22.1312 67.7484 10.1201 82.5939 9.45403 99.2628C8.58366 122.086 25.7565 140.061 48.5526 140.076C101.032 140.107 153.527 140.107 206.029 140.076C208.043 140.069 210.056 139.924 212.054 139.636C228.674 137.319 241.435 122.671 241.624 105.652C241.805 88.2388 229.431 73.1882 212.667 70.6658C208.822 70.0884 204.849 70.1112 200.928 69.8985C207.604 34.8969 184.52 9.35417 161.186 3.07105C148.471 -0.347818 136.014 0.161214 123.919 5.38828C106.239 12.9402 95.636 26.7524 90.3532 45.1915Z" fill="#FEE2E2"/>
<path d="M137.786 140.239H137.815C137.979 140.239 138.11 140.104 138.107 139.94L137.664 120.771L136.359 120.619L137.472 139.941C137.48 140.108 137.619 140.239 137.786 140.239Z" fill="#D1D5DB"/>
<path d="M145.392 140.239H145.421C145.585 140.239 145.716 140.104 145.713 139.94L145.27 120.771L143.965 120.619L145.078 139.941C145.086 140.108 145.225 140.239 145.392 140.239Z" fill="#9CA3AF"/>
<path d="M124.403 140.239H124.375C124.21 140.239 124.079 140.104 124.082 139.94L124.525 120.771L125.83 120.619L124.717 139.941C124.709 140.108 124.57 140.239 124.403 140.239Z" fill="#D1D5DB"/>
<path d="M146.257 119.583V106.447C146.257 104.135 144.38 102.262 142.064 102.262H132.582C130.266 102.262 128.389 104.135 128.389 106.447V120.084L146.257 119.583Z" fill="#D1D5DB"/>
<path d="M126.69 121.656H144.998C145.693 121.656 146.257 121.093 146.257 120.399V119.583H126.69V121.656Z" fill="#9CA3AF"/>
<path d="M124.496 121.656H138.347C138.861 121.656 139.278 121.241 139.278 120.727V120.511C139.278 119.998 138.862 119.582 138.347 119.582H124.496C123.982 119.582 123.565 119.998 123.565 120.511V120.727C123.566 121.241 123.982 121.656 124.496 121.656Z" fill="#D1D5DB"/>
<path d="M156.412 50.4479H101.75V97.5443H156.412V50.4479Z" fill="#D1D5DB"/>
<path d="M155.348 51.2319H102.79V96.6044H155.348V51.2319Z" fill="#E5E7EB"/>
<path d="M121.159 70.9737H109.642V56.6198L111.595 54.8622H121.159V70.9737Z" fill="white"/>
<path d="M109.642 56.6198H111.532L111.595 54.8622L109.642 56.6198Z" fill="#D1D5DB"/>
<path d="M117.243 56.2595H113.556V56.4348H117.243V56.2595Z" fill="#D1D5DB"/>
<path d="M118.112 56.7854H112.688V56.9607H118.112V56.7854Z" fill="#D1D5DB"/>
<path d="M120.011 60.1624H111.005V60.3875H120.011V60.1624Z" fill="#D1D5DB"/>
<path d="M120.011 60.8467H111.005V61.0718H120.011V60.8467Z" fill="#D1D5DB"/>
<path d="M120.011 61.5308H111.005V61.7559H120.011V61.5308Z" fill="#D1D5DB"/>
<path d="M120.011 62.2151H111.005V62.4402H120.011V62.2151Z" fill="#D1D5DB"/>
<path d="M120.011 69.5392H111.005V69.7644H120.011V69.5392Z" fill="#D1D5DB"/>
<path d="M134.459 90.8882H122.941V76.5335L124.894 74.7767H134.459V90.8882Z" fill="white"/>
<path d="M122.941 76.5335H124.832L124.894 74.7767L122.941 76.5335Z" fill="#D1D5DB"/>
<path d="M130.544 76.1742H126.856V76.3495H130.544V76.1742Z" fill="#D1D5DB"/>
<path d="M131.412 76.7H125.988V76.8753H131.412V76.7Z" fill="#D1D5DB"/>
<path d="M133.31 80.0771H124.305V80.3022H133.31V80.0771Z" fill="#D1D5DB"/>
<path d="M133.31 80.7612H124.305V80.9864H133.31V80.7612Z" fill="#D1D5DB"/>
<path d="M133.31 81.4454H124.305V81.6706H133.31V81.4454Z" fill="#D1D5DB"/>
<path d="M133.31 82.1297H124.305V82.3548H133.31V82.1297Z" fill="#D1D5DB"/>
<path d="M133.31 84.2356H124.305V84.4607H133.31V84.2356Z" fill="#D1D5DB"/>
<path d="M133.31 84.9199H124.305V85.145H133.31V84.9199Z" fill="#D1D5DB"/>
<path d="M133.31 85.7134H124.305V85.9385H133.31V85.7134Z" fill="#D1D5DB"/>
<path d="M140.958 54.8621H134.599V60.4583H140.958V54.8621Z" fill="#D1D5DB"/>
<path d="M137.5 55.5286C137.5 55.3751 137.625 55.2504 137.779 55.2504C137.933 55.2504 138.058 55.3751 138.058 55.5286C138.058 55.6822 137.933 55.8068 137.779 55.8068C137.625 55.8068 137.5 55.6822 137.5 55.5286Z" fill="#E5E7EB"/>
<path d="M140.757 62.2232L134.413 62.6647L134.804 68.2474L141.148 67.806L140.757 62.2232Z" fill="white"/>
<path d="M137.376 63.4676C137.365 63.3149 137.48 63.1814 137.634 63.1709C137.787 63.1605 137.921 63.2755 137.932 63.429C137.942 63.5826 137.827 63.7153 137.673 63.7257C137.519 63.7362 137.386 63.6204 137.376 63.4676Z" fill="#D1D5DB"/>
<path d="M119.621 82.8388L113.277 83.2803L113.668 88.863L120.012 88.4216L119.621 82.8388Z" fill="white"/>
<path d="M116.242 84.0837C116.231 83.9309 116.347 83.7974 116.5 83.787C116.654 83.7765 116.787 83.8915 116.798 84.0451C116.808 84.1978 116.693 84.3313 116.539 84.3418C116.385 84.3522 116.252 84.2364 116.242 84.0837Z" fill="#D1D5DB"/>
<path d="M111.637 86.841L105.278 86.9063L105.336 92.5019L111.695 92.4366L111.637 86.841Z" fill="white"/>
<path d="M108.191 87.8975C108.189 87.7439 108.313 87.6185 108.466 87.6169C108.62 87.6153 108.746 87.7383 108.748 87.8919C108.749 88.0455 108.626 88.1709 108.472 88.1725C108.319 88.1741 108.193 88.0511 108.191 87.8975Z" fill="#D1D5DB"/>
<path d="M150.384 66.7091L144.124 65.5927L143.137 71.1015L149.397 72.218L150.384 66.7091Z" fill="#EEF6FF"/>
<path d="M146.882 66.8585C146.905 66.7274 147.031 66.6398 147.163 66.6631C147.295 66.6864 147.382 66.8119 147.359 66.9437C147.335 67.0756 147.21 67.1624 147.077 67.1391C146.946 67.1158 146.858 66.9904 146.882 66.8585Z" fill="#9CA3AF"/>
<path d="M130.847 62.1059L124.525 62.7883L125.129 68.352L131.451 67.6696L130.847 62.1059Z" fill="#EEF6FF"/>
<path d="M127.527 63.2266C127.512 63.0939 127.608 62.9749 127.742 62.9604C127.875 62.946 127.994 63.0416 128.009 63.1743C128.023 63.307 127.927 63.426 127.794 63.4404C127.661 63.4549 127.541 63.3592 127.527 63.2266Z" fill="#9CA3AF"/>
<path d="M114.335 75.3376L108.116 76.661L109.285 82.1341L115.504 80.8107L114.335 75.3376Z" fill="#D1D5DB"/>
<path d="M111.255 76.9373C111.143 76.8649 111.111 76.7154 111.183 76.6028C111.256 76.491 111.406 76.4589 111.518 76.5312C111.63 76.6036 111.663 76.7531 111.59 76.8657C111.518 76.9783 111.368 77.0096 111.255 76.9373Z" fill="#E5E7EB"/>
<path d="M131.015 60.4582H124.963V56.3993L126.639 54.862H131.015V60.4582Z" fill="white"/>
<path d="M124.929 56.3993H126.583L126.638 54.862L124.929 56.3993Z" fill="#D1D5DB"/>
<path d="M128.01 55.3799C128.01 55.2705 128.1 55.1813 128.209 55.1813C128.319 55.1813 128.408 55.2705 128.408 55.3799C128.408 55.4892 128.319 55.5785 128.209 55.5785C128.1 55.5785 128.01 55.49 128.01 55.3799Z" fill="#D1D5DB"/>
<path d="M148.701 93.6854H142.647V89.6266L144.323 88.09H148.701V93.6854Z" fill="white"/>
<path d="M142.615 89.6266H144.268L144.323 88.09L142.615 89.6266Z" fill="#D1D5DB"/>
<path d="M145.695 88.608C145.695 88.4986 145.785 88.4094 145.894 88.4094C146.005 88.4094 146.093 88.4986 146.093 88.608C146.093 88.7173 146.004 88.8066 145.894 88.8066C145.785 88.8066 145.695 88.7173 145.695 88.608Z" fill="#D1D5DB"/>
<path d="M151.459 85.6312H145.406V81.5715L147.083 80.035H151.459V85.6312Z" fill="white"/>
<path d="M145.374 81.5715H147.027L147.082 80.035L145.374 81.5715Z" fill="#D1D5DB"/>
<path d="M148.456 80.5525C148.456 80.4432 148.545 80.3539 148.655 80.3539C148.764 80.3539 148.854 80.4432 148.854 80.5525C148.854 80.6619 148.764 80.7511 148.655 80.7511C148.545 80.7511 148.456 80.6619 148.456 80.5525Z" fill="#D1D5DB"/>
<path d="M143.474 85.6309H137.42V81.5712L139.096 80.0347H143.474V85.6309Z" fill="#D1D5DB"/>
<path d="M137.388 81.5712H139.041L139.096 80.0347L137.388 81.5712Z" fill="#9CA3AF"/>
<path d="M140.468 80.5525C140.468 80.4431 140.557 80.3539 140.667 80.3539C140.776 80.3539 140.866 80.4431 140.866 80.5525C140.866 80.6618 140.776 80.7511 140.667 80.7511C140.557 80.7511 140.468 80.6618 140.468 80.5525Z" fill="#374151"/>
<path d="M153.169 59.0573H147.116V54.9977L148.792 53.4611H153.169V59.0573Z" fill="#D1D5DB"/>
<path d="M147.083 54.9977H148.737L148.791 53.4611L147.083 54.9977Z" fill="#9CA3AF"/>
<path d="M150.164 53.9791C150.164 53.8697 150.253 53.7805 150.363 53.7805C150.473 53.7805 150.562 53.8697 150.562 53.9791C150.562 54.0884 150.473 54.1777 150.363 54.1777C150.253 54.1777 150.164 54.0884 150.164 53.9791Z" fill="#374151"/>
<path d="M164.193 139.553C164.138 140.299 163.083 140.307 161.886 140.169C160.688 140.03 161.007 140.333 159.33 140.356C157.654 140.379 157.076 139.826 156.995 139.587C156.922 139.375 157.729 139.197 158.593 138.987C158.702 138.961 158.811 138.934 158.919 138.905C159.893 138.659 160.538 137.931 161.372 137.296C162.161 136.694 163.179 134.516 163.179 134.516L165.468 134.413C165.468 134.413 164.504 136.365 164.141 137.207C163.929 137.702 164.019 138.31 164.111 138.777C164.163 139.031 164.212 139.29 164.193 139.553Z" fill="#FECACA"/>
<path d="M161.886 140.169C160.688 140.03 161.007 140.333 159.33 140.356C157.654 140.379 157.076 139.826 156.995 139.587C156.922 139.375 157.729 139.196 158.593 138.987L158.604 139.003C158.604 139.003 159.683 139.581 161.063 139.442C162.188 139.33 163.336 138.861 164.112 138.778C164.162 139.032 164.211 139.291 164.191 139.554C164.138 140.299 163.083 140.307 161.886 140.169Z" fill="#374151"/>
<path d="M180.007 139.708C179.953 140.454 178.898 140.464 177.701 140.326C176.504 140.189 176.822 140.491 175.146 140.516C173.47 140.541 172.892 139.989 172.81 139.75C172.738 139.538 173.545 139.358 174.409 139.148C174.517 139.121 174.626 139.094 174.735 139.066C175.709 138.819 176.352 138.09 177.185 137.454C177.974 136.852 177.186 133.284 177.186 133.284L179.704 133.04C179.704 133.04 179.584 136.043 179.585 137.408C179.586 137.947 179.834 138.465 179.928 138.932C179.977 139.185 180.027 139.445 180.007 139.708Z" fill="#FECACA"/>
<path d="M177.701 140.325C176.504 140.188 176.822 140.49 175.146 140.515C173.47 140.54 172.892 139.988 172.81 139.749C172.738 139.537 173.545 139.357 174.409 139.147L174.419 139.163C174.419 139.163 175.498 139.74 176.879 139.6C178.004 139.487 179.152 139.016 179.928 138.932C179.978 139.186 180.028 139.445 180.007 139.708C179.953 140.454 178.898 140.463 177.701 140.325Z" fill="#374151"/>
<path d="M172.656 78.059C172.223 76.2788 172.851 75.4506 173.418 75.0092C173.687 74.3539 173.994 73.8819 174.308 73.7043C174.88 73.3794 175.566 73.344 176.046 73.3722C175.923 73.2451 175.68 73.1985 175.68 73.1985C175.977 73.1543 176.642 73.4486 176.642 73.4486C180.78 71.8574 181.431 77.9392 181.344 79.3519C181.258 80.7646 181.269 82.429 183.422 83.5418C187.531 85.6661 182.057 93.6704 182.057 93.6704C182.161 92.5287 176.882 86.5031 174.129 84.6988C173.459 83.7139 173.22 81.9739 173.202 81.8364C173.318 83.2162 173.554 83.9905 173.766 84.4263C172.51 83.2732 172.324 80.5041 172.656 78.059Z" fill="#1F2937"/>
<path d="M174.292 84.7882C174.278 84.7946 175.622 85.4909 176.632 85.2151C177.582 84.9562 178.204 83.726 178.191 83.7236C177.788 83.644 177.672 83.0916 177.681 80.7189L177.499 80.7543L174.439 81.3589C174.439 81.3589 174.508 82.3197 174.511 83.2251C174.512 83.9865 174.466 84.707 174.292 84.7882Z" fill="#FECACA"/>
<path d="M174.438 81.3597C174.438 81.3597 174.508 82.3205 174.51 83.2259C176.222 83.1776 177.128 81.6186 177.498 80.7542L174.438 81.3597Z" fill="#FCA5A5"/>
<path d="M161.989 135.726C161.839 136.196 162.176 136.679 162.67 136.702L163.865 136.758L165.13 136.797C165.447 136.806 165.749 136.669 165.949 136.423C166.958 135.188 170.066 131.067 171.951 125.081C172.004 124.913 172.06 124.743 172.119 124.571C173.364 120.948 175.945 116.4 177.305 112.284C177.522 111.629 177.716 111.011 177.89 110.428C177.945 110.24 178 110.057 178.052 109.876C179.054 106.4 179.344 104.118 179.611 101.68L169.79 101.759C169.79 101.759 167.723 117.798 161.989 135.726Z" fill="#374151"/>
<path d="M171.166 96.1268C171.191 100.791 170.481 102.792 170.481 102.792C170.481 102.792 174.686 104.925 179.683 103.355C179.742 103.337 183.821 102.407 183.821 102.407C183.737 102.218 182.993 99.0753 182.912 98.9016C181.856 96.6398 181.056 95.6484 180.93 94.9529C180.698 93.6552 180.692 92.3116 180.808 91.0452C181.113 87.6923 182.02 84.9087 182.02 84.9087C180.659 84.5992 179.383 84.0564 177.966 83.5258C177.64 83.931 176.643 84.3547 175.779 84.3354C174.783 84.3137 174.461 83.8884 174.513 83.4236C173.452 84.013 172.605 84.5694 172.605 84.5694C171.704 86.1325 169.875 87.6505 169.743 90.0482C169.71 90.6384 171.165 95.9958 171.166 96.1268Z" fill="white"/>
<path d="M179.611 96.6463C180.04 97.2526 180.863 100.938 182.91 101.402C181.855 98.7754 181.054 97.6232 180.929 96.816C180.697 95.3084 180.691 93.7485 180.807 92.2771C180.121 91.0783 179.61 90.2557 179.61 90.2557C179.556 90.0619 178.521 86.8658 178.189 89.7226C177.858 92.5794 179.131 95.9685 179.611 96.6463Z" fill="#5F9AA8"/>
<path d="M173.867 82.2167C173.867 82.2167 177.918 82.2834 177.921 79.7643C177.923 77.246 178.448 75.5583 175.862 75.4088C173.275 75.26 172.771 76.2201 172.566 77.0603C172.36 77.9013 172.813 82.1347 173.867 82.2167Z" fill="#FECACA"/>
<path d="M174.016 75.3478C174.016 75.3478 175.125 78.3027 176.827 78.7393C178.529 79.1759 179.268 78.7208 179.268 78.7208C179.268 78.7208 177.962 77.6852 177.692 75.8785C177.691 75.8785 174.853 73.9415 174.016 75.3478Z" fill="#1F2937"/>
<path d="M174.291 75.5873C174.291 75.5873 173.463 76.2475 173.261 76.8883C173.059 77.5299 172.969 78.8502 172.583 78.8051C172.583 78.8051 171.747 76.7966 172.686 75.6605C173.682 74.456 174.291 75.5873 174.291 75.5873Z" fill="#1F2937"/>
<path d="M167.491 99.3641L165.578 105.187L166.67 105.624L169.833 100.479L167.491 99.3641Z" fill="#FECACA"/>
<path d="M172.651 84.2269C172.651 84.2269 170.395 85.1202 169.742 86.5136C169.089 87.907 168.101 97.2517 167.707 98.2109C167.313 99.1709 167.017 99.93 167.017 99.93C167.017 99.93 168.155 100.887 169.299 100.957C170.442 101.028 172.651 84.2269 172.651 84.2269Z" fill="#DC2626"/>
<path d="M174.513 83.4236C174.513 83.4236 172.169 89.2032 172.1 90.3722C172.03 91.5421 171.824 109.498 171.824 109.498C171.824 109.498 171.962 110.324 170.377 109.98C168.791 109.636 168.378 109.292 168.378 109.292C168.378 109.292 169.894 98.2149 169.481 94.3619C169.068 90.5089 172.652 84.2253 172.652 84.2253L174.513 83.4236Z" fill="#DC2626"/>
<path d="M163.864 136.759L165.238 136.801C165.484 136.808 165.718 136.702 165.875 136.513C166.798 135.397 170.017 131.221 171.951 125.082C172.004 124.914 172.06 124.745 172.119 124.573C173.364 120.949 175.945 116.402 177.305 112.286C177.521 111.631 177.716 111.013 177.89 110.429C177.945 110.242 178 110.059 178.052 109.878L176.606 108.783C176.606 108.783 172.263 115.8 170.92 122.404C169.751 128.139 165.075 135.042 163.864 136.759Z" fill="#1F2937"/>
<path d="M176.455 123.017C176.431 126.056 176.575 132.828 176.946 136.138C176.98 136.441 177.237 136.669 177.542 136.669H178.567C178.999 136.669 179.322 136.666 179.537 136.663C179.723 136.661 179.882 136.527 179.917 136.345C180.936 131.17 181.665 126.87 182.199 123.155C182.646 120.045 183.043 117.379 183.348 115.084C183.656 112.775 183.869 110.84 183.946 109.206C183.958 108.949 183.967 108.699 183.972 108.455C183.976 108.211 183.978 107.974 183.976 107.743L175.49 106.917C175.597 112.546 176.468 121.151 176.455 123.017Z" fill="#374151"/>
<path d="M178.567 136.669C178.955 136.669 179.255 136.667 179.468 136.664C179.693 136.661 179.886 136.5 179.93 136.279C180.942 131.133 181.668 126.854 182.199 123.155C182.646 120.045 183.043 117.379 183.348 115.084C183.656 112.775 183.869 110.84 183.946 109.206L180.832 111.035C180.832 111.035 182.82 111.734 182.062 117.032C181.303 122.33 179.622 135.92 178.567 136.669Z" fill="#1F2937"/>
<path d="M178.165 109.155C178.165 109.155 178.763 111.31 180.831 111.035C182.899 110.76 185.84 109.521 185.84 109.521C185.84 109.521 184.956 106.735 183.857 103.073C182.527 98.6403 180.88 92.9259 180.104 89.3213C179.886 88.3114 179.737 87.468 179.682 86.8641L177.966 83.5418C177.966 83.5418 175.408 89.2723 175.27 90.7172C175.132 92.1612 178.165 109.155 178.165 109.155Z" fill="#DC2626"/>
<path d="M180.23 90.5017L177.965 83.5418C177.972 83.545 180.825 84.3893 182.261 85.1129C182.261 85.1129 183.158 86.2675 183.713 88.9314C183.713 88.9314 184.3 95.3268 182.99 97.6657C182.99 97.6657 178.854 98.4915 172.237 96.2209V94.7076C172.237 94.7076 179.474 95.0864 180.957 95.2576L180.23 90.5017Z" fill="#FECACA"/>
<path d="M178.258 93.7436C178.351 96.0825 178.902 100.624 183.819 103.054C183.832 103.061 183.845 103.067 183.859 103.073C182.529 98.6402 180.881 92.9258 180.105 89.3213C179.202 90.6689 178.208 92.4563 178.258 93.7436Z" fill="#B91C1C"/>
<path d="M177.967 83.5418C177.967 83.5418 182.164 83.8369 183.175 86.0842C184.186 88.3315 184.507 95.8076 183.221 98.0091C183.221 98.0091 181.449 98.5124 178.316 97.9279C178.278 97.9206 178.239 97.9134 178.2 97.9062C178.2 97.9062 177.2 95.4635 178.097 94.9818C178.097 94.9818 180.739 95.1193 180.464 94.2477C180.188 93.377 177.967 83.5418 177.967 83.5418Z" fill="#DC2626"/>
<path d="M167.442 95.6419L167.566 96.0383L174.454 93.8996C174.454 93.8996 174.546 93.795 174.501 93.6567C174.451 93.5032 174.331 93.5032 174.331 93.5032L167.442 95.6419Z" fill="#1F2937"/>
<path d="M166.944 96.0175L167.442 95.642L167.565 96.0392L166.944 96.0175Z" fill="#1F2937"/>
<path d="M165.85 105.028C165.85 105.028 164.103 105.992 163.873 106.726C163.643 107.46 163.801 108.997 164.078 108.975C164.356 108.952 164.77 107.323 164.999 107.208C165.229 107.093 165.551 106.75 165.551 107.002C165.551 107.254 165.322 107.712 165.436 107.782C165.551 107.851 165.918 107.139 166.171 107.002C166.424 106.864 166.531 105.729 166.776 105.425C167.023 105.119 165.85 105.028 165.85 105.028Z" fill="#FECACA"/>
<path d="M172.237 94.7069C172.237 94.7069 170.675 93.746 170.02 93.894C169.364 94.0419 167.694 95.2496 168.497 95.5109C169.3 95.7722 169.951 95.498 170.261 95.6878C170.57 95.8776 170.798 96.2249 172.237 96.2201C173.677 96.2161 172.237 94.7069 172.237 94.7069Z" fill="#FECACA"/>
<path d="M49.3513 84.3877C49.0894 83.8836 55.0661 82.068 55.1604 87.0443C55.1604 87.0443 66.3566 86.7693 61.0106 80.5411C59.1602 78.3847 59.3503 76.6021 59.4059 74.9425C59.4623 73.283 58.2531 68.4595 54.1091 68.9451C54.1091 68.9451 53.024 68.5045 51.6698 69.2056C48.5892 70.8001 41.6901 86.2234 49.3513 84.3877Z" fill="#1F2937"/>
<path d="M67.6548 89.9516C67.6548 89.9516 68.3838 88.8445 68.9711 88.8227C69.5584 88.801 70.646 88.4971 70.559 88.7142C70.472 88.9313 69.7977 88.953 69.7324 89.0833C69.6672 89.2135 70.733 89.4089 71.0375 89.4306C71.342 89.4523 72.0598 89.4306 72.038 89.5826C72.0163 89.7345 70.7442 90.3641 69.8468 90.2773C68.9494 90.1904 67.8401 90.5378 67.8401 90.5378L67.6548 89.9516Z" fill="#FECACA"/>
<path d="M57.1167 90.3095C57.1167 90.3095 57.513 91.0926 58.2316 91.9916C59.0977 93.0738 60.4325 94.3249 62.1098 94.5718C62.9105 94.6899 63.6936 94.5179 64.4138 94.1987C64.4154 94.1979 64.4162 94.1979 64.4162 94.1979C66.4519 93.2957 67.9834 91.2213 67.9834 91.2213C68.3427 90.2444 67.7554 89.5818 67.7554 89.5818C67.7554 89.5818 63.6436 90.5049 63.2521 90.3095C62.8606 90.1141 60.5767 83.5466 60.033 82.7209C59.4884 81.8959 57.6355 81.4673 57.6355 81.4673L57.1167 90.3095Z" fill="#DC2626"/>
<path d="M58.2307 91.9924C59.0967 93.0746 60.4316 94.3257 62.1088 94.5726C62.9096 94.6908 63.6926 94.5187 64.4128 94.1995C64.3331 94.2099 62.2998 94.4608 61.4893 93.0135C60.6628 91.5365 59.7686 89.1919 58.5401 89.9734C58.0092 90.3103 58.0325 91.1481 58.2307 91.9924Z" fill="#D1D5DB"/>
<path d="M41.7765 134.605C41.7765 134.605 40.5222 135.748 40.7671 136.56C41.012 137.372 42.1438 137.913 42.2969 138.906C42.4499 139.898 43.0622 140.439 43.6124 140.439C44.1626 140.439 46.2387 140.439 46.2387 140.439C46.2387 140.439 46.6439 139.74 45.6651 139.53C44.6863 139.32 44.3165 138.154 44.3777 137.071C44.439 135.988 44.2859 134.544 44.2859 134.544L42.205 134.064L41.7765 134.605Z" fill="#1F2937"/>
<path d="M52.3948 135.09C52.3948 135.09 51.9436 139.931 52.4939 140.202L59.5428 140.187C59.5428 140.187 59.5428 139.375 58.411 139.195C57.2791 139.015 55.2901 138.353 54.9533 136.879C54.6166 135.406 52.3948 135.09 52.3948 135.09Z" fill="#1F2937"/>
<path d="M47.3712 100.361C48.8221 97.1142 49.7091 96.1823 49.5399 95.1748C49.4134 94.4246 49.9242 81.1908 49.9242 81.1908C50.0966 81.1377 50.4414 81.0903 50.6299 81.0484C51.2252 80.9166 51.7174 80.4993 51.9221 79.9268C52.1686 79.2369 52.3651 78.2174 52.3603 76.9406L52.5464 76.9767L55.6705 77.5942C55.6705 77.5942 55.5996 78.5752 55.5972 79.4998C55.5972 79.5079 55.5972 79.5151 55.5972 79.5232C55.5931 80.3264 56.1208 81.0348 56.8942 81.2575C57.2889 81.3709 57.6321 81.4682 57.6321 81.4682C57.6321 81.4682 58.7793 84.7374 58.9984 88.0951C59.2175 91.4537 56.9119 92.9122 59.0161 99.6228C61.163 106.477 46.5697 102.155 47.3712 100.361Z" fill="#FECACA"/>
<path d="M55.6715 77.5934C55.6715 77.5934 55.6006 78.5743 55.5981 79.499C53.85 79.45 52.926 77.8579 52.5474 76.9759L55.6715 77.5934Z" fill="#FCA5A5"/>
<path d="M56.2557 78.4691C56.2557 78.4691 52.1189 78.5374 52.1165 75.9653C52.1133 73.3939 51.5776 71.6709 54.2183 71.5181C56.8591 71.3661 57.373 72.3463 57.5833 73.205C57.7936 74.0637 57.3311 78.3855 56.2557 78.4691Z" fill="#FECACA"/>
<path d="M56.1023 71.4553C56.1023 71.4553 54.9696 74.4721 53.2319 74.9183C51.4943 75.3646 50.7402 74.8998 50.7402 74.8998C50.7402 74.8998 52.0735 73.8425 52.3498 71.998C52.3498 71.998 55.2475 70.0193 56.1023 71.4553Z" fill="#1F2937"/>
<path d="M55.8213 71.7004C55.8213 71.7004 56.6607 72.014 57.0071 72.6251C57.3455 73.2233 57.6331 74.0145 57.5662 74.9858C57.5662 74.9858 58.4193 72.9355 57.4607 71.7752C56.444 70.545 55.8213 71.7004 55.8213 71.7004Z" fill="#1F2937"/>
<path d="M55.3564 76.8739C55.3564 76.8739 55.6416 77.2485 56.2128 77.222C56.6728 77.2003 56.85 76.8023 56.85 76.8023C56.85 76.8023 56.0049 76.5989 55.3564 76.8739Z" fill="#EBF3FA"/>
<path d="M46.9738 87.0443C46.9738 87.0443 46.8691 88.5221 46.9738 90.2959C47.0439 91.4714 48.2354 93.0465 48.4045 93.4357C48.8291 94.4126 49.3068 94.5718 49.3068 94.5718L53.0077 95.4772L54.3087 95.7948L58.4124 94.5718C58.4124 94.5718 60.2814 89.3648 59.5314 86.434C58.7806 83.5033 57.6342 81.4674 57.6342 81.4674C57.6342 81.4674 54.2854 84.7399 49.9255 81.19L46.9738 87.0443Z" fill="#DC2626"/>
<path d="M48.0566 90.7758C48.1267 91.9513 48.2347 93.0464 48.4039 93.4356C48.8284 94.4125 49.3061 94.5717 49.3061 94.5717L53.007 95.4771L54.6142 95.0051C54.6142 95.0051 49.2481 94.1938 49.8426 89.5858L48.0566 90.7758Z" fill="#F2CCAA"/>
<path d="M58.1505 95.3622C58.1505 95.3622 60.183 101.676 60.3135 103.825C60.444 105.974 56.429 134.36 56.267 135.351C56.1148 136.284 54.9531 136.879 54.9531 136.879C54.9531 136.879 54.419 137.194 53.6561 136.979C52.5984 136.681 52.264 136.324 52.264 136.324C52.264 136.324 50.6827 116.079 51.6614 108.848C52.6402 101.616 52.6515 95.3622 52.6515 95.3622H58.1505Z" fill="#374151"/>
<path d="M49.5408 95.1741C49.5408 95.1741 46.4409 99.3254 46.1517 102.132C45.8625 104.938 45.6981 114.795 45.0827 117.531C44.4672 120.266 42.2051 125.531 42.2051 134.064C42.2051 134.064 42.4403 134.552 43.1662 134.813C43.3982 134.897 43.7091 134.977 44.0112 135.046C44.6098 135.183 45.2244 134.891 45.4975 134.342C47.0266 131.269 51.8988 121.356 52.1485 119.299C52.325 117.843 53.8636 108.206 57.219 102.551C58.0245 101.194 56.7243 95.7949 56.7243 95.7949L49.5408 95.1741Z" fill="#374151"/>
<path d="M55.4473 76.9422C55.4473 76.9422 55.519 77.2453 56.2738 77.1987C56.2738 77.1987 56.9078 77.1593 56.8885 76.8264C56.8885 76.8264 56.2738 76.59 55.4473 76.9422Z" fill="white"/>
<path d="M58.4757 94.3876C58.4757 94.3876 57.6597 95.0317 56.0388 95.0646C54.103 95.1032 49.3065 94.5718 49.3065 94.5718C49.3065 94.5718 49.093 95.166 49.1018 95.7939C49.1018 95.7939 54.9601 97.2685 58.3549 96.0094C58.3549 96.0094 58.7923 95.1869 58.4757 94.3876Z" fill="#374151"/>
<path d="M55.6201 95.7321C55.6201 95.1822 56.0165 94.7343 56.5031 94.7343C56.9904 94.7343 57.3868 95.1822 57.3868 95.7321C57.3868 96.2821 56.9904 96.73 56.5031 96.73C56.0165 96.73 55.6201 96.2821 55.6201 95.7321ZM55.9134 95.7321C55.9134 96.1213 56.1784 96.4381 56.5039 96.4381C56.8293 96.4381 57.0944 96.1213 57.0944 95.7321C57.0944 95.343 56.8293 95.0262 56.5039 95.0262C56.1784 95.0262 55.9134 95.343 55.9134 95.7321Z" fill="white"/>
<path d="M42.9966 95.5269L48.9995 100.744L56.1542 92.5426L50.1513 87.3257L42.9966 95.5269Z" fill="#F87171"/>
<path d="M50.6595 95.5486C50.6595 95.5486 52.8588 95.8051 52.8515 96.3262C52.8443 96.8472 52.3037 97.9174 52.0322 97.9648C51.7607 98.0123 50.2422 96.5175 50.2422 96.5175L50.6595 95.5486Z" fill="#FECACA"/>
<path d="M49.9249 81.19C49.9249 81.19 46.9885 81.3958 45.8631 84.1264C44.7377 86.857 42.6021 91.4425 42.6021 92.2135C42.6021 92.9846 43.7951 95.363 50.2012 96.7299C50.2012 96.7299 50.8642 96.0344 50.8239 95.4844C50.8239 95.4844 46.825 92.0559 46.8354 91.6555C46.8556 90.8973 47.4912 89.8971 51.002 86.3914C51.9574 85.4378 49.9249 81.19 49.9249 81.19Z" fill="#DC2626"/>
<path d="M82.3627 140.29H82.3345C82.1701 140.29 82.0388 140.155 82.0421 139.992L82.4851 120.822L83.7902 120.67L82.6769 139.993C82.668 140.16 82.5302 140.29 82.3627 140.29Z" fill="#9CA3AF"/>
<path d="M74.7562 140.29H74.728C74.5637 140.29 74.4324 140.155 74.4356 139.992L74.8787 120.822L76.1838 120.67L75.0704 139.993C75.0616 140.16 74.9238 140.29 74.7562 140.29Z" fill="#9CA3AF"/>
<path d="M95.7454 140.29H95.7736C95.9379 140.29 96.0692 140.155 96.066 139.992L95.6229 120.822L94.3179 120.67L95.4312 139.993C95.4401 140.16 95.5778 140.29 95.7454 140.29Z" fill="#9CA3AF"/>
<path d="M73.8916 119.634V106.498C73.8916 104.187 75.7686 102.313 78.0847 102.313H87.5666C89.8827 102.313 91.7597 104.187 91.7597 106.498V120.136L73.8916 119.634Z" fill="#9CA3AF"/>
<path d="M93.4587 121.708H75.1507C74.4555 121.708 73.8916 121.145 73.8916 120.451V119.634H93.4587V121.708Z" fill="#9CA3AF"/>
<path d="M95.6529 121.708H81.8024C81.2884 121.708 80.8711 121.292 80.8711 120.778V120.563C80.8711 120.05 81.2876 119.633 81.8024 119.633H95.6529C96.1669 119.633 96.5842 120.049 96.5842 120.563V120.778C96.5842 121.291 96.1677 121.708 95.6529 121.708Z" fill="#9CA3AF"/>
<path d="M95.1161 116.361C93.7578 118.721 92.0492 119.632 92.0492 119.632H84.9414C84.9414 119.631 96.1521 114.561 95.1161 116.361Z" fill="#374151"/>
<path d="M89.6559 134.618C89.4706 134.83 89.4472 135.066 89.5391 135.319C89.5391 135.319 89.5399 135.321 89.5407 135.322C89.7099 135.789 90.2706 136.312 90.9207 136.833C91.0037 136.899 91.0778 136.961 91.1422 137.017C91.1591 137.031 91.1761 137.047 91.1922 137.061C91.2051 137.072 91.2179 137.084 91.23 137.096C91.8366 137.654 91.6087 137.781 92.6986 138.914C93.9417 140.205 94.7972 140.228 95.0405 140.111C95.2467 140.01 94.8278 139.326 94.3646 138.557C94.342 138.52 94.3203 138.482 94.2969 138.444C94.2349 138.342 94.1737 138.238 94.1124 138.135C93.5695 137.209 93.7088 136.775 93.8377 135.397C93.9425 134.277 95.5835 129.141 95.5835 129.141L93.2021 128.732C93.2021 128.732 92.4851 132.821 91.6949 133.452C91.2719 133.787 90.799 133.792 90.393 134.04C90.364 134.057 90.3358 134.076 90.3084 134.093C90.0764 134.248 89.8412 134.405 89.6559 134.618Z" fill="#FECACA"/>
<path d="M89.6559 134.618C89.4706 134.83 89.4472 135.066 89.5391 135.319C89.5391 135.32 89.5399 135.321 89.5407 135.322C89.7485 135.789 90.2939 136.309 90.9231 136.828C91.0053 136.896 91.0778 136.959 91.1422 137.017C91.1591 137.031 91.1761 137.047 91.1922 137.061C91.2051 137.072 91.2179 137.084 91.23 137.096C91.8366 137.654 91.6087 137.782 92.6986 138.914C93.9417 140.205 94.7972 140.228 95.0405 140.111C95.2467 140.01 94.8278 139.326 94.3646 138.557C94.1229 138.468 92.9991 138.012 92.1492 136.928C91.4008 135.975 90.9021 134.75 90.3922 134.04C90.3632 134.057 90.335 134.076 90.3076 134.093C90.0764 134.248 89.8412 134.405 89.6559 134.618Z" fill="#374151"/>
<path d="M108.859 133.133C109.007 133.867 110.054 133.744 111.226 133.459C112.396 133.174 112.118 133.513 113.784 133.329C115.45 133.145 115.955 132.525 116.006 132.277C116.051 132.058 115.229 131.98 114.345 131.879C114.234 131.867 114.122 131.853 114.01 131.839C113.013 131.714 112.283 131.072 111.378 130.544C110.52 130.045 109.24 128.01 109.24 128.01L106.955 128.191C106.955 128.191 108.154 130.009 108.618 130.799C108.891 131.264 108.876 131.879 108.842 132.353C108.825 132.611 108.808 132.874 108.859 133.133Z" fill="#FECACA"/>
<path d="M111.225 133.459C112.396 133.174 112.118 133.513 113.784 133.329C115.45 133.145 115.955 132.525 116.005 132.277C116.051 132.058 115.228 131.98 114.344 131.879L114.336 131.896C114.336 131.896 113.337 132.603 111.95 132.637C110.82 132.664 109.623 132.341 108.842 132.353C108.824 132.612 108.807 132.875 108.86 133.133C109.006 133.867 110.055 133.745 111.225 133.459Z" fill="#374151"/>
<path d="M100.103 118.55L97.9668 124.287L95.1778 131.778C95.1778 131.778 94.4214 131.851 93.6963 131.643C93.0293 131.45 92.2632 130.946 92.2632 130.946C92.2632 130.946 93.0374 122.903 94.4818 118.286C94.8524 117.101 95.2672 116.143 95.7248 115.603C97.9652 112.962 100.103 118.55 100.103 118.55Z" fill="#374151"/>
<path d="M97.9313 109.439C96.532 108.988 92.5402 109.567 88.5308 110.35L87.6914 108.968L79.0312 108.292C79.0312 108.292 76.1738 114.618 77.7382 118.648C77.9678 119.24 78.4254 119.62 79.2036 119.633H79.3301C79.3301 119.633 84.4843 119.629 86.1583 119.629C90.465 119.629 95.2728 116.674 95.8955 116.551C96.9138 116.347 97.3206 118.38 98.3389 120.513C99.3572 122.647 107.909 129.963 107.909 129.963C107.909 129.963 109.222 129.976 109.765 129.772C110.349 129.554 110.563 129.27 110.563 129.27C110.563 129.27 101.088 110.455 97.9313 109.439Z" fill="#374151"/>
<path d="M87.351 83.7992C86.2417 83.2179 84.5531 83.1391 84.2792 83.1021C80.9972 82.6623 79.0227 87.4214 78.9059 88.8639C78.6916 91.5221 77.2826 91.9273 75.3001 93.5925C71.3236 96.9301 72.4901 100.809 74.6636 102.251C75.9679 103.115 78.2679 102.251 78.2679 102.251C78.3001 102.273 84.5564 98.7601 87.6402 97.0652C92.2635 96.4091 90.1778 85.281 87.351 83.7992Z" fill="#374151"/>
<path d="M85.0555 95.622C85.0692 95.6309 83.5386 96.1527 82.5147 95.7C81.552 95.2755 80.8221 93.6939 80.8366 93.6931C81.2749 93.673 81.7558 93.2911 82.1264 90.7825L82.3133 90.8492L85.4495 91.9757C85.4495 91.9757 85.2223 92.9799 85.0749 93.9368C84.9508 94.7392 84.8839 95.5087 85.0555 95.622Z" fill="#FECACA"/>
<path d="M85.4495 91.9757C85.4495 91.9757 85.2223 92.9799 85.0749 93.9367C83.2736 93.6127 82.5663 91.8213 82.3125 90.8492L85.4495 91.9757Z" fill="#FCA5A5"/>
<path d="M85.9161 92.9726C85.9161 92.9726 81.6247 92.3977 82.0243 89.7363C82.4239 87.0749 82.1395 85.2079 84.8963 85.462C87.653 85.716 88.0316 86.812 88.1146 87.7326C88.1976 88.6532 87.0424 93.0538 85.9161 92.9726Z" fill="#FECACA"/>
<path d="M87.9591 86.2732C87.9591 86.2732 85.212 88.6363 83.3439 88.8261C81.4757 89.0166 80.7676 88.4176 80.7676 88.4176C80.7676 88.4176 81.8688 87.505 82.5318 86.032C82.7268 85.5978 83.1401 85.3003 83.6154 85.2593C84.9494 85.1451 87.4782 85.0921 87.9591 86.2732Z" fill="#374151"/>
<path d="M86.2422 86.0617C86.2422 86.0617 87.1614 86.9486 87.4506 87.6063C87.7301 88.2407 87.8139 89.7595 87.5916 90.3626C87.5916 90.3626 89.0231 87.5838 88.2127 86.2338C87.3523 84.8018 86.2422 86.0617 86.2422 86.0617Z" fill="#374151"/>
<path d="M88.6694 101.931C88.5397 110.601 88.634 108.79 87.6834 109.612C87.4546 109.81 86.8109 109.928 85.9635 109.985C83.3002 110.161 78.6173 109.723 78.4392 109.232C77.8245 107.532 78.2588 107.004 77.7456 104.401C77.6924 104.125 77.6264 103.825 77.5482 103.498C77.1205 101.711 76.7048 101.102 78.2209 98.231C79.596 95.6299 81.0244 93.5185 81.1533 93.5948C84.7808 95.7441 85.0733 93.9374 85.0733 93.9374C85.0733 93.9374 88.7331 97.7027 88.6694 101.931Z" fill="#DC2626"/>
<path d="M97.9668 124.287L95.1778 131.778C95.1778 131.778 94.4214 131.851 93.6963 131.643C93.0293 131.45 92.2632 130.946 92.2632 130.946C92.2632 130.946 93.0374 122.903 94.4818 118.286L97.9668 124.287Z" fill="#374151"/>
<path d="M85.0747 93.9367C85.0747 93.9367 88.8078 94.5687 89.2461 96.1728C89.6843 97.7768 92.2638 107.208 92.2638 107.208C92.2638 107.208 90.3659 107.548 89.4894 106.673C88.6129 105.798 86.4386 98.5552 86.4386 98.5552L85.0747 93.9367Z" fill="#DC2626"/>
<path d="M85.964 109.985C83.3007 110.161 78.6178 109.723 78.4397 109.232C77.825 107.532 78.2593 107.004 77.7461 104.401L79.031 100.79C79.031 100.79 78.8183 104.812 80.0066 105.869C81.1932 106.926 84.8708 107.91 85.4484 108.794C85.7271 109.218 85.91 109.643 85.964 109.985Z" fill="#B91C1C"/>
<path d="M82.9111 108.293C82.9111 108.293 85.539 107.709 85.9627 107.942C86.3865 108.174 87.4233 109.022 87.553 109.317C87.6827 109.612 86.6088 109.093 86.26 109C86.0336 108.939 85.4383 109.145 85.1434 109.243C83.9028 109.656 83.1431 109.444 83.1431 109.444L82.9111 108.293Z" fill="#FECACA"/>
<path d="M81.1519 93.5925C81.1519 93.5925 77.6234 93.8096 76.4021 95.5094C74.683 97.903 71.2721 108.104 73.2265 109.464C75.4282 110.996 83.2457 109.865 83.2457 109.865C83.2457 109.865 83.5059 108.652 83.1442 108.064C82.7824 107.477 76.9 106.528 76.6285 106.257C76.357 105.986 80.0225 100.973 80.0225 100.16C80.0217 99.3487 81.1519 93.5925 81.1519 93.5925Z" fill="#DC2626"/>
<path d="M86.0913 108.673C86.0913 108.673 86.6415 109.382 86.8228 109.466C87.0033 109.551 87.1201 109.53 87.1201 109.53L86.7487 108.863L86.0913 108.673Z" fill="#FECACA"/>
<path d="M85.9639 107.943L87.5646 108.718C87.5646 108.718 87.4961 108.829 87.2995 108.821C87.1022 108.812 86.6051 108.63 86.6051 108.63L85.9639 107.943Z" fill="#FECACA"/>
<path d="M86.8218 110.552H99.4849L103.295 101.097H90.6508L86.8218 110.552Z" fill="#374151"/>
<path d="M99.6334 110.183H82.9116V110.552H99.4851L99.6334 110.183Z" fill="#1F2937"/>
<path d="M96.2882 105.825C96.3841 105.492 96.1915 105.223 95.858 105.223C95.5253 105.223 95.1781 105.492 95.0822 105.825C94.9864 106.157 95.1789 106.426 95.5124 106.426C95.8451 106.426 96.1931 106.157 96.2882 105.825Z" fill="#DC2626"/>
<path d="M152.962 140.64H152.999C153.215 140.64 153.39 140.451 153.385 140.222L152.8 113.382L151.073 113.169L152.545 140.223C152.558 140.457 152.741 140.64 152.962 140.64Z" fill="#9CA3AF"/>
<path d="M82.9766 140.64H82.9395C82.7228 140.64 82.548 140.451 82.5528 140.222L83.1385 113.382L84.8649 113.169L83.3931 140.223C83.3802 140.457 83.1973 140.64 82.9766 140.64Z" fill="#9CA3AF"/>
<path d="M155.041 113.876H81.1879C80.5829 113.876 80.0923 113.387 80.0923 112.783V111.73C80.0923 111.126 80.5829 110.637 81.1879 110.637H155.041C155.646 110.637 156.136 111.126 156.136 111.73V112.783C156.136 113.387 155.646 113.876 155.041 113.876Z" fill="#9CA3AF"/>
<path d="M65.0917 64.6386C64.813 57.7471 70.6004 54.6853 76.5175 54.6853C82.4345 54.6853 88.8745 56.2154 89.4327 65.3792C89.792 71.2745 86.643 74.9015 77.576 74.9015C74.518 74.9015 72.1415 74.4199 70.3216 73.562L65.7894 77.5814L68.0168 72.0254C66.0431 70.1946 65.2117 67.6128 65.0917 64.6386Z" fill="#D1D5DB"/>
<path d="M199.586 140.61C199.586 140.61 199.753 139.316 200.138 138.546C200.524 137.777 202.978 138.266 202.978 138.266C202.978 138.266 203.469 138.686 203.574 140.645L199.586 140.61Z" fill="#374151"/>
<path d="M191.225 140.593C191.802 140.242 191.473 137.621 191.473 137.621C191.473 137.621 188.786 135.476 188.417 137.119C188.047 138.762 185.865 139.499 184.622 139.7C183.764 139.839 183.499 140.313 183.416 140.593H191.225Z" fill="#374151"/>
<path d="M196.79 121.534C196.681 122.135 196.612 122.629 196.593 122.982C196.343 127.845 192.492 138.963 191.803 139.222C190.737 139.624 189.058 138.77 188.18 138.491C187.816 138.376 187.57 138.009 187.652 137.638C189.559 128.886 190.26 116.285 190.515 108.825C190.644 105.067 191.29 102.472 191.29 102.472C191.29 102.472 200.683 99.9702 200.739 103.134C200.789 105.934 197.628 116.915 196.79 121.534Z" fill="#374151"/>
<path d="M196.79 121.534L190.516 108.824C190.645 105.066 191.291 102.471 191.291 102.471C191.291 102.471 200.684 99.9693 200.739 103.133C200.789 105.934 197.628 116.915 196.79 121.534Z" fill="#374151"/>
<path d="M194.701 103.144L199.666 139.065C199.666 139.065 201.847 139.59 203.543 139.17C203.543 139.17 204.997 120.067 204.875 115.448C204.755 110.83 205.919 103.09 204.609 102.236C203.3 101.382 194.701 103.144 194.701 103.144Z" fill="#374151"/>
<path d="M205.577 102.546C205.601 102.871 205.393 103.166 205.08 103.257C204.387 103.458 203.589 103.597 202.049 103.916C200.602 104.216 198.655 104.481 196.264 104.495C192.461 104.519 191.021 103.211 191.021 103.211C190.857 103.214 191.107 102.42 191.333 98.6418C191.409 97.3618 191.482 95.74 191.536 93.6897C191.584 91.8452 191.616 89.6533 191.619 87.0539C191.623 83.9261 196.474 80.562 196.563 80.562L196.564 80.5636C196.564 81.0138 197.275 81.8452 198.37 81.9168C199.671 82.002 201.265 81.3555 201.265 80.6086C201.265 80.6014 203.615 84.3603 204.449 88.3661C204.871 90.3826 204.701 90.3279 205.577 102.546Z" fill="#DC2626"/>
<path d="M196.563 80.5619C196.563 80.5619 192.054 80.5233 190.968 82.043C189.882 83.5626 187.503 91.7358 188.744 94.4551C189.986 97.1744 192.31 93.3302 193.6 91.6642C194.889 89.9991 196.563 80.5619 196.563 80.5619Z" fill="#DC2626"/>
<path d="M196.517 79.8753L196.52 80.3409C196.52 80.3409 196.393 81.7962 198.188 82.0085C199.984 82.2216 201.316 81.7367 201.267 80.6135C201.105 79.7443 200.955 78.851 200.943 78.1314C200.939 77.8636 200.957 77.5806 201.007 77.2598L197.528 77.1906L196.503 77.3579L196.517 79.8753Z" fill="#FECACA"/>
<path d="M196.504 77.3579L196.518 79.8753C196.887 80.0466 197.304 80.1511 197.772 80.1511C199.371 80.1511 200.405 78.9812 200.944 78.1314C200.94 77.8636 200.958 77.5806 201.008 77.2598L197.529 77.1906L196.504 77.3579Z" fill="#FCA5A5"/>
<path d="M201.275 76.7017C200.871 78.8702 198.068 78.7986 196.857 78.6628C196.516 78.625 196.302 78.5815 196.302 78.5815C195.918 78.4794 195.703 77.8748 195.604 77.0836C195.405 75.5173 195.656 73.2177 195.921 72.6292C196.32 71.7439 197.071 70.7871 199.895 71.4778C202.717 72.1684 201.792 73.9237 201.275 76.7017Z" fill="#FECACA"/>
<path d="M191.952 86.6535C191.952 86.6535 190.208 90.4985 190.258 91.6507C190.258 91.6507 191.122 91.6209 191.952 91.8678C193.316 92.2738 191.952 86.6535 191.952 86.6535Z" fill="#B91C1C"/>
<path d="M195.053 70.5644C195.053 70.5644 196.295 70.4688 197.761 69.8327C198.95 69.3165 200.451 69.885 200.939 70.1415C200.926 70.0635 200.894 69.9566 200.82 69.8488C200.82 69.8488 201.039 70.0032 201.072 70.2203C201.094 70.2372 201.104 70.2484 201.098 70.2525C201.098 70.2525 201.346 70.2074 201.506 70.279C201.506 70.279 201.395 70.2629 201.354 70.3345C201.35 70.3417 201.344 70.3481 201.337 70.3546C203.192 71.2495 203.363 74.1762 202.767 74.8532C202.048 75.6677 200.964 77.5114 200.964 77.5114C200.964 77.5114 200.873 77.0692 201.004 76.352C201.134 75.6348 200.514 75.6348 199.73 75.3091C198.946 74.9835 199.6 74.0709 198.914 73.5169C198.229 72.9629 195.714 73.2886 195.747 72.8648C194.811 72.5255 195.053 70.6601 195.053 70.5644Z" fill="#374151"/>
<path d="M201.843 93.8554C201.106 96.8063 193.143 98.3315 191.333 98.6419C191.41 97.3619 191.483 95.7401 191.536 93.6898L201.843 93.8554Z" fill="#B91C1C"/>
<path d="M200.095 94.8146C200.17 94.8146 201.865 94.5622 202.168 94.411C202.471 94.2598 203.86 92.2907 202.95 91.7858C202.042 91.2808 199.602 93.2998 199.602 93.2998L200.095 94.8146Z" fill="#FECACA"/>
<path d="M189.789 95.3999C189.789 95.3999 196.342 95.7545 200.74 94.8146C200.74 94.8146 200.851 93.5466 199.469 92.983C199.469 92.983 192.615 91.5332 190.967 91.9369C189.322 92.3413 189.789 95.3999 189.789 95.3999Z" fill="#DC2626"/>
<path d="M204.838 90.2668C203.479 91.9039 201.701 93.2394 199.741 93.553L199.74 93.5522C199.724 93.5273 199.146 92.6533 199.255 91.3676C199.305 90.7726 199.501 90.0899 199.969 89.3623C200.112 89.1387 200.24 88.8774 200.354 88.5872C201.424 85.8614 201.265 80.6086 201.265 80.6086C201.265 80.6086 205.81 81.0838 207.226 83.1027C208.094 84.3394 206.988 87.6794 204.838 90.2668Z" fill="#DC2626"/>
<path d="M196.856 78.662C196.515 78.6242 196.301 78.5808 196.301 78.5808C195.917 78.4786 195.702 77.874 195.603 77.0828C196.324 77.2597 196.654 77.8161 196.791 78.0525C196.853 78.1586 196.866 78.3974 196.856 78.662Z" fill="#FCA5A5"/>
<path d="M195.025 79.8889C195.025 79.8889 193.455 77.3039 194.676 77.1913C195.896 77.0788 196.387 77.9037 196.564 78.206C196.74 78.5084 196.518 79.8752 196.518 79.8752L195.025 79.8889Z" fill="#FECACA"/>
<path d="M201.009 91.2807C200.96 91.6087 200.863 91.9095 200.741 92.178C200.358 93.0279 199.742 93.5521 199.742 93.5521L199.741 93.5513C195.664 91.7149 194.839 85.4079 194.701 81.9425C194.645 80.5498 194.701 79.6155 194.701 79.6155C196.54 79.0077 197.057 80.0642 197.057 80.0642C197.057 80.0642 199.228 85.2181 200.355 88.5863C200.786 89.876 201.064 90.9036 201.009 91.2807Z" fill="#DC2626"/>
<path d="M204.839 90.2668C203.479 91.9039 201.701 93.2394 199.741 93.553L199.74 93.5522C195.663 91.7157 194.838 85.4088 194.7 81.9433C194.7 81.9433 196.63 88.9265 199.255 91.3676C199.73 91.809 200.227 92.1025 200.74 92.1781C200.74 92.1781 204.051 91.2438 204.745 90.3649C204.795 90.3022 204.826 90.2709 204.839 90.2668Z" fill="#B91C1C"/>
<path d="M130.586 110.638H117.922L114.113 101.183H126.757L130.586 110.638Z" fill="#374151"/>
<path d="M117.774 110.269H134.495V110.638H117.923L117.774 110.269Z" fill="#374151"/>
<path d="M121.119 105.91C121.023 105.578 121.216 105.309 121.55 105.309C121.882 105.309 122.229 105.578 122.325 105.91C122.421 106.242 122.228 106.512 121.895 106.512C121.562 106.513 121.214 106.243 121.119 105.91Z" fill="white"/>
<path d="M233.312 140.4V140.481C233.312 140.609 233.192 140.715 233.047 140.715H0.755617C0.61061 140.715 0.492188 140.609 0.492188 140.481V140.4C0.492188 140.271 0.611416 140.166 0.755617 140.166H233.047C233.192 140.166 233.312 140.271 233.312 140.4Z" fill="#6B7280"/>
</svg>
