<svg width="62" height="125" viewBox="0 0 62 125" fill="none" xmlns="http://www.w3.org/2000/svg">
<path d="M27.4441 124.766C27.4441 124.766 26.685 124.943 25.2456 124.707C24.5259 124.598 23.6485 124.401 22.6528 124.036C21.657 123.672 20.5331 123.139 19.4585 122.262C18.9459 121.808 18.4234 121.236 18.1473 120.497C17.8811 119.758 17.8318 118.939 17.7825 118.111C17.7431 117.273 17.7529 116.406 17.6149 115.528C17.4868 114.651 17.1417 113.783 16.6488 112.955C15.7122 111.299 14.1643 109.721 13.6714 107.464C13.139 105.246 13.5433 102.86 13.9277 100.464C14.3122 98.0683 14.6868 95.4557 13.7798 92.9516C12.932 90.4475 11.1968 88.18 10.3391 85.3604C9.48142 82.5112 9.90536 79.4549 9.73776 76.4283C9.65889 74.91 9.37298 73.3918 8.7223 71.982C8.08148 70.5623 7.19419 69.2215 6.50408 67.7328C5.10413 64.716 4.86752 61.3049 4.50274 57.9529C4.32529 56.267 4.13795 54.5615 3.96049 52.846C3.78303 51.1208 3.63516 49.3955 3.10278 47.7293C2.6197 46.0533 1.91972 44.4266 1.21975 42.7704C0.874692 41.9422 0.519782 41.1042 0.302889 40.1775C0.155007 39.2311 0.115572 38.3536 0.0564192 37.4269C-0.0224511 35.5932 0.066278 33.7397 0.302889 31.8961C0.529641 30.0525 0.874707 28.2286 1.08174 26.3752C1.0916 26.2667 1.1113 26.1583 1.12116 26.0597L1.1606 25.6949L1.48593 25.8625C3.1915 26.7301 4.65062 28.0118 5.76467 29.5201C6.89843 31.0187 7.72656 32.6947 8.37724 34.4101C9.68846 37.8508 10.1518 41.4493 10.8025 44.89C11.4433 48.3307 12.2912 51.7123 14.0263 54.5713C14.8939 56.0009 15.9488 57.3022 16.8656 58.7022C17.7825 60.0824 18.591 61.6007 18.8276 63.2668C19.2811 66.6484 17.398 69.606 17.7727 72.6031C17.9008 74.0918 18.4825 75.4818 19.2022 76.7635C19.9219 78.0451 20.7697 79.238 21.5683 80.431C22.3669 81.6239 23.1358 82.8365 23.6879 84.128C24.2598 85.4195 24.5654 86.7899 24.6442 88.1405C24.8217 90.832 24.4274 93.3953 24.6147 95.8008C24.7626 98.2162 25.6005 100.415 26.547 102.377C27.5033 104.348 28.568 106.133 29.4553 107.858C29.899 108.726 30.313 109.564 30.6482 110.412C31.0032 111.259 31.1806 112.117 31.3384 112.945C31.5947 114.602 31.5553 116.149 31.3679 117.51C31.0032 120.241 29.968 122.213 29.0511 123.317C28.8342 123.612 28.5976 123.819 28.4004 124.017C28.2131 124.214 28.0258 124.352 27.8779 124.46C27.6117 124.667 27.4441 124.766 27.4441 124.766C27.4047 124.727 28.1047 124.362 29.0018 123.248C29.8891 122.134 30.875 120.191 31.2003 117.48C31.3679 116.139 31.3877 114.611 31.1215 112.985C30.9539 112.176 30.7863 111.328 30.4314 110.51C30.0962 109.682 29.6821 108.844 29.2286 107.986C28.3314 106.271 27.2568 104.496 26.2808 102.515C25.3146 100.543 24.4471 98.3049 24.2795 95.8205C24.0823 93.3558 24.4668 90.7925 24.2795 88.1602C24.1907 86.8392 23.895 85.5279 23.3429 84.2857C22.8006 83.0336 22.0415 81.8506 21.243 80.6577C20.4444 79.4746 19.5867 78.2817 18.8473 76.9705C18.1079 75.6692 17.4868 74.2199 17.3487 72.6425C16.984 69.4482 18.8473 66.4709 18.3839 63.3259C18.1572 61.7683 17.398 60.319 16.491 58.9585C15.584 57.5881 14.5291 56.2868 13.632 54.8178C11.8278 51.87 10.9701 48.4195 10.3293 44.9689C9.66872 41.5084 9.20538 37.9494 7.91388 34.5777C7.27306 32.9017 6.46462 31.2651 5.37029 29.8159C4.28582 28.3667 2.89576 27.1343 1.26906 26.316L1.63383 26.1189C1.62397 26.2174 1.60425 26.3259 1.59439 26.4442C1.38735 28.3174 1.04229 30.1413 0.815535 31.9651C0.578924 33.789 0.500054 35.603 0.569066 37.4072C0.618359 38.2945 0.667664 39.231 0.795829 40.0789C0.983146 40.9169 1.33806 41.7549 1.68311 42.5732C2.37323 44.2196 3.09291 45.866 3.58585 47.5815C4.12809 49.287 4.27597 51.0715 4.45343 52.777C4.63089 54.5023 4.81822 56.2079 4.99568 57.8937C5.36046 61.2556 5.58721 64.6174 6.93787 67.5258C7.60826 68.975 8.49555 70.3158 9.14623 71.7848C9.82648 73.2439 10.1222 74.8509 10.1913 76.3888C10.349 79.4746 9.92507 82.4816 10.7532 85.2223C11.5616 87.9433 13.2968 90.2207 14.1643 92.8037C15.0911 95.4163 14.6869 98.1077 14.2925 100.494C13.8883 102.899 13.4939 105.236 13.9967 107.365C14.4502 109.514 15.9586 111.072 16.9051 112.787C17.398 113.635 17.7529 114.552 17.8811 115.469C18.0191 116.376 17.9994 117.254 18.0388 118.082C18.0783 118.91 18.1177 119.708 18.3642 120.408C18.6107 121.098 19.0938 121.651 19.5965 122.094C20.6317 122.962 21.7457 123.494 22.7218 123.879C23.6978 124.253 24.5752 124.46 25.2752 124.588C25.985 124.717 26.5273 124.746 26.9019 124.756C27.2568 124.756 27.4441 124.766 27.4441 124.766Z" fill="#263238"/>
<path d="M2.72847 30.4765C2.73833 30.4765 2.75807 30.5554 2.80736 30.723C2.85665 30.9103 2.90593 31.147 2.97494 31.4427C3.13268 32.0737 3.31016 33.0201 3.60592 34.213C3.91154 35.3961 4.63124 36.7467 5.24248 38.3932C5.87345 40.0297 6.52411 41.9325 7.10578 44.0718C7.70717 46.2013 8.22969 48.5773 8.78179 51.111C9.35359 53.6447 9.91553 56.3657 11.2958 58.929C11.9464 60.2304 12.676 61.5515 13.2478 62.9909C13.8393 64.4302 14.1548 66.0076 14.3717 67.5851C14.7365 70.7497 15.2984 73.9735 16.0378 77.2664C17.6054 83.8225 19.0941 90.0729 20.4546 95.7615C21.8447 101.43 23.0967 106.537 24.1516 110.845C25.1769 115.114 26.0149 118.575 26.6065 121.02C26.8825 122.193 27.0895 123.12 27.2473 123.79C27.3064 124.086 27.3557 124.322 27.405 124.51C27.4346 124.677 27.4445 124.756 27.4445 124.756C27.4346 124.756 27.405 124.677 27.3557 124.52C27.3064 124.332 27.2374 124.096 27.1487 123.81C26.9713 123.139 26.7248 122.222 26.4093 121.059C25.7783 118.624 24.891 115.173 23.7967 110.924C22.7122 106.626 21.4207 101.529 19.9912 95.8699C18.6209 90.1814 17.1124 83.9309 15.535 77.3748C14.7956 74.082 14.2238 70.8089 13.8689 67.654C13.652 66.0865 13.3563 64.5683 12.7845 63.1683C12.2324 61.7684 11.5127 60.4571 10.862 59.1361C9.47189 56.5235 8.90007 53.7236 8.35783 51.1997C7.82546 48.6561 7.32269 46.2901 6.75088 44.1606C6.18893 42.0311 5.56782 40.1283 4.96644 38.4917C4.38477 36.8453 3.69464 35.4848 3.40873 34.2623C3.14255 33.0398 2.99468 32.1032 2.86651 31.4624C2.81722 31.1667 2.77779 30.9301 2.74821 30.7329C2.72849 30.5653 2.71861 30.4765 2.72847 30.4765Z" fill="#263238"/>
<path d="M26.0341 124.786C20.8286 121.651 19.3892 112.226 21.5976 106.567C23.806 100.908 27.6509 95.7516 28.272 89.7081C28.7452 85.0646 27.2565 80.2831 28.3607 75.7579C29.8593 69.6356 35.8633 64.9231 35.8337 58.6234C35.814 55.0841 33.8225 51.7518 34 48.2223C34.2168 43.8943 37.5688 40.4733 39.6491 36.6678C42.8334 30.8413 43.0799 23.9401 44.1939 17.4038C45.308 10.8575 47.8417 3.86765 53.6683 0.673401C54.4964 6.23376 55.9358 10.0491 55.433 17.5812C55.2555 20.2825 52.081 25.4485 51.6176 31.3737C51.3416 34.913 51.1444 38.4622 50.9078 42.0113C50.681 45.4619 50.4346 48.9716 49.1825 52.1954C48.2163 54.6601 46.6882 56.8981 45.9685 59.4515C44.6179 64.2528 46.3235 69.4582 45.2291 74.3284C44.3024 78.4494 41.4236 81.9789 40.8223 86.159C39.9744 92.0348 43.7404 98.1571 41.7588 103.747C40.7729 106.527 38.4758 108.745 37.8153 111.614C37.3026 113.842 37.835 116.199 37.3618 118.437C36.6027 122.035 29.7114 124.796 26.0439 124.559" fill="#EF4444"/>
<path d="M52.1998 6.19438C52.2097 6.19438 52.1999 6.30284 52.1801 6.50987C52.1506 6.74648 52.1111 7.04224 52.0618 7.42673C51.9337 8.22529 51.7956 9.40835 51.5196 10.9266C51.2238 12.4547 50.4154 14.18 49.7746 16.2602C49.0943 18.3305 48.4239 20.7164 47.8225 23.398C47.2113 26.0697 46.6987 29.0372 46.1564 32.2216C45.5945 35.3863 45.0226 38.8861 43.4255 42.1888C42.6861 43.855 41.8481 45.5211 41.227 47.2957C40.5862 49.0604 40.2806 50.973 40.0932 52.925C39.7975 56.8587 39.2553 60.9501 38.4961 65.0711C36.8497 73.3032 35.2822 81.131 33.8526 88.2688C32.3541 95.377 31.0035 101.775 29.8598 107.158C28.7064 112.512 27.7796 116.849 27.1289 119.886C26.8036 121.365 26.5473 122.518 26.36 123.337C26.2712 123.711 26.2022 124.007 26.1431 124.234C26.0938 124.431 26.0642 124.539 26.0543 124.539C26.0445 124.539 26.0543 124.431 26.0938 124.224C26.1332 123.997 26.1924 123.691 26.2614 123.317C26.4191 122.489 26.6459 121.325 26.9318 119.847C27.543 116.8 28.4204 112.452 29.5049 107.089C30.6091 101.696 31.9302 95.2883 33.3893 88.1702C34.7991 81.0423 36.3568 73.2046 37.9835 64.9824C38.7426 60.8515 39.2848 56.8193 39.5905 52.8758C39.7876 50.904 40.0933 48.9421 40.7637 47.1281C41.4045 45.3141 42.2523 43.6381 42.9917 41.9916C44.579 38.7284 45.1508 35.3173 45.7325 32.1427C46.2944 28.9583 46.8268 25.9908 47.4676 23.3093C48.0986 20.6277 48.7986 18.232 49.5084 16.1616C50.1788 14.0814 51.007 12.3758 51.3323 10.8773C51.6379 9.37877 51.8154 8.19572 51.9731 7.39716C52.0421 7.02252 52.1013 6.72676 52.1506 6.49015C52.1604 6.29297 52.19 6.19438 52.1998 6.19438Z" fill="#263238"/>
<path d="M34.1214 106.103C33.4609 103.471 35.196 100.849 37.1382 98.9558C39.0804 97.0629 41.3972 95.3672 42.4127 92.8532C44.0591 88.7815 41.9099 83.4874 44.6999 80.1058C46.3463 78.1143 49.2744 77.4636 50.7335 75.3243C51.5025 74.2102 51.7489 72.83 52.0546 71.5089C53.6122 64.7754 57.0234 58.4855 61.8148 53.4969C62.1105 59.5009 60.75 65.5838 57.9304 70.8878C56.7966 73.0173 55.4065 75.0975 55.0122 77.4833C54.3812 81.3579 56.5304 85.3605 55.5544 89.166C54.4404 93.5137 49.5307 96.4024 49.2744 100.878C49.0575 104.664 52.3404 108.016 52.0743 111.802C51.956 113.409 51.2067 114.907 50.3588 116.288C47.4012 121.138 43.0732 124.47 36.5565 124.322L28.561 124.559L34.1214 106.103Z" fill="#EF4444"/>
<path d="M57.3779 62.3526C57.3823 62.3529 57.3748 62.4003 57.36 62.4909C57.3398 62.5941 57.3136 62.7231 57.2804 62.8909C57.1997 63.2386 57.1036 63.7552 56.9356 64.4153C56.7584 65.0792 56.3442 65.8148 55.9955 66.7116C55.6293 67.6028 55.2585 68.6332 54.9104 69.7958C54.5582 70.9537 54.242 72.2447 53.9063 73.6303C53.5622 75.0067 53.2041 76.5302 52.3888 77.937C52.0074 78.6486 51.5815 79.3573 51.2504 80.1202C50.9107 80.8781 50.7181 81.7109 50.5778 82.5645C50.3319 84.287 49.9703 86.0718 49.5099 87.8633C48.5315 91.438 47.6003 94.8372 46.7511 97.9368C45.8715 101.021 45.0791 103.798 44.409 106.133C43.7354 108.455 43.1932 110.337 42.8127 111.655C42.6236 112.296 42.4749 112.796 42.367 113.151C42.3162 113.313 42.2766 113.441 42.2434 113.539C42.2156 113.625 42.1991 113.672 42.1947 113.671C42.1902 113.671 42.1978 113.624 42.2215 113.534C42.2458 113.435 42.2812 113.302 42.323 113.139C42.4179 112.779 42.5535 112.274 42.7248 111.632C43.0878 110.309 43.608 108.421 44.2508 106.092C44.9033 103.751 45.6827 100.97 46.5447 97.8798C47.3847 94.784 48.3118 91.3802 49.281 87.8092C49.7417 86.0134 50.1016 84.2547 50.3523 82.5281C50.4976 81.666 50.6916 80.8116 51.0461 80.0328C51.3872 79.2532 51.8178 78.5404 52.1986 77.8375C53.0083 76.4478 53.3639 74.9633 53.7171 73.5832C54.0618 72.1982 54.3869 70.9078 54.7528 69.7464C55.1142 68.5846 55.4986 67.5508 55.8782 66.6604C56.2402 65.7645 56.6628 65.0382 56.8525 64.3882C57.0332 63.7376 57.1471 63.2221 57.2411 62.8753C57.283 62.7124 57.3182 62.584 57.3472 62.4813C57.3572 62.3948 57.3734 62.3523 57.3779 62.3526Z" fill="#263238"/>
</svg>
