<svg width="115" height="95" viewBox="0 0 115 95" fill="none" xmlns="http://www.w3.org/2000/svg">
<path d="M102.541 42.8793C102.462 42.8793 102.401 42.8178 102.401 42.7396V18.192C102.401 18.1138 102.462 18.0523 102.541 18.0523C102.619 18.0523 102.68 18.1138 102.68 18.192V42.7396C102.68 42.8151 102.619 42.8793 102.541 42.8793Z" fill="#EBF6FF"/>
<path d="M7.51273 63.038C7.43451 63.038 7.37305 62.9765 7.37305 62.8983V24.3043C7.37305 24.2261 7.43451 24.1646 7.51273 24.1646H23.2157C23.2939 24.1646 23.3554 24.2261 23.3554 24.3043C23.3554 24.3825 23.2939 24.444 23.2157 24.444H7.65241V62.8983C7.65241 62.9737 7.59095 63.038 7.51273 63.038Z" fill="#EBF6FF"/>
<path d="M89.2735 58.1157H12.6639C11.5939 58.1157 10.7251 57.2469 10.7251 56.1769V2.27667C10.7251 1.20671 11.5939 0.337891 12.6639 0.337891H89.2735C90.3435 0.337891 91.2123 1.20671 91.2123 2.27667V56.1769C91.2123 57.2497 90.3435 58.1157 89.2735 58.1157Z" fill="#EBF6FF"/>
<path d="M39.2037 85.2363H2.28595C1.21599 85.2363 0.347168 84.3675 0.347168 83.2975V63.2923C0.347168 62.2224 1.21599 61.3535 2.28595 61.3535H39.2065C40.2765 61.3535 41.1453 62.2224 41.1453 63.2923V83.2975C41.1425 84.3702 40.2737 85.2363 39.2037 85.2363Z" fill="#D1D5DB"/>
<path d="M91.2123 4.68757H10.7251V2.27667C10.7251 1.20671 11.5939 0.337891 12.6639 0.337891H89.2735C90.3435 0.337891 91.2123 1.20671 91.2123 2.27667V4.68757Z" fill="#9CA3AF"/>
<path d="M14.9609 2.51416C14.9609 3.03098 14.5418 3.44723 14.0278 3.44723C13.511 3.44723 13.0947 3.02818 13.0947 2.51416C13.0947 1.99734 13.5138 1.58109 14.0278 1.58109C14.5418 1.58109 14.9609 1.99734 14.9609 2.51416Z" fill="white"/>
<path d="M18.1064 2.51416C18.1064 3.03098 17.6873 3.44723 17.1733 3.44723C16.6565 3.44723 16.2402 3.02818 16.2402 2.51416C16.2402 1.99734 16.6593 1.58109 17.1733 1.58109C17.6873 1.58109 18.1064 1.99734 18.1064 2.51416Z" fill="white"/>
<path d="M21.249 2.51416C21.249 3.03098 20.8299 3.44723 20.3159 3.44723C19.7991 3.44723 19.3828 3.02818 19.3828 2.51416C19.3828 1.99734 19.8019 1.58109 20.3159 1.58109C20.8327 1.58109 21.249 1.99734 21.249 2.51416Z" fill="white"/>
<path d="M25.4063 16.4767H18.7407V52.7883H25.4063V16.4767Z" fill="#FCA5A5"/>
<path d="M36.8511 23.0445H30.1855V52.7882H36.8511V23.0445Z" fill="#9CA3AF"/>
<path d="M48.294 26.2348H41.6284V52.7883H48.294V26.2348Z" fill="#FCA5A5"/>
<path d="M59.7398 28.5843H53.0742V52.7855H59.7398V28.5843Z" fill="#9CA3AF"/>
<path d="M71.1827 23.525H64.5171V52.7882H71.1827V23.525Z" fill="#9CA3AF"/>
<path d="M82.628 14.2949H75.9624V52.7883H82.628V14.2949Z" fill="#FCA5A5"/>
<path d="M84.5535 52.9279H16.6543C16.5761 52.9279 16.5146 52.8665 16.5146 52.7882V10.5961C16.5146 10.5179 16.5761 10.4564 16.6543 10.4564C16.7326 10.4564 16.794 10.5179 16.794 10.5961V52.6485H84.5535C84.6317 52.6485 84.6931 52.71 84.6931 52.7882C84.6931 52.8637 84.6317 52.9279 84.5535 52.9279Z" fill="#374151"/>
<path d="M17.5839 10.5792C17.5364 10.5792 17.4889 10.5541 17.4637 10.5094L16.6536 9.09583L15.8322 10.5094C15.7931 10.5765 15.7093 10.5988 15.6423 10.5597C15.5752 10.5206 15.5529 10.4368 15.592 10.3697L16.5362 8.74663C16.5614 8.70472 16.6061 8.67679 16.6564 8.67679C16.7011 8.67679 16.7514 8.70472 16.7765 8.74663L17.7068 10.3697C17.7459 10.4368 17.7207 10.5206 17.6565 10.5597C17.6313 10.5737 17.609 10.5792 17.5839 10.5792Z" fill="#374151"/>
<path d="M84.9289 53.8637C84.8814 53.8637 84.8339 53.8386 84.8088 53.7939C84.7697 53.7268 84.7948 53.6402 84.8591 53.6039L86.2727 52.7937L84.8591 51.9724C84.792 51.9333 84.7697 51.8467 84.8088 51.7825C84.8479 51.7154 84.9345 51.6931 84.9988 51.7322L86.6219 52.6764C86.6638 52.7016 86.6917 52.7463 86.6917 52.7965C86.6917 52.8468 86.6638 52.8915 86.6219 52.9167L84.9988 53.8469C84.9764 53.8581 84.9513 53.8637 84.9289 53.8637Z" fill="#374151"/>
<path d="M52.2588 26.2153C49.5741 26.2153 47.1185 25.9331 45.0875 25.5755C31.5496 23.2009 19.4085 12.194 19.2884 12.0823C19.2325 12.0292 19.2269 11.9426 19.28 11.8839C19.3331 11.8281 19.4197 11.8225 19.4783 11.8756C19.5985 11.9873 31.6809 22.9383 45.1378 25.2989C52.5381 26.598 70.6436 27.5841 78.8988 8.75787C78.9295 8.68803 79.0133 8.65451 79.0832 8.68524C79.153 8.71597 79.1866 8.79977 79.1558 8.86961C75.8845 16.3286 70.761 21.4661 63.9222 24.1396C59.944 25.6984 55.8933 26.2153 52.2588 26.2153Z" fill="#374151"/>
<path d="M79.86 9.21033C79.7846 9.21033 79.7231 9.15166 79.7203 9.07624L79.6449 7.44755L78.2676 8.33034C78.2034 8.37224 78.1168 8.35269 78.0749 8.28843C78.033 8.22418 78.0525 8.13758 78.1168 8.09567L79.698 7.08158C79.7399 7.05365 79.793 7.05365 79.8377 7.076C79.8824 7.09835 79.9103 7.14304 79.9131 7.19333L79.9997 9.06227C80.0025 9.14049 79.9438 9.20474 79.8656 9.20753C79.8628 9.21033 79.86 9.21033 79.86 9.21033Z" fill="#374151"/>
<path d="M112.067 30.7214H85.5355C84.4655 30.7214 83.5967 29.8526 83.5967 28.7827V10.0737C83.5967 9.00377 84.4655 8.13495 85.5355 8.13495H112.067C113.136 8.13495 114.005 9.00377 114.005 10.0737V28.7827C114.005 29.8526 113.136 30.7214 112.067 30.7214Z" fill="#E5E7EB"/>
<path d="M106.326 16.0996C107.32 18.3457 107.225 20.7957 106.273 22.8658L98.7999 19.4296L93.478 13.1607C94.0647 12.6578 94.7324 12.236 95.4727 11.9092C99.6268 10.0682 104.488 11.9455 106.326 16.0996Z" fill="white"/>
<path d="M106.273 22.8629C105.465 24.6257 104.038 26.1063 102.13 26.9528C98.7383 28.453 94.8775 27.4752 92.5728 24.8073C93.2572 24.2178 94.316 23.3015 95.3692 22.3908L95.6793 22.1226C97.294 20.7286 98.7998 19.4268 98.7998 19.4268L106.273 22.8629Z" fill="#F87171"/>
<path d="M98.7999 19.4296C98.7999 19.4296 97.2913 20.7287 95.6794 22.1255L95.3693 22.3937C94.3161 23.3016 93.2545 24.2179 92.5729 24.8101C92.0561 24.2095 91.6147 23.5223 91.2794 22.7624C89.7681 19.3458 90.7682 15.4599 93.478 13.1635L98.7999 19.4296Z" fill="#D1D5DB"/>
<path d="M106.122 52.6932H99.1881C98.3407 52.6932 97.6504 52.0029 97.6504 51.1555V44.2214C97.6504 43.374 98.3407 42.6837 99.1881 42.6837H106.122C106.97 42.6837 107.66 43.374 107.66 44.2214V51.1555C107.658 52.0029 106.97 52.6932 106.122 52.6932ZM99.186 42.8903C98.4523 42.8903 97.855 43.4876 97.855 44.2214V51.1555C97.855 51.8892 98.4523 52.4865 99.186 52.4865H106.12C106.854 52.4865 107.451 51.8892 107.451 51.1555V44.2214C107.451 43.4876 106.854 42.8903 106.12 42.8903H99.186Z" fill="#EBF6FF"/>
<path d="M106.56 50.3495H98.7456V51.1225H106.56V50.3495Z" fill="#FCA5A5"/>
<path d="M102.571 44.8063L104.619 49.7687H98.9893L102.571 44.8063Z" fill="#D1D5DB"/>
<path d="M104.33 46.6829L106.56 49.7687H102.571L104.33 46.6829Z" fill="#F87171"/>
<path d="M100.02 45.7364C100.534 45.7364 100.95 45.3199 100.95 44.8063C100.95 44.2926 100.534 43.8762 100.02 43.8762C99.5067 43.8762 99.0903 44.2926 99.0903 44.8063C99.0903 45.3199 99.5067 45.7364 100.02 45.7364Z" fill="#FCA5A5"/>
<path d="M106.56 46.0857H104.09C104.222 45.9244 104.437 45.7529 104.702 45.6165C105.22 45.3478 105.731 45.3065 105.845 45.5235C105.882 45.5958 105.871 45.6847 105.822 45.7839C106.132 45.7054 106.419 45.7777 106.527 45.9844C106.543 46.0174 106.556 46.0526 106.56 46.0857Z" fill="#D1D5DB"/>
<path d="M11.9572 64.3288H4.77197V71.514H11.9572V64.3288Z" fill="#D1D5DB"/>
<path d="M11.9572 75.0786H4.77197V82.2639H11.9572V75.0786Z" fill="white"/>
<path d="M25.9586 64.7673H5.02591C4.94769 64.7673 4.88623 64.7059 4.88623 64.6277C4.88623 64.5494 4.94769 64.488 5.02591 64.488H25.9586C26.0368 64.488 26.0982 64.5494 26.0982 64.6277C26.0982 64.7059 26.0368 64.7673 25.9586 64.7673Z" fill="white"/>
<path d="M25.9586 67.005H5.02591C4.94769 67.005 4.88623 66.9435 4.88623 66.8653C4.88623 66.7871 4.94769 66.7256 5.02591 66.7256H25.9586C26.0368 66.7256 26.0982 66.7871 26.0982 66.8653C26.0982 66.9435 26.0368 67.005 25.9586 67.005Z" fill="white"/>
<path d="M25.9586 69.2428H5.02591C4.94769 69.2428 4.88623 69.1813 4.88623 69.1031C4.88623 69.0249 4.94769 68.9634 5.02591 68.9634H25.9586C26.0368 68.9634 26.0982 69.0249 26.0982 69.1031C26.0982 69.1813 26.0368 69.2428 25.9586 69.2428Z" fill="white"/>
<path d="M21.21 71.4804H5.02933C4.95111 71.4804 4.88965 71.4189 4.88965 71.3407C4.88965 71.2625 4.95111 71.201 5.02933 71.201H21.21C21.2882 71.201 21.3497 71.2625 21.3497 71.3407C21.3497 71.4189 21.2882 71.4804 21.21 71.4804Z" fill="white"/>
<path d="M12.4129 75.4558H5.02933C4.95111 75.4558 4.88965 75.3944 4.88965 75.3162C4.88965 75.2379 4.95111 75.1765 5.02933 75.1765H12.4129C12.4911 75.1765 12.5526 75.2379 12.5526 75.3162C12.5526 75.3916 12.4883 75.4558 12.4129 75.4558Z" fill="white"/>
<path d="M25.9586 77.6934H5.02591C4.94769 77.6934 4.88623 77.632 4.88623 77.5537C4.88623 77.4755 4.94769 77.4141 5.02591 77.4141H25.9586C26.0368 77.4141 26.0982 77.4755 26.0982 77.5537C26.0982 77.632 26.0368 77.6934 25.9586 77.6934Z" fill="white"/>
<path d="M25.9586 79.9312H5.02591C4.94769 79.9312 4.88623 79.8697 4.88623 79.7915C4.88623 79.7133 4.94769 79.6518 5.02591 79.6518H25.9586C26.0368 79.6518 26.0982 79.7133 26.0982 79.7915C26.0982 79.8669 26.0368 79.9312 25.9586 79.9312Z" fill="white"/>
<path d="M24.4249 82.169H5.02591C4.94769 82.169 4.88623 82.1075 4.88623 82.0293C4.88623 81.951 4.94769 81.8896 5.02591 81.8896H24.4249C24.5031 81.8896 24.5645 81.951 24.5645 82.0293C24.5645 82.1075 24.5031 82.169 24.4249 82.169Z" fill="white"/>
<path d="M8.36424 71.011C8.33351 71.011 8.30278 70.9998 8.27764 70.983L3.58434 67.3653C3.52288 67.3178 3.51171 67.2312 3.5592 67.1697C3.60669 67.1083 3.69329 67.0971 3.75475 67.1446L8.2944 70.6422L10.8869 62.8172C10.912 62.7446 10.9903 62.7027 11.0629 62.7279C11.1355 62.753 11.1746 62.8312 11.1523 62.9039L8.49833 70.916C8.48437 70.9579 8.45084 70.9914 8.40614 71.0054C8.39218 71.011 8.37821 71.011 8.36424 71.011Z" fill="#374151"/>
<path d="M60.9073 27.6121C60.7536 28.101 60.2648 28.6345 59.5719 28.9949C58.5411 29.5257 57.4572 29.4782 57.1499 28.8832C56.7951 28.196 57.4823 27.5702 57.9433 27.1511C58.231 26.8885 58.4265 26.6539 58.5578 26.2739C58.6947 25.8744 58.7422 25.4498 58.7813 25.0308C58.7981 24.8604 58.8065 24.6872 58.826 24.5167C58.8288 24.5056 58.8791 24.2709 58.8875 24.2849L60.5693 26.2348L60.6894 26.7209C60.7676 26.7852 60.8319 26.8634 60.8766 26.95C60.9771 27.1428 60.9827 27.3718 60.9073 27.6121Z" fill="#1F2937"/>
<path d="M71.3783 18.801C70.4061 19.5636 68.9981 19.396 68.2326 18.421C67.47 17.4488 67.6376 16.0409 68.6126 15.2754C69.5848 14.5127 70.9928 14.6804 71.7582 15.6553C72.5209 16.6303 72.3533 18.0383 71.3783 18.801Z" fill="#1F2937"/>
<path d="M72.4125 19.1306C72.2533 19.1306 72.094 19.1223 71.932 19.1027C70.9794 18.9882 70.1245 18.544 69.5239 17.8484C68.9205 17.1528 68.6467 16.2895 68.7529 15.4207C68.968 13.6272 70.7419 12.3645 72.717 12.5991C74.6865 12.8366 76.1141 14.4876 75.8962 16.2811C75.7928 17.15 75.3207 17.9238 74.5692 18.4546C73.949 18.896 73.1975 19.1306 72.4125 19.1306ZM72.2421 12.7109C70.538 12.7109 69.0825 13.8619 68.8925 15.4375C68.792 16.2672 69.0546 17.0913 69.6301 17.7562C70.2083 18.4239 71.0325 18.8513 71.9488 18.963C72.8651 19.072 73.7702 18.8541 74.4882 18.3428C75.2061 17.8344 75.6559 17.0941 75.7565 16.2644C75.9632 14.5491 74.5915 12.9679 72.6975 12.7388C72.5466 12.7193 72.393 12.7109 72.2421 12.7109Z" fill="#1F2937"/>
<path d="M71.4482 17.3763C71.3616 17.3763 71.275 17.3707 71.1884 17.3596C70.124 17.2311 69.353 16.3371 69.4703 15.3649C69.5876 14.3927 70.5458 13.7083 71.613 13.8368C72.127 13.8983 72.5908 14.1385 72.9148 14.5156C73.2417 14.8928 73.3898 15.3593 73.3339 15.8314C73.278 16.3036 73.021 16.7226 72.6159 17.0104C72.2779 17.2506 71.8728 17.3763 71.4482 17.3763ZM71.3588 13.9625C70.4704 13.9625 69.7078 14.5603 69.61 15.3817C69.5038 16.2756 70.219 17.0997 71.2079 17.2199C71.6884 17.2785 72.1606 17.1612 72.5349 16.8958C72.9093 16.6304 73.1439 16.2449 73.1942 15.8147C73.2473 15.3817 73.1104 14.9542 72.8087 14.6078C72.507 14.2586 72.0768 14.0351 71.5963 13.9765C71.5152 13.9681 71.437 13.9625 71.3588 13.9625Z" fill="#1F2937"/>
<path d="M59.1898 32.8194C59.1703 32.8529 58.3685 35.6856 57.5444 38.5938C57.2399 39.6749 56.9326 40.7673 56.6616 41.7311C56.6001 41.9462 56.4661 42.1277 56.413 42.3373C55.9883 43.9548 54.9994 44.9242 53.5774 44.3738L50.9067 43.2173C50.9067 43.2145 55.7844 29.8889 55.7844 29.8889C55.7844 29.8889 57.4075 28.6625 58.4244 29.048C59.7961 29.576 59.9916 31.5874 59.1898 32.8194Z" fill="#6B7280"/>
<path d="M57.5436 38.5938C57.2391 39.675 56.9318 40.7673 56.6608 41.7311C56.5994 41.9462 56.5156 42.1501 56.4122 42.3373C56.4904 40.6164 55.5546 38.7028 55.6076 38.6385L56.7726 38.0183L57.5436 38.5938Z" fill="#1F2937"/>
<path d="M62.8904 26.6623C63.0385 26.7294 63.1223 26.7713 63.1223 26.7713L62.4406 29.2716L60.432 30.0007L58.1468 29.6627C58.1189 29.5509 59.8872 28.9531 59.2475 26.7796C59.2475 26.7768 59.2447 26.774 59.2447 26.7713C59.2447 26.6567 59.1246 26.4751 59.0911 26.3634C59.038 26.2125 58.9933 26.0589 58.9514 25.9024C58.8676 25.5728 58.8061 25.2348 58.7698 24.8939C58.6161 23.5279 58.767 22.0025 59.376 20.7482C59.3816 20.737 59.39 20.7203 59.4012 20.6979C59.4682 20.5471 59.6386 20.1587 59.837 19.7872C60.0437 19.3905 60.2811 19.0189 60.4432 18.977C60.5801 18.9407 60.6918 19.1363 60.8119 19.2955C60.8874 19.3961 60.9628 19.4771 61.0466 19.4771C61.312 19.4771 61.5662 19.5637 61.8065 19.7173C61.8372 19.7369 61.8679 19.7592 61.8987 19.7788C62.7647 20.4297 63.3765 22.0472 63.3765 23.9357C63.3737 24.9638 63.1949 25.908 62.8904 26.6623Z" fill="#1F2937"/>
<path d="M69.433 30.47C68.0529 31.7215 67.3015 34.1799 67.4747 35.722L67.6479 38.1273L67.6535 38.1748C67.6674 38.3229 67.6814 38.471 67.6954 38.6246C67.7149 38.8285 67.7317 39.0632 67.754 39.3146C67.8937 39.3174 68.2708 44.7901 69.0112 47.5111C66.6533 47.553 64.2899 47.5195 61.9321 47.4022C61.6527 47.5167 61.3622 47.6229 61.0633 47.7207C58.3507 48.6034 55.5263 47.5921 55.5263 47.5921C55.4006 47.2066 55.5682 46.5222 55.8923 46.0333C56.3895 45.2846 56.7332 44.698 56.8393 43.9129C56.9706 42.9324 57.0377 41.9434 57.0516 40.9461C56.9986 40.6193 56.9455 40.2784 56.8924 39.9292C56.8924 39.9153 56.8896 39.8985 56.8868 39.8845C56.8645 39.8761 56.8533 39.8734 56.8533 39.8734C55.8141 39.4208 55.3727 38.7587 55.3447 37.9793C55.3447 37.9793 55.3447 37.9793 55.3447 37.9765C55.3727 37.4429 55.585 36.6467 55.9845 35.9315C55.9956 35.9092 56.0096 35.8896 56.0208 35.8701C56.0795 35.7667 56.1437 35.6689 56.208 35.5656C56.208 35.5656 56.208 35.5628 56.2108 35.5628C56.3756 35.3114 56.5628 35.0543 56.7639 34.7973V34.7945C56.8226 33.1379 55.7079 30.3638 55.7666 29.9308C55.7694 29.9197 55.7749 29.9029 55.7805 29.8917C55.8615 29.7157 55.9705 29.5844 56.1242 29.5174C57.0796 29.1011 58.225 28.7072 58.9681 28.4446L62.2785 32.6574L67.1171 28.7603C67.2679 28.5731 67.4607 28.4195 67.6981 28.3189C67.6981 28.3189 70.2152 29.3972 70.4331 29.7772C70.5477 30.0649 70.1286 29.8386 69.433 30.47Z" fill="#DC2626"/>
<path d="M64.7401 21.3443C66.1568 20.0541 66.5254 18.1519 65.5634 17.0957C64.6015 16.0394 62.6732 16.2291 61.2565 17.5193C59.8399 18.8095 59.4712 20.7117 60.4332 21.768C61.3951 22.8242 63.3234 22.6345 64.7401 21.3443Z" fill="#1F2937"/>
<path d="M68.774 37.711C68.7713 37.7306 68.7685 37.7501 68.7657 37.7697C68.7349 37.9541 68.7042 38.1357 68.6735 38.32C68.5505 39.0799 67.6929 44.3207 67.6929 44.3207C67.1761 44.737 66.0726 46.388 64.1031 46.402C63.1337 44.1615 63.4242 40.5661 64.4272 40.4823C67.908 40.1918 67.3381 35.4957 67.3772 35.437L68.7182 37.4149L68.774 37.711Z" fill="#1F2937"/>
<path d="M67.0811 17.9266C67.9919 18.354 68.2014 19.8262 67.5477 21.2175C66.8967 22.6087 65.6284 23.3881 64.7177 22.9635C63.807 22.5361 63.5975 21.0638 64.2512 19.6726C64.9049 18.2814 66.1704 17.4992 67.0811 17.9266Z" fill="#1F2937"/>
<path d="M63.8516 29.3609C62.0609 29.3609 60.4965 28.9362 59.6584 28.3021C59.6165 28.2713 59.5774 28.2406 59.5383 28.2071L58.8901 28.4697L58.9153 28.4976L62.2844 32.8808L67.3772 28.9698C66.7626 29.0955 64.5752 29.3609 63.8516 29.3609Z" fill="#6B7280"/>
<path d="M69.2633 47.5837C69.2633 47.701 69.1627 47.8128 68.9783 47.9217C68.8917 47.972 68.7883 48.0195 68.6654 48.067C67.5899 48.4777 65.1901 48.7654 62.3965 48.7654C61.9104 48.7654 61.4327 48.757 60.9746 48.7403C58.8039 48.6593 57.0132 48.405 56.1276 48.067C55.7421 47.9189 55.5298 47.7569 55.5298 47.5865C55.5298 47.3602 55.9069 47.1451 56.5578 46.9663C57.6054 46.6758 59.3599 46.4718 61.4076 46.4216C61.7316 46.4132 62.0613 46.4076 62.3993 46.4076C64.8661 46.4076 67.0312 46.6311 68.2408 46.9663C68.3721 47.0026 68.4894 47.0417 68.5984 47.0781C69.0258 47.2289 69.2633 47.3993 69.2633 47.5837Z" fill="#1F2937"/>
<path d="M66.5254 28.4725L65.8773 29.1681C65.2627 29.2938 64.5755 29.3609 63.8519 29.3609C61.9718 29.3609 60.3403 28.8943 59.5386 28.2099L59.9017 28.0618C60.4716 27.8272 60.8907 27.3439 61.0527 26.7684C61.103 26.598 61.1281 26.4136 61.1281 26.2292V22.4662H65.0253V26.4471C65.0253 27.1371 65.3856 27.7769 65.9751 28.1345L66.5254 28.4725Z" fill="#FECACA"/>
<path d="M64.1844 24.771C64.1844 24.771 63.4106 26.1874 61.0527 26.7684C61.103 26.5952 61.1282 26.4136 61.1282 26.2293V25.137L64.1844 24.771Z" fill="#1F2937"/>
<path d="M70.2857 44.1643L68.7464 43.0301C68.4726 42.6027 68.2799 42.1194 68.1346 41.6249C67.8245 40.5326 67.7686 39.3788 67.6988 38.6162C67.6848 38.4625 67.6709 38.3144 67.6569 38.1664L67.6513 38.1189L67.4781 35.7136C67.3049 34.1715 67.8105 31.5874 69.1766 30.3191C69.8443 29.6989 70.3332 29.6738 70.4393 29.7743C70.5371 29.9391 72.001 33.9229 72.9089 41.7757C73.0821 43.2815 71.973 44.1587 70.2857 44.1643Z" fill="#6B7280"/>
<path d="M62.05 25.5476L61.9857 25.5392C60.709 25.3855 59.7983 24.2262 59.952 22.9467L60.5722 17.7924L65.6482 18.4043L65.0727 23.173C64.8939 24.662 63.5418 25.7264 62.05 25.5476Z" fill="#FECACA"/>
<path d="M61.6671 20.2174C61.561 20.1978 61.4269 20.1503 61.3095 20.1252C61.1866 20.0972 61.0637 20.0693 60.9324 20.0525C60.8039 20.0302 60.681 20.0218 60.5525 20.0218C60.424 20.0246 60.2871 20.0414 60.1362 20.1L60.1278 20.1028C60.1111 20.1084 60.0943 20.1 60.0887 20.0861C60.0859 20.0805 60.0859 20.0749 60.0859 20.0693C60.1195 19.8793 60.2619 19.7313 60.424 19.6391C60.5888 19.5413 60.776 19.4994 60.9548 19.4938C61.1336 19.491 61.3151 19.5134 61.4855 19.5804C61.6588 19.6503 61.8096 19.7397 61.9437 19.9157C62.0107 20.0051 61.994 20.1336 61.9046 20.2006C61.8571 20.2369 61.7984 20.2481 61.7454 20.2369L61.6671 20.2174Z" fill="#1F2937"/>
<path d="M63.1252 19.9772C63.3235 19.8822 63.4967 19.871 63.6839 19.8878C63.8655 19.9045 64.0387 19.9688 64.1951 20.0554C64.3516 20.1448 64.4996 20.2677 64.603 20.4269C64.7036 20.5834 64.7622 20.7817 64.7064 20.9661C64.7008 20.9829 64.684 20.9912 64.6673 20.9857C64.6617 20.9829 64.6561 20.9801 64.6533 20.9773L64.6477 20.9717C64.5415 20.8488 64.4242 20.7733 64.3125 20.7119C64.1979 20.6532 64.0834 20.6057 63.9605 20.5666C63.8375 20.5219 63.7146 20.4912 63.5917 20.4605C63.4744 20.4297 63.3347 20.4102 63.2313 20.3794L63.1531 20.3571C63.047 20.3264 62.9855 20.2118 63.0162 20.1057C63.0358 20.0442 63.0777 19.9995 63.1252 19.9772Z" fill="#1F2937"/>
<path d="M64.0519 21.7957C64.0211 21.7957 63.996 21.7762 63.9848 21.7482C63.9848 21.7454 63.8871 21.4521 63.6691 21.3013C63.6328 21.2761 63.5965 21.2566 63.563 21.2426C63.454 21.2007 63.3507 21.1951 63.2529 21.2314C63.1439 21.2677 63.0629 21.3348 63.0238 21.3683C63.0015 21.3879 62.9903 21.3962 62.9735 21.4018C62.9372 21.413 62.8981 21.3934 62.8869 21.3571C62.8758 21.3208 62.8953 21.2817 62.9316 21.2705L62.9344 21.2649C62.9791 21.2258 63.0741 21.142 63.2082 21.1001C63.3339 21.0554 63.4736 21.061 63.6133 21.1141C63.6608 21.1308 63.7055 21.156 63.753 21.1895C64.01 21.3683 64.1161 21.6952 64.1189 21.7063C64.1301 21.7427 64.1105 21.7818 64.0742 21.7929C64.0658 21.7957 64.0575 21.7957 64.0519 21.7957Z" fill="#1F2937"/>
<path d="M61.7422 21.5192C61.7114 21.5192 61.6863 21.4996 61.6751 21.4717C61.6751 21.4689 61.5773 21.1756 61.3594 21.0247C61.3231 20.9996 61.2868 20.98 61.2533 20.9661C61.1443 20.9242 61.041 20.9214 60.9432 20.9549C60.8342 20.9912 60.7532 21.0582 60.7141 21.0918C60.6918 21.1113 60.6806 21.1197 60.6638 21.1253C60.6275 21.1365 60.5884 21.1169 60.5744 21.0806C60.5633 21.0443 60.5828 21.0052 60.6191 20.9912L60.6219 20.9856C60.6666 20.9465 60.7616 20.8627 60.8985 20.8208C61.0242 20.7761 61.1639 20.7789 61.3036 20.8348C61.3511 20.8515 61.3986 20.8767 61.4432 20.9102C61.7003 21.089 61.8064 21.413 61.8092 21.427C61.8204 21.4633 61.8008 21.5024 61.7645 21.5136C61.7561 21.5164 61.7477 21.5192 61.7422 21.5192Z" fill="#1F2937"/>
<path d="M61.2374 21.1923C61.2179 21.346 61.081 21.455 60.9329 21.4382C60.782 21.4214 60.6759 21.2817 60.6927 21.1281C60.7122 20.9744 60.8491 20.8655 61 20.8823C61.148 20.9018 61.257 21.0387 61.2374 21.1923Z" fill="#1F2937"/>
<path d="M63.5113 21.4661C63.4918 21.6197 63.3549 21.7287 63.2068 21.7119C63.056 21.6952 62.9498 21.5555 62.9666 21.4018C62.9861 21.2482 63.123 21.1392 63.2739 21.156C63.4219 21.1756 63.5309 21.3152 63.5113 21.4661Z" fill="#1F2937"/>
<path d="M62.3572 22.6339C62.2483 22.6339 61.8823 22.6255 61.7343 22.5361C61.6784 22.5026 61.656 22.4886 62.0779 20.7314C62.0863 20.6951 62.1226 20.6699 62.1617 20.6783C62.198 20.6867 62.2231 20.7258 62.2148 20.7621C62.0807 21.3292 61.8711 22.2316 61.8432 22.4327C61.9661 22.4802 62.2343 22.497 62.3824 22.4942C62.4215 22.4942 62.4522 22.5249 62.4522 22.564C62.4522 22.6031 62.4215 22.6339 62.3824 22.6339C62.3768 22.6339 62.3684 22.6339 62.3572 22.6339Z" fill="#FCA5A5"/>
<path d="M64.7512 40.5717C63.6756 40.5717 62.9548 40.3315 62.9241 40.3203C61.4435 39.675 61.0105 38.5184 61.667 36.9708C61.681 36.9344 61.7229 36.9177 61.7592 36.9344C61.7955 36.9484 61.8123 36.9903 61.7955 37.0266C61.1641 38.5128 61.5608 39.5772 62.9744 40.1918C62.9772 40.1918 63.7007 40.4321 64.7539 40.4321C64.7847 40.4321 64.8182 40.4321 64.8489 40.4321C64.888 40.4321 64.9188 40.4628 64.9188 40.5019C64.9188 40.541 64.888 40.5717 64.8489 40.5717C64.8182 40.5717 64.7847 40.5717 64.7512 40.5717Z" fill="#1F2937"/>
<path d="M58.6638 40.2645C57.5882 40.2645 56.8674 40.0242 56.8367 40.013C55.3561 39.3677 54.9231 38.2111 55.5796 36.6635C55.6075 36.5992 56.2612 35.0879 57.0043 34.314C57.0323 34.2861 57.0742 34.2861 57.1021 34.3112C57.13 34.3392 57.1301 34.3811 57.1049 34.409C56.3786 35.1633 55.7137 36.6998 55.7081 36.7166C55.0767 38.2028 55.4734 39.2671 56.887 39.8817C56.8898 39.8817 57.6133 40.122 58.6665 40.122C58.6973 40.122 58.7308 40.122 58.7615 40.122C58.8006 40.122 58.8314 40.1527 58.8314 40.1918C58.8314 40.2309 58.8006 40.2617 58.7615 40.2617C58.7308 40.2645 58.6973 40.2645 58.6638 40.2645Z" fill="#1F2937"/>
<path d="M62.4164 23.5948C62.2711 23.5948 62.123 23.5697 61.9694 23.5222L61.9219 23.5082C61.8856 23.4998 61.8604 23.4635 61.8688 23.4272C61.8772 23.3909 61.9107 23.3658 61.947 23.3713C61.9526 23.3713 61.9666 23.3769 61.9833 23.3825L62.0085 23.3909C62.2934 23.4803 62.5616 23.4803 62.8019 23.3853C63.0757 23.2791 63.2042 23.0529 63.2349 22.9858C63.2516 22.9523 63.2936 22.9327 63.3299 22.9495C63.3634 22.9663 63.3802 23.0026 63.3662 23.0361L63.3019 23.0082L63.3634 23.0417C63.3103 23.1478 63.1623 23.3965 62.8522 23.5166C62.7153 23.5669 62.5672 23.5948 62.4164 23.5948Z" fill="#FCA5A5"/>
<path d="M63.5051 23.2988C63.4911 23.2988 63.4743 23.2932 63.4632 23.2848C63.4464 23.2736 63.4296 23.2596 63.4157 23.2401C63.3682 23.1954 63.3179 23.1283 63.2676 23.0362C63.2173 22.9412 63.181 22.8462 63.1615 22.7875L63.1475 22.7512C63.1335 22.7149 63.1503 22.6758 63.1866 22.659C63.2229 22.645 63.262 22.6618 63.2788 22.6981C63.2816 22.7093 63.2872 22.7233 63.2955 22.74C63.3151 22.7931 63.3458 22.8825 63.3933 22.9691C63.4352 23.0473 63.4743 23.1032 63.5162 23.1423C63.5302 23.1563 63.5386 23.1647 63.5498 23.173C63.5805 23.1954 63.5861 23.2401 63.5637 23.2708C63.547 23.2904 63.5274 23.2988 63.5051 23.2988Z" fill="#FCA5A5"/>
<path d="M62.2738 19.4994C62.2264 19.5357 62.1761 19.5776 62.1202 19.6223C62.0476 19.6754 61.9721 19.7313 61.8995 19.7816C61.2262 20.2537 60.4468 20.6671 59.4048 20.7007C59.4718 20.5498 59.6422 20.1615 59.8406 19.7899C60.201 19.5748 60.5697 19.3988 60.8156 19.2983C60.8491 19.2815 60.8798 19.2703 60.9078 19.2592C61.1201 19.1753 61.338 19.1418 61.5531 19.1698C61.8129 19.2005 62.0531 19.3178 62.2738 19.4994Z" fill="#1F2937"/>
<path d="M65.6342 17.6529L63.7681 17.0466L62.9439 17.4936C62.93 17.4797 62.9188 17.4657 62.902 17.4545L63.2456 16.4767C62.6953 16.5829 62.1478 16.6891 61.5974 16.7924C60.7146 16.9628 59.7871 17.0746 58.977 17.4964C58.3903 17.8037 57.7757 18.5608 58.0411 19.1922C58.3931 20.033 59.3262 20.4577 60.8403 20.1336C61.4549 20.0023 61.9941 19.7648 62.4104 19.4743C62.4104 19.4743 62.4159 19.4687 62.4271 19.4603C62.6031 19.3374 64.0279 18.3848 64.8967 19.1251C65.8242 19.9157 64.8771 21.9774 64.8771 21.9774C64.8771 21.9774 65.6901 22.6004 65.7236 22.5138C65.7543 22.4272 67.288 19.3095 67.288 19.3095L65.6342 17.6529Z" fill="#1F2937"/>
<path d="M69.0756 32.0959C69.1035 32.1993 69.2292 32.4702 69.3102 32.6993H68.1956C68.0643 32.2831 67.9693 31.8221 67.9274 31.3137C67.919 31.2187 67.8408 31.8305 67.8659 32.6993H65.835C65.4578 32.0456 65.0779 31.1321 64.9885 29.9979C64.9773 29.861 64.8209 31.2187 65.036 32.6993H63.6084C63.0804 30.9561 63.3486 29.0006 64.0973 27.3607C64.5359 26.4053 64.832 25.475 64.86 24.4134L64.7957 21.9997L67.9274 19.7676C67.8799 20.8599 67.9777 21.9941 68.0335 22.24C68.3045 23.4245 68.5308 24.0921 68.9945 25.1733C69.0588 25.3297 69.1258 25.4834 69.1817 25.6398C69.7069 27.0227 69.1035 28.115 68.9219 29.4811C68.8018 30.3499 68.8716 31.2662 69.0756 32.0959Z" fill="#1F2937"/>
<path d="M65.7714 23.0528C65.2937 23.4272 64.6987 23.4719 64.4445 23.1478C64.1902 22.8237 64.3718 22.2566 64.8523 21.8823C65.33 21.5079 65.9251 21.4632 66.1793 21.7873C66.4307 22.1114 66.2491 22.6785 65.7714 23.0528Z" fill="#FECACA"/>
<path d="M69.0869 28.5843C69.0506 28.7491 69.0031 28.9083 68.9444 29.062C68.8858 29.2184 68.8187 29.3637 68.7461 29.5034C68.7964 29.3218 68.8523 29.1458 68.9137 28.981C68.9668 28.8441 69.0227 28.71 69.0869 28.5843Z" fill="#1F2937"/>
<path d="M65.3464 18.3902C65.3269 18.3902 65.3045 18.3818 65.2905 18.3623C65.2682 18.3315 65.271 18.2868 65.3017 18.2645C65.3492 18.2282 66.4695 17.3677 67.2461 17.9404C67.2768 17.9628 67.2824 18.0075 67.26 18.0382C67.2377 18.0689 67.193 18.0745 67.1623 18.0522C66.4695 17.541 65.3967 18.3651 65.3855 18.3735C65.3771 18.3846 65.3632 18.3902 65.3464 18.3902Z" fill="#1F2937"/>
<path d="M65.0704 21.8098C65.0452 21.8098 65.0201 21.7958 65.0061 21.7707C64.9894 21.7371 65.0033 21.6952 65.0369 21.6785C65.0452 21.6729 65.0564 21.6617 65.0732 21.6477C65.2352 21.5081 65.7241 21.0834 66.4169 21.4103C66.4532 21.427 66.4672 21.4689 66.4504 21.5025C66.4337 21.5388 66.3918 21.5528 66.3582 21.536C65.7492 21.2483 65.3246 21.6142 65.1654 21.7539C65.1318 21.7818 65.1179 21.7958 65.0983 21.8042C65.0899 21.807 65.0815 21.8098 65.0704 21.8098Z" fill="#1F2937"/>
<path d="M67.3947 30.0678C67.3612 30.0678 67.3305 30.0427 67.3249 30.0091C67.1712 29.0956 67.3975 28.4643 67.6182 27.8525C67.8054 27.3384 67.9953 26.8048 67.9534 26.1036C67.8808 24.9024 67.16 23.8017 66.8527 23.3324C66.741 23.162 66.7019 23.1005 66.6935 23.0586C66.6851 23.0195 66.7103 22.9832 66.7494 22.9776C66.7885 22.9692 66.822 22.9943 66.8304 23.0306C66.8388 23.0558 66.9058 23.1564 66.9673 23.2541C67.2802 23.7346 68.0149 24.8549 68.0903 26.0953C68.135 26.8272 67.9367 27.3719 67.7467 27.8999C67.5232 28.5229 67.3109 29.1096 67.459 29.9868C67.4646 30.0259 67.4394 30.0622 67.4031 30.0678C67.4003 30.0678 67.3975 30.0678 67.3947 30.0678Z" fill="#1F2937"/>
<path d="M69.9842 51.4641H54.812L56.1278 48.0643L56.558 46.9636C57.6056 46.673 59.36 46.4691 61.4078 46.4188C61.7318 46.4104 62.0615 46.4048 62.3995 46.4048C64.8663 46.4048 67.0313 46.6283 68.241 46.9636L68.6684 48.0643L69.9842 51.4641Z" fill="#374151"/>
<path d="M67.2067 61.5854C64.7595 62.01 62.0664 58.2638 61.1948 53.2185C61.0887 52.6235 61.0188 52.0368 60.9741 51.4641C60.8987 50.5059 60.9015 49.5896 60.9769 48.7375C61.0524 47.8911 61.1976 47.1088 61.4099 46.4188C61.734 46.4104 62.0637 46.4048 62.4017 46.4048C64.8685 46.4048 67.0335 46.6283 68.2432 46.9636C68.3745 46.9999 68.4918 47.039 68.6007 47.0753C68.7376 47.3463 68.8633 47.6285 68.9835 47.9218C69.4472 49.0392 69.8188 50.3131 70.059 51.6848C70.9278 56.7273 69.6539 61.158 67.2067 61.5854Z" fill="#374151"/>
<path d="M71.929 45.0387C72.4318 44.4995 72.9877 43.6028 72.9067 42.5803C72.7363 40.4488 70.4679 39.1358 68.5124 40.2309C67.015 40.851 65.2131 41.4796 65.2131 41.4852C65.1265 41.4908 65.1265 41.5718 65.0427 41.5969C63.5173 42.0327 63.4224 44.832 64.1906 47.3071C64.8946 49.5755 66.3277 51.7769 67.7385 51.7937C67.867 51.7965 67.9955 51.7797 68.1212 51.7434C68.5012 51.6344 68.7889 51.3746 68.9901 51.0087C69.5655 50.165 69.8561 48.6592 70.0824 47.6312C70.2891 46.6925 71.0965 45.8153 71.5714 45.3628C71.6943 45.2678 71.8116 45.1616 71.9206 45.0471C71.9234 45.0443 71.929 45.0415 71.929 45.0387Z" fill="#6B7280"/>
<path d="M64.9325 30.5649C64.8962 30.5649 64.8655 30.537 64.8627 30.4979C64.8152 29.4419 65.17 28.777 65.5415 28.0758C65.9522 27.302 66.3796 26.503 66.2874 25.0894C66.2846 25.0503 66.3126 25.0168 66.3517 25.014C66.3964 25.0084 66.4243 25.0419 66.4271 25.0783C66.5221 26.531 66.0863 27.3467 65.6645 28.1373C65.2985 28.8217 64.9549 29.4698 64.9996 30.4867C65.0024 30.5258 64.9716 30.5566 64.9325 30.5594C64.9353 30.565 64.9353 30.5649 64.9325 30.5649Z" fill="#1F2937"/>
<path d="M59.4262 19.7872C59.2753 19.7872 59.1161 19.7705 58.954 19.7369C58.5294 19.6475 57.9064 19.2592 57.9232 18.7173C57.9232 18.6781 57.9567 18.6502 57.993 18.6502C57.993 18.6502 57.993 18.6502 57.9958 18.6502C58.0349 18.6502 58.0657 18.6837 58.0629 18.7228C58.0489 19.1866 58.6048 19.519 58.9848 19.6C60.0184 19.8207 60.7755 19.2536 61.5745 18.6502C62.2812 18.1194 63.0132 17.5775 63.949 17.611C63.9882 17.6138 64.0189 17.6445 64.0161 17.6836C64.0133 17.7199 63.9826 17.7507 63.9462 17.7507H63.9434C63.0607 17.7115 62.3455 18.2451 61.6611 18.762C60.985 19.2676 60.2922 19.7872 59.4262 19.7872Z" fill="#1F2937"/>
<path d="M66.3429 19.7956C66.3066 19.7956 66.2758 19.7676 66.273 19.7313C66.2479 19.4631 66.1334 19.2508 65.9378 19.1027C65.5411 18.8038 64.8092 18.7535 63.7672 18.9519C63.7308 18.9603 63.7001 18.9631 63.6834 18.9686C63.647 18.9742 63.6107 18.9491 63.6023 18.91C63.5968 18.8709 63.6219 18.8373 63.661 18.829C63.6778 18.8262 63.7057 18.8206 63.742 18.815C64.1471 18.7396 65.3735 18.5049 66.0216 18.991C66.2507 19.1614 66.382 19.4072 66.4127 19.7173C66.4155 19.7564 66.3876 19.79 66.3513 19.7928C66.3457 19.7956 66.3429 19.7956 66.3429 19.7956Z" fill="#1F2937"/>
<path d="M54.9261 39.7756C53.9343 39.1498 52.9426 38.524 51.9536 37.8955C50.3305 36.8702 48.7074 35.8449 47.0871 34.8197C46.7268 34.5906 45.1176 33.5234 45.1176 33.5234C44.2488 33.5849 42.8604 37.0797 42.5 38.5939C42.1815 39.9348 41.6898 41.8149 42.3883 43.1084C42.7766 43.8263 43.5895 43.9185 44.3186 43.7761C44.855 43.6699 45.3467 43.4241 45.8607 43.2508C46.4223 43.0637 46.9698 43.0302 47.5537 43.1307L53.1326 44.6616C54.3757 44.9326 55.373 44.4493 55.8787 43.6755C56.4905 42.7396 56.0798 40.4824 54.9261 39.7756Z" fill="#6B7280"/>
<path d="M45.8635 38.7C45.8551 38.8034 45.8439 38.904 45.83 39.0101C45.4556 41.9574 44.0337 43.9465 42.9497 43.6475C41.8602 43.3402 41.782 41.2366 42.4832 38.5771C42.6396 37.9346 42.8212 37.306 43.0084 36.7221C43.3744 35.5991 43.785 34.6409 44.2013 34.0682C44.4583 33.7106 44.7125 33.5039 44.9611 33.4983C45.3439 33.4843 45.6456 34.0794 45.8104 35.0264C45.9808 35.979 46.0171 37.2892 45.8635 38.7Z" fill="#1F2937"/>
<path d="M67.6036 51.777C66.6398 51.9083 65.1061 50.2293 64.134 47.3994C63.7736 46.3406 63.6283 45.3153 63.6507 44.4214C63.6786 43.2927 63.9803 42.3792 64.4636 41.8847C64.6284 41.7171 64.8156 41.597 65.0195 41.5327C65.1369 41.4992 65.2458 41.4825 65.3604 41.4825H65.3632C66.2152 41.4852 66.9471 42.477 67.4472 44.0526C67.6092 44.5638 67.7461 45.1365 67.8579 45.7567C68.397 48.5084 69.5285 51.5172 67.6036 51.777Z" fill="#1F2937"/>
<path d="M54.2915 40.4963C54.2579 40.4963 54.23 40.474 54.2216 40.4404C54.0512 39.5381 53.255 38.6665 51.9727 37.9904C51.942 37.9737 51.9225 37.9625 51.9141 37.9569C51.8806 37.9373 51.8722 37.8926 51.8917 37.8591C51.9141 37.8256 51.956 37.8172 51.9895 37.8368C51.9951 37.8424 52.0147 37.8507 52.0398 37.8647C53.3584 38.5631 54.1825 39.4683 54.3613 40.4153C54.3697 40.4544 54.3445 40.4907 54.3054 40.4963C54.2998 40.4963 54.2971 40.4963 54.2915 40.4963Z" fill="#1F2937"/>
<path d="M67.791 40.0633C67.7547 40.0633 67.724 40.0354 67.7212 39.999L67.3077 35.4426C67.3105 35.4175 67.3077 35.3979 67.3077 35.3728C67.3021 34.6017 67.5871 34.0486 68.157 33.7301C68.1905 33.7106 68.2324 33.7218 68.2519 33.7581C68.2715 33.7916 68.2575 33.8335 68.224 33.8531C67.7016 34.1436 67.4418 34.6576 67.4446 35.3728C67.4446 35.4091 67.4446 35.437 67.4418 35.4482L67.8552 39.9879C67.858 40.027 67.8301 40.0605 67.791 40.0633C67.791 40.0633 67.7938 40.0633 67.791 40.0633Z" fill="#1F2937"/>
<path d="M66.7211 32.7216C66.7015 32.7216 66.6819 32.7132 66.668 32.6965C66.207 32.1461 65.5533 30.523 66.4668 29.0089C66.4864 28.9754 66.5311 28.967 66.5618 28.9865C66.5953 29.0061 66.6065 29.0508 66.587 29.0815C65.7126 30.5314 66.3355 32.0819 66.7741 32.6071C66.7993 32.6378 66.7965 32.6797 66.7658 32.7048C66.7518 32.716 66.7378 32.7216 66.7211 32.7216Z" fill="#1F2937"/>
<path d="M64.9749 41.6947C64.947 41.6947 64.9218 41.6779 64.9107 41.65C64.8967 41.6137 64.9135 41.5746 64.9498 41.5606L67.6847 40.4906C69.1374 40.0129 70.6488 39.8062 71.8668 41.5159C71.8892 41.5466 71.8808 41.5913 71.85 41.6137C71.8193 41.636 71.7746 41.6277 71.7523 41.5969C70.5845 39.9599 69.129 40.161 67.7294 40.6219L64.9973 41.6919C64.9945 41.6947 64.9861 41.6947 64.9749 41.6947Z" fill="#1F2937"/>
<path d="M69.0796 50.9417C69.0656 50.9417 69.0517 50.9361 69.0377 50.9277C69.007 50.9054 68.9986 50.8607 69.0209 50.83C69.8842 49.6371 69.9149 48.0168 69.94 46.8323C69.954 46.1171 69.9652 45.5528 70.1523 45.2958C70.1747 45.2651 70.2194 45.2567 70.2501 45.2818C70.2809 45.3042 70.2892 45.3489 70.2641 45.3796C70.1021 45.6003 70.0909 46.173 70.0769 46.8379C70.0518 48.0391 70.021 49.6874 69.1327 50.9138C69.1215 50.9333 69.0991 50.9417 69.0796 50.9417Z" fill="#1F2937"/>
<path d="M45.699 43.382C45.6711 43.382 45.6431 43.3653 45.632 43.3345C45.618 43.2982 45.6376 43.2591 45.6739 43.2452C45.6906 43.2396 45.727 43.2228 45.7772 43.1977C47.0511 42.5775 48.2217 42.4015 49.2581 42.6753C49.2944 42.6864 49.3168 42.7227 49.3084 42.7619C49.2972 42.7982 49.2609 42.8233 49.2218 42.8121C48.2217 42.5467 47.0819 42.72 45.8387 43.3262C45.78 43.3541 45.7409 43.3737 45.7214 43.382C45.713 43.3792 45.7046 43.382 45.699 43.382Z" fill="#1F2937"/>
<path d="M72.4205 38.2725C72.3926 38.2725 72.3647 38.2558 72.3535 38.225C72.0266 37.292 70.9622 35.965 70.613 35.5292L70.5739 35.4817C70.5488 35.451 70.5544 35.4063 70.5851 35.3839C70.6158 35.3616 70.6577 35.3644 70.6829 35.3951L70.722 35.4426C71.0768 35.884 72.1523 37.2249 72.4848 38.1803C72.4987 38.2167 72.4792 38.2558 72.4429 38.2697C72.4373 38.2725 72.4289 38.2725 72.4205 38.2725Z" fill="#1F2937"/>
<path d="M67.6351 40.6751C67.6323 40.6751 67.6295 40.6751 67.6239 40.6751C67.5848 40.6695 67.5596 40.6332 67.5652 40.5969C67.6574 39.9851 68.4787 39.3733 68.9676 39.0073C69.1017 38.9067 69.2414 38.8034 69.261 38.7726C69.2805 38.7391 69.3252 38.7307 69.3559 38.7503C69.3895 38.7698 69.3979 38.8117 69.3783 38.8453C69.3476 38.8983 69.2498 38.971 69.0487 39.119C68.6073 39.4487 67.7831 40.0605 67.6993 40.6164C67.6993 40.65 67.6686 40.6751 67.6351 40.6751Z" fill="#1F2937"/>
<path d="M52.6579 38.3815C52.6495 38.3815 52.6411 38.3787 52.6327 38.3759C52.5964 38.362 52.5797 38.3229 52.5908 38.2893C52.6299 38.1832 53.2389 37.4289 54.5855 37.4121C54.6246 37.4121 54.6553 37.4429 54.6553 37.482C54.6553 37.5211 54.6246 37.5518 54.5855 37.5518C53.3311 37.5686 52.764 38.2391 52.7221 38.3396C52.711 38.3648 52.6858 38.3815 52.6579 38.3815Z" fill="#1F2937"/>
<path d="M56.7698 34.7665C56.767 34.7665 56.767 34.7665 56.7642 34.7665C56.7251 34.7637 56.6972 34.7302 56.7 34.6911C56.767 33.7133 56.3089 33.0428 55.9681 32.9507C55.9317 32.9395 55.9094 32.9032 55.9178 32.8641C55.9289 32.8277 55.9681 32.8054 56.0044 32.8138C56.4597 32.9339 56.9039 33.7217 56.8397 34.6967C56.8369 34.7386 56.8089 34.7665 56.7698 34.7665Z" fill="#1F2937"/>
<path d="M64.1646 51.4864L63.9327 51.925L63.3433 53.0369L58.0633 63.0074L56.2335 66.4631L56.3201 67.7286L57.837 90.2005L56.6218 90.8878L46.2798 90.2005L47.9448 65.5468C47.9979 64.7813 48.199 64.0382 48.5398 63.351L56.1664 47.9776L64.1646 51.4864Z" fill="#374151"/>
<path d="M58.0607 63.0046L56.2309 66.4603L56.3175 67.7258L56.3007 67.7202C56.1499 66.0273 56.0158 65.5635 55.7783 65.1194C56.1527 64.9406 57.164 64.7003 60.0693 57.5682C61.2706 54.6181 61.0136 52.5508 61.0415 52.4782L63.3407 53.0341L58.0607 63.0046Z" fill="#1F2937"/>
<path d="M57.8343 90.1977C57.717 90.7229 56.8342 91.0693 55.2446 91.2202C54.4736 91.29 53.5405 91.318 52.4454 91.2956C52.0459 91.2872 51.666 91.2789 51.3028 91.2621C50.6994 91.2397 50.1462 91.2118 49.6406 91.1727C49.0064 91.1224 48.4561 91.061 47.9923 90.9855C46.9475 90.8095 46.3553 90.5553 46.2742 90.2005C46.1597 89.6921 47.2492 89.1697 49.878 89.544C50.4256 89.6222 51.0402 89.7368 51.7246 89.9016C52.6381 90.1195 53.4176 90.2731 54.0852 90.3709C54.3115 90.4072 54.5266 90.4352 54.725 90.4575C54.8982 90.4799 55.0658 90.4966 55.2222 90.5078C57.4013 90.6866 57.8343 90.1977 57.8343 90.1977Z" fill="#1F2937"/>
<path d="M68.4168 93.5529L67.3999 93.9021C66.9669 94.0501 66.4947 94.0445 66.0673 93.8853L65.0141 93.4942C64.542 93.321 64.2347 92.8684 64.2431 92.3656L64.2654 91.0051C64.0699 90.3514 64.7068 89.7535 65.3466 89.991C65.3466 89.991 68.4978 90.4408 68.9615 90.8822L69.2213 92.1477C69.3415 92.7539 68.9978 93.3545 68.4168 93.5529Z" fill="#1F2937"/>
<path d="M66.6478 91.8823C64.9717 91.1392 64.3096 90.6391 64.3096 90.6391L68.6146 90.6615L66.6478 91.8823Z" fill="#FECACA"/>
<path d="M72.8029 90.2815C72.8113 90.3011 72.8225 90.3206 72.8225 90.343C72.8225 90.871 70.2411 91.304 67.062 91.304C64.0309 91.304 61.5502 90.9129 61.3239 90.4184H61.2904L61.5921 65.0522L60.916 50.7684L70.3277 54.8779L70.2747 55.9534L70.2663 56.1126C70.2663 56.1378 70.2635 56.1629 70.2635 56.1909L70.2439 56.5596V56.5736L69.8612 64.2589C69.8277 64.9293 69.8528 65.6026 69.9338 66.2675L70.1322 67.9325C70.135 67.9381 70.135 67.9409 70.135 67.9437L72.8197 90.2815H72.8029Z" fill="#374151"/>
<path d="M61.4131 61.3172C61.3768 61.3172 61.3432 61.2865 61.3432 61.2502C61.2455 57.9789 61.0583 53.0118 60.9438 52.7352C60.8208 52.4363 60.1615 52.0843 59.9185 51.9726C59.8822 51.9558 59.8682 51.9139 59.885 51.8804C59.9017 51.8441 59.9436 51.8301 59.9772 51.8469C60.0163 51.8636 60.9046 52.2743 61.0751 52.6821C61.2371 53.0705 61.4606 60.4093 61.4829 61.2446C61.4829 61.2837 61.4522 61.3145 61.4131 61.3172Z" fill="#1F2937"/>
<path d="M60.9823 50.0505C60.9459 50.0505 60.9124 50.0197 60.9124 49.9834C60.9012 49.6761 60.8929 49.3213 60.8873 48.9554C60.8733 48.0558 60.8845 47.0389 60.8985 46.4299C60.8985 46.3908 60.932 46.3657 60.9711 46.3629C61.0102 46.3629 61.0409 46.3964 61.0381 46.4355C61.0242 47.0417 61.013 48.0586 61.027 48.9554C61.0325 49.3213 61.0409 49.6733 61.0521 49.9806C61.0521 50.0169 61.0242 50.0477 60.9823 50.0505C60.9851 50.0505 60.9823 50.0505 60.9823 50.0505Z" fill="#1F2937"/>
<path d="M55.8626 48.8213H55.7788C55.7397 48.8213 55.709 48.7906 55.709 48.7515C55.709 48.7124 55.7397 48.6816 55.7788 48.6816H55.8626C56.2984 48.6789 57.0751 48.6677 57.6142 48.6593L57.8657 48.6565C57.9914 48.6537 58.0919 48.6509 58.1506 48.6481L58.4831 46.5948C58.4886 46.5557 58.5222 46.5306 58.5641 46.5361C58.6032 46.5417 58.6283 46.578 58.6227 46.6172L58.2819 48.7263C58.2763 48.7599 58.2484 48.785 58.2149 48.785C58.2149 48.785 58.0808 48.7878 57.8712 48.7934L57.6198 48.7962C57.0751 48.8074 56.3012 48.8185 55.8626 48.8213Z" fill="#1F2937"/>
<path d="M66.3881 48.8185C65.7791 48.8185 64.3013 48.7905 63.9521 48.7849C63.9185 48.7849 63.8906 48.7598 63.885 48.7263L63.5135 46.4327C63.5079 46.3936 63.533 46.3601 63.5721 46.3517C63.614 46.3461 63.6448 46.3712 63.6532 46.4104L64.0135 48.6481C65.0332 48.6676 66.5278 48.6928 66.6228 48.6788C66.6591 48.6732 66.6954 48.6983 66.701 48.7375C66.7066 48.7738 66.6842 48.8101 66.6451 48.8185C66.6256 48.8185 66.5306 48.8185 66.3881 48.8185Z" fill="#1F2937"/>
<path d="M56.4544 69.8295C56.4181 69.8295 56.3874 69.8015 56.3846 69.7652C56.3287 68.9299 56.2784 68.2622 56.2337 67.7259C56.0857 66.0665 55.9544 65.5915 55.7197 65.1529C55.689 65.0915 55.6554 65.0356 55.6219 64.9741C55.6024 64.9406 55.6136 64.8987 55.6471 64.8792C55.6806 64.8596 55.7225 64.8708 55.7421 64.9043C55.7784 64.9658 55.8119 65.0272 55.8454 65.0887C56.0885 65.544 56.2254 66.0301 56.3762 67.7119C56.4237 68.2483 56.474 68.916 56.5271 69.754C56.5299 69.7932 56.5019 69.8267 56.4628 69.8295C56.4572 69.8295 56.4544 69.8295 56.4544 69.8295Z" fill="#1F2937"/>
<path d="M50.0738 64.6863C50.0654 64.6863 50.0542 64.6835 50.0458 64.6807C49.0597 64.2337 48.5848 64.2477 48.3585 64.3371C48.2244 64.3902 48.1909 64.4684 48.1909 64.4712C48.1769 64.5075 48.135 64.5242 48.1015 64.5103C48.0652 64.4963 48.0484 64.4572 48.0596 64.4237C48.0652 64.4097 48.1127 64.2896 48.2942 64.2142C48.5429 64.108 49.0597 64.0829 50.1045 64.555C50.1408 64.5717 50.1548 64.6136 50.138 64.6472C50.1241 64.6723 50.0989 64.6863 50.0738 64.6863Z" fill="#1F2937"/>
<path d="M67.0198 64.6864C67.0087 64.6864 67.0003 64.6836 66.9919 64.6808C65.3185 63.9237 64.2793 64.6668 64.2681 64.6724C64.2374 64.6947 64.1927 64.6891 64.1703 64.6584C64.148 64.6277 64.1536 64.583 64.1843 64.5606C64.229 64.5271 65.3018 63.7617 67.0478 64.5523C67.0841 64.569 67.0981 64.6109 67.0813 64.6444C67.0701 64.6724 67.045 64.6864 67.0198 64.6864Z" fill="#1F2937"/>
<path d="M69.8642 64.2534C69.8307 64.9239 69.8559 65.5971 69.9369 66.262L70.1352 67.927C70.0738 67.7315 69.1463 65.6334 69.4033 63.3063C69.6436 61.1413 70.1213 58.4203 70.2442 56.5681L69.8642 64.2534Z" fill="#1F2937"/>
<path d="M47.1184 77.7856C47.1156 77.7856 47.1156 77.7856 47.1128 77.7856C47.0737 77.7828 47.0457 77.7493 47.0485 77.7102C47.2357 74.9222 49.0069 70.7876 49.317 70.5809C49.3477 70.5585 49.3924 70.5669 49.4147 70.6004C49.4371 70.6339 49.4287 70.6758 49.3952 70.6982C49.1354 70.8714 47.3726 74.9808 47.1882 77.7214C47.1854 77.7577 47.1547 77.7856 47.1184 77.7856Z" fill="#1F2937"/>
<path d="M57.6169 87.0408C57.5806 87.0408 57.5526 87.0157 57.547 86.9794C57.2425 84.2584 55.5105 81.2385 54.5802 79.6154C54.15 78.8611 53.9991 78.5957 54.0159 78.484C54.0215 78.4449 54.0578 78.4169 54.0941 78.4253C54.1332 78.4309 54.1584 78.4644 54.1528 78.5035C54.1528 78.5901 54.4182 79.0539 54.7003 79.5455C55.6362 81.177 57.3766 84.2137 57.6839 86.9654C57.6895 87.0045 57.6616 87.038 57.6225 87.0436C57.6225 87.0408 57.6197 87.0408 57.6169 87.0408Z" fill="#1F2937"/>
<path d="M61.5249 70.7122C61.4858 70.7122 61.4551 70.6787 61.4551 70.6423C61.4942 67.3068 62.8351 63.7952 63.2905 63.3286C63.3184 63.3007 63.3631 63.3007 63.3883 63.3258C63.4162 63.3538 63.4162 63.3957 63.3911 63.4236C63.0195 63.8063 61.6367 67.1866 61.5948 70.6423C61.5948 70.6815 61.564 70.7122 61.5249 70.7122Z" fill="#1F2937"/>
<path d="M71.513 79.4394C71.4823 79.4394 71.4516 79.4171 71.446 79.3863C70.9208 77.1849 68.3814 72.9861 68.1775 72.7347C68.1523 72.704 68.1579 72.6593 68.1886 72.6369C68.2194 72.6118 68.2613 72.6174 68.2864 72.6481C68.4903 72.9023 71.0521 77.1347 71.5801 79.3556C71.5885 79.3919 71.5661 79.431 71.527 79.4394C71.5242 79.4394 71.5186 79.4394 71.513 79.4394Z" fill="#1F2937"/>
<path d="M51.132 58.1855C51.1209 58.1855 51.1097 58.1827 51.1013 58.1771C51.0678 58.1603 51.0538 58.1184 51.0706 58.0821C51.0818 58.0626 52.0903 56.135 54.5626 55.2578C54.5989 55.2438 54.638 55.2634 54.652 55.2997C54.666 55.336 54.6464 55.3751 54.6101 55.3891C52.1908 56.2467 51.2047 58.1268 51.1935 58.1436C51.1823 58.1715 51.1572 58.1855 51.132 58.1855Z" fill="#1F2937"/>
<path d="M70.2465 55.5931C70.213 55.5931 70.1823 55.5679 70.1767 55.5344C69.9839 54.389 69.1347 53.7297 68.6262 53.3386C68.3888 53.1542 68.2295 53.0341 68.1876 52.914C68.1737 52.8776 68.1932 52.8385 68.2295 52.8246C68.2659 52.8106 68.305 52.8302 68.3189 52.8665C68.3469 52.9475 68.5173 53.076 68.71 53.2269C69.2352 53.6319 70.1124 54.3108 70.3136 55.512C70.3192 55.5511 70.294 55.5847 70.2549 55.5931C70.2549 55.5931 70.2493 55.5931 70.2465 55.5931Z" fill="#1F2937"/>
<path d="M55.1698 50.0505C55.1474 50.0505 55.1251 50.0394 55.1111 50.0198C55.0888 49.9891 55.0971 49.9444 55.1307 49.922C55.167 49.8969 56.0721 49.3074 58.4663 49.2571C58.511 49.2599 58.5361 49.2879 58.5361 49.327C58.5361 49.3661 58.5054 49.3968 58.4663 49.3968C56.1224 49.4443 55.2145 50.031 55.2061 50.0366C55.1949 50.0477 55.1837 50.0505 55.1698 50.0505Z" fill="#1F2937"/>
<path d="M54.7282 90.4548C54.0997 90.6196 52.7699 90.966 51.3032 91.2593C49.8254 91.5582 48.18 91.8041 46.9927 91.7454C46.9927 91.7454 47.4201 91.4213 47.9956 90.98C48.5627 90.5442 49.2807 89.9966 49.8813 89.5385C50.4288 89.6167 51.0434 89.7312 51.7279 89.896C52.9515 90.1922 53.9376 90.3626 54.7282 90.4548Z" fill="#FECACA"/>
<path d="M55.7169 46.4635C55.7113 46.4635 55.7029 46.4635 55.6974 46.4607C55.661 46.4496 55.6387 46.4104 55.6499 46.3741C55.9823 45.2902 57.1947 44.751 57.6501 44.5471C57.7171 44.5164 57.7842 44.4884 57.7982 44.4772C57.8233 44.4493 57.8652 44.4493 57.8931 44.4745C57.9211 44.4996 57.9211 44.5471 57.8959 44.575C57.8736 44.6002 57.8345 44.6169 57.706 44.6756C57.2674 44.8712 56.0968 45.3908 55.784 46.416C55.7728 46.444 55.7449 46.4635 55.7169 46.4635Z" fill="#1F2937"/>
<path d="M51.6073 93.2037V92.2594L48.7159 93.2037H44.0953C43.6455 93.2037 43.2069 93.0919 42.8102 92.8796C42.5895 92.7567 42.6482 92.4214 42.8968 92.3851L49.6406 91.1727L54.0881 90.3709C54.3144 90.4072 54.5295 90.4352 54.7278 90.4575C54.901 90.4799 55.0687 90.4966 55.2251 90.5078L55.2447 91.223L55.2949 93.2092H51.6073V93.2037Z" fill="#1F2937"/>
<path d="M66.0726 41.8372C66.3408 41.9741 65.0027 43.1391 64.6758 42.815C63.3321 41.4824 62.1448 40.0437 62.2202 39.6163C62.2146 39.5325 62.3096 39.4794 62.3794 39.5297C62.3822 39.5297 64.1059 40.8343 66.0726 41.8372Z" fill="#FECACA"/>
<path d="M63.7011 44.0918C63.7402 44.3041 63.6899 44.5248 63.5586 44.7008L63.5083 44.7678L62.0416 37.2697C62.0612 36.7166 61.8908 36.5797 61.6952 36.5825L54.9766 36.5965L55.1749 36.4177C55.2811 36.2696 55.4515 36.1802 55.6331 36.1774L61.9411 36.1467C62.1255 36.1467 62.2847 36.278 62.3154 36.4596L63.7011 44.0918Z" fill="#1F2937"/>
<path d="M62.1808 36.7865L63.6 44.5165C63.6307 44.6869 63.4994 44.8433 63.3262 44.8433H56.8897C56.7081 44.8433 56.5545 44.7176 56.5154 44.5388L54.9118 36.8284C54.8755 36.6552 55.0068 36.4932 55.1828 36.4932L61.8009 36.4708C61.9881 36.4736 62.1473 36.6049 62.1808 36.7865Z" fill="#EBF6FF"/>
<path d="M59.4541 39.3873C59.4346 39.6834 59.1245 39.9013 58.7613 39.879C58.3981 39.8539 58.1216 39.594 58.1411 39.3007C58.1607 39.0046 58.4708 38.7867 58.8339 38.809C59.1971 38.8342 59.4737 39.094 59.4541 39.3873Z" fill="#1F2937"/>
<path d="M45.864 38.7L43.0089 36.7221L42.3691 36.2779L43.9056 33.8893L44.2018 34.0653L45.8109 35.0236C45.9813 35.979 46.0176 37.2892 45.864 38.7Z" fill="#FECACA"/>
<path d="M43.9053 34.0234L43.0113 36.7081C43.0113 36.7081 40.1199 36.2276 39.5249 35.6884C39.0807 35.2862 40.4747 33.4815 40.4747 33.4815L43.9053 34.0234Z" fill="#FECACA"/>
<path d="M44.9506 34.5626C45.1713 34.7665 43.5649 35.5208 43.3386 35.1213C42.4112 33.4731 41.6625 31.7634 41.8524 31.3723C41.8692 31.2885 41.9753 31.2661 42.0284 31.3332C42.0312 31.336 43.3331 33.0596 44.9506 34.5626Z" fill="#FECACA"/>
<path d="M40.5137 34.2693C40.469 34.2581 40.4215 34.2385 40.3852 34.2218L40.3238 34.1883C40.2791 34.1631 40.2567 34.1464 40.2232 34.124C40.1617 34.0821 40.1086 34.0402 40.0556 33.9983C39.9494 33.9145 39.8488 33.8279 39.7511 33.7385C39.5555 33.5625 39.3711 33.3753 39.1923 33.1853C38.9046 32.8753 38.4883 32.3556 38.1894 31.9338C38.1196 31.8332 38.2034 31.6963 38.3263 31.7159C38.547 31.7522 38.7481 31.8668 38.8962 32.0372C39.1197 32.2914 39.3516 32.5009 39.6253 32.7523C39.8069 32.9172 39.9913 33.0736 40.1841 33.2217C40.2791 33.2943 40.3768 33.3669 40.4746 33.4312C40.5221 33.4647 40.5724 33.4954 40.6171 33.5206C40.6366 33.5318 40.6674 33.5513 40.6785 33.5541L40.7009 33.5653C40.6925 33.5597 40.673 33.5513 40.659 33.5513L40.5137 34.2693Z" fill="#FECACA"/>
<path d="M40.4861 34.7722C40.4442 34.761 40.3939 34.7414 40.3604 34.7275L40.2961 34.6967C40.2514 34.6744 40.2207 34.6548 40.1816 34.6353C40.1062 34.5934 40.0419 34.5515 39.9721 34.5096C39.8352 34.4229 39.7039 34.3363 39.5726 34.247C39.3128 34.0654 39.0585 33.8754 38.8155 33.6715C38.3741 33.3027 37.8349 32.744 37.4662 32.2327C37.4187 32.1657 37.4662 32.0763 37.5472 32.0735C37.8238 32.0707 38.0947 32.1797 38.2791 32.3864C38.5445 32.6825 38.8267 32.9256 39.1898 33.1882C39.4301 33.3642 39.6815 33.5262 39.9357 33.6798C40.0643 33.7553 40.1928 33.8307 40.3213 33.9005C40.3855 33.9341 40.4526 33.9704 40.514 33.9983C40.5448 34.0123 40.5783 34.0318 40.6034 34.0402L40.6453 34.057C40.6481 34.057 40.6342 34.0514 40.6286 34.0514L40.4861 34.7722Z" fill="#FECACA"/>
<path d="M40.3464 35.5041C40.3101 35.4901 40.271 35.4733 40.2403 35.4622L40.176 35.4286C40.1313 35.4063 40.0978 35.3839 40.0587 35.3616C39.9832 35.3169 39.9106 35.2722 39.838 35.2275C39.6955 35.1353 39.553 35.0431 39.4161 34.9453C39.1396 34.7498 38.8742 34.5459 38.6172 34.3279C38.173 33.948 37.5751 33.3614 37.1757 32.8417C37.1086 32.7523 37.1784 32.6266 37.2902 32.635L37.3321 32.6378C37.5891 32.6602 37.8238 32.7859 37.997 32.9786C38.2931 33.3083 38.606 33.5569 38.9971 33.8502C39.2485 34.0402 39.5139 34.2162 39.7821 34.3838C39.9162 34.4676 40.0531 34.5459 40.19 34.6213C40.257 34.6576 40.3269 34.6939 40.3939 34.7274C40.4274 34.7442 40.4638 34.7638 40.4917 34.7749L40.5364 34.7945C40.5448 34.7973 40.542 34.7945 40.5448 34.7973L40.3464 35.5041Z" fill="#FECACA"/>
<path d="M40.3068 36.046L40.2174 36.0209L40.1587 35.9986L40.047 35.9539C39.9995 35.9343 39.952 35.9147 39.9073 35.8924C39.8151 35.8505 39.7229 35.8086 39.6308 35.7611C39.2927 35.5907 38.9631 35.4035 38.6502 35.1856C38.2144 34.8839 37.6501 34.3531 37.2813 33.8726C37.2143 33.786 37.2729 33.6575 37.3847 33.6491C37.5942 33.6351 37.8009 33.7134 37.9434 33.867C38.2395 34.1799 38.5999 34.4453 38.9798 34.6688C39.2815 34.8476 39.6 35.0012 39.9241 35.1353C40.0051 35.1688 40.0889 35.1996 40.1727 35.2303C40.2146 35.2471 40.2565 35.261 40.2984 35.275L40.3906 35.3057L40.4353 35.3197C40.4437 35.3197 40.4465 35.3197 40.4521 35.3225L40.3068 36.046Z" fill="#FECACA"/>
<path d="M62.7891 42.6697C62.7416 42.6809 62.683 42.6893 62.6383 42.692H62.5628C62.5069 42.692 62.4762 42.6865 62.4315 42.6809C62.3505 42.6725 62.2751 42.6613 62.1997 42.6473C62.0516 42.6222 61.9063 42.5915 61.7638 42.558C61.4789 42.4909 61.2023 42.4099 60.9258 42.3177C60.4788 42.1696 59.7971 41.8875 59.2859 41.6361C59.163 41.5774 59.1742 41.3986 59.3027 41.3539C59.5373 41.2729 59.7915 41.2785 60.0262 41.3623C60.381 41.4908 60.7162 41.569 61.1157 41.6668C61.3783 41.731 61.6437 41.7841 61.9091 41.8232C62.0404 41.8428 62.736 41.935 62.7221 41.9434L62.7891 42.6697Z" fill="#FECACA"/>
<path d="M62.482 43.1502C62.4373 43.1586 62.3842 43.1642 62.3451 43.1642L62.2724 43.1614C62.2222 43.1614 62.183 43.1558 62.1384 43.153C62.0517 43.1475 61.9735 43.1363 61.8897 43.1279C61.7277 43.1083 61.5684 43.0832 61.4092 43.0553C61.0907 42.9994 60.7751 42.9323 60.4622 42.8485C59.8979 42.6977 59.1575 42.4127 58.5988 42.0998C58.5262 42.0607 58.5318 41.9546 58.6072 41.9183C58.8614 41.7953 59.1576 41.7814 59.4174 41.8931C59.7917 42.0524 60.1577 42.1557 60.6019 42.2423C60.9008 42.301 61.2025 42.3429 61.5042 42.3764C61.6551 42.3932 61.8059 42.4044 61.9568 42.4127C62.0294 42.4155 62.1076 42.4211 62.1775 42.4211C62.211 42.4211 62.2529 42.4239 62.278 42.4211L62.3227 42.4183C62.3255 42.4155 62.3088 42.4183 62.3032 42.4211L62.482 43.1502Z" fill="#FECACA"/>
<path d="M62.9432 43.8486C62.9041 43.8514 62.8594 43.8542 62.8259 43.8542L62.7533 43.8514C62.703 43.8486 62.6611 43.8458 62.6164 43.8402C62.527 43.8318 62.4404 43.8235 62.3538 43.8123C62.1806 43.7899 62.0102 43.7648 61.8426 43.7341C61.5045 43.6726 61.1693 43.5972 60.8396 43.505C60.2642 43.343 59.4596 43.0608 58.8673 42.7507C58.7668 42.6976 58.778 42.5496 58.8841 42.5105L58.926 42.4965C59.1746 42.4071 59.4456 42.4211 59.6887 42.5244C60.1049 42.7004 60.4988 42.7954 60.9905 42.9016C61.3062 42.9686 61.6247 43.0189 61.9459 43.0552C62.1052 43.0748 62.2672 43.0887 62.4264 43.0999C62.5046 43.1055 62.5857 43.1083 62.6611 43.1111C62.6974 43.1111 62.7393 43.1139 62.7728 43.1111H62.8231C62.8315 43.1111 62.8287 43.1083 62.8315 43.1111L62.9432 43.8486Z" fill="#FECACA"/>
<path d="M63.2108 44.2174L63.1158 44.2286L63.0516 44.2314L62.9287 44.2342C62.8756 44.2369 62.8253 44.2342 62.7722 44.2342C62.6688 44.2342 62.5655 44.2314 62.4621 44.2258C62.0766 44.2034 61.6911 44.1643 61.3112 44.0889C60.7804 43.9855 60.0345 43.7229 59.4953 43.424C59.3975 43.3709 59.4003 43.2256 59.4981 43.1754C59.688 43.0748 59.9115 43.0664 60.1099 43.1502C60.515 43.3234 60.9591 43.4212 61.4089 43.4743C61.7637 43.519 62.1241 43.5302 62.4845 43.5246C62.5767 43.5218 62.6661 43.5162 62.7555 43.5106C62.8002 43.5078 62.8476 43.505 62.8895 43.4994L62.9873 43.4883L63.0348 43.4827C63.0432 43.4799 63.046 43.4799 63.0516 43.4799L63.2108 44.2174Z" fill="#FECACA"/>
<path d="M67.4489 44.0526L66.1247 44.3571C65.6191 44.4744 65.0967 44.5191 64.5799 44.4912C64.3061 44.4744 63.982 44.4521 63.6496 44.4214C62.8227 44.3487 61.9455 44.2314 61.6214 44.0442C61.1186 43.7537 62.1969 41.9211 62.1969 41.9211L64.4653 41.8847L64.7307 41.8792L64.6972 41.7171C64.6972 41.7171 64.9654 41.6194 65.3621 41.4853H65.3649C66.2169 41.4881 66.9489 42.477 67.4489 44.0526Z" fill="#FECACA"/>
<path d="M62.221 43.2704C62.2182 43.2704 62.2182 43.2704 62.2154 43.2704C60.3102 43.1056 58.9497 42.3848 58.5781 42.1669C58.5446 42.1474 58.5278 42.1027 58.5474 42.0691C58.5669 42.0356 58.6033 42.0217 58.6368 42.0384L58.6508 42.0468C59.0167 42.2591 60.3521 42.9687 62.2294 43.1307C62.2685 43.1335 62.2964 43.167 62.2936 43.2061C62.2853 43.2425 62.2545 43.2704 62.221 43.2704Z" fill="#FEE2E2"/>
<path d="M62.1648 43.9241C62.162 43.9241 62.1592 43.9241 62.1564 43.9241C60.5054 43.7537 58.846 42.8206 58.8292 42.8122C58.7957 42.7927 58.7845 42.7508 58.8041 42.7172C58.8236 42.6837 58.8655 42.6725 58.899 42.6921C58.9158 42.7005 60.5501 43.6196 62.1704 43.7872C62.2095 43.79 62.2374 43.8263 62.2318 43.8626C62.2318 43.8989 62.2011 43.9241 62.1648 43.9241Z" fill="#FEE2E2"/>
<path d="M62.2211 42.6586C62.2183 42.6586 62.2183 42.6586 62.2155 42.6586C61.4221 42.5971 60.6846 42.3177 60.6539 42.3066C60.6176 42.2926 60.6008 42.2535 60.6148 42.2172C60.6287 42.1809 60.6678 42.1641 60.7042 42.1781C60.7125 42.1809 61.4556 42.463 62.2295 42.5217C62.2686 42.5245 62.2965 42.558 62.2937 42.5971C62.2853 42.6306 62.2574 42.6586 62.2211 42.6586Z" fill="#FEE2E2"/>
<path d="M43.2801 34.9789C43.2633 34.9789 43.2494 34.9733 43.2354 34.9621C42.9113 34.6939 42.5649 33.8866 42.3861 33.4284L42.375 33.3977C42.361 33.3614 42.375 33.3223 42.4113 33.3055C42.4448 33.2915 42.4867 33.3055 42.5035 33.339C42.5063 33.3418 42.5091 33.3558 42.5174 33.3754C42.8108 34.1324 43.1041 34.6716 43.3248 34.8532C43.3555 34.8783 43.3583 34.923 43.3332 34.951C43.3192 34.9705 43.2996 34.9789 43.2801 34.9789Z" fill="#FEE2E2"/>
<path d="M39.595 35.4426C39.5867 35.4426 39.5783 35.4399 39.5699 35.4371C39.5336 35.4231 39.5168 35.3812 39.5308 35.3449L39.5643 35.2583C39.7878 34.7051 40.2068 33.6715 40.6287 33.4815C40.6622 33.4648 40.7041 33.4815 40.7209 33.515C40.7376 33.5514 40.7209 33.5905 40.6873 33.6072C40.3158 33.7749 39.88 34.8504 39.6956 35.3086L39.6593 35.3952C39.6509 35.4259 39.623 35.4426 39.595 35.4426Z" fill="#FEE2E2"/>
<path d="M42.2638 35.4426C42.2415 35.4426 42.2219 35.4342 42.2079 35.4146C42.1856 35.3839 42.1912 35.3392 42.2219 35.3169C42.6074 35.0263 43.4232 34.9565 43.7919 35.2917C43.8199 35.3169 43.8226 35.3616 43.7975 35.3895C43.7724 35.4174 43.7277 35.4202 43.6997 35.3951C43.3868 35.1101 42.6521 35.1716 42.3085 35.4286C42.2917 35.437 42.2778 35.4426 42.2638 35.4426Z" fill="#FEE2E2"/>
<path d="M39.6449 35.085C39.6337 35.085 39.6225 35.0822 39.6114 35.0766C39.3991 34.9621 38.709 34.585 38.6839 34.5682C38.6504 34.5459 38.642 34.504 38.6643 34.4704C38.6867 34.4397 38.7286 34.4285 38.7593 34.4509C38.79 34.4704 39.3264 34.7638 39.6784 34.9537C39.7119 34.9733 39.7259 35.0152 39.7064 35.0487C39.6952 35.0739 39.67 35.085 39.6449 35.085Z" fill="#FEE2E2"/>
<path d="M39.9724 34.5767C39.9613 34.5767 39.9501 34.5739 39.9389 34.5683C39.2042 34.1576 38.2432 33.3251 38.2348 33.3168C38.2069 33.2916 38.2041 33.2469 38.232 33.219C38.2572 33.1911 38.3019 33.1883 38.3298 33.2134C38.3382 33.2218 39.2936 34.0459 40.006 34.4454C40.0395 34.4649 40.0507 34.5069 40.0339 34.5404C40.0199 34.5655 39.9976 34.5767 39.9724 34.5767Z" fill="#FEE2E2"/>
<path d="M40.2661 33.9676C40.2577 33.9676 40.2493 33.9648 40.2382 33.962C39.7046 33.7441 38.8078 32.9814 38.7715 32.9479C38.7436 32.9228 38.738 32.8781 38.7631 32.8501C38.7883 32.8222 38.833 32.8166 38.8609 32.8417C38.8693 32.8501 39.78 33.6212 40.2912 33.8307C40.3276 33.8447 40.3443 33.8866 40.3304 33.9229C40.3192 33.9508 40.294 33.9676 40.2661 33.9676Z" fill="#FEE2E2"/>
<path d="M65.0134 22.416C64.9994 22.416 64.9883 22.4132 64.9771 22.4048C64.9436 22.3853 64.9352 22.3406 64.9547 22.3071C64.9575 22.3015 65.3598 21.6841 66.0079 21.9662C66.0442 21.983 66.0582 22.0221 66.0442 22.0584C66.0275 22.0947 65.9856 22.1087 65.9521 22.0947C65.4101 21.8573 65.086 22.3601 65.0721 22.3825C65.0609 22.4048 65.0385 22.416 65.0134 22.416Z" fill="#FCA5A5"/>
<path d="M61.4883 34.1408C61.4771 34.1408 61.4688 34.138 61.4576 34.1324C61.4241 34.1157 61.4073 34.0738 61.4241 34.0402C61.4296 34.0291 62.0163 32.8446 63.3349 31.9869C63.3684 31.9674 63.4103 31.9758 63.4327 32.0065C63.455 32.04 63.4438 32.0819 63.4131 32.1043C62.1253 32.9396 61.5581 34.0877 61.5526 34.0989C61.5386 34.1241 61.5134 34.1408 61.4883 34.1408Z" fill="#1F2937"/>
<path d="M92.759 80.7685L91.5677 90.3835H91.5492C91.5492 90.7052 89.6265 90.9675 87.25 90.9675C84.8767 90.9675 82.954 90.7083 82.954 90.3835H82.9354L81.7441 80.7685H92.759Z" fill="#F87171"/>
<path d="M92.759 80.9725C92.759 80.9978 92.7559 81.0199 92.7436 81.0451C92.7128 81.1335 92.6172 81.222 92.4692 81.2977C92.4661 81.3009 92.463 81.3009 92.463 81.3009C91.8555 81.6324 90.3538 81.885 88.4974 81.964C88.3524 81.9735 88.2106 81.9766 88.0626 81.9798C87.8745 81.9861 87.6802 81.9892 87.489 81.9892C87.4798 81.9924 87.4705 81.9924 87.4613 81.9892C87.4335 81.9924 87.4027 81.9924 87.3749 81.9924H87.2516C87.2146 81.9924 87.1745 81.9924 87.1375 81.9892C87.119 81.9924 87.1005 81.9892 87.082 81.9892C87.0326 81.9924 86.9833 81.9924 86.934 81.9892C86.7428 81.9892 86.5516 81.9861 86.3635 81.9766C86.3542 81.9798 86.345 81.9798 86.3357 81.9766C86.2463 81.9766 86.16 81.9735 86.0705 81.9671H86.0459C85.8053 81.9577 85.5679 81.945 85.3397 81.9293C84.4917 81.8693 83.7454 81.7745 83.1503 81.6545C82.2776 81.4746 81.7441 81.2346 81.7441 80.9725C81.7441 80.8304 81.8952 80.701 82.1697 80.5778C82.6662 80.3631 83.5542 80.1831 84.6767 80.0694C84.8031 80.06 84.9296 80.0473 85.0591 80.0379C85.2164 80.0252 85.3767 80.0126 85.5401 80.0031C85.645 79.9968 85.7529 79.9905 85.8608 79.9842C86.0675 79.9747 86.2802 79.9684 86.4961 79.9621C86.6071 79.9589 86.715 79.9558 86.826 79.9589C86.8476 79.9558 86.8723 79.9558 86.897 79.9558H86.9155C86.9525 79.9526 86.9925 79.9526 87.0295 79.9558C87.1036 79.9526 87.1806 79.9526 87.2516 79.9526C87.452 79.9526 87.6524 79.9558 87.8467 79.9589C87.8621 79.9589 87.8776 79.9589 87.8899 79.9621C88.2198 79.9652 88.5436 79.981 88.852 79.9968C88.8921 80 88.9322 80.0031 88.9692 80.0063C91.1709 80.1389 92.759 80.521 92.759 80.9725Z" fill="#1F2937"/>
<path d="M94.3779 63.5766C94.3124 63.8167 94.044 64.0881 93.938 64.2222C93.1798 65.1703 92.5745 66.2244 92.0441 67.3128C91.8725 67.6496 91.7134 67.9927 91.5574 68.3357C91.1861 69.1497 90.8366 69.973 90.5184 70.815C90.3374 71.2797 90.1627 71.7475 89.9973 72.2185C89.8632 72.5989 89.7353 72.9825 89.6073 73.3661C89.3234 74.2238 89.0644 75.097 88.8086 75.9702C88.5746 76.8497 88.3219 77.7292 88.1035 78.618C87.9849 79.0733 87.8757 79.5286 87.7603 79.9871C87.7447 80.0619 87.726 80.1368 87.7072 80.2116C87.5855 80.7137 87.467 81.2158 87.3453 81.7211C87.3391 81.7522 87.3297 81.7865 87.3235 81.8177C87.3079 81.877 87.2954 81.9362 87.2798 81.9924H87.155C87.0988 81.9924 87.0395 81.9924 86.9865 81.9893C86.9366 81.9924 86.8867 81.9924 86.8367 81.9893C86.6433 81.9893 86.4498 81.9861 86.2595 81.9768C86.2502 81.9799 86.2408 81.9799 86.2314 81.9768C86.2346 81.9175 86.2377 81.8552 86.2408 81.799C86.2751 81.1971 86.3282 80.5952 86.3937 79.9902C86.4343 79.591 86.481 79.1918 86.5341 78.7926C86.5466 78.7084 86.5559 78.6273 86.5684 78.5494C86.5778 78.4714 86.5871 78.3934 86.5996 78.3186C86.8711 76.4598 87.2704 74.6136 87.8133 72.7985C88.3562 70.9866 89.0613 69.1996 90.0285 67.5373C90.041 67.5155 90.0566 67.4905 90.0691 67.4687C91.0145 65.8532 92.2095 64.3719 93.7788 63.3334C93.9348 63.2304 94.2188 63.1556 94.3436 63.3334C94.3966 63.4051 94.3997 63.4893 94.3779 63.5766Z" fill="#D1D5DB"/>
<path d="M90.0876 67.6028C90.165 68.2457 90.1972 68.9843 90.1746 69.8311C90.1682 70.1031 90.1553 70.3843 90.1359 70.6841C90.1005 71.2126 90.0618 71.7596 90.0134 72.3066C89.8586 74.1208 89.6296 75.9906 89.32 77.6347C89.1555 78.5155 88.9652 79.3345 88.7556 80.0423C88.5105 80.8489 88.2331 81.5165 87.9267 81.9801C87.73 81.9862 87.5268 81.9893 87.3268 81.9893C87.3171 81.9924 87.3075 81.9924 87.2978 81.9893C87.2688 81.9924 87.2365 81.9924 87.2075 81.9924H87.0785C87.0204 81.9924 86.9591 81.9924 86.9043 81.9893C86.8527 81.9924 86.8011 81.9924 86.7495 81.9893C86.5495 81.9893 86.3496 81.9862 86.1529 81.977C86.1432 81.9801 86.1335 81.9801 86.1238 81.977C86.0303 81.977 85.94 81.9739 85.8465 81.9677H85.8207C85.4691 81.5072 85.1208 80.8613 84.7886 80.0825C84.3629 79.0811 83.963 77.8604 83.6243 76.5469C83.3083 75.3292 83.047 74.0312 82.86 72.7609C82.7922 72.2974 82.7342 71.843 82.689 71.3918C82.631 70.8355 82.5923 70.2885 82.5729 69.7693C82.5407 68.8607 82.5697 68.0788 82.6535 67.405V67.4019C82.8696 65.6372 83.4469 64.6297 84.1726 64.0703C83.8888 62.6827 83.8759 60.9303 84.2145 59.3881C84.8789 56.3501 87.1301 53.9797 88.6008 54.2764C90.0747 54.5731 90.7132 57.5709 90.0489 60.6089C89.7779 61.8451 89.2522 63.1122 88.6266 64.1599C89.32 64.7626 89.8779 65.8134 90.0876 67.6028Z" fill="#9CA3AF"/>
<path d="M86.8603 81.8636C86.8294 81.8636 86.7985 81.842 86.7861 81.8111C86.054 79.6332 85.2168 75.7964 85.3774 69.8961C85.64 60.2608 88.4358 54.1967 88.4636 54.1349C88.4821 54.0948 88.5284 54.0793 88.5655 54.0979C88.6057 54.1164 88.6211 54.1627 88.6026 54.1998C88.5748 54.2585 85.7914 60.2979 85.5288 69.8991C85.3682 75.7748 86.2023 79.5931 86.9313 81.7586C86.9437 81.7988 86.922 81.842 86.8819 81.8575C86.8757 81.8636 86.8695 81.8636 86.8603 81.8636Z" fill="#374151"/>
<path d="M87.0473 81.9901C86.998 81.9932 86.9486 81.9932 86.8992 81.9901C86.7078 81.9901 86.5164 81.987 86.328 81.9777C86.3188 81.9808 86.3095 81.9808 86.3003 81.9777C86.2107 81.9777 86.1243 81.9746 86.0348 81.9684C85.9452 81.6268 85.8588 81.2852 85.7631 80.9467C85.6705 80.6455 85.5871 80.3443 85.5038 80.04C85.334 79.4344 85.1765 78.8289 84.9913 78.2265C84.9481 78.0867 84.9018 77.947 84.8555 77.8072C84.3615 76.09 83.7997 74.3914 83.1791 72.7176C82.9229 72.0251 82.6574 71.3357 82.3765 70.6494C81.3114 68.0006 80.1074 65.4014 78.8016 62.8737C78.4249 62.1439 78.0421 61.4173 77.6593 60.6906C77.4525 60.29 76.8165 59.1876 77.755 59.6783C77.9248 59.7683 78.0761 59.8677 78.1193 59.9143C80.126 62.1004 81.7158 64.6375 82.9847 67.3298V67.3329C83.7225 68.8856 84.3492 70.4942 84.8863 72.1089C85.2938 73.3169 85.6612 74.5466 85.9638 75.7857C86.0533 76.1645 86.1119 76.5589 86.1953 76.9408C86.2323 77.1054 86.2756 77.2669 86.328 77.4253L86.504 78.242C86.5411 78.4283 86.5688 78.6177 86.5997 78.8072C86.6152 78.8941 86.6275 78.9811 86.6429 79.0649C86.6923 79.3754 86.7448 79.6829 86.7942 79.9934C86.8343 80.2325 86.8714 80.4716 86.9053 80.7107C86.927 80.8474 86.9455 80.9809 86.964 81.1175C86.964 81.1206 86.964 81.1237 86.964 81.1237C86.9949 81.4125 87.0196 81.7013 87.0473 81.9901Z" fill="#D1D5DB"/>
<path d="M87.0473 81.99C87.0283 81.9931 87.0093 81.99 86.9902 81.99C86.9395 81.9931 86.8888 81.9931 86.838 81.99C86.6414 81.99 86.4447 81.9869 86.2513 81.9775C86.2417 81.9806 86.2322 81.9806 86.2227 81.9775C86.1307 81.9775 86.0419 81.9744 85.9499 81.9681H85.9246C85.6772 81.9587 85.433 81.9462 85.1983 81.9305C84.9984 81.4361 84.7923 80.7978 84.5163 80.0874C83.8059 78.2505 82.6324 75.9318 79.892 74.3546C79.356 74.0448 78.8803 73.7069 78.4679 73.3533C76.2605 71.4601 75.8894 69.1475 77.1898 68.359C78.3728 67.6392 80.2568 68.6093 82.1915 70.5651C82.4072 70.7841 82.6292 71.0188 82.848 71.2629C83.2223 71.6822 83.5934 72.1297 83.9613 72.6116C84.8843 73.8195 85.6137 75.3748 86.1149 76.9081C86.2925 77.462 86.4447 78.0127 86.5652 78.5416C86.6096 78.745 86.708 79.3364 86.8 79.981C86.911 80.7665 87.0251 81.6364 87.0473 81.99Z" fill="#9CA3AF"/>
<path d="M100.84 76.4026C101.157 78.0638 100.481 80.0689 99.2828 80.3317C98.0876 80.5945 96.8229 79.0177 96.506 77.3565C96.189 75.6953 96.9014 74.1347 98.0997 73.8719C99.2979 73.6058 100.523 74.7414 100.84 76.4026Z" fill="#1F2937"/>
<path d="M96.2025 68.274C96.1519 68.3079 96.0981 68.3388 96.0475 68.3727C96.56 69.4832 96.5663 71.6026 94.1619 72.9692C92.5737 73.873 91.4285 74.962 90.5964 76.0756C89.5619 77.4607 89.0082 78.889 88.6665 80.0582C88.4388 80.8387 88.3027 81.505 88.1793 81.9678C88.0306 81.977 87.8851 81.9801 87.7333 81.9832C87.5403 81.9893 87.341 81.9924 87.1448 81.9924C87.1322 81.9616 87.1163 81.9307 87.1037 81.8999C87.0942 81.8752 87.0815 81.8474 87.072 81.8197C86.8791 81.3323 86.7367 80.6875 86.6734 80.0058C86.6133 79.3487 86.6291 78.6546 86.7462 78.0345C87.0341 76.4952 87.4232 74.962 87.9895 73.4936C88.4894 72.2072 89.1348 70.9825 89.9352 69.8534C90.0617 69.6745 90.1883 69.4956 90.3243 69.3228C90.8052 68.6966 91.3082 68.0673 91.8556 67.4719C92.7287 66.5156 93.7032 65.6426 94.8326 65.0071C95.633 64.5567 97.9773 63.406 98.7366 64.5012C99.2934 65.2909 98.1545 66.9814 96.2025 68.274Z" fill="#D1D5DB"/>
<path d="M80.883 74.9208C81.1597 75.8794 80.1381 77.2986 78.5845 77.7624C77.0309 78.2262 75.5382 77.5552 75.2615 76.5967C74.9848 75.6382 76.0216 74.4879 77.5721 74.0241C79.1257 73.5634 80.6094 73.9654 80.883 74.9208Z" fill="#1F2937"/>
<path d="M100.644 78.6641C100.644 78.6641 98.655 73.2589 94.2438 79.2674C93.7223 79.9821 93.1887 80.5762 92.6703 81.065C92.5793 81.1547 92.4914 81.2383 92.4004 81.3125C92.3974 81.3156 92.3944 81.3156 92.3944 81.3156C91.7971 81.6405 90.3206 81.888 88.4955 81.9654C88.353 81.9747 88.2136 81.9778 88.068 81.9808C87.8831 81.987 87.6921 81.9901 87.5041 81.9901C87.495 81.9932 87.4859 81.9932 87.4768 81.9901C87.4708 81.9592 87.4677 81.9282 87.4647 81.8973C87.4587 81.8416 87.4556 81.7828 87.4556 81.724C87.4526 81.3064 87.5739 80.7989 87.8073 80.2266C87.8346 80.1554 87.8679 80.0781 87.9013 80.0069C88.2287 79.2736 88.729 78.4568 89.3808 77.6307C89.7992 77.1048 90.2782 76.5695 90.8148 76.0559C90.8633 76.0095 90.9118 75.96 90.9634 75.9136C95.223 71.8976 102.411 72.6928 100.644 78.6641Z" fill="#9CA3AF"/>
<path d="M86.2317 81.9901C86.2224 81.9932 86.2131 81.9932 86.2038 81.9901C86.114 81.9901 86.0272 81.987 85.9374 81.9808H85.9126C85.671 81.9715 85.4325 81.9591 85.2033 81.9436C84.3515 81.8846 83.6019 81.7914 83.004 81.6735C82.6695 81.3723 82.335 81.0184 82.019 80.6149C81.4738 79.9164 80.9844 79.072 80.6375 78.0723C79.8259 75.7502 78.7542 75.238 77.7568 75.1107C75.796 74.8561 75.2168 76.2438 75.2168 76.2438C75.2168 76.2438 75.2261 74.9244 76.8647 74.0055C77.4223 73.692 78.0108 73.4902 78.6272 73.4374C79.9313 73.3319 81.3809 73.9062 83.004 75.5981C83.2766 75.8837 83.543 76.2004 83.8001 76.5387C84.1966 77.0696 84.5621 77.6532 84.8842 78.2431C85.2157 78.8484 85.5007 79.4631 85.7237 80.0374C85.9808 80.708 86.1542 81.3258 86.2131 81.8163C86.2224 81.8753 86.2286 81.9342 86.2317 81.9901Z" fill="#D1D5DB"/>
<path d="M96.1307 70.5756C96.1214 70.5756 96.1122 70.5756 96.1029 70.5694C96.0627 70.554 96.0442 70.5107 96.0565 70.4706C96.1832 70.1339 96.3284 68.9445 95.9114 68.2494C95.7384 67.9621 95.4881 67.7922 95.1669 67.749C93.8632 67.5667 92.8592 68.614 92.85 68.6263C92.8222 68.6572 92.7727 68.6603 92.7418 68.6294C92.7109 68.6016 92.7109 68.5522 92.7387 68.5213C92.782 68.4749 93.8076 67.4123 95.1885 67.5976C95.5592 67.647 95.8496 67.8417 96.0473 68.1722C96.4952 68.9229 96.3408 70.1617 96.2048 70.5262C96.1925 70.5571 96.1647 70.5756 96.1307 70.5756Z" fill="#374151"/>
<path d="M89.3376 81.8637C89.319 81.8637 89.2974 81.8575 89.282 81.842C89.2511 81.8111 89.2511 81.7617 89.282 81.7339C90.0635 80.9462 90.601 79.936 91.1695 78.8671C92.1024 77.1156 93.0631 75.3053 95.204 74.3415C98.0738 73.044 99.7296 74.0047 100.616 75.0396C100.644 75.0705 100.641 75.1199 100.607 75.1477C100.576 75.1755 100.527 75.1724 100.499 75.1385C99.2786 73.7113 97.4714 73.4826 95.2688 74.4805C93.1774 75.4227 92.226 77.2113 91.3054 78.9382C90.7308 80.0163 90.1871 81.0358 89.3901 81.842C89.3777 81.8575 89.3561 81.8637 89.3376 81.8637Z" fill="#374151"/>
<path d="M85.3585 81.9038C85.3337 81.9038 85.309 81.8914 85.2936 81.8698C84.6572 80.8813 83.9652 79.5405 82.9056 77.2453C81.256 73.6587 79.3036 73.3374 78.2811 73.4703C78.2749 73.4734 78.2687 73.4734 78.2595 73.4734C77.8208 73.529 77.5242 73.668 77.447 73.7112C77.4316 73.7205 77.4161 73.7267 77.4099 73.7298C77.3698 73.7421 77.3265 73.7205 77.3111 73.6803C77.2987 73.6402 77.3204 73.5969 77.3605 73.5815C77.4594 73.529 77.7683 73.3838 78.2286 73.322C78.244 73.3158 78.2595 73.3158 78.2687 73.3158C79.3222 73.1799 81.3518 73.5042 83.0446 77.1804C84.1012 79.4695 84.7901 80.8009 85.4202 81.7833C85.445 81.8204 85.4326 81.8667 85.3986 81.8914C85.3894 81.9007 85.3739 81.9038 85.3585 81.9038Z" fill="#374151"/>
<path d="M87.0757 81.9532C87.0726 81.9532 87.0695 81.9532 87.0664 81.9532C87.0232 81.947 86.9954 81.9099 87.0015 81.8667C87.0046 81.8512 87.2054 80.2387 85.9728 76.717C84.1873 71.6167 80.6934 69.3214 80.6563 69.2998C80.6192 69.2782 80.61 69.2288 80.6316 69.1948C80.6563 69.1577 80.7027 69.1484 80.7366 69.1701C80.7737 69.1917 84.3108 71.5148 86.1149 76.6676C87.363 80.2325 87.1591 81.8265 87.1498 81.8914C87.1467 81.9254 87.1158 81.9532 87.0757 81.9532Z" fill="#374151"/>
</svg>
