<svg width="51" height="137" viewBox="0 0 51 137" fill="none" xmlns="http://www.w3.org/2000/svg">
<path d="M1.36604 136.669C1.92814 136.669 2.38344 136.214 2.38344 135.652C2.38344 135.09 1.92814 134.634 1.36604 134.634C0.803936 134.634 0.348633 135.09 0.348633 135.652C0.348633 136.214 0.803936 136.669 1.36604 136.669Z" fill="#929493"/>
<path d="M1.36604 125.449C1.92814 125.449 2.38344 124.994 2.38344 124.431C2.38344 123.869 1.92814 123.414 1.36604 123.414C0.803936 123.414 0.348633 123.869 0.348633 124.431C0.348633 124.994 0.803936 125.449 1.36604 125.449Z" fill="#929493"/>
<path d="M1.36604 114.23C1.92814 114.23 2.38344 113.775 2.38344 113.213C2.38344 112.651 1.92814 112.195 1.36604 112.195C0.803936 112.195 0.348633 112.651 0.348633 113.213C0.348633 113.775 0.803936 114.23 1.36604 114.23Z" fill="#929493"/>
<path d="M1.36604 103.01C1.92814 103.01 2.38344 102.555 2.38344 101.993C2.38344 101.431 1.92814 100.975 1.36604 100.975C0.803936 100.975 0.348633 101.431 0.348633 101.993C0.348633 102.555 0.803936 103.01 1.36604 103.01Z" fill="#929493"/>
<path d="M1.36604 91.79C1.92814 91.79 2.38344 91.3347 2.38344 90.7726C2.38344 90.2105 1.92814 89.7552 1.36604 89.7552C0.803936 89.7552 0.348633 90.2105 0.348633 90.7726C0.348633 91.3347 0.803936 91.79 1.36604 91.79Z" fill="#929493"/>
<path d="M1.36604 80.5714C1.92814 80.5714 2.38344 80.1161 2.38344 79.554C2.38344 78.9919 1.92814 78.5366 1.36604 78.5366C0.803936 78.5366 0.348633 78.9919 0.348633 79.554C0.348633 80.1161 0.803936 80.5714 1.36604 80.5714Z" fill="#929493"/>
<path d="M1.36604 69.3512C1.92814 69.3512 2.38344 68.8959 2.38344 68.3338C2.38344 67.7717 1.92814 67.3164 1.36604 67.3164C0.803936 67.3164 0.348633 67.7717 0.348633 68.3338C0.348633 68.8959 0.803936 69.3512 1.36604 69.3512Z" fill="#929493"/>
<path d="M1.36604 58.1325C1.92814 58.1325 2.38344 57.6772 2.38344 57.1151C2.38344 56.553 1.92814 56.0977 1.36604 56.0977C0.803936 56.0977 0.348633 56.553 0.348633 57.1151C0.348633 57.6772 0.803936 58.1325 1.36604 58.1325Z" fill="#929493"/>
<path d="M1.36604 46.9123C1.92814 46.9123 2.38344 46.457 2.38344 45.8949C2.38344 45.3328 1.92814 44.8775 1.36604 44.8775C0.803936 44.8775 0.348633 45.3328 0.348633 45.8949C0.348633 46.457 0.803936 46.9123 1.36604 46.9123Z" fill="#929493"/>
<path d="M1.36604 35.6923C1.92814 35.6923 2.38344 35.237 2.38344 34.6749C2.38344 34.1128 1.92814 33.6575 1.36604 33.6575C0.803936 33.6575 0.348633 34.1128 0.348633 34.6749C0.348633 35.237 0.803936 35.6923 1.36604 35.6923Z" fill="#929493"/>
<path d="M1.36604 24.4737C1.92814 24.4737 2.38344 24.0184 2.38344 23.4563C2.38344 22.8942 1.92814 22.4389 1.36604 22.4389C0.803936 22.4389 0.348633 22.8942 0.348633 23.4563C0.348633 24.0184 0.803936 24.4737 1.36604 24.4737Z" fill="#929493"/>
<path d="M1.36604 13.2535C1.92814 13.2535 2.38344 12.7982 2.38344 12.2361C2.38344 11.674 1.92814 11.2187 1.36604 11.2187C0.803936 11.2187 0.348633 11.674 0.348633 12.2361C0.348633 12.7982 0.803936 13.2535 1.36604 13.2535Z" fill="#929493"/>
<path d="M1.36604 2.03482C1.92814 2.03482 2.38344 1.57952 2.38344 1.01742C2.38344 0.455314 1.92814 1.25671e-05 1.36604 1.25917e-05C0.803936 1.26163e-05 0.348633 0.455314 0.348633 1.01742C0.348633 1.57952 0.803936 2.03482 1.36604 2.03482Z" fill="#929493"/>
<path d="M10.928 136.669C11.4902 136.669 11.9455 136.214 11.9455 135.652C11.9455 135.09 11.4902 134.634 10.928 134.634C10.3659 134.634 9.91064 135.09 9.91064 135.652C9.91064 136.214 10.3659 136.669 10.928 136.669Z" fill="#929493"/>
<path d="M10.928 125.449C11.4902 125.449 11.9455 124.994 11.9455 124.431C11.9455 123.869 11.4902 123.414 10.928 123.414C10.3659 123.414 9.91064 123.869 9.91064 124.431C9.91064 124.994 10.3659 125.449 10.928 125.449Z" fill="#929493"/>
<path d="M10.928 114.23C11.4902 114.23 11.9455 113.775 11.9455 113.213C11.9455 112.651 11.4902 112.195 10.928 112.195C10.3659 112.195 9.91064 112.651 9.91064 113.213C9.91064 113.775 10.3659 114.23 10.928 114.23Z" fill="#929493"/>
<path d="M10.928 103.01C11.4902 103.01 11.9455 102.555 11.9455 101.993C11.9455 101.431 11.4902 100.975 10.928 100.975C10.3659 100.975 9.91064 101.431 9.91064 101.993C9.91064 102.555 10.3659 103.01 10.928 103.01Z" fill="#929493"/>
<path d="M10.928 91.79C11.4902 91.79 11.9455 91.3347 11.9455 90.7726C11.9455 90.2105 11.4902 89.7552 10.928 89.7552C10.3659 89.7552 9.91064 90.2105 9.91064 90.7726C9.91064 91.3347 10.3659 91.79 10.928 91.79Z" fill="#929493"/>
<path d="M10.928 80.5714C11.4902 80.5714 11.9455 80.116 11.9455 79.5539C11.9455 78.9918 11.4902 78.5365 10.928 78.5365C10.3659 78.5365 9.91064 78.9918 9.91064 79.5539C9.91064 80.116 10.3659 80.5714 10.928 80.5714Z" fill="#929493"/>
<path d="M10.928 69.3512C11.4902 69.3512 11.9455 68.8959 11.9455 68.3338C11.9455 67.7717 11.4902 67.3164 10.928 67.3164C10.3659 67.3164 9.91064 67.7717 9.91064 68.3338C9.91064 68.8959 10.3659 69.3512 10.928 69.3512Z" fill="#929493"/>
<path d="M10.928 58.1325C11.4902 58.1325 11.9455 57.6772 11.9455 57.1151C11.9455 56.553 11.4902 56.0977 10.928 56.0977C10.3659 56.0977 9.91064 56.553 9.91064 57.1151C9.91064 57.6772 10.3659 58.1325 10.928 58.1325Z" fill="#929493"/>
<path d="M10.928 46.9123C11.4902 46.9123 11.9455 46.457 11.9455 45.8949C11.9455 45.3328 11.4902 44.8775 10.928 44.8775C10.3659 44.8775 9.91064 45.3328 9.91064 45.8949C9.91064 46.457 10.3659 46.9123 10.928 46.9123Z" fill="#929493"/>
<path d="M10.928 35.6923C11.4902 35.6923 11.9455 35.237 11.9455 34.6749C11.9455 34.1128 11.4902 33.6575 10.928 33.6575C10.3659 33.6575 9.91064 34.1128 9.91064 34.6749C9.91064 35.237 10.3659 35.6923 10.928 35.6923Z" fill="#929493"/>
<path d="M10.928 24.4737C11.4902 24.4737 11.9455 24.0184 11.9455 23.4563C11.9455 22.8942 11.4902 22.4389 10.928 22.4389C10.3659 22.4389 9.91064 22.8942 9.91064 23.4563C9.91064 24.0184 10.3659 24.4737 10.928 24.4737Z" fill="#929493"/>
<path d="M10.928 13.2535C11.4902 13.2535 11.9455 12.7982 11.9455 12.2361C11.9455 11.674 11.4902 11.2187 10.928 11.2187C10.3659 11.2187 9.91064 11.674 9.91064 12.2361C9.91064 12.7982 10.3659 13.2535 10.928 13.2535Z" fill="#929493"/>
<path d="M10.928 2.03479C11.4902 2.03479 11.9455 1.57949 11.9455 1.01739C11.9455 0.455284 11.4902 -1.79504e-05 10.928 -1.79259e-05C10.3659 -1.79013e-05 9.91064 0.455284 9.91064 1.01739C9.91064 1.57949 10.3659 2.03479 10.928 2.03479Z" fill="#929493"/>
<path d="M20.4822 136.669C21.0444 136.669 21.4997 136.214 21.4997 135.652C21.4997 135.09 21.0444 134.634 20.4822 134.634C19.9201 134.634 19.4648 135.09 19.4648 135.652C19.4648 136.214 19.9201 136.669 20.4822 136.669Z" fill="#929493"/>
<path d="M20.4822 125.449C21.0444 125.449 21.4997 124.994 21.4997 124.431C21.4997 123.869 21.0444 123.414 20.4822 123.414C19.9201 123.414 19.4648 123.869 19.4648 124.431C19.4648 124.994 19.9201 125.449 20.4822 125.449Z" fill="#929493"/>
<path d="M20.4822 114.23C21.0444 114.23 21.4997 113.775 21.4997 113.213C21.4997 112.651 21.0444 112.195 20.4822 112.195C19.9201 112.195 19.4648 112.651 19.4648 113.213C19.4648 113.775 19.9201 114.23 20.4822 114.23Z" fill="#929493"/>
<path d="M20.4822 103.01C21.0444 103.01 21.4997 102.555 21.4997 101.993C21.4997 101.431 21.0444 100.975 20.4822 100.975C19.9201 100.975 19.4648 101.431 19.4648 101.993C19.4648 102.555 19.9201 103.01 20.4822 103.01Z" fill="#929493"/>
<path d="M20.4822 91.79C21.0444 91.79 21.4997 91.3347 21.4997 90.7726C21.4997 90.2105 21.0444 89.7552 20.4822 89.7552C19.9201 89.7552 19.4648 90.2105 19.4648 90.7726C19.4648 91.3347 19.9201 91.79 20.4822 91.79Z" fill="#929493"/>
<path d="M20.4822 80.5714C21.0444 80.5714 21.4997 80.116 21.4997 79.5539C21.4997 78.9918 21.0444 78.5365 20.4822 78.5365C19.9201 78.5365 19.4648 78.9918 19.4648 79.5539C19.4648 80.116 19.9201 80.5714 20.4822 80.5714Z" fill="#929493"/>
<path d="M20.4822 69.3512C21.0444 69.3512 21.4997 68.8959 21.4997 68.3338C21.4997 67.7717 21.0444 67.3164 20.4822 67.3164C19.9201 67.3164 19.4648 67.7717 19.4648 68.3338C19.4648 68.8959 19.9201 69.3512 20.4822 69.3512Z" fill="#929493"/>
<path d="M20.4822 58.1325C21.0444 58.1325 21.4997 57.6772 21.4997 57.1151C21.4997 56.553 21.0444 56.0977 20.4822 56.0977C19.9201 56.0977 19.4648 56.553 19.4648 57.1151C19.4648 57.6772 19.9201 58.1325 20.4822 58.1325Z" fill="#929493"/>
<path d="M20.4822 46.9123C21.0444 46.9123 21.4997 46.457 21.4997 45.8949C21.4997 45.3328 21.0444 44.8775 20.4822 44.8775C19.9201 44.8775 19.4648 45.3328 19.4648 45.8949C19.4648 46.457 19.9201 46.9123 20.4822 46.9123Z" fill="#929493"/>
<path d="M20.4822 35.6923C21.0444 35.6923 21.4997 35.237 21.4997 34.6749C21.4997 34.1128 21.0444 33.6575 20.4822 33.6575C19.9201 33.6575 19.4648 34.1128 19.4648 34.6749C19.4648 35.237 19.9201 35.6923 20.4822 35.6923Z" fill="#929493"/>
<path d="M20.4822 24.4737C21.0444 24.4737 21.4997 24.0184 21.4997 23.4563C21.4997 22.8942 21.0444 22.4389 20.4822 22.4389C19.9201 22.4389 19.4648 22.8942 19.4648 23.4563C19.4648 24.0184 19.9201 24.4737 20.4822 24.4737Z" fill="#929493"/>
<path d="M20.4822 13.2535C21.0444 13.2535 21.4997 12.7982 21.4997 12.2361C21.4997 11.674 21.0444 11.2187 20.4822 11.2187C19.9201 11.2187 19.4648 11.674 19.4648 12.2361C19.4648 12.7982 19.9201 13.2535 20.4822 13.2535Z" fill="#929493"/>
<path d="M20.4822 2.03479C21.0444 2.03479 21.4997 1.57949 21.4997 1.01739C21.4997 0.455284 21.0444 -1.79504e-05 20.4822 -1.79259e-05C19.9201 -1.79013e-05 19.4648 0.455284 19.4648 1.01739C19.4648 1.57949 19.9201 2.03479 20.4822 2.03479Z" fill="#929493"/>
<path d="M30.0443 136.669C30.6064 136.669 31.0617 136.214 31.0617 135.652C31.0617 135.09 30.6064 134.634 30.0443 134.634C29.4822 134.634 29.0269 135.09 29.0269 135.652C29.0269 136.214 29.4822 136.669 30.0443 136.669Z" fill="#929493"/>
<path d="M30.0443 125.449C30.6064 125.449 31.0617 124.994 31.0617 124.431C31.0617 123.869 30.6064 123.414 30.0443 123.414C29.4822 123.414 29.0269 123.869 29.0269 124.431C29.0269 124.994 29.4822 125.449 30.0443 125.449Z" fill="#929493"/>
<path d="M30.0443 114.23C30.6064 114.23 31.0617 113.775 31.0617 113.213C31.0617 112.651 30.6064 112.195 30.0443 112.195C29.4822 112.195 29.0269 112.651 29.0269 113.213C29.0269 113.775 29.4822 114.23 30.0443 114.23Z" fill="#929493"/>
<path d="M30.0443 103.01C30.6064 103.01 31.0617 102.555 31.0617 101.993C31.0617 101.431 30.6064 100.975 30.0443 100.975C29.4822 100.975 29.0269 101.431 29.0269 101.993C29.0269 102.555 29.4822 103.01 30.0443 103.01Z" fill="#929493"/>
<path d="M30.0443 91.79C30.6064 91.79 31.0617 91.3347 31.0617 90.7726C31.0617 90.2105 30.6064 89.7552 30.0443 89.7552C29.4822 89.7552 29.0269 90.2105 29.0269 90.7726C29.0269 91.3347 29.4822 91.79 30.0443 91.79Z" fill="#929493"/>
<path d="M30.0443 80.5714C30.6064 80.5714 31.0617 80.116 31.0617 79.5539C31.0617 78.9918 30.6064 78.5365 30.0443 78.5365C29.4822 78.5365 29.0269 78.9918 29.0269 79.5539C29.0269 80.116 29.4822 80.5714 30.0443 80.5714Z" fill="#929493"/>
<path d="M30.0443 69.3512C30.6064 69.3512 31.0617 68.8959 31.0617 68.3338C31.0617 67.7717 30.6064 67.3164 30.0443 67.3164C29.4822 67.3164 29.0269 67.7717 29.0269 68.3338C29.0269 68.8959 29.4822 69.3512 30.0443 69.3512Z" fill="#929493"/>
<path d="M30.0443 58.1325C30.6064 58.1325 31.0617 57.6772 31.0617 57.1151C31.0617 56.553 30.6064 56.0977 30.0443 56.0977C29.4822 56.0977 29.0269 56.553 29.0269 57.1151C29.0269 57.6772 29.4822 58.1325 30.0443 58.1325Z" fill="#929493"/>
<path d="M30.0443 46.9123C30.6064 46.9123 31.0617 46.457 31.0617 45.8949C31.0617 45.3328 30.6064 44.8775 30.0443 44.8775C29.4822 44.8775 29.0269 45.3328 29.0269 45.8949C29.0269 46.457 29.4822 46.9123 30.0443 46.9123Z" fill="#929493"/>
<path d="M30.0443 35.6923C30.6064 35.6923 31.0617 35.237 31.0617 34.6749C31.0617 34.1128 30.6064 33.6575 30.0443 33.6575C29.4822 33.6575 29.0269 34.1128 29.0269 34.6749C29.0269 35.237 29.4822 35.6923 30.0443 35.6923Z" fill="#929493"/>
<path d="M30.0443 24.4737C30.6064 24.4737 31.0617 24.0184 31.0617 23.4563C31.0617 22.8942 30.6064 22.4389 30.0443 22.4389C29.4822 22.4389 29.0269 22.8942 29.0269 23.4563C29.0269 24.0184 29.4822 24.4737 30.0443 24.4737Z" fill="#929493"/>
<path d="M30.0443 13.2535C30.6064 13.2535 31.0617 12.7982 31.0617 12.2361C31.0617 11.674 30.6064 11.2187 30.0443 11.2187C29.4822 11.2187 29.0269 11.674 29.0269 12.2361C29.0269 12.7982 29.4822 13.2535 30.0443 13.2535Z" fill="#929493"/>
<path d="M30.0443 2.03479C30.6064 2.03479 31.0617 1.57949 31.0617 1.01739C31.0617 0.455284 30.6064 -1.79504e-05 30.0443 -1.79259e-05C29.4822 -1.79013e-05 29.0269 0.455284 29.0269 1.01739C29.0269 1.57949 29.4822 2.03479 30.0443 2.03479Z" fill="#929493"/>
<path d="M39.6068 136.669C40.1689 136.669 40.6242 136.214 40.6242 135.652C40.6242 135.09 40.1689 134.634 39.6068 134.634C39.0447 134.634 38.5894 135.09 38.5894 135.652C38.5894 136.214 39.0447 136.669 39.6068 136.669Z" fill="#929493"/>
<path d="M39.6068 125.449C40.1689 125.449 40.6242 124.994 40.6242 124.431C40.6242 123.869 40.1689 123.414 39.6068 123.414C39.0447 123.414 38.5894 123.869 38.5894 124.431C38.5894 124.994 39.0447 125.449 39.6068 125.449Z" fill="#929493"/>
<path d="M39.6068 114.23C40.1689 114.23 40.6242 113.775 40.6242 113.213C40.6242 112.651 40.1689 112.195 39.6068 112.195C39.0447 112.195 38.5894 112.651 38.5894 113.213C38.5894 113.775 39.0447 114.23 39.6068 114.23Z" fill="#929493"/>
<path d="M40.6242 101.993C40.6242 101.431 40.1687 100.975 39.6068 100.975C39.0449 100.975 38.5894 101.431 38.5894 101.993C38.5894 102.555 39.0449 103.01 39.6068 103.01C40.1687 103.01 40.6242 102.555 40.6242 101.993Z" fill="#929493"/>
<path d="M40.6242 90.7726C40.6242 90.2107 40.1687 89.7552 39.6068 89.7552C39.0449 89.7552 38.5894 90.2107 38.5894 90.7726C38.5894 91.3345 39.0449 91.79 39.6068 91.79C40.1687 91.79 40.6242 91.3345 40.6242 90.7726Z" fill="#929493"/>
<path d="M40.6242 79.5539C40.6242 78.992 40.1687 78.5365 39.6068 78.5365C39.0449 78.5365 38.5894 78.992 38.5894 79.5539C38.5894 80.1158 39.0449 80.5714 39.6068 80.5714C40.1687 80.5714 40.6242 80.1158 40.6242 79.5539Z" fill="#929493"/>
<path d="M39.6068 69.3512C40.1689 69.3512 40.6242 68.8959 40.6242 68.3338C40.6242 67.7717 40.1689 67.3164 39.6068 67.3164C39.0447 67.3164 38.5894 67.7717 38.5894 68.3338C38.5894 68.8959 39.0447 69.3512 39.6068 69.3512Z" fill="#929493"/>
<path d="M39.6068 58.1325C40.1689 58.1325 40.6242 57.6772 40.6242 57.1151C40.6242 56.553 40.1689 56.0977 39.6068 56.0977C39.0447 56.0977 38.5894 56.553 38.5894 57.1151C38.5894 57.6772 39.0447 58.1325 39.6068 58.1325Z" fill="#929493"/>
<path d="M39.6068 46.9123C40.1689 46.9123 40.6242 46.457 40.6242 45.8949C40.6242 45.3328 40.1689 44.8775 39.6068 44.8775C39.0447 44.8775 38.5894 45.3328 38.5894 45.8949C38.5894 46.457 39.0447 46.9123 39.6068 46.9123Z" fill="#929493"/>
<path d="M39.6068 35.6923C40.1689 35.6923 40.6242 35.237 40.6242 34.6749C40.6242 34.1128 40.1689 33.6575 39.6068 33.6575C39.0447 33.6575 38.5894 34.1128 38.5894 34.6749C38.5894 35.237 39.0447 35.6923 39.6068 35.6923Z" fill="#929493"/>
<path d="M39.6068 24.4737C40.1689 24.4737 40.6242 24.0184 40.6242 23.4563C40.6242 22.8942 40.1689 22.4389 39.6068 22.4389C39.0447 22.4389 38.5894 22.8942 38.5894 23.4563C38.5894 24.0184 39.0447 24.4737 39.6068 24.4737Z" fill="#929493"/>
<path d="M39.6068 13.2535C40.1689 13.2535 40.6242 12.7982 40.6242 12.2361C40.6242 11.674 40.1689 11.2187 39.6068 11.2187C39.0447 11.2187 38.5894 11.674 38.5894 12.2361C38.5894 12.7982 39.0447 13.2535 39.6068 13.2535Z" fill="#929493"/>
<path d="M39.6068 2.03479C40.1689 2.03479 40.6242 1.57949 40.6242 1.01739C40.6242 0.455284 40.1689 -1.79504e-05 39.6068 -1.79259e-05C39.0447 -1.79013e-05 38.5894 0.455284 38.5894 1.01739C38.5894 1.57949 39.0447 2.03479 39.6068 2.03479Z" fill="#929493"/>
<path d="M49.1605 136.669C49.7226 136.669 50.1779 136.214 50.1779 135.652C50.1779 135.09 49.7226 134.634 49.1605 134.634C48.5984 134.634 48.1431 135.09 48.1431 135.652C48.1431 136.214 48.5984 136.669 49.1605 136.669Z" fill="#929493"/>
<path d="M49.1605 125.449C49.7226 125.449 50.1779 124.994 50.1779 124.431C50.1779 123.869 49.7226 123.414 49.1605 123.414C48.5984 123.414 48.1431 123.869 48.1431 124.431C48.1431 124.994 48.5984 125.449 49.1605 125.449Z" fill="#929493"/>
<path d="M49.1605 114.23C49.7226 114.23 50.1779 113.775 50.1779 113.213C50.1779 112.651 49.7226 112.195 49.1605 112.195C48.5984 112.195 48.1431 112.651 48.1431 113.213C48.1431 113.775 48.5984 114.23 49.1605 114.23Z" fill="#929493"/>
<path d="M49.1605 103.01C49.7226 103.01 50.1779 102.555 50.1779 101.993C50.1779 101.431 49.7226 100.975 49.1605 100.975C48.5984 100.975 48.1431 101.431 48.1431 101.993C48.1431 102.555 48.5984 103.01 49.1605 103.01Z" fill="#929493"/>
<path d="M49.161 91.79C49.7231 91.79 50.1784 91.3347 50.1784 90.7726C50.1784 90.2105 49.7231 89.7552 49.161 89.7552C48.5989 89.7552 48.1436 90.2105 48.1436 90.7726C48.1436 91.3347 48.5989 91.79 49.161 91.79Z" fill="#929493"/>
<path d="M49.161 80.5714C49.7231 80.5714 50.1784 80.116 50.1784 79.5539C50.1784 78.9918 49.7231 78.5365 49.161 78.5365C48.5989 78.5365 48.1436 78.9918 48.1436 79.5539C48.1436 80.116 48.5989 80.5714 49.161 80.5714Z" fill="#929493"/>
<path d="M49.161 69.3512C49.7231 69.3512 50.1784 68.8959 50.1784 68.3338C50.1784 67.7717 49.7231 67.3164 49.161 67.3164C48.5989 67.3164 48.1436 67.7717 48.1436 68.3338C48.1436 68.8959 48.5989 69.3512 49.161 69.3512Z" fill="#929493"/>
<path d="M49.161 58.1325C49.7231 58.1325 50.1784 57.6772 50.1784 57.1151C50.1784 56.553 49.7231 56.0977 49.161 56.0977C48.5989 56.0977 48.1436 56.553 48.1436 57.1151C48.1436 57.6772 48.5989 58.1325 49.161 58.1325Z" fill="#929493"/>
<path d="M49.1605 46.9123C49.7226 46.9123 50.1779 46.457 50.1779 45.8949C50.1779 45.3328 49.7226 44.8775 49.1605 44.8775C48.5984 44.8775 48.1431 45.3328 48.1431 45.8949C48.1431 46.457 48.5984 46.9123 49.1605 46.9123Z" fill="#929493"/>
<path d="M49.1605 35.6923C49.7226 35.6923 50.1779 35.237 50.1779 34.6749C50.1779 34.1128 49.7226 33.6575 49.1605 33.6575C48.5984 33.6575 48.1431 34.1128 48.1431 34.6749C48.1431 35.237 48.5984 35.6923 49.1605 35.6923Z" fill="#929493"/>
<path d="M49.1605 24.4737C49.7226 24.4737 50.1779 24.0184 50.1779 23.4563C50.1779 22.8942 49.7226 22.4389 49.1605 22.4389C48.5984 22.4389 48.1431 22.8942 48.1431 23.4563C48.1431 24.0184 48.5984 24.4737 49.1605 24.4737Z" fill="#929493"/>
<path d="M49.161 13.2535C49.7231 13.2535 50.1784 12.7982 50.1784 12.2361C50.1784 11.674 49.7231 11.2187 49.161 11.2187C48.5989 11.2187 48.1436 11.674 48.1436 12.2361C48.1436 12.7982 48.5989 13.2535 49.161 13.2535Z" fill="#929493"/>
<path d="M49.161 2.03482C49.7231 2.03482 50.1784 1.57952 50.1784 1.01742C50.1784 0.455314 49.7231 1.25671e-05 49.161 1.25917e-05C48.5989 1.26163e-05 48.1436 0.455314 48.1436 1.01742C48.1436 1.57952 48.5989 2.03482 49.161 2.03482Z" fill="#929493"/>
</svg>
