<svg width="114" height="113" viewBox="0 0 114 113" fill="none" xmlns="http://www.w3.org/2000/svg">
<path d="M15.5315 0.136093H15.0137V112.809H15.5315V0.136093Z" fill="#6B6B6A"/>
<path d="M32.1438 0.136093H31.626V112.809H32.1438V0.136093Z" fill="#6B6B6A"/>
<path d="M48.7483 0.136093H48.2305V112.809H48.7483V0.136093Z" fill="#6B6B6A"/>
<path d="M65.3606 0.136093H64.8428V112.809H65.3606V0.136093Z" fill="#6B6B6A"/>
<path d="M81.9724 0.136093H81.4546V112.809H81.9724V0.136093Z" fill="#6B6B6A"/>
<path d="M98.5842 0.136093H98.0664V112.809H98.5842V0.136093Z" fill="#6B6B6A"/>
<path d="M113.133 14.6908H0.459473V15.2086H113.133V14.6908Z" fill="#6B6B6A"/>
<path d="M113.133 31.3028H0.459473V31.8206H113.133V31.3028Z" fill="#6B6B6A"/>
<path d="M113.133 47.9077H0.459473V48.4255H113.133V47.9077Z" fill="#6B6B6A"/>
<path d="M113.133 64.5197H0.459473V65.0375H113.133V64.5197Z" fill="#6B6B6A"/>
<path d="M113.133 81.1317H0.459473V81.6495H113.133V81.1317Z" fill="#6B6B6A"/>
<path d="M113.133 97.7436H0.459473V98.2614H113.133V97.7436Z" fill="#6B6B6A"/>
</svg>
