<svg width="73" height="74" viewBox="0 0 73 74" fill="none" xmlns="http://www.w3.org/2000/svg">
<path d="M53.7395 12.8202L53.6446 13.4164L54.1281 13.7781C56.2462 15.3626 58.1205 17.2049 59.7029 19.2395L60.0753 19.7183L60.672 19.6092L67.2473 18.4076L71.4826 28.3264L66.0641 32.2448L65.5735 32.5995L65.6605 33.1987C66.0323 35.7614 66.0726 38.3791 65.7495 41.0041L65.6755 41.6051L66.1737 41.9491L71.6738 45.7477L67.6495 55.7537L61.0519 54.6939L60.4548 54.5979L60.0926 55.0822C58.508 57.2003 56.6657 59.0746 54.6312 60.657L54.1525 61.0293L54.2614 61.6259L55.4632 68.2096L45.5442 72.445L41.6259 67.0266L41.2711 66.536L40.6719 66.6229C38.1093 66.9948 35.4926 67.0349 32.8695 66.704L32.2668 66.6279L31.9215 67.1278L28.1229 72.628L18.1087 68.6035L19.1684 62.006L19.2643 61.4089L18.7801 61.0467C16.662 59.4621 14.7877 57.6198 13.2053 55.5853L12.833 55.1066L12.2364 55.2155L5.65265 56.4173L1.41725 46.4983L6.83573 42.58L7.32633 42.2252L7.23938 41.626C6.86751 39.0634 6.82727 36.4457 7.15035 33.8206L7.22431 33.2197L6.72612 32.8756L1.2259 29.077L5.25049 19.0628L11.8479 20.1225L12.445 20.2184L12.8073 19.7342C14.3918 17.6161 16.2341 15.7418 18.2687 14.1594L18.7474 13.7871L18.6385 13.1905L17.4367 6.60675L27.3556 2.37135L31.274 7.78983L31.6287 8.28043L32.2279 8.19349C34.7906 7.82162 37.4083 7.78137 40.0333 8.10445L40.6343 8.17841L40.9783 7.68023L44.777 2.18L54.7923 6.20504L53.7395 12.8202ZM23.712 32.3058L23.7116 32.3067C20.774 39.6285 24.3226 47.9473 31.6441 50.8939L31.6451 50.8943C38.9668 53.832 47.2857 50.2833 50.2322 42.9618L50.2328 42.9605C53.1698 35.6313 49.6224 27.3116 42.2992 24.3733C34.9774 21.4356 26.6586 24.9843 23.712 32.3058Z" stroke="#D1D5DB" stroke-width="2"/>
</svg>
