<svg width="121" height="91" viewBox="0 0 121 91" fill="none" xmlns="http://www.w3.org/2000/svg">
<path fill-rule="evenodd" clip-rule="evenodd" d="M44.0793 61.0545C45.1303 61.8407 46.0609 62.7553 46.8471 63.7661L50.3811 63.1203L52.7157 68.5877L49.8035 70.6937C49.988 71.9653 50.008 73.2649 49.8476 74.5686L52.8039 76.6104L50.5857 82.1259L47.0397 81.5563C46.2534 82.6073 45.3389 83.5379 44.328 84.3241L44.9738 87.8621L39.5064 90.1967L37.4005 87.2845C36.1289 87.469 34.8292 87.4891 33.5255 87.3246L31.4838 90.2809L25.9642 88.0627L26.5338 84.5167C25.4828 83.7305 24.5522 82.8159 23.766 81.805L20.228 82.4508L17.8934 76.9834L20.8056 74.8775C20.6211 73.6059 20.6011 72.3062 20.7615 71.0025L17.8052 68.9608L20.0234 63.4412L23.5694 64.0108C24.3557 62.9599 25.2702 62.0292 26.2811 61.243L25.6353 57.705L31.1027 55.3704L33.2086 58.2827C34.4802 58.0981 35.7799 58.0781 37.0836 58.2385L39.1253 55.2822L44.6449 57.5005L44.0793 61.0545ZM37.934 66.9712C34.6647 65.6595 30.9503 67.2439 29.6346 70.5132C28.3229 73.7824 29.9073 77.4969 33.1765 78.8126C36.4458 80.1243 40.1603 78.5398 41.476 75.2706C42.7877 71.9974 41.2032 68.2829 37.934 66.9712Z" fill="#9CA3AF"/>
<path d="M58.7686 85.219L3.05075 52.2911C1.27606 51.2923 -0.245102 49.6581 1.48377 48.5921L57.4063 16.3483C58.2463 15.826 59.52 15.4869 60.3722 15.9818L118.864 49.9361C120.638 50.9654 120.956 53.8428 119.175 54.8752L66.1239 85.1763C63.8514 86.4928 61.0564 86.5081 58.7686 85.219Z" fill="url(#paint0_linear_162_5862)"/>
<path opacity="0.63" d="M70.8464 82.0942C73.7391 80.1851 74.6341 80.3837 77.3251 78.4074C75.6207 77.5216 70.6571 74.635 69.6063 73.9783L62.5381 77.1153L67.6392 79.953C67.6728 79.9621 70.8006 82.0942 70.8464 82.0942Z" fill="url(#paint1_linear_162_5862)"/>
<path d="M50.2643 18.847V31.8074L32.2334 42.147V53.5343" stroke="#9CA3AF" stroke-width="3" stroke-miterlimit="10"/>
<path opacity="0.1" d="M63.8576 6.20726C63.5766 5.84683 59.6332 3.5101 59.6332 3.5101V3.53148C58.8238 2.6365 57.324 2.94807 55.3721 4.64639C55.3721 4.64639 55.3049 2.78618 53.0721 2.47767C50.8392 2.16916 50.2008 3.19243 50.2008 3.19243C50.2008 3.19243 49.4463 -0.338617 44.9714 0.987053C40.9028 2.1936 41.4801 6.28057 41.4801 6.28057C41.4801 6.28057 38.954 5.6605 36.9319 8.42791C35.707 10.1995 35.0564 12.3102 35.0717 14.4637C35.0717 14.4637 30.8197 16.0154 30.2821 19.8672C30.2363 20.2001 30.2088 20.5392 30.1997 20.8752V20.9729C30.1844 21.8068 30.2608 22.6376 30.4226 23.4532C30.5051 23.9266 30.7953 24.339 31.2138 24.5773L35.7223 27.1492C35.8628 26.0282 35.7039 24.8919 35.2641 23.8503L57.5867 10.896C57.5867 10.896 59.2942 9.3962 60.012 7.40464L61.7286 6.96173C61.7225 6.9709 64.1387 6.56464 63.8576 6.20726Z" fill="#EF4444"/>
<path opacity="0.1" d="M63.8576 6.20726C63.5766 5.84683 59.6332 3.5101 59.6332 3.5101V3.53148C58.8238 2.6365 57.324 2.94807 55.3721 4.64639C55.3721 4.64639 55.3049 2.78618 53.0721 2.47767C50.8392 2.16916 50.2008 3.19243 50.2008 3.19243C50.2008 3.19243 49.4463 -0.338617 44.9714 0.987053C40.9028 2.1936 41.4801 6.28057 41.4801 6.28057C41.4801 6.28057 38.954 5.6605 36.9319 8.42791C35.707 10.1995 35.0564 12.3102 35.0717 14.4637C35.0717 14.4637 30.8197 16.0154 30.2821 19.8672C30.2363 20.2001 30.2088 20.5392 30.1997 20.8752V20.9729C30.1844 21.8068 30.2608 22.6376 30.4226 23.4532C30.5051 23.9266 30.7953 24.339 31.2138 24.5773L35.7223 27.1492C35.8628 26.0282 35.7039 24.8919 35.2641 23.8503L57.5867 10.896C57.5867 10.896 59.2942 9.3962 60.012 7.40464L61.7286 6.96173C61.7225 6.9709 64.1387 6.56464 63.8576 6.20726Z" fill="#EF4444"/>
<path d="M63.8576 6.20726C63.5766 5.84683 59.6332 3.5101 59.6332 3.5101V3.53148C58.8238 2.6365 57.324 2.94807 55.3721 4.64639C55.3721 4.64639 55.3049 2.78618 53.0721 2.47767C50.8392 2.16916 50.2008 3.19243 50.2008 3.19243C50.2008 3.19243 49.4463 -0.338617 44.9714 0.987053C40.9028 2.1936 41.4801 6.28057 41.4801 6.28057C41.4801 6.28057 38.954 5.6605 36.9319 8.42791C35.707 10.1995 35.0564 12.3102 35.0717 14.4637C35.0717 14.4637 30.8197 16.0154 30.2821 19.8672C30.2363 20.2001 30.2088 20.5392 30.1997 20.8752V20.9729C30.1844 21.8068 30.2608 22.6376 30.4226 23.4532C30.5051 23.9266 30.7953 24.339 31.2138 24.5773L35.7223 27.1492C35.8628 26.0282 35.7039 24.8919 35.2641 23.8503L57.5867 10.896C57.5867 10.896 59.2942 9.3962 60.012 7.40464L61.7286 6.96173C61.7225 6.9709 64.1387 6.56464 63.8576 6.20726Z" fill="#EF4444"/>
<path opacity="0.23" d="M63.8576 6.20726C63.5766 5.84683 59.6332 3.5101 59.6332 3.5101V3.53148C58.8238 2.6365 57.324 2.94807 55.3721 4.64639C55.3721 4.64639 55.3049 2.78618 53.0721 2.47767C50.8392 2.16916 50.2008 3.19243 50.2008 3.19243C50.2008 3.19243 49.4463 -0.338617 44.9714 0.987053C40.9028 2.1936 41.4801 6.28057 41.4801 6.28057C41.4801 6.28057 38.954 5.6605 36.9319 8.42791C35.707 10.1995 35.0564 12.3102 35.0717 14.4637C35.0717 14.4637 30.8197 16.0154 30.2821 19.8672C30.2363 20.2001 30.2088 20.5392 30.1997 20.8752V20.9729C30.1844 21.8068 30.2608 22.6376 30.4226 23.4532C30.5051 23.9266 30.7953 24.339 31.2138 24.5773L35.7223 27.1492C35.8628 26.0282 35.7039 24.8919 35.2641 23.8503L57.5867 10.896C57.5867 10.896 59.2942 9.3962 60.012 7.40464L61.7286 6.96173C61.7225 6.9709 64.1387 6.56464 63.8576 6.20726Z" fill="#F87171"/>
<path d="M38.1502 27.4547L61.8748 13.6787C61.8748 13.6787 64.7858 11.1282 64.6055 8.26912C64.4253 5.41007 62.5346 4.94578 59.6938 7.41996C59.6938 7.41996 59.6358 5.02214 57.3938 5.25123C55.1517 5.47727 54.2934 6.94956 54.2934 6.94956C54.2934 6.94956 54.7394 2.68848 50.2614 4.0172C47.9125 4.67698 46.1653 6.6441 45.7896 9.05414C45.7896 9.05414 43.2635 8.43406 41.2414 11.2015C40.0165 12.9731 39.3659 15.0838 39.3811 17.2372C39.3811 17.2372 35.1292 18.789 34.5916 22.6407C34.054 26.4925 35.9112 28.2428 38.1502 27.4547Z" fill="#FCA5A5"/>
<path d="M50.2651 43.7934V31.8074L72.5877 18.847V28.1664" stroke="#9CA3AF" stroke-width="3" stroke-miterlimit="10"/>
<path opacity="0.63" d="M62.7489 61.0852C67.9691 57.6336 70.99 57.2976 75.8437 53.7299C72.7678 52.1262 67.5384 49.0045 65.6385 47.8163L52.6934 55.3763L62.4984 61.0883L62.7489 61.0852Z" fill="url(#paint2_linear_162_5862)"/>
<path d="M43.2061 50.1256L54.5537 56.5432L67.8012 48.8274V43.6408L54.5537 51.3565L43.2061 44.8718V50.1256Z" fill="#9CA3AF"/>
<path d="M43.2061 44.8715L56.7071 37.1222L67.8012 43.6406L54.5537 51.3563L43.2061 44.8715Z" fill="#D1D5DB"/>
<path d="M54.5537 51.3565V56.5432L67.8013 48.8274V43.6408L54.5537 51.3565Z" fill="#6B7280"/>
<path opacity="0.63" d="M42.2924 73.2758C47.5646 69.7967 50.6008 69.4546 55.5003 65.8563C52.3999 64.2374 47.1308 61.0912 45.2065 59.8908L32.1514 67.5027L42.042 73.2636L42.2924 73.2758Z" fill="url(#paint3_linear_162_5862)"/>
<path d="M22.582 62.2214L34.0243 68.694L47.388 60.914V55.6786L34.0243 63.4615L22.582 56.9187V62.2214Z" fill="#9CA3AF"/>
<path d="M22.582 56.9187L36.1992 49.1052L47.388 55.6785L34.0243 63.4615L22.582 56.9187Z" fill="#D1D5DB"/>
<path d="M34.0239 63.4615V68.694L47.3875 60.914V55.6786L34.0239 63.4615Z" fill="#6B7280"/>
<path opacity="0.63" d="M82.0636 49.9239C87.2838 46.4723 90.3047 46.1363 95.1584 42.5686C92.0825 40.965 86.8531 37.8432 84.9532 36.655L72.0142 44.2119L81.8192 49.9239H82.0636Z" fill="url(#paint4_linear_162_5862)"/>
<path d="M62.519 38.9612L73.8636 45.3788L87.1142 37.6661V32.4795L73.8636 40.1922L62.519 33.7105V38.9612Z" fill="#9CA3AF"/>
<path d="M62.519 33.7102L76.0232 25.9609L87.1142 32.4793L73.8636 40.192L62.519 33.7102Z" fill="#D1D5DB"/>
<path d="M73.8647 40.1922V45.3788L87.1153 37.6661V32.4795L73.8647 40.1922Z" fill="#6B7280"/>
<path opacity="0.63" d="M109.511 58.6995C112.403 56.7904 112.082 57.7709 114.783 55.7947C113.078 54.9088 107.962 51.7138 106.917 51.0571L100.878 53.403L106.309 56.5644C106.343 56.5705 109.462 58.7026 109.511 58.6995Z" fill="url(#paint5_linear_162_5862)"/>
<path d="M101.108 48.5035V52.3309H107.299V48.5035" fill="#EF4444"/>
<path d="M104.202 50.0245C105.911 50.0245 107.296 49.3435 107.296 48.5033C107.296 47.6632 105.911 46.9822 104.202 46.9822C102.493 46.9822 101.108 47.6632 101.108 48.5033C101.108 49.3435 102.493 50.0245 104.202 50.0245Z" fill="#EF4444"/>
<path d="M104.202 50.0245C105.911 50.0245 107.296 49.3435 107.296 48.5033C107.296 47.6632 105.911 46.9822 104.202 46.9822C102.493 46.9822 101.108 47.6632 101.108 48.5033C101.108 49.3435 102.493 50.0245 104.202 50.0245Z" fill="#4B5563"/>
<path d="M104.202 54.0016C105.911 54.0016 107.296 53.3206 107.296 52.4804C107.296 51.6403 105.911 50.9593 104.202 50.9593C102.493 50.9593 101.108 51.6403 101.108 52.4804C101.108 53.3206 102.493 54.0016 104.202 54.0016Z" fill="#EF4444"/>
<path d="M107.668 39.5995C107.015 39.3338 106.117 38.4418 105.319 38.4724C105.06 39.233 104.898 40.021 104.843 40.8213C104.693 42.1226 104.663 43.436 104.754 44.7434C104.773 45.0335 104.797 45.3237 104.825 45.6139C104.831 45.6994 104.855 45.7819 104.892 45.8583C104.892 46.8693 104.892 47.8773 104.892 48.8884C104.892 48.9403 104.935 48.9831 104.99 48.9831C105.041 48.9831 105.084 48.9403 105.084 48.8884C105.084 47.917 105.084 46.9457 105.084 45.9743C105.396 45.8735 105.692 45.7361 105.97 45.565C106.55 45.1985 106.987 44.6456 107.21 43.998C107.708 42.6052 107.393 41.0535 107.867 39.6759C107.806 39.6575 107.739 39.6331 107.668 39.5995Z" fill="#EF4444"/>
<path d="M106.33 37.3239C105.961 37.5408 105.655 37.8554 105.448 38.2281C105.393 38.3136 105.347 38.4022 105.307 38.4969L105.28 38.5549C105.222 38.7107 105.17 38.8726 105.13 39.0345C105.203 38.9123 105.322 38.8176 105.46 38.7748C105.622 38.7046 105.805 38.6862 105.979 38.729C106.147 38.7931 106.306 38.8756 106.453 38.9795C106.672 39.1139 106.886 39.2605 107.103 39.401C108.129 40.0516 109.495 40.1188 110.286 39.1689C110.286 39.1322 110.304 39.0955 110.313 39.0528C110.43 38.4113 108.597 36.0074 106.33 37.3239Z" fill="#D1D5DB"/>
<path d="M109.837 39.5781L109.966 39.4956C109.969 39.4681 109.96 39.4407 109.941 39.4223C109.355 38.7442 108.628 38.2066 107.809 37.8462C107.201 37.6171 106.545 37.553 105.906 37.6599C105.839 37.7393 105.775 37.8248 105.714 37.9073C106.444 37.7179 107.217 37.782 107.907 38.0906C108.634 38.4479 109.282 38.9458 109.813 39.5567C109.819 39.5659 109.828 39.5751 109.837 39.5781Z" fill="#EF4444"/>
<path d="M99.4401 40.9649C98.5268 41.4414 97.9831 42.4158 98.0564 43.4452C98.1297 45.2718 101.138 43.488 101.939 41.9485C102.739 40.409 102.87 42.6052 102.87 42.6052" fill="#EF4444"/>
<path d="M102.149 40.3265C101.584 40.3174 101.019 40.3968 100.478 40.5587C100.115 40.6442 99.7668 40.7816 99.4399 40.9649C99.6293 41.0871 99.8309 41.191 100.042 41.2734C100.436 41.3895 100.778 41.6369 101.016 41.9699C101.065 42.0584 101.102 42.1501 101.132 42.2448C101.315 42.8465 101.157 43.5735 101.404 44.1783C101.615 44.8259 102.189 45.2901 102.867 45.3604C103.716 45.4123 104.107 44.5968 104.272 43.8942C104.437 43.1917 104.669 42.2264 104.404 41.5025C104.086 40.6686 102.95 40.3632 102.149 40.3265Z" fill="#D1D5DB"/>
<path d="M103.263 43.1764C102.906 42.0218 102.154 40.9344 101.049 40.4243H101.009L100.957 40.4396L100.755 40.4915C102.041 40.968 102.851 42.2356 103.181 43.5338C103.602 45.1924 103.459 46.9885 103.465 48.6838C103.474 48.7326 103.52 48.7632 103.569 48.754C103.605 48.7479 103.633 48.7174 103.639 48.6838C103.636 46.8755 103.804 44.9297 103.263 43.1764Z" fill="#EF4444"/>
<path d="M41.113 55.4984C39.5277 53.9131 37.3009 53.235 35.7248 51.6466C35.5935 51.5367 35.398 51.5489 35.288 51.6802C35.1872 51.7963 35.1872 51.9673 35.288 52.0834C36.8672 53.6779 39.094 54.3529 40.6762 55.9352C40.8076 56.0452 41.003 56.0329 41.113 55.9016C41.2108 55.7855 41.2108 55.6145 41.113 55.4984Z" fill="black"/>
<path d="M33.5074 54.1544C33.2447 53.9192 33.0523 53.6168 32.9484 53.2808C32.9026 53.1159 32.7316 53.0181 32.5666 53.0639C32.5147 53.0792 32.4689 53.1067 32.4292 53.1434C32.142 53.3694 31.803 53.516 31.4425 53.571C31.0485 53.6382 31.2165 54.2369 31.6075 54.1697C31.7846 54.1361 31.9618 54.0842 32.1298 54.0139L30.4406 57.4594C30.2665 57.8168 30.8011 58.1314 30.9782 57.7679L32.7285 54.1972C32.8293 54.3377 32.9423 54.469 33.0706 54.5882C33.3638 54.86 33.8006 54.4232 33.5074 54.1544Z" fill="#FCA5A5"/>
<path d="M41.3581 55.2205C39.5895 53.9559 37.8515 52.6516 36.144 51.3107C35.5239 50.8189 34.8275 51.8513 35.4536 52.34C37.1642 53.684 38.9022 54.9853 40.6678 56.2498C41.3214 56.7172 42.0056 55.6848 41.3581 55.2205Z" fill="#FCA5A5"/>
<path d="M38.8707 56.4179C37.7375 55.4496 36.5676 54.5302 35.358 53.6597C34.7104 53.1923 34.0903 54.2797 34.7379 54.7288C35.862 55.5382 36.9494 56.3935 38.0001 57.2946C38.5988 57.8108 39.4785 56.9341 38.8707 56.4179Z" fill="#FCA5A5"/>
<path d="M36.8578 57.6792L34.6861 55.929C34.4386 55.6968 34.0538 55.6968 33.8094 55.929C33.5681 56.1703 33.5681 56.5643 33.8094 56.8056L35.9812 58.5559C36.2286 58.788 36.6135 58.788 36.8578 58.5559C37.1022 58.3146 37.1022 57.9205 36.8578 57.6792Z" fill="#FCA5A5"/>
<path d="M34.9066 59.0814C34.3934 58.6416 33.865 58.217 33.3213 57.8138C33.025 57.6397 32.6462 57.7405 32.4721 58.0368C32.4721 58.0368 32.4721 58.0368 32.4721 58.0398C32.298 58.3361 32.3988 58.7149 32.6951 58.889C32.6951 58.889 32.6951 58.889 32.6982 58.889C33.1533 59.2311 33.5962 59.5885 34.0299 59.9611C34.2743 60.1963 34.6622 60.1963 34.9066 59.9611C35.0929 59.729 35.0349 59.3564 34.9066 59.0814Z" fill="#FCA5A5"/>
<path d="M55.5037 47.5871C58.0932 47.5871 60.1924 46.065 60.1924 44.1874C60.1924 42.3098 58.0932 40.7877 55.5037 40.7877C52.9141 40.7877 50.8149 42.3098 50.8149 44.1874C50.8149 46.065 52.9141 47.5871 55.5037 47.5871Z" fill="#FCA5A5"/>
<path d="M53.6001 41.0809L55.5031 44.1813L57.8673 41.2458C57.8703 41.2428 56.2026 40.4242 53.6001 41.0809Z" fill="#EF4444"/>
<path d="M77.1384 28.0411C73.9891 29.9593 70.8735 31.9234 67.7854 33.9333C67.1225 34.367 67.7212 35.4514 68.4054 35.0146C71.4905 32.9986 74.6092 31.0345 77.7584 29.1254C78.4243 28.71 77.8226 27.6226 77.1384 28.0411Z" fill="#4B5563"/>
<path d="M79.1457 29.7273C75.9965 31.6455 72.8808 33.6096 69.7927 35.6164C69.1299 36.0502 69.7285 37.1345 70.4128 36.6977C73.4978 34.6817 76.6165 32.7177 79.7658 30.8055C80.4255 30.3962 79.8238 29.3119 79.1457 29.7273Z" fill="#FCA5A5"/>
<path d="M81.2595 31.1202C78.1102 33.0384 74.9946 35.0025 71.9065 37.0093C71.2436 37.4431 71.8423 38.5274 72.5265 38.0906C75.6116 36.0746 78.7303 34.1106 81.8795 32.2015C82.5546 31.7922 81.9345 30.7048 81.2595 31.1202Z" fill="#FCA5A5"/>
<path d="M77.1384 28.0411C73.9891 29.9593 70.8735 31.9234 67.7854 33.9333C67.1225 34.367 67.7212 35.4514 68.4054 35.0146C71.4905 32.9986 74.6092 31.0345 77.7584 29.1254C78.4243 28.71 77.8226 27.6226 77.1384 28.0411Z" fill="#FCA5A5"/>
<path d="M79.1447 29.7273C78.0542 30.3901 76.9699 31.059 75.8916 31.7371C76.2581 31.9846 76.6064 32.2534 76.9393 32.5435C77.874 31.9632 78.8117 31.3859 79.7525 30.8116C80.4245 30.3962 79.8228 29.3118 79.1447 29.7273Z" fill="#EF4444"/>
<path d="M74.0231 35.6531C73.3175 36.1082 72.6119 36.5633 71.9094 37.0246C71.2466 37.4583 71.8452 38.5427 72.5295 38.1059C73.4031 37.5347 74.2828 36.9665 75.1655 36.4045C74.7684 36.1632 74.3836 35.928 74.0231 35.6531Z" fill="white"/>
<path d="M58.5605 38.9701L60.9156 44.8532L64.746 43.1762L62.226 37.2443L58.5605 38.9701Z" fill="#374151"/>
<path d="M61.4197 44.4714C61.3433 44.2087 60.9004 42.8831 60.8454 42.6112C60.9737 42.2294 60.7752 41.814 60.7171 41.3955C60.7019 41.2642 60.5736 41.2367 60.4697 41.3375C60.2437 41.5513 60.427 41.8629 60.3537 42.208C60.204 41.9881 60.0604 41.7621 59.9291 41.5299C59.8833 41.4352 59.8252 41.3466 59.755 41.2703C59.6694 41.1023 59.5411 40.9618 59.3395 40.9984C59.2723 41.0167 59.2265 41.0778 59.2235 41.1481C59.2204 41.2031 59.2204 41.2581 59.2235 41.313C59.0982 41.3069 58.9913 41.3955 58.973 41.5177C58.9516 41.701 58.9913 41.8842 59.086 42.0461C58.9425 42.1103 58.8753 42.2783 58.9394 42.4218C58.9425 42.431 58.9486 42.4432 58.9547 42.4524C59.0646 42.6204 59.199 42.7731 59.3548 42.9014C59.5259 43.0602 59.6694 43.2466 59.7825 43.4543C59.7947 43.4818 59.8161 43.5031 59.8435 43.5154C60.0421 43.9674 60.3628 44.725 60.4086 44.8502C60.7385 44.7005 61.0745 44.5753 61.4197 44.4714Z" fill="#EF4444"/>
<path d="M68.6837 41.1512C69.9178 42.2142 70.8525 43.5857 71.3931 45.1221C72.3492 47.7552 69.9636 52.0621 69.9636 52.0621L66.2432 49.1297" fill="#EF4444"/>
<path d="M69.093 75.9699L70.101 75.4109L69.8474 73.9722C69.8474 73.9722 68.3477 74.1127 68.2163 74.6472" fill="#9CA3AF"/>
<path d="M68.7145 75.9484C68.4884 75.8079 68.2502 75.6888 68.018 75.5605C67.4346 75.252 66.5946 74.9129 66.2372 74.3203C66.0906 74.076 66.1089 73.7644 66.2831 73.5384C66.8145 72.9 67.9631 73.9477 68.5556 73.2299C68.6748 73.0894 68.7267 70.8748 68.7267 70.8748L70.9718 71.4949C70.9718 71.4949 71.3536 75.9484 71.3108 76.2233C71.2681 76.4982 70.4953 76.764 70.4953 76.764C70.2631 76.7151 70.0432 76.6235 69.8446 76.4982C69.6094 76.3272 69.8233 74.2379 69.5361 74.5311C69.249 74.8243 69.1054 75.9667 69.1054 75.9667C68.9741 75.9759 68.8428 75.9698 68.7145 75.9484Z" fill="#374151"/>
<path d="M64.7956 78.1232L65.8036 77.5642L65.5501 76.1255C65.5501 76.1255 64.0503 76.2661 63.9189 76.8006" fill="#9CA3AF"/>
<path d="M64.4195 78.1018C64.1935 77.9613 63.9553 77.8422 63.7231 77.7139C63.1397 77.4054 62.2997 77.0663 61.9423 76.4737C61.7957 76.2294 61.814 75.9178 61.9881 75.6918C62.5196 75.0534 63.6681 76.1011 64.2607 75.3833C64.3798 75.2428 64.4318 73.0282 64.4318 73.0282L66.6768 73.6483C66.6768 73.6483 67.0556 78.0957 67.0159 78.3584C66.9762 78.6211 66.2003 78.8991 66.2003 78.8991C65.9713 78.8532 65.7513 78.7677 65.5528 78.6486C65.3176 78.4775 65.5314 76.3882 65.2443 76.6815C64.9571 76.9747 64.8136 78.1171 64.8136 78.1171C64.6792 78.1263 64.5478 78.1201 64.4195 78.1018Z" fill="#374151"/>
<path d="M72.1106 63.651L72.7581 72.4939C72.7581 72.4939 71.7074 73.9479 68.1732 73.1384L68.1396 67.1759" fill="#4B5563"/>
<path d="M68.0181 65.4012C68.0944 66.1648 68.0181 74.5618 68.0181 74.5618C68.0181 74.5618 67.0406 76.3914 62.7856 74.5618L62.8437 67.4294" fill="#4B5563"/>
<path d="M71.7477 65.9172C70.645 66.5618 69.4751 67.081 68.2594 67.4659H68.2319C68.1128 67.417 67.9753 67.469 67.9203 67.5881C67.1689 67.808 66.4053 67.9821 65.6325 68.1074C64.6397 68.2662 63.815 67.53 62.7979 67.4873C62.7979 63.5836 62.7795 52.4589 64.4412 50.1253L69.356 48.4819C69.3773 48.8882 71.7446 51.6281 71.6866 54.9667C71.653 57.9357 71.7996 60.9047 72.1325 63.8554" fill="#4B5563"/>
<path d="M63.9736 45.5985L64.4257 50.0795C64.4257 50.0795 68.0973 50.2292 69.6765 49.151V45.3389" fill="#EF4444"/>
<path d="M66.8603 41.3986C66.8603 41.3986 64.5725 41.982 63.8699 43.1061C63.4331 43.8728 63.0452 44.67 62.7122 45.4917L61.4324 43.5001C61.4324 43.5001 59.8837 43.9766 59.2637 44.7403C59.2637 44.7403 61.1239 48.7722 62.7153 49.1174C64.3067 49.4626 67.5659 47.4221 67.5659 47.4221C67.5659 47.4221 66.3777 47.865 66.3105 46.6555" fill="#EF4444"/>
<path d="M65.1923 45.8246C65.6932 45.4183 66.072 44.8807 66.2888 44.2759C66.4965 43.5703 66.2369 42.9472 65.9803 42.2844C65.7176 41.6307 65.5649 40.9404 65.5283 40.2378C65.5069 39.5475 65.5863 38.8572 65.6352 38.1699C65.6413 38.1394 65.6413 38.1088 65.6352 38.0813C65.8642 37.3024 66.3408 36.6457 67.2785 36.5693C69.7008 36.3647 69.8352 39.0496 69.8168 40.134C69.7985 41.2183 69.6824 41.9606 70.4858 42.4188C71.2891 42.877 71.8695 44.0682 71.1058 45.0365C70.3422 46.0048 71.0295 45.6566 71.5365 46.5088C72.0436 47.361 71.9153 48.4393 70.8676 48.8272C69.8199 49.2151 64.9448 48.4851 64.4958 48.033C64.3309 47.8467 64.2453 47.6023 64.2637 47.3549C64.3797 46.7471 64.7096 46.2034 65.1923 45.8246Z" fill="#1F2937"/>
<path d="M67.8989 55.9962V74.2868C67.8989 74.3723 67.9692 74.4425 68.0547 74.4425C68.1402 74.4425 68.2105 74.3723 68.2105 74.2868V55.9962C68.2105 55.9106 68.1402 55.8404 68.0547 55.8404C67.9692 55.8404 67.8989 55.9106 67.8989 55.9962Z" fill="#374151"/>
<defs>
<linearGradient id="paint0_linear_162_5862" x1="0.72318" y1="50.9577" x2="120.362" y2="50.9577" gradientUnits="userSpaceOnUse">
<stop stop-color="#D1D5DB"/>
<stop offset="1" stop-color="#E5E7EB"/>
</linearGradient>
<linearGradient id="paint1_linear_162_5862" x1="71.6262" y1="80.6697" x2="69.6233" y2="77.2345" gradientUnits="userSpaceOnUse">
<stop stop-color="white" stop-opacity="0"/>
<stop offset="0.99" stop-color="#9CA3AF"/>
</linearGradient>
<linearGradient id="paint2_linear_162_5862" x1="65.8971" y1="57.2792" x2="63.6555" y2="53.5247" gradientUnits="userSpaceOnUse">
<stop stop-color="white" stop-opacity="0"/>
<stop offset="0.99" stop-color="#9CA3AF"/>
</linearGradient>
<linearGradient id="paint3_linear_162_5862" x1="45.4716" y1="69.4339" x2="43.2083" y2="65.6452" gradientUnits="userSpaceOnUse">
<stop stop-color="white" stop-opacity="0"/>
<stop offset="0.99" stop-color="#9CA3AF"/>
</linearGradient>
<linearGradient id="paint4_linear_162_5862" x1="85.2117" y1="46.1138" x2="82.9701" y2="42.3593" gradientUnits="userSpaceOnUse">
<stop stop-color="white" stop-opacity="0"/>
<stop offset="0.99" stop-color="#9CA3AF"/>
</linearGradient>
<linearGradient id="paint5_linear_162_5862" x1="109.614" y1="57.6637" x2="107.496" y2="54.0301" gradientUnits="userSpaceOnUse">
<stop stop-color="white" stop-opacity="0"/>
<stop offset="0.99" stop-color="#FCA5A5"/>
</linearGradient>
</defs>
</svg>
