<svg width="124" height="101" viewBox="0 0 124 101" fill="none" xmlns="http://www.w3.org/2000/svg">
<path d="M24.0356 97.705C34.0946 102.619 47.1235 100.728 57.8079 99.2426C66.2722 98.0354 72.3528 96.1674 80.8957 97.1423C89.9102 98.163 99.0393 97.5447 107.831 95.3136C111.518 94.3845 115.212 93.1152 118.181 90.7467C121.151 88.3782 123.316 84.7175 123.054 80.9293C122.694 75.7702 118.273 72.0016 115.359 67.7586C106.714 55.3109 110.618 38.0706 105.352 23.876C98.5219 5.49066 78.0699 -3.88192 59.6677 2.93896C58.5577 3.35116 57.4706 3.8157 56.4064 4.33585C44.8608 9.96594 37.0808 20.0517 26.0461 26.48C20.0702 29.9575 13.5149 32.7022 8.72114 37.6944C3.41659 43.1838 0.8298 50.9632 0.869093 58.5921C0.908386 66.221 3.38712 73.7027 7.11012 80.3764C10.8331 87.05 15.915 93.1087 22.5031 96.9231C23.027 97.1914 23.528 97.4531 24.0356 97.705Z" fill="#FCDDDD"/>
<path d="M21.1869 83.3272C19.3467 83.5889 16.9237 84.9433 17.7685 86.6019C18.2662 87.2987 19.0357 87.7469 19.8837 87.8385C24.2387 88.9344 28.6592 89.7359 33.1222 90.2364C41.2034 91.1524 49.36 91.0902 57.4871 91.0052L81.1218 90.8056C90.3557 90.7271 99.7238 90.6453 108.876 89.1438C108.106 85.2999 103.565 83.6838 99.6779 83.2618C90.0577 82.2018 80.2213 84.0764 70.7386 82.1789C65.8892 81.2008 61.1119 79.2412 56.1708 79.6338C50.8597 80.0493 47.1596 82.8561 41.7634 82.372C34.9624 81.7667 27.9126 82.3523 21.1869 83.3272Z" fill="#FAC1C1"/>
<path d="M32.5459 84.8876C32.5328 85.3717 32.6245 85.8493 32.8144 86.2942C33.0502 86.7097 33.4071 87.0434 33.8393 87.2462C34.7627 87.7304 35.84 87.8384 36.8419 87.5472C36.9795 87.521 37.1039 87.4425 37.189 87.3313C37.2447 87.243 37.2643 87.1416 37.2513 87.0401C37.1792 86.4905 36.9042 85.9867 36.4818 85.6269C36.0528 85.2801 35.6894 84.8614 35.4045 84.3903C34.9428 83.4612 35.2801 80.9913 33.5348 81.3904C32.0548 81.7208 32.5099 83.8505 32.5459 84.8876Z" fill="#FBB8AA"/>
<path d="M32.3099 86.5266C32.3099 86.5266 32.0545 87.1416 32.3623 87.4949C32.6701 87.8483 35.8168 89.8013 37.9419 88.2637C40.067 86.7262 35.0571 86.5266 35.0571 86.5266H32.3099Z" fill="#EF4444"/>
<path d="M32.4314 85.1362C32.6278 85.0446 32.8669 85.1034 32.9946 85.2834C33.4137 85.761 34.0522 85.99 34.6809 85.8918C35.3751 85.7217 35.6501 84.9301 35.9907 84.9301C36.3312 84.9301 38.1616 86.4676 38.2991 87.1513C38.4367 87.8351 37.4674 88.3061 36.436 88.3748C35.4045 88.4435 33.0568 87.7206 32.5886 87.184C32.2054 86.5625 32.1465 85.8002 32.4314 85.1362Z" fill="white"/>
<path d="M26.5433 85.8331C26.5302 86.3173 26.6219 86.7981 26.8052 87.2463C27.0443 87.6618 27.4045 87.9922 27.8367 88.1983C28.7633 88.6759 29.8374 88.7806 30.8393 88.4895C30.9768 88.4666 31.1013 88.3913 31.1864 88.2834C31.2388 88.1918 31.2584 88.0871 31.2486 87.9824C31.1766 87.4328 30.9015 86.9323 30.4791 86.5757C30.0567 86.2257 29.69 85.8102 29.3953 85.3456C28.9402 84.4166 29.2807 81.9467 27.5322 82.3392C26.0423 82.6827 26.504 84.8124 26.5433 85.8331Z" fill="#FBB8AA"/>
<path d="M26.3046 87.518C26.3046 87.518 26.059 88.1265 26.357 88.4863C26.655 88.8462 29.805 90.7927 31.93 89.2551C34.0551 87.7176 29.0518 87.4788 29.0518 87.4788L26.3046 87.518Z" fill="#EF4444"/>
<path d="M26.4297 86.0948C26.6261 85.9967 26.8684 86.0589 26.9929 86.2421C27.412 86.7197 28.0505 86.9487 28.6792 86.8407C29.3635 86.6804 29.6484 85.8887 29.9791 85.8789C30.3098 85.8724 32.1566 87.4165 32.2876 88.1002C32.4186 88.7839 31.4559 89.2616 30.4245 89.3237C29.393 89.3859 27.0453 88.6793 26.577 88.1329C26.1972 87.5179 26.1415 86.7589 26.4297 86.0948Z" fill="white"/>
<path d="M25.273 60.0217C25.273 60.0217 24.9488 77.9915 26.2815 83.9815L29.6673 84.397L31.9757 59.7927L25.273 60.0217Z" fill="#1F2937"/>
<path d="M35.7414 58.0753C35.7414 58.0753 37.3262 67.7652 35.4042 83.3272L32.0184 83.7492L29.71 59.145L35.7414 58.0753Z" fill="#1F2937"/>
<path d="M39.6967 50.3416C39.6574 50.9861 39.4511 51.5553 38.8813 51.7418H38.734C37.696 51.9479 36.3338 51.166 35.3875 50.4725C34.9913 50.2075 34.6115 49.9229 34.248 49.6187V42.6996L39.2972 47.8652C39.5591 48.6634 39.6934 49.5009 39.6967 50.3416Z" fill="#EF4444"/>
<path d="M35.4238 50.4789C35.4238 50.8028 35.4696 51.1332 35.4696 51.4571C35.4696 53.2498 35.0538 55.1014 35.5842 56.8385C35.7709 57.2245 35.8233 57.6596 35.7381 58.0751C35.5744 58.399 35.3026 58.6541 34.9687 58.7981C33.3347 59.5701 31.5764 60.0379 29.7722 60.1819C28.4329 60.3651 26.5239 60.7675 25.2862 60.0445C24.8114 59.6944 24.4971 59.171 24.4087 58.592C23.9339 56.7436 23.6523 54.8495 23.5704 52.939C23.5704 52.6838 23.5311 52.4385 23.5246 52.1702C23.4165 50.4495 23.3871 48.732 23.4165 47.0112C23.4165 45.7648 23.541 44.4203 24.3563 43.4814C25.666 42.2219 27.3262 41.3942 29.1206 41.1063C29.6248 41.0016 30.1454 40.9722 30.6595 41.0213C31.3995 41.1358 32.1166 41.3779 32.7748 41.7377C33.5607 42.0191 34.2254 42.5621 34.651 43.2753C35.0767 44.1782 35.3747 45.1367 35.5351 46.1214C35.6956 47.021 35.7349 47.9403 35.6497 48.8497C35.6039 49.3045 35.4893 49.7559 35.4434 50.2106C35.4303 50.299 35.4238 50.3906 35.4238 50.4789Z" fill="#EF4444"/>
<path opacity="0.1" d="M28.1056 60.6303C27.5817 60.784 26.3833 60.3064 25.9806 60.2377C25.7415 60.2377 25.5254 60.0774 25.2864 60.0218C24.101 59.7208 23.9635 56.384 23.8456 55.4942C23.4363 53.106 23.1646 50.6983 23.0303 48.2807C22.9714 47.3647 23.0794 46.4455 23.3446 45.5655C23.6131 44.6724 24.2648 43.9461 25.1227 43.583C26.6616 43.0367 27.0939 47.8358 27.3001 48.827C27.5621 50.0734 27.8306 51.3199 28.0696 52.5564C28.253 53.4724 28.1548 54.1954 28.8391 54.8628C28.8882 54.9151 28.9537 54.9544 29.0225 54.9707C29.088 54.9707 29.1502 54.9544 29.2058 54.9249C29.5071 54.7941 29.8313 54.7188 30.1587 54.7025C30.4829 54.6338 30.8005 54.8399 30.8725 55.1638C30.8791 55.1899 30.8823 55.2161 30.8823 55.239C31.0755 56.1059 30.7121 57.0056 29.9655 57.493C29.6413 57.6991 29.2713 57.807 28.9406 58.0066C27.716 58.7754 28.7409 59.5442 28.2563 60.4667C28.2366 60.5387 28.1777 60.5976 28.1056 60.6303Z" fill="#111827"/>
<path d="M31.7629 39.6212C31.5632 39.8371 31.2881 39.9679 30.9934 39.981C30.7609 40.0039 30.5252 40.0039 30.2927 39.981H30.1617C30.129 39.9712 30.093 39.9712 30.0602 39.981C30.0504 40.017 30.0504 40.053 30.0602 40.089C30.0176 40.5568 30.0176 41.0279 30.0602 41.4957C30.0602 41.5807 30.0602 41.6658 30.0602 41.7509C30.0864 41.8392 30.0864 41.9308 30.0602 42.0191C29.9947 42.1173 29.8932 42.186 29.7753 42.2023C29.569 42.271 29.3529 42.3103 29.1368 42.3168C28.6719 42.2743 28.2233 42.114 27.8369 41.8555C27.8664 41.0508 27.8238 40.246 27.7059 39.4478C27.48 38.4402 27.3752 37.4064 27.3981 36.3727C27.3948 35.437 28.1512 34.6781 29.0844 34.6748C29.1761 34.6748 29.2678 34.6813 29.3595 34.6977C30.0995 34.6846 30.8297 34.8842 31.4617 35.2735C31.6516 35.424 31.7662 35.653 31.776 35.895C31.8546 36.304 31.9233 36.7096 31.9594 37.1251C31.9987 37.5406 32.0445 38.064 32.0511 38.5318C32.0903 38.9244 31.9888 39.3071 31.7629 39.6212Z" fill="#FBB8AA"/>
<path d="M44.0063 45.1369C44.0521 45.0682 44.1438 44.9897 44.2126 45.0355C44.242 45.0617 44.265 45.0977 44.2748 45.1369C44.3567 45.2874 44.5171 45.3823 44.6906 45.3757C44.8511 45.3757 45.0214 45.3757 45.1916 45.3757C45.6337 45.3888 46.0463 45.6113 46.2984 45.9744C46.5505 46.3342 46.6913 46.7595 46.6979 47.1979C46.7437 47.5905 46.6356 47.9896 46.3966 48.3036C45.9349 48.6831 45.3324 48.8434 44.743 48.742H44.2028C43.9375 48.7747 43.6919 48.5981 43.6396 48.3331C43.4169 47.8031 43.0174 47.2633 43.2925 46.7268C43.4857 46.1772 43.7214 45.644 44.0063 45.1369Z" fill="#FBB8AA"/>
<path d="M31.0925 35.6858C30.8993 35.8493 30.6472 35.9311 30.3918 35.9082C29.6976 35.8624 29.3997 35.4306 28.8528 36.1012C28.676 36.3237 28.5647 36.5887 28.5287 36.87C28.5287 36.9322 28.5287 37.6388 28.5909 37.6388C28.3911 37.7075 28.3518 37.3476 28.1979 37.2004C28.044 37.0532 27.6904 37.2528 27.6675 37.5014C27.6773 37.7566 27.7526 38.0019 27.8901 38.2178C28.0735 38.6627 28.1063 39.16 27.9818 39.6245C27.9818 39.739 27.8672 39.8699 27.7592 39.8404C27.6511 39.811 27.5824 39.6245 27.5038 39.5329C27.3924 39.4086 27.2746 39.2909 27.1501 39.1796C26.7637 38.8427 26.1121 38.581 25.8273 38.1786C25.6832 37.9627 25.621 37.7042 25.6504 37.4491C25.6504 37.3869 25.8502 36.7653 25.9517 36.8275C25.5457 36.5429 25.4474 35.9802 25.7323 35.5745C25.8174 35.4535 25.9288 35.3554 26.0597 35.2899C25.8502 34.4753 26.23 33.6248 26.9766 33.2355C27.7133 32.8822 28.545 32.7775 29.3473 32.9443C30.2412 33.049 31.0958 33.3533 31.8555 33.8374C32.1174 33.9977 32.3401 34.2169 32.5005 34.4753C32.6675 34.7403 32.697 35.0707 32.5791 35.3586C32.4678 35.3684 32.3597 35.3161 32.3008 35.2212C32.3237 35.5222 32.101 35.7839 31.7998 35.8133C31.5706 35.8395 31.3545 35.7152 31.2595 35.5058C31.2169 35.5745 31.1613 35.6367 31.0925 35.6858Z" fill="#1F2937"/>
<path d="M30.3232 40.0007H30.1922C30.1594 39.9909 30.1234 39.9909 30.0907 40.0007C30.0808 40.0367 30.0808 40.0727 30.0907 40.1087C30.0481 40.5765 30.0481 41.0476 30.0907 41.5154C29.236 41.2438 28.6925 40.4064 28.7907 39.5165C29.3048 39.7292 29.8385 39.8862 30.3854 39.9844L30.3232 40.0007Z" fill="#FCA5A5"/>
<path d="M43.9081 48.5358C43.2467 49.4747 42.4248 50.2926 41.485 50.9501C40.7974 51.4147 40.0017 51.696 39.1766 51.7647C39.0685 51.7745 38.9572 51.7614 38.8524 51.7255C38.6756 51.6797 38.5184 51.575 38.4136 51.4245C38.0731 51.0188 37.8701 50.515 37.8275 49.9851C37.7751 48.6013 39.2748 47.7932 39.2748 47.7932C39.2748 47.7932 42.6933 46.7104 43.1222 46.887C43.3449 46.9786 43.561 47.4628 43.7084 47.8783C43.8557 48.2937 43.9081 48.5358 43.9081 48.5358Z" fill="#EF4444"/>
<path opacity="0.1" d="M43.9067 48.5358C43.2453 49.4747 42.4234 50.2926 41.4836 50.9501C40.796 51.4147 40.0003 51.696 39.1752 51.7647C39.0671 51.7745 38.9558 51.7614 38.851 51.7254C38.8052 51.7451 38.7561 51.7614 38.7037 51.7712C37.6657 51.9773 36.3101 51.1857 35.3572 50.4954L34.2177 50.0865L33.8936 46.8641C33.8936 46.8641 36.6342 49.4158 37.8261 49.985C38.3861 50.2827 39.0278 50.4038 39.6565 50.322C39.8235 50.2926 39.9872 50.2435 40.1411 50.1748C41.4116 49.563 42.5937 48.7877 43.6579 47.8685C43.7561 48.0876 43.8379 48.3101 43.9067 48.5358Z" fill="#111827"/>
<path d="M32.677 51.8498L32.9684 48.9349C32.988 48.6961 33.1812 48.5064 33.4235 48.4966L37.271 48.3036C37.5395 48.2937 37.7654 48.5031 37.7785 48.7714C37.7818 48.8008 37.7818 48.8335 37.7785 48.863L36.77 55.4974C36.7405 55.7133 36.5702 55.8801 36.3541 55.9063L32.8047 56.397C32.5362 56.4297 32.2938 56.24 32.2578 55.975C32.2546 55.9423 32.2546 55.9096 32.2578 55.8736L32.677 51.8498Z" fill="#EF4444"/>
<path d="M37.7723 48.8498L36.7703 55.4842C36.7343 55.6969 36.5673 55.8604 36.3545 55.8932L32.8312 56.3839C32.566 56.4231 32.3204 56.2432 32.2778 55.9782C32.2778 55.9749 32.2778 55.9717 32.2778 55.9684C32.2746 55.9291 32.2746 55.8899 32.2778 55.8539L32.7101 51.8235L32.972 48.9316C32.9982 48.6928 33.1947 48.5096 33.4337 48.4998L37.2812 48.3068C37.5333 48.297 37.7494 48.4802 37.7821 48.7288C37.7854 48.7746 37.7854 48.8138 37.7723 48.8498Z" fill="white"/>
<path d="M37.7707 48.8497L36.7687 55.4842C36.7327 55.6968 36.5657 55.8604 36.3529 55.8931L32.8296 56.3838C32.8231 56.3445 32.8231 56.3053 32.8296 56.2693L33.252 52.2487L33.5369 49.3274C33.5598 49.0886 33.753 48.9021 33.992 48.889L37.7543 48.7058C37.7773 48.7483 37.7838 48.8007 37.7707 48.8497Z" fill="url(#paint0_linear_162_6701)"/>
<path d="M31.5015 51.8038C31.6325 51.6436 31.8355 51.5618 32.0418 51.5814C32.1564 51.637 32.2645 51.7024 32.366 51.781C32.4609 51.8268 32.5657 51.8497 32.6738 51.8497C33.1027 51.8791 33.5317 51.8202 33.9344 51.673C34.1374 51.5749 34.3601 51.5192 34.5893 51.5127C34.8644 51.565 35.1034 51.7319 35.2442 51.974C35.6437 52.5726 35.66 53.3512 35.2835 53.9662C35.1132 54.2116 34.8905 54.4144 34.6286 54.5584C34.0556 54.8593 33.4171 55.0229 32.7655 55.0262C32.1106 55.0262 31.4557 55.0262 30.8172 55.0262C30.6666 55.0524 30.5094 55.0327 30.3719 54.9738C30.2147 54.8266 30.1361 54.6173 30.1557 54.4046C30.0575 53.9597 30.1197 53.4919 30.3326 53.0895C30.7091 52.6184 31.125 52.2488 31.5015 51.8038Z" fill="#FBB8AA"/>
<path d="M24.3726 43.4683C24.3726 43.4683 17.2376 52.7886 19.4937 56.0796C21.7498 59.3706 31.2521 55.5333 31.2521 55.5333L30.3287 52.8115C30.3287 52.8115 23.6489 53.6588 23.5933 52.9129C23.5376 52.167 27.8336 47.8847 27.8336 47.8847C27.8336 47.8847 28.6064 41.6298 24.3726 43.4683Z" fill="#EF4444"/>
<path d="M93.148 43.4292H44.3462V78.8912H93.148V43.4292Z" fill="white"/>
<path d="M90.6889 73.0485H47.853V74.7333H90.6889V73.0485Z" fill="#EF4444"/>
<g opacity="0.41">
<path opacity="0.41" d="M68.1801 60.0771H64.0249V63.6985H68.1801V60.0771Z" fill="#EF4444"/>
</g>
<path d="M64.0546 57.2607H59.8994V63.689H64.0546V57.2607Z" fill="#EF4444"/>
<g opacity="0.5">
<path opacity="0.5" d="M59.936 54.2933H55.7808V63.6986H59.936V54.2933Z" fill="#EF4444"/>
</g>
<path d="M55.811 51.4015H51.6558V63.6954H55.811V51.4015Z" fill="#EF4444"/>
<path d="M51.6884 48.49H47.5332V63.6987H51.6884V48.49Z" fill="#EF4444"/>
<path d="M51.6884 48.49H47.5332V63.6987H51.6884V48.49Z" fill="url(#paint1_linear_162_6701)"/>
<path opacity="0.31" d="M83.426 18.6384C83.426 21.6514 80.9833 24.0918 77.9708 24.0984H63.9563C60.9406 24.2129 58.4029 21.8607 58.2916 18.8478C58.177 15.8348 60.5313 13.2995 63.547 13.1883C63.6846 13.1817 63.8221 13.1817 63.9563 13.1883H65.9734C65.9668 13.041 65.9668 12.8906 65.9734 12.7433C66.1371 9.97901 68.5111 7.86895 71.2779 8.03252C73.7501 8.17646 75.7475 10.1033 75.98 12.5667V12.7139C75.9865 12.8611 75.9865 13.0116 75.98 13.1588H77.9872C80.9964 13.1555 83.4391 15.5895 83.4424 18.5959C83.4424 18.6024 83.4424 18.6057 83.4424 18.6122L83.426 18.6384Z" fill="#EF4444"/>
<path d="M81.7347 18.0921C81.7347 21.105 79.292 23.5455 76.2795 23.552H62.2585C59.2427 23.4375 56.8884 20.9055 57.003 17.8925C57.1111 15.0398 59.4032 12.7499 62.2585 12.6419H64.2755C64.269 12.4947 64.269 12.3442 64.2755 12.197C64.4916 9.43592 66.9081 7.37493 69.6717 7.59085C72.1341 7.78386 74.0889 9.73689 74.2821 12.197C74.2887 12.3442 74.2887 12.4947 74.2821 12.6419H76.2992C79.2985 12.655 81.7314 15.0889 81.7347 18.0921Z" fill="white"/>
<path d="M69.7885 23.5748H68.7407V28.1973H69.7885V23.5748Z" fill="#EF4444"/>
<path d="M82.2574 35.0708H81.2096V28.721H56.92V35.0708H55.8755V27.6742H82.2574V35.0708Z" fill="#EF4444"/>
<path d="M69.7885 28.1973H68.7407V35.0804H69.7885V28.1973Z" fill="#EF4444"/>
<path d="M83.6434 35.0706H79.6094V39.1009H83.6434V35.0706Z" fill="#EF4444"/>
<path d="M71.2826 35.0706H67.2485V39.1009H71.2826V35.0706Z" fill="#EF4444"/>
<path d="M58.4989 35.0706H54.4648V39.1009H58.4989V35.0706Z" fill="#EF4444"/>
<path d="M90.6889 66.7574H47.853V68.4422H90.6889V66.7574Z" fill="#EF4444"/>
<path d="M68.7405 66.7574H47.853V68.4422H68.7405V66.7574Z" fill="url(#paint2_linear_162_6701)"/>
<path d="M73.7444 72.9861H52.8569V74.6709H73.7444V72.9861Z" fill="url(#paint3_linear_162_6701)"/>
<path d="M90.6889 69.9014H47.853V71.5861H90.6889V69.9014Z" fill="#EF4444"/>
<path d="M76.969 69.9014H49.4541V71.5861H76.969V69.9014Z" fill="url(#paint4_linear_162_6701)"/>
<path d="M74.6382 54.5027C74.6415 53.7896 74.7921 53.0862 75.0835 52.4352L72.0056 50.7603C69.9296 54.9477 71.6454 60.0216 75.8367 62.0924C75.8432 62.0957 75.8498 62.0989 75.853 62.1022C76.3933 62.3639 76.9565 62.57 77.5394 62.7172L78.1615 59.2496C76.0692 58.6116 74.6382 56.6848 74.6382 54.5027Z" fill="#EF4444"/>
<path opacity="0.5" d="M86.8917 58.8473C84.9663 62.0598 81.1549 63.6235 77.5269 62.6912L78.149 59.2235C80.2675 59.8745 82.5629 59.0403 83.7679 57.1788L86.8917 58.8473Z" fill="#EF4444"/>
<path d="M88.0898 54.503C88.0898 56.034 87.674 57.5356 86.8881 58.8474L83.8101 57.1626C85.2967 54.853 84.632 51.7779 82.3203 50.2927C80.0086 48.8075 76.9306 49.4716 75.444 51.7812C75.313 51.9775 75.1984 52.1868 75.1068 52.4027L72.0288 50.7278C74.0491 46.5142 79.1048 44.7346 83.3223 46.753C86.2889 48.1728 88.1651 51.1825 88.1291 54.4735L88.0898 54.503Z" fill="url(#paint5_linear_162_6701)"/>
<defs>
<linearGradient id="paint0_linear_162_6701" x1="44.8554" y1="53.8379" x2="13.3098" y2="49.555" gradientUnits="userSpaceOnUse">
<stop offset="0.01"/>
<stop offset="0.08" stop-opacity="0.69"/>
<stop offset="0.21" stop-opacity="0.32"/>
<stop offset="1" stop-opacity="0"/>
</linearGradient>
<linearGradient id="paint1_linear_162_6701" x1="60.0433" y1="48.7009" x2="22.7244" y2="75.1761" gradientUnits="userSpaceOnUse">
<stop offset="0.01"/>
<stop offset="0.08" stop-opacity="0.69"/>
<stop offset="0.21" stop-opacity="0.32"/>
<stop offset="1" stop-opacity="0"/>
</linearGradient>
<linearGradient id="paint2_linear_162_6701" x1="60.2337" y1="55.184" x2="53.8343" y2="96.2995" gradientUnits="userSpaceOnUse">
<stop offset="0.01"/>
<stop offset="0.08" stop-opacity="0.69"/>
<stop offset="0.21" stop-opacity="0.32"/>
<stop offset="1" stop-opacity="0"/>
</linearGradient>
<linearGradient id="paint3_linear_162_6701" x1="65.2334" y1="61.4193" x2="58.8416" y2="102.535" gradientUnits="userSpaceOnUse">
<stop offset="0.01"/>
<stop offset="0.08" stop-opacity="0.69"/>
<stop offset="0.21" stop-opacity="0.32"/>
<stop offset="1" stop-opacity="0"/>
</linearGradient>
<linearGradient id="paint4_linear_162_6701" x1="65.5518" y1="55.7366" x2="57.8157" y2="105.441" gradientUnits="userSpaceOnUse">
<stop offset="0.01"/>
<stop offset="0.08" stop-opacity="0.69"/>
<stop offset="0.21" stop-opacity="0.32"/>
<stop offset="1" stop-opacity="0"/>
</linearGradient>
<linearGradient id="paint5_linear_162_6701" x1="94.1401" y1="28.3299" x2="62.2535" y2="85.8693" gradientUnits="userSpaceOnUse">
<stop offset="0.01"/>
<stop offset="0.08" stop-opacity="0.69"/>
<stop offset="0.21" stop-opacity="0.32"/>
<stop offset="1" stop-opacity="0"/>
</linearGradient>
</defs>
</svg>
