<svg width="197" height="126" viewBox="0 0 197 126" fill="none" xmlns="http://www.w3.org/2000/svg">
<path d="M75.9375 99.7298C74.2046 93.7429 69.2465 89.1398 62.8504 88.9834C59.1318 88.8931 55.5246 90.4876 52.3566 92.3078C48.0815 94.7627 43.0422 97.7262 37.9247 96.9831C34.6484 96.5047 30.7674 94.6665 29.9972 90.8667C29.1849 86.8473 32.4311 84.0885 35.9029 82.4729C38.8784 81.0859 43.0512 77.7735 44.39 74.6025C49.6911 62.0239 34.868 47.6671 39.0499 33.3314C43.4273 18.3279 63.7018 15.7917 73.8917 25.9786C74.8695 26.9563 75.7811 27.9973 76.6145 29.1014C78.6934 31.8633 79.9178 35.6239 82.809 37.6968C86.5517 40.3804 91.4014 39.52 95.4359 37.9285C103.141 34.8838 105.181 32.8741 112.714 29.5948C118.132 27.2361 124.808 25.1332 130.894 27.2271C135.257 28.7284 140.077 31.43 142.516 35.3381C147.053 42.6068 145.017 50.438 152.189 60.7753C155.438 65.4596 160.604 66.7713 164.719 70.1559C175.388 78.9288 171.823 97.4253 160.186 103.752C150.63 108.948 138.867 107.763 128.506 106.43C127.711 106.328 126.917 106.219 126.126 106.102" stroke="#D3DBF4" stroke-miterlimit="10" stroke-linejoin="round" stroke-dasharray="3.5 3.5"/>
<path d="M151.579 31.5475C152.475 30.5246 153.273 29.3874 153.935 28.1298C154.596 26.8752 155.09 25.5756 155.43 24.2578L151.874 22.9972C152.16 21.7698 152.268 20.5242 152.217 19.2907L155.95 18.7101C155.767 15.9332 154.933 13.2315 153.519 10.8337L150.108 12.4583C149.455 11.4144 148.664 10.4456 147.734 9.5912L149.96 6.54355C148.937 5.64701 147.8 4.84975 146.543 4.18787C145.288 3.52599 143.988 3.03259 142.671 2.69263L141.41 6.24872C140.183 5.96291 138.937 5.8546 137.704 5.90574L137.123 2.17215C134.346 2.35567 131.644 3.18904 129.247 4.60305L130.871 8.01473C129.827 8.66758 128.858 9.45883 128.004 10.3885L124.956 8.16215C124.06 9.18505 123.263 10.3223 122.601 11.5798C121.939 12.8344 121.445 14.1341 121.105 15.4518L124.662 16.7124C124.376 17.9399 124.267 19.1854 124.319 20.4189L120.585 20.9996C120.768 23.7765 121.602 26.4781 123.016 28.8759L126.428 27.2513C127.08 28.2953 127.872 29.264 128.801 30.1185L126.575 33.1661C127.598 34.0626 128.735 34.8599 129.993 35.5218C131.247 36.1837 132.547 36.6771 133.865 37.017L135.125 33.4609C136.353 33.7467 137.598 33.8551 138.832 33.8039L139.412 37.5375C142.189 37.354 144.891 36.5206 147.289 35.1066L145.664 31.6949C146.708 31.0421 147.677 30.2508 148.531 29.3212L151.579 31.5475ZM134.135 27.6845C129.812 25.4011 128.16 20.0459 130.441 15.7256C132.724 11.4023 138.08 9.75065 142.4 12.0311C146.723 14.3146 148.375 19.6698 146.094 23.9901C143.814 28.3133 138.459 29.968 134.135 27.6845ZM135.333 25.4191C132.261 23.7975 131.088 19.9917 132.709 16.92C134.331 13.8483 138.137 12.675 141.208 14.2966C144.28 15.9182 145.454 19.724 143.832 22.7957C142.207 25.8674 138.405 27.0407 135.333 25.4191Z" fill="#E4E9F9"/>
<path d="M70.7698 40.1098C71.2602 39.4239 71.6784 38.6747 72.0094 37.8594C72.3403 37.0441 72.5629 36.2137 72.6923 35.3804L70.4239 34.8238C70.5231 34.0506 70.5141 33.2744 70.4058 32.5193L72.6712 31.9326C72.3884 30.2328 71.7055 28.6202 70.6886 27.2303L68.6879 28.4427C68.2216 27.838 67.6741 27.2934 67.0483 26.8241L68.2336 24.8084C67.5477 24.318 66.7986 23.8998 65.9833 23.5689C65.1679 23.2379 64.3376 23.0153 63.5042 22.8859L62.9476 25.1544C62.1744 25.0551 61.3982 25.0641 60.6431 25.1724L60.0564 22.907C58.3566 23.1898 56.744 23.8727 55.3541 24.8896L56.5665 26.8903C55.9618 27.3566 55.4173 27.9042 54.9479 28.5299L52.9322 27.3446C52.4418 28.0305 52.0236 28.7797 51.6927 29.595C51.3618 30.4103 51.1391 31.2406 51.0098 32.074L53.2782 32.6306C53.1789 33.4038 53.1879 34.18 53.2963 34.9351L51.0308 35.5218C51.3136 37.2216 51.9966 38.8342 53.0135 40.2241L55.0141 39.0117C55.4805 39.6164 56.028 40.1609 56.6538 40.6303L55.4684 42.646C56.1544 43.1364 56.9035 43.5546 57.7188 43.8855C58.5341 44.2165 59.3645 44.4391 60.1978 44.5685L60.7544 42.3C61.5276 42.3993 62.3038 42.3903 63.059 42.282L63.6456 44.5474C65.3454 44.2646 66.958 43.5816 68.348 42.5648L67.1355 40.5641C67.7402 40.0978 68.2848 39.5502 68.7541 38.9244L70.7698 40.1098ZM59.7827 38.8071C56.9787 37.6669 55.6309 34.4688 56.7711 31.6648C57.9113 28.8609 61.1094 27.5131 63.9134 28.6533C66.7173 29.7935 68.0652 32.9916 66.9249 35.7956C65.7847 38.5965 62.5866 39.9473 59.7827 38.8071ZM60.3814 37.3359C58.3897 36.5266 57.43 34.2552 58.2393 32.2605C59.0486 30.2689 61.32 29.3092 63.3147 30.1184C65.3063 30.9277 66.2661 33.1992 65.4568 35.1939C64.6445 37.1885 62.373 38.1452 60.3814 37.3359Z" fill="#E4E9F9"/>
<path d="M79.7769 19.2455C80.165 18.8033 80.511 18.3099 80.7968 17.7653C81.0856 17.2208 81.2962 16.6582 81.4436 16.0866L79.9032 15.539C80.0266 15.0065 80.0747 14.465 80.0506 13.9325L81.6692 13.6797C81.591 12.4763 81.227 11.303 80.6162 10.2651L79.1391 10.9691C78.8563 10.5148 78.5133 10.0966 78.1101 9.72653L79.0759 8.40578C78.6336 8.01768 78.1402 7.6717 77.5957 7.38589C77.0511 7.10008 76.4885 6.88647 75.9169 6.73905L75.3694 8.27942C74.8368 8.15607 74.2953 8.10794 73.7628 8.132L73.5101 6.51341C72.3067 6.59163 71.1333 6.95567 70.0954 7.5664L70.7994 9.04359C70.3451 9.32639 69.9269 9.66937 69.5569 10.0725L68.2361 9.10677C67.848 9.54903 67.502 10.0424 67.2162 10.587C66.9274 11.1315 66.7168 11.6941 66.5694 12.2657L68.1098 12.8133C67.9864 13.3458 67.9383 13.8873 67.9623 14.4198L66.3438 14.6726C66.422 15.876 66.786 17.0493 67.3967 18.0873L68.8739 17.3833C69.1567 17.8375 69.4997 18.2557 69.9028 18.6258L68.9371 19.9465C69.3794 20.3346 69.8728 20.6806 70.4173 20.9664C70.9619 21.2552 71.5244 21.4658 72.0961 21.6133L72.6436 20.0729C73.1761 20.1962 73.7177 20.2444 74.2502 20.2203L74.5029 21.8389C75.7063 21.7607 76.8796 21.3966 77.9176 20.7859L77.2136 19.3087C77.6679 19.0259 78.0861 18.6829 78.4561 18.2798L79.7769 19.2455ZM72.7158 16.6191C71.368 15.9061 70.8505 14.2363 71.5636 12.8855C72.2766 11.5377 73.9463 11.0202 75.2972 11.7332C76.645 12.4462 77.1624 14.116 76.4494 15.4668C75.7364 16.8177 74.0667 17.3321 72.7158 16.6191Z" fill="#E4E9F9"/>
<path d="M43.4228 43.2386C43.4138 43.037 43.3957 42.8234 43.3717 42.5978C43.1641 40.7295 41.8854 40.901 41.0882 40.9581C40.2909 41.0153 39.3011 41.0454 38.922 40.1759C38.7566 39.7968 38.7626 39.3426 38.6543 38.9334C38.4136 38.0278 37.6073 37.4833 36.8371 37.4833C36.0669 37.4803 35.3389 37.9225 34.7101 38.4701C34.3821 38.7529 34.0121 39.0868 33.624 38.9785C33.3743 38.9093 33.1787 38.6717 33.0223 38.4189C32.1107 36.9387 32.1167 34.7846 31.1179 33.3917C30.0168 31.8543 27.9559 31.8242 26.563 32.9404C25.17 34.0566 24.3697 36.0452 24.0027 38.0519C23.8854 38.7047 23.7801 39.4208 23.3799 39.863C22.8053 40.4978 21.9238 40.2872 21.1566 40.203C20.2661 40.1037 19.3154 40.2481 18.5933 40.901C18.0037 41.4335 17.6216 42.3661 17.6938 43.2416H43.4228V43.2386Z" fill="#D3DBF4" stroke="white" stroke-miterlimit="10" stroke-linejoin="round"/>
<path d="M94.9555 10.8819H120.281C120.281 10.8819 119.268 9.70253 118.118 9.29938C116.671 8.79395 116.072 10.217 115.158 8.37576C114.646 7.34383 114.288 5.98397 112.941 5.63197C110.835 5.08141 110.299 6.82035 109.294 6.35101C108.413 5.93885 108.44 4.28415 107.552 2.90323C106.683 1.5524 104.565 0.722042 103.118 1.42604C100.476 2.71369 100.819 4.7595 99.9557 5.43341C99.1013 6.0983 97.1458 3.75465 94.9555 6.29084C93.4483 8.0388 94.9555 10.8819 94.9555 10.8819Z" fill="white" stroke="white" stroke-miterlimit="10" stroke-linejoin="round"/>
<path d="M121.392 2.17814C121.392 2.79188 120.895 3.28829 120.282 3.28829C119.668 3.28829 119.171 2.79188 119.171 2.17814C119.171 1.5644 119.668 1.06799 120.282 1.06799C120.895 1.06799 121.392 1.5644 121.392 2.17814Z" stroke="#EF4444" stroke-miterlimit="10" stroke-linejoin="round"/>
<path d="M194.628 91.7423C194.628 92.356 194.131 92.8524 193.517 92.8524C192.904 92.8524 192.407 92.356 192.407 91.7423C192.407 91.1286 192.904 90.6322 193.517 90.6322C194.131 90.6291 194.628 91.1286 194.628 91.7423Z" stroke="#EF4444" stroke-miterlimit="10" stroke-linejoin="round"/>
<path d="M141.551 45.6936C141.551 46.3074 141.055 46.8038 140.441 46.8038C139.827 46.8038 139.331 46.3074 139.331 45.6936C139.331 45.0799 139.827 44.5835 140.441 44.5835C141.055 44.5835 141.551 45.0799 141.551 45.6936Z" stroke="#EF4444" stroke-miterlimit="10" stroke-linejoin="round"/>
<path d="M4.10653 58.871C4.10653 59.4848 3.61012 59.9812 2.99638 59.9812C2.38264 59.9812 1.88623 59.4848 1.88623 58.871C1.88623 58.2573 2.38264 57.7609 2.99638 57.7609C3.60711 57.7609 4.10653 58.2573 4.10653 58.871Z" stroke="#EF4444" stroke-miterlimit="10" stroke-linejoin="round"/>
<path d="M49.4391 17.2118C49.4391 17.8255 48.9426 18.3219 48.3289 18.3219C47.7152 18.3219 47.2188 17.8255 47.2188 17.2118C47.2188 16.598 47.7152 16.1016 48.3289 16.1016C48.9426 16.1016 49.4391 16.598 49.4391 17.2118Z" stroke="#EF4444" stroke-miterlimit="10" stroke-linejoin="round"/>
<path d="M62.6045 12.1574C62.6045 12.5756 62.2676 12.9126 61.8494 12.9126C61.4312 12.9126 61.0942 12.5756 61.0942 12.1574C61.0942 11.7392 61.4312 11.4023 61.8494 11.4023C62.2676 11.4023 62.6045 11.7392 62.6045 12.1574Z" stroke="#EF4444" stroke-miterlimit="10" stroke-linejoin="round"/>
<path d="M185.635 65.6342C185.635 66.0524 185.298 66.3893 184.88 66.3893C184.461 66.3893 184.125 66.0524 184.125 65.6342C184.125 65.216 184.461 64.879 184.88 64.879C185.298 64.879 185.635 65.216 185.635 65.6342Z" stroke="#EF4444" stroke-miterlimit="10" stroke-linejoin="round"/>
<path d="M130.754 41.3854C131.171 41.3854 131.509 41.0473 131.509 40.6303C131.509 40.2132 131.171 39.8751 130.754 39.8751C130.337 39.8751 129.999 40.2132 129.999 40.6303C129.999 41.0473 130.337 41.3854 130.754 41.3854Z" stroke="#EF4444" stroke-miterlimit="10" stroke-linejoin="round"/>
<path d="M161.222 21.6223C161.222 22.0405 160.885 22.3774 160.467 22.3774C160.048 22.3774 159.711 22.0405 159.711 21.6223C159.711 21.2041 160.048 20.8671 160.467 20.8671C160.885 20.8671 161.222 21.2041 161.222 21.6223Z" stroke="#EF4444" stroke-miterlimit="10" stroke-linejoin="round"/>
<path d="M159.611 76.9643C159.611 77.3825 159.274 77.7195 158.856 77.7195C158.438 77.7195 158.101 77.3825 158.101 76.9643C158.101 76.5461 158.438 76.2092 158.856 76.2092C159.274 76.2062 159.611 76.5461 159.611 76.9643Z" stroke="#EF4444" stroke-miterlimit="10" stroke-linejoin="round"/>
<path d="M42.3658 84.1969C42.3658 84.6151 42.0288 84.9521 41.6106 84.9521C41.1924 84.9521 40.8555 84.6151 40.8555 84.1969C40.8555 83.7787 41.1924 83.4418 41.6106 83.4418C42.0288 83.4418 42.3658 83.7787 42.3658 84.1969Z" stroke="#EF4444" stroke-miterlimit="10" stroke-linejoin="round"/>
<path d="M44.6343 49.683C44.6343 50.1012 44.2974 50.4381 43.8792 50.4381C43.461 50.4381 43.124 50.1012 43.124 49.683C43.124 49.2648 43.461 48.9278 43.8792 48.9278C44.2974 48.9278 44.6343 49.2678 44.6343 49.683Z" stroke="#EF4444" stroke-miterlimit="10" stroke-linejoin="round"/>
<path d="M190.284 54.8275H189.273C189.093 54.8275 188.945 54.6801 188.945 54.4996V53.4887C188.945 53.3082 189.093 53.1608 189.273 53.1608H190.284C190.465 53.1608 190.612 53.3082 190.612 53.4887V54.4996C190.612 54.6801 190.465 54.8275 190.284 54.8275Z" fill="#E4E9F9"/>
<path d="M34.7031 89.6001H33.6922C33.5117 89.6001 33.3643 89.4527 33.3643 89.2722V88.2613C33.3643 88.0808 33.5117 87.9334 33.6922 87.9334H34.7031C34.8836 87.9334 35.031 88.0808 35.031 88.2613V89.2722C35.034 89.4527 34.8866 89.6001 34.7031 89.6001Z" fill="#E4E9F9"/>
<path d="M32.9462 28.0636H31.9354C31.7548 28.0636 31.6074 27.9162 31.6074 27.7357V26.7248C31.6074 26.5443 31.7548 26.3969 31.9354 26.3969H32.9462C33.1267 26.3969 33.2741 26.5443 33.2741 26.7248V27.7357C33.2741 27.9162 33.1267 28.0636 32.9462 28.0636Z" fill="#E4E9F9"/>
<path d="M162.813 16.1197H160.869C160.52 16.1197 160.237 15.8369 160.237 15.4879V13.5444C160.237 13.1954 160.52 12.9126 160.869 12.9126H162.813C163.162 12.9126 163.444 13.1954 163.444 13.5444V15.4879C163.444 15.8369 163.162 16.1197 162.813 16.1197Z" fill="#E4E9F9"/>
<path d="M144.686 64.5481H143.675C143.495 64.5481 143.347 64.4007 143.347 64.2201V63.2093C143.347 63.0288 143.495 62.8813 143.675 62.8813H144.686C144.866 62.8813 145.014 63.0288 145.014 63.2093V64.2201C145.014 64.4007 144.866 64.5481 144.686 64.5481Z" fill="#E4E9F9"/>
<path d="M121.662 52.5621C121.671 52.4177 121.683 52.2642 121.704 52.1018C121.873 50.76 122.923 50.8833 123.579 50.9254C124.231 50.9676 125.044 50.9886 125.357 50.3628C125.492 50.0921 125.486 49.7641 125.576 49.4723C125.775 48.8225 126.437 48.4314 127.068 48.4314C127.7 48.4314 128.296 48.7473 128.813 49.1384C130.492 50.411 130.974 47.0625 131.771 46.0907C132.676 44.9866 134.361 44.3698 135.504 45.1701C136.648 45.9704 137.306 47.3964 137.604 48.8375C137.701 49.3069 137.737 49.8785 138.116 50.1372C139.226 50.8954 140.655 49.4242 141.997 50.5674C142.466 50.9676 142.556 51.9333 142.496 52.5621H121.662Z" fill="white" stroke="white" stroke-miterlimit="10" stroke-linejoin="round"/>
<path d="M38.8699 121.289C38.0305 120.008 37.2363 118.69 36.4871 117.354C35.5725 115.72 34.7211 114.045 33.969 112.33C33.1928 110.564 32.5128 108.75 32.0285 106.881C31.5952 105.206 31.3034 103.461 31.4027 101.725C31.4869 100.238 31.8991 98.7341 32.8378 97.5548C33.8426 96.2912 35.374 95.4248 37.0016 95.3495C38.7676 95.2713 40.4313 96.0896 41.725 97.2419C43.4489 98.7793 44.532 100.837 45.3262 102.976C46.2649 105.506 46.9207 108.136 47.4472 110.78C48.0038 113.569 48.413 116.382 48.8101 119.195C48.9094 119.893 49.0056 120.591 49.1049 121.289C49.129 121.452 49.3727 121.382 49.3486 121.223C48.9425 118.329 48.5483 115.432 48.0369 112.555C47.5495 109.809 46.9538 107.074 46.0934 104.42C45.3443 102.113 44.4267 99.8353 42.8081 97.988C41.6016 96.6101 39.9921 95.4669 38.1508 95.1781C36.4661 94.9133 34.7963 95.4398 33.4996 96.5349C32.3414 97.5127 31.6283 98.8846 31.3335 100.359C31.0056 102.01 31.1379 103.728 31.4448 105.374C31.7998 107.269 32.4045 109.117 33.1176 110.904C33.8396 112.715 34.682 114.475 35.5996 116.193C36.3939 117.679 37.2423 119.135 38.1539 120.552C38.3344 120.832 38.5149 121.109 38.7014 121.385C38.7736 121.482 38.9361 121.388 38.8699 121.289Z" fill="#D3DBF4"/>
<path d="M23.665 121.34C20.4098 117.131 13.2976 106.496 19.2034 102.838C22.4466 100.828 26.4419 102.657 28.5208 107.089C30.4944 111.298 31.2496 116.271 32.0709 121.28" fill="#D3DBF4"/>
<path d="M23.7468 121.292C22.1764 119.228 20.7172 117.065 19.4928 114.779C18.8068 113.503 18.1901 112.182 17.7298 110.807C17.3236 109.592 17.0258 108.313 17.0528 107.026C17.0769 105.913 17.3838 104.796 18.1088 103.927C18.9452 102.925 20.2329 102.278 21.5295 102.161C22.9556 102.035 24.3425 102.546 25.4767 103.388C26.8637 104.417 27.8445 105.888 28.5485 107.444C30.2934 111.304 31.0034 115.552 31.6894 119.704C31.7766 120.239 31.8639 120.775 31.9541 121.31C31.9812 121.47 32.2249 121.404 32.1978 121.244C31.4908 116.939 30.862 112.54 29.2525 108.458C28.5755 106.74 27.7211 105.082 26.3612 103.804C25.2932 102.799 23.9424 102.059 22.4652 101.923C21.0813 101.797 19.6883 102.251 18.6082 103.115C17.7027 103.84 17.128 104.866 16.9235 106.003C16.7038 107.227 16.8633 108.494 17.1642 109.688C17.5162 111.096 18.0757 112.45 18.7135 113.753C19.932 116.244 21.4664 118.603 23.1451 120.808C23.2955 121.006 23.449 121.205 23.6054 121.404C23.6656 121.488 23.81 121.376 23.7468 121.292Z" fill="#D3DBF4"/>
<path d="M20.8755 102.206L28.5473 121.352" stroke="#EF4444" stroke-miterlimit="10" stroke-linejoin="round"/>
<path d="M61.7169 121.28C52.8026 105.106 47.0412 89.0738 54.2377 81.4562C61.3649 73.9077 68.8231 82.8521 70.6372 90.7766C72.8605 100.482 73.1824 110.991 73.1373 121.28" fill="#D3DBF4"/>
<path d="M61.7169 121.28C52.8026 105.106 47.0412 89.0738 54.2377 81.4562C61.3649 73.9077 68.8231 82.8521 70.6372 90.7766C72.8605 100.482 73.1824 110.991 73.1373 121.28" stroke="#D3DBF4" stroke-miterlimit="10" stroke-linejoin="round"/>
<path d="M56.8765 79.4915L67.5869 121.256" stroke="#D3DBF4" stroke-miterlimit="10" stroke-linejoin="round"/>
<path d="M48.3376 121.331C44.7966 112.775 36.83 95.4699 42.4469 90.1178C46.0391 86.697 52.5285 90.891 55.865 98.3672C59.036 105.467 59.9867 112.775 61.8881 121.229" fill="#D3DBF4"/>
<path d="M48.4284 121.307C47.6371 119.37 46.8128 117.444 46.0216 115.507C45.0949 113.238 44.2014 110.955 43.3951 108.641C42.5918 106.337 41.8638 103.996 41.3343 101.613C40.877 99.5584 40.543 97.4404 40.6303 95.3284C40.6995 93.7098 41.0364 91.9889 42.0774 90.6952C42.6069 90.0394 43.2958 89.5129 44.0991 89.2451C44.9234 88.9713 45.811 88.9773 46.6503 89.1669C48.8195 89.6573 50.6788 91.1766 52.1379 92.7861C54.1145 94.9673 55.4654 97.5697 56.5334 100.292C57.6676 103.181 58.498 106.177 59.1989 109.198C59.936 112.375 60.5468 115.576 61.2207 118.765C61.3982 119.598 61.5787 120.429 61.7652 121.262C61.8013 121.421 62.045 121.355 62.0089 121.196C61.2628 117.877 60.631 114.538 59.912 111.216C59.2441 108.121 58.4889 105.04 57.451 102.046C56.4582 99.1823 55.2487 96.3633 53.4075 93.9324C51.9815 92.0491 50.1733 90.283 47.9711 89.3474C46.3164 88.6464 44.3819 88.517 42.8656 89.6152C41.5268 90.5839 40.8318 92.1513 40.5581 93.7429C40.2181 95.7135 40.3986 97.7563 40.7265 99.7148C41.1237 102.101 41.7735 104.441 42.5136 106.743C43.2868 109.138 44.1743 111.496 45.11 113.831C45.9463 115.922 46.8248 117.998 47.7063 120.071C47.8869 120.498 48.0704 120.925 48.2509 121.355C48.296 121.464 48.4735 121.418 48.4284 121.307Z" fill="#D3DBF4"/>
<path d="M117.441 121.283C114.435 86.8505 121.749 74.2718 129.752 73.7092C133.542 73.4414 144.644 75.6256 131.241 121.262" fill="white"/>
<path d="M117.498 121.283C117.258 117.64 116.99 114.005 116.897 110.353C116.818 107.248 116.831 104.14 116.981 101.039C117.107 98.4243 117.33 95.8128 117.7 93.2225C118.004 91.0894 118.41 88.9684 118.967 86.8835C119.421 85.1807 119.977 83.4989 120.693 81.8893C121.271 80.5897 121.957 79.3291 122.796 78.1768C123.479 77.2351 124.274 76.3657 125.188 75.6466C125.967 75.0359 126.84 74.5395 127.776 74.2206C128.498 73.9739 129.256 73.8325 130.017 73.8054C130.399 73.7934 130.823 73.8144 131.166 73.8656C131.624 73.9348 132.072 74.0551 132.499 74.2266C132.962 74.4161 133.453 74.7019 133.856 75.0239C134.358 75.424 134.795 75.9024 135.165 76.4288C135.634 77.0937 136.001 77.8308 136.293 78.589C136.675 79.5818 136.934 80.6167 137.12 81.6607C137.364 83.0236 137.481 84.4045 137.529 85.7854C137.589 87.5604 137.532 89.3415 137.403 91.1135C137.24 93.3579 136.967 95.5932 136.624 97.8135C136.199 100.557 135.67 103.286 135.074 105.997C134.352 109.294 133.528 112.57 132.643 115.829C132.153 117.631 131.675 119.442 131.148 121.235C131.115 121.346 131.29 121.394 131.323 121.283C131.87 119.418 132.43 117.562 132.938 115.684C133.405 113.96 133.853 112.23 134.277 110.495C135.011 107.498 135.679 104.486 136.242 101.454C136.696 99.0049 137.084 96.5409 137.364 94.0649C137.586 92.0792 137.743 90.0816 137.779 88.0839C137.809 86.5135 137.764 84.937 137.595 83.3725C137.466 82.1661 137.265 80.9657 136.934 79.7984C136.681 78.9049 136.353 78.0264 135.914 77.2081C135.568 76.5672 135.15 75.9595 134.644 75.436C134.235 75.0088 133.763 74.6327 133.248 74.3409C132.809 74.0912 132.337 73.9017 131.849 73.7723C131.428 73.664 130.992 73.6008 130.558 73.5798C130.053 73.5557 129.545 73.5918 129.042 73.67C128.094 73.8204 127.177 74.1454 126.338 74.6087C125.396 75.1292 124.55 75.8181 123.81 76.5943C122.917 77.536 122.165 78.607 121.524 79.7322C120.733 81.1192 120.104 82.5963 119.58 84.1036C118.934 85.9569 118.446 87.8643 118.064 89.7898C117.595 92.1364 117.279 94.5102 117.059 96.8899C116.797 99.748 116.677 102.621 116.653 105.491C116.626 108.906 116.734 112.324 116.939 115.732C117.05 117.583 117.18 119.433 117.378 121.274C117.39 121.358 117.504 121.361 117.498 121.283Z" fill="#D3DBF4"/>
<path d="M131.31 73.7873L124.24 121.262" stroke="#D3DBF4" stroke-miterlimit="10" stroke-linejoin="round"/>
<path d="M141.148 121.301C141.41 119.583 141.642 117.859 141.955 116.148C142.243 114.559 142.58 112.977 142.971 111.409C143.66 108.65 144.512 105.925 145.616 103.301C146.512 101.165 147.574 99.0802 148.907 97.1788C149.936 95.7106 151.149 94.3177 152.626 93.2827C153.784 92.4704 155.129 91.8837 156.558 91.8266C157.888 91.7754 159.32 92.1696 160.361 93.015C161.474 93.9175 162.024 95.2804 162.199 96.6733C162.44 98.5958 162.106 100.566 161.633 102.429C160.975 105.019 159.973 107.519 158.853 109.944C157.436 113.01 155.794 115.967 154.058 118.861C153.586 119.653 153.104 120.438 152.632 121.229C152.572 121.331 152.725 121.416 152.788 121.319C153.841 119.743 154.81 118.109 155.749 116.46C156.591 114.98 157.397 113.479 158.156 111.951C159.428 109.387 160.586 106.746 161.432 104.008C162.052 101.995 162.542 99.8774 162.506 97.7624C162.482 96.2642 162.16 94.7027 161.188 93.5174C160.307 92.4373 158.947 91.8266 157.584 91.6491C156.194 91.4656 154.801 91.7965 153.567 92.4433C152.054 93.2346 150.785 94.447 149.708 95.7557C148.309 97.4586 147.189 99.381 146.245 101.367C145.065 103.843 144.142 106.436 143.39 109.072C142.484 112.24 141.825 115.474 141.344 118.732C141.217 119.58 141.109 120.432 141.034 121.289C141.028 121.352 141.139 121.367 141.148 121.301Z" fill="#D3DBF4"/>
<path d="M44.3911 89.0556L55.2941 121.352" stroke="#EF4444" stroke-miterlimit="10" stroke-linejoin="round"/>
<path d="M142.003 121.325C146.823 111.105 156.546 87.771 149.223 79.4975C145.204 74.9546 137.845 80.5325 133.943 90.5509C130.236 100.064 127.463 109.86 125.164 121.19" fill="#D3DBF4"/>
<path d="M142.081 121.37C143.206 119.006 144.271 116.617 145.276 114.198C146.494 111.268 147.625 108.298 148.621 105.284C149.638 102.203 150.528 99.074 151.154 95.891C151.714 93.0479 152.09 90.1297 151.952 87.2264C151.84 84.8888 151.38 82.4609 150.095 80.4632C149.515 79.5607 148.771 78.7183 147.797 78.2339C146.867 77.7736 145.82 77.6833 144.809 77.8819C143.609 78.1166 142.496 78.7183 141.512 79.4313C140.284 80.3248 139.213 81.426 138.266 82.6083C137.116 84.0404 136.136 85.6048 135.293 87.2354C134.358 89.0466 133.636 90.951 132.926 92.8614C131.457 96.8146 130.146 100.825 128.981 104.877C127.751 109.156 126.683 113.479 125.738 117.829C125.497 118.936 125.266 120.05 125.04 121.16C125.007 121.319 125.254 121.388 125.284 121.226C126.174 116.842 127.176 112.48 128.334 108.157C129.421 104.104 130.642 100.091 132.02 96.1287C132.697 94.1791 133.404 92.2356 134.168 90.3192C134.893 88.502 135.769 86.742 136.81 85.0873C137.706 83.6673 138.729 82.3165 139.917 81.1281C140.889 80.1563 141.984 79.2748 143.227 78.6761C144.196 78.2098 145.285 77.918 146.365 78.0504C147.415 78.1767 148.344 78.7243 149.054 79.4945C150.601 81.1702 151.308 83.4627 151.584 85.683C151.927 88.4268 151.696 91.2308 151.266 93.9505C150.769 97.0794 149.978 100.16 149.048 103.19C148.116 106.228 147.039 109.219 145.865 112.173C144.848 114.736 143.753 117.27 142.613 119.779C142.384 120.281 142.153 120.784 141.918 121.283C141.87 121.385 142.029 121.479 142.081 121.37Z" fill="#D3DBF4"/>
<path d="M147.054 78.0715L134.163 121.352" stroke="#EF4444" stroke-miterlimit="10" stroke-linejoin="round"/>
<path d="M150.514 121.286C156.868 108.404 162.386 104.995 167.567 106.024C171.595 106.824 172.224 112.775 163.71 121.277" fill="#D3DBF4"/>
<path d="M150.562 121.316C151.152 120.26 151.684 119.174 152.271 118.115C152.788 117.18 153.33 116.259 153.898 115.353C154.858 113.828 155.902 112.345 157.078 110.979C157.993 109.917 158.995 108.912 160.12 108.073C161.014 107.405 161.991 106.833 163.047 106.46C163.956 106.138 164.913 105.964 165.878 105.97C166.742 105.973 167.692 106.063 168.475 106.454C169.188 106.809 169.735 107.414 170.021 108.157C170.376 109.084 170.349 110.113 170.162 111.072C169.886 112.477 169.275 113.804 168.556 115.034C167.53 116.794 166.242 118.386 164.873 119.887C164.467 120.333 164.049 120.772 163.64 121.217C163.562 121.304 163.682 121.425 163.769 121.346C164.657 120.528 165.472 119.629 166.245 118.699C166.898 117.914 167.518 117.098 168.084 116.247C168.959 114.929 169.732 113.506 170.184 111.981C170.493 110.934 170.653 109.803 170.43 108.723C170.262 107.898 169.841 107.137 169.17 106.617C168.457 106.063 167.581 105.873 166.703 105.783C165.737 105.687 164.759 105.756 163.82 105.991C162.767 106.253 161.769 106.716 160.854 107.297C159.723 108.013 158.709 108.906 157.785 109.872C156.603 111.108 155.562 112.48 154.605 113.897C153.375 115.717 152.283 117.631 151.272 119.58C150.986 120.134 150.703 120.688 150.457 121.262C150.432 121.322 150.526 121.382 150.562 121.316Z" fill="#D3DBF4"/>
<path d="M167.064 106.111L157.355 121.277" stroke="#EF4444" stroke-miterlimit="10" stroke-linejoin="round"/>
<path d="M71.4437 121.217C69.8943 121.217 68.6367 119.956 68.6367 118.41V18.9869C68.6367 17.4375 69.8973 16.1799 71.4437 16.1799H124.244C125.793 16.1799 127.05 17.4405 127.05 18.9869V118.41C127.05 119.959 125.79 121.217 124.244 121.217H71.4437Z" fill="#9CA3AF"/>
<path d="M124.246 16.3303C125.711 16.3303 126.903 17.5217 126.903 18.9869V118.41C126.903 119.875 125.711 121.067 124.246 121.067H71.4462C69.981 121.067 68.7896 119.875 68.7896 118.41V18.9869C68.7896 17.5217 69.981 16.3303 71.4462 16.3303H124.246ZM124.246 16.0295H71.4462C69.8125 16.0295 68.4888 17.3533 68.4888 18.9869V118.41C68.4888 120.044 69.8125 121.367 71.4462 121.367H124.246C125.88 121.367 127.203 120.044 127.203 118.41V18.9869C127.203 17.3533 125.88 16.0295 124.246 16.0295Z" fill="#4B5563"/>
<path d="M100.527 116.536C100.527 118.016 99.327 119.219 97.8438 119.219C96.3636 119.219 95.1602 118.019 95.1602 116.536C95.1602 115.055 96.3606 113.852 97.8438 113.852C99.327 113.855 100.527 115.055 100.527 116.536Z" stroke="#374151" stroke-miterlimit="10"/>
<path d="M126.735 25.8403H68.9561V111.557H126.735V25.8403Z" fill="white"/>
<path d="M94.5432 20.4008H102.681C102.862 20.4008 103.006 20.5452 103.006 20.7257C103.006 20.9062 102.862 21.0506 102.681 21.0506H94.5432C94.3627 21.0506 94.2183 20.9062 94.2183 20.7257C94.2153 20.5482 94.3627 20.4008 94.5432 20.4008Z" stroke="#4B5563" stroke-miterlimit="10"/>
<path d="M92.7198 21.0627C92.9059 21.0627 93.0567 20.9118 93.0567 20.7257C93.0567 20.5397 92.9059 20.3888 92.7198 20.3888C92.5337 20.3888 92.3828 20.5397 92.3828 20.7257C92.3828 20.9118 92.5337 21.0627 92.7198 21.0627Z" stroke="#4B5563" stroke-miterlimit="10"/>
<path d="M97.8436 59.0364H72.9028V84.2419H97.8436V59.0364Z" fill="#D3DBF4"/>
<path d="M90.4667 68.8389C90.9209 66.0241 89.0073 63.3741 86.1926 62.9199C83.3778 62.4657 80.7278 64.3793 80.2736 67.1941C79.8194 70.0088 81.733 72.6588 84.5477 73.113C87.3625 73.5672 90.0125 71.6536 90.4667 68.8389Z" stroke="white" stroke-miterlimit="10"/>
<path d="M85.373 73.1796C87.337 73.1796 88.9291 70.8682 88.9291 68.017C88.9291 65.1657 87.337 62.8543 85.373 62.8543C83.409 62.8543 81.8169 65.1657 81.8169 68.017C81.8169 70.8682 83.409 73.1796 85.373 73.1796Z" stroke="white" stroke-miterlimit="10"/>
<path d="M85.3723 73.1796C86.1383 73.1796 86.7592 70.8682 86.7592 68.017C86.7592 65.1657 86.1383 62.8543 85.3723 62.8543C84.6063 62.8543 83.9854 65.1657 83.9854 68.017C83.9854 70.8682 84.6063 73.1796 85.3723 73.1796Z" stroke="white" stroke-miterlimit="10"/>
<path d="M80.21 68.017H90.5383" stroke="white" stroke-miterlimit="10"/>
<path d="M80.751 70.3185C81.7378 69.9875 83.4406 69.7709 85.3751 69.7709C87.3096 69.7709 89.0094 69.9875 89.9962 70.3185" stroke="white" stroke-miterlimit="10"/>
<path d="M82.2505 72.1266C83.138 71.7896 84.2151 71.5911 85.3764 71.5911C86.5196 71.5911 87.5846 71.7836 88.4661 72.1115" stroke="white" stroke-miterlimit="10"/>
<path d="M80.751 65.7425C81.7378 66.0734 83.4406 66.29 85.3751 66.29C87.3096 66.29 89.0094 66.0734 89.9962 65.7425" stroke="white" stroke-miterlimit="10"/>
<path d="M82.2505 63.9344C83.138 64.2713 84.2151 64.4699 85.3764 64.4699C86.5196 64.4699 87.5846 64.2774 88.4661 63.9494" stroke="white" stroke-miterlimit="10"/>
<path d="M75.0244 79.7326H95.7231V78.3998H75.0244V79.7326Z" fill="#E3EAFC"/>
<path d="M83.3501 77.254H95.7212V75.9212H83.3501V77.254Z" fill="#E3EAFC"/>
<path d="M81.9466 75.9234H75.0239V77.2562H81.9466V75.9234Z" fill="#E3EAFC"/>
<path d="M75.0244 82.2143H95.7231V80.8815H75.0244V82.2143Z" fill="#E3EAFC"/>
<path d="M122.76 59.0364H97.8193V84.2419H122.76V59.0364Z" fill="#F0F1FF"/>
<path d="M99.9404 64.8608H120.639V63.528H99.9404V64.8608Z" fill="#E4E9F9"/>
<path d="M99.9404 67.3394H120.639V66.0066H99.9404V67.3394Z" fill="#E4E9F9"/>
<path d="M99.941 69.818H106.385V68.4852H99.941V69.818Z" fill="#E4E9F9"/>
<path d="M108.111 69.818H120.612V68.4852H108.111V69.818Z" fill="#E4E9F9"/>
<path d="M99.9404 72.2966H120.639V70.9638H99.9404V72.2966Z" fill="#E4E9F9"/>
<path d="M99.9404 74.7753H120.639V73.4425H99.9404V74.7753Z" fill="#E4E9F9"/>
<path d="M99.9404 77.254H120.639V75.9212H99.9404V77.254Z" fill="#E4E9F9"/>
<path d="M114.662 79.7326H120.64V78.3998H114.662V79.7326Z" fill="#E4E9F9"/>
<path d="M99.9401 79.7326H113.235V78.3998H99.9401V79.7326Z" fill="#E4E9F9"/>
<path d="M99.9404 82.2143H120.639V80.8815H99.9404V82.2143Z" fill="#E4E9F9"/>
<path d="M115.157 62.3822H120.638V61.0494H115.157V62.3822Z" fill="#E4E9F9"/>
<path d="M113.753 61.0492H99.9409V62.3819H113.753V61.0492Z" fill="#E4E9F9"/>
<path d="M97.8436 84.239H72.9028V109.445H97.8436V84.239Z" fill="#F0F1FF"/>
<path d="M95.7227 103.611H75.0239V104.944H95.7227V103.611Z" fill="#E4E9F9"/>
<path d="M95.7227 101.132H75.0239V102.465H95.7227V101.132Z" fill="#E4E9F9"/>
<path d="M95.722 98.653H90.3999V99.9857H95.722V98.653Z" fill="#E4E9F9"/>
<path d="M88.6759 98.653H75.0532V99.9857H88.6759V98.653Z" fill="#E4E9F9"/>
<path d="M95.7227 96.1768H75.0239V97.5096H95.7227V96.1768Z" fill="#E4E9F9"/>
<path d="M95.7227 93.6978H75.0239V95.0306H95.7227V93.6978Z" fill="#E4E9F9"/>
<path d="M95.7227 91.2188H75.0239V92.5516H95.7227V91.2188Z" fill="#E4E9F9"/>
<path d="M84.6422 88.7398H75.0239V90.0726H84.6422V88.7398Z" fill="#E4E9F9"/>
<path d="M95.7228 88.7398H86.0684V90.0726H95.7228V88.7398Z" fill="#E4E9F9"/>
<path d="M95.7227 86.2607H75.0239V87.5935H95.7227V86.2607Z" fill="#E4E9F9"/>
<path d="M84.6693 106.09H75.0239V107.423H84.6693V106.09Z" fill="#E4E9F9"/>
<path d="M86.0768 107.425H95.7222V106.092H86.0768V107.425Z" fill="#E4E9F9"/>
<path d="M122.76 84.239H97.8193V109.445H122.76V84.239Z" fill="#D3DBF4"/>
<path d="M115.362 101.586L105.359 101.469L104.236 94.2784L116.328 94.2574L115.362 101.586Z" fill="#C2CFEF"/>
<path d="M116.328 94.2574L104.236 94.2785L110.274 89.2963L116.328 94.2574Z" fill="#C2CFEF"/>
<path d="M114.318 93.5492L106.065 93.5638L106.078 100.535L114.33 100.52L114.318 93.5492Z" fill="white"/>
<path d="M104.236 94.2785L104.251 102.14L110.29 98.4754L104.236 94.2785Z" fill="#E3EAFC"/>
<path d="M116.328 94.2574L116.343 102.119L110.29 98.4754L116.328 94.2574Z" fill="#E3EAFC"/>
<path d="M116.343 102.119L104.251 102.14L110.287 97.1576L116.343 102.119Z" fill="#E3EAFC"/>
<path d="M104.251 102.14L110.287 97.1576L116.343 102.119" stroke="#D3DBF4" stroke-miterlimit="10"/>
<path d="M111.156 97.8706L116.327 94.2574" stroke="#D3DBF4" stroke-miterlimit="10"/>
<path d="M109.423 97.8737L104.236 94.2785" stroke="#D3DBF4" stroke-miterlimit="10"/>
<path d="M105.467 106.477H115.112V105.144H105.467V106.477Z" fill="#E3EAFC"/>
<path d="M122.787 31.6528H72.9028V56.8011H122.787V31.6528Z" fill="#D3DBF4"/>
<path d="M97.1415 37.0076H120.638V35.2686H97.1415V37.0076Z" fill="#E3EAFC"/>
<path d="M97.1415 40.2437H120.638V38.5047H97.1415V40.2437Z" fill="#E3EAFC"/>
<path d="M97.1415 43.4799H120.638V41.7409H97.1415V43.4799Z" fill="#E3EAFC"/>
<path d="M97.1415 46.7129H120.638V44.974H97.1415V46.7129Z" fill="#E3EAFC"/>
<path d="M97.1415 53.1853H120.638V51.4464H97.1415V53.1853Z" fill="#E3EAFC"/>
<path d="M106.596 49.9492H120.64V48.2103H106.596V49.9492Z" fill="#E3EAFC"/>
<path d="M105 48.2088H97.1421V49.9477H105V48.2088Z" fill="#E3EAFC"/>
<path d="M93.5352 35.3382H75.7607V53.1127H93.5352V35.3382Z" fill="#E3EAFC"/>
<path d="M86.297 40.8951L91.7064 50.1463H80.8877L86.297 40.8951Z" fill="white"/>
<path d="M80.8154 43.9367L81.9707 46.16L79.9038 50.1464H77.5933L80.8154 43.9367Z" fill="white"/>
<path d="M78.0469 40.3595C78.0469 40.9131 78.4952 41.3613 79.0487 41.3613C79.6023 41.3613 80.0506 40.9131 80.0506 40.3595C80.0506 39.8059 79.6023 39.3576 79.0487 39.3576C78.4952 39.3576 78.0469 39.8089 78.0469 40.3595Z" fill="white"/>
<path d="M83.7754 29.595H111.911C112.353 29.595 112.711 29.2369 112.711 28.7947C112.711 28.3524 112.353 27.9944 111.911 27.9944H83.7754C83.3331 27.9944 82.9751 28.3524 82.9751 28.7947C82.9751 29.2369 83.3331 29.595 83.7754 29.595Z" fill="#D3DBF4"/>
<path d="M97.8433 59.0364V109.444" stroke="white" stroke-miterlimit="10"/>
<path d="M72.9028 84.239H122.787" stroke="white" stroke-miterlimit="10"/>
<path d="M13.9741 121.367H181.715" stroke="#374151" stroke-miterlimit="10"/>
<path d="M172.474 112.995L172.997 121.581L172.718 124.283L162.48 124.228C162.221 124.228 162.013 124.018 162.013 123.759C162.013 123.567 162.134 123.392 162.314 123.323L166.881 121.223L165.849 112.288" fill="#FFCBBD"/>
<path d="M161.549 124.114C161.658 123.774 161.856 123.395 162.058 123.308L166.902 121.223C169.57 122.306 173.027 121.479 173.027 121.479L173.292 125.125C173.292 125.245 173.193 125.342 173.072 125.342L161.634 125.281C161.393 125.278 161.546 124.123 161.549 124.114Z" fill="#374151"/>
<path d="M165.852 121.43C166.122 121.785 166.351 122.171 166.535 122.577" stroke="#374151" stroke-width="0.75" stroke-miterlimit="10"/>
<path d="M165.24 121.795C165.52 122.183 165.634 122.408 165.803 122.769" stroke="#374151" stroke-width="0.75" stroke-miterlimit="10"/>
<path d="M164.726 122.062C164.916 122.318 165.105 122.673 165.253 122.956" stroke="#374151" stroke-width="0.75" stroke-miterlimit="10"/>
<path d="M173.226 124.553L161.499 124.49" stroke="#374151" stroke-width="0.75" stroke-miterlimit="10"/>
<path d="M173.12 122.808C173.12 122.808 170.403 122.826 170.159 124.535" stroke="#374151" stroke-width="0.75" stroke-miterlimit="10"/>
<path d="M163.047 122.881C163.047 122.881 163.83 123.994 163.983 124.505" stroke="#374151" stroke-width="0.75" stroke-miterlimit="10"/>
<path d="M164.428 79.997C164.428 79.997 162.957 92.0823 163.519 100.858C164.082 109.634 164.894 119.818 164.894 119.818H173.793C173.793 119.818 172.641 104.748 172.768 97.6962C172.909 89.8801 175.298 80 175.298 80" fill="#374151"/>
<path d="M171.989 119.815C171.989 119.815 170.837 104.745 170.963 97.6932C171.105 89.877 173.493 79.997 173.493 79.997" stroke="#374151" stroke-width="0.75" stroke-miterlimit="10"/>
<path d="M184.164 101.493L192.417 104.146L194.908 105.229L191.761 114.971C191.683 115.218 191.418 115.353 191.171 115.272C190.988 115.212 190.858 115.046 190.846 114.851L190.227 109.863L181.658 107.077" fill="#FFCBBD"/>
<path d="M191.37 115.826C191.078 115.621 190.777 115.314 190.756 115.097L190.233 109.851C192.071 107.633 192.327 104.089 192.327 104.089L195.883 104.941C195.997 104.977 196.06 105.1 196.024 105.214L192.507 116.099C192.432 116.325 191.379 115.832 191.37 115.826Z" fill="#374151"/>
<path d="M190.111 110.913C190.53 110.762 190.969 110.66 191.411 110.609" stroke="#374151" stroke-width="0.75" stroke-miterlimit="10"/>
<path d="M190.274 111.605C190.731 111.454 190.978 111.415 191.372 111.364" stroke="#374151" stroke-width="0.75" stroke-miterlimit="10"/>
<path d="M190.374 112.176C190.675 112.071 191.072 112.002 191.385 111.945" stroke="#374151" stroke-width="0.75" stroke-miterlimit="10"/>
<path d="M195.32 104.829L191.713 115.985" stroke="#374151" stroke-width="0.75" stroke-miterlimit="10"/>
<path d="M193.626 104.402C193.626 104.402 192.823 106.996 194.378 107.745" stroke="#374151" stroke-width="0.75" stroke-miterlimit="10"/>
<path d="M190.647 114.02C190.647 114.02 191.944 113.611 192.48 113.62" stroke="#374151" stroke-width="0.75" stroke-miterlimit="10"/>
<path d="M178.918 80.385C178.918 80.385 179.718 83.8208 179.718 85.295C179.718 86.378 179.288 87.1151 179.059 87.9064C178.96 88.2463 178.906 88.5923 178.891 88.9443C178.821 90.5238 178.731 94.9584 179.721 97.0674C180.936 99.6577 191.057 103.096 191.057 103.096L188.491 110.825C188.491 110.825 172.997 106.932 171.065 102.191C168.37 95.5751 169.14 80.388 169.14 80.388" fill="#374151"/>
<path d="M172.93 104.402C172.036 103.695 171.371 102.952 171.061 102.188C168.366 95.5721 169.136 80.385 169.136 80.385" stroke="#374151" stroke-width="0.75" stroke-miterlimit="10"/>
<path d="M177.602 80.0992C177.602 80.0992 178.511 84.4225 178.511 85.8967C178.511 87.0008 178.062 87.777 177.837 88.5532C177.747 88.8661 177.692 89.188 177.671 89.5159C177.575 91.0774 177.404 95.5992 178.511 97.6721C180.042 100.542 190.644 104.321 190.644 104.321" stroke="#374151" stroke-width="0.75" stroke-miterlimit="10"/>
<path d="M167.873 81.2305C167.873 81.2305 167.738 84.3503 168.174 84.7234C168.61 85.0965 169.035 85.3462 169.035 85.3462" stroke="#374151" stroke-width="0.75" stroke-miterlimit="10"/>
<path d="M189.778 102.639L186.953 110.407" stroke="#374151" stroke-width="0.75" stroke-miterlimit="10"/>
<path d="M164.774 118.284H173.683" stroke="#374151" stroke-width="0.75" stroke-miterlimit="10"/>
<path d="M175.163 80.6227C175.163 80.6227 175.717 82.6144 178.19 83.201" stroke="#374151" stroke-width="0.75" stroke-miterlimit="10"/>
<path d="M164.143 82.8551C164.143 82.8551 166.375 82.2023 167.061 80.6258" stroke="#374151" stroke-width="0.75" stroke-miterlimit="10"/>
<path d="M169.528 56.5243L169.128 59.3252C169.128 59.3252 169.092 60.1014 170.602 60.64C172.428 61.2958 173.539 59.8878 173.539 59.8878L173.418 57.0538" fill="#FFCBBB"/>
<path d="M169.305 52.8119C169.305 52.8119 167.364 56.0551 168.712 57.3517C169.934 58.5281 172.62 57.791 172.867 57.3788C173.111 56.9667 174.642 53.3444 173.806 52.845C172.313 51.9574 170.135 51.4159 169.305 52.8119Z" fill="#FFCBBB"/>
<path d="M169.324 57.9564C169.324 57.9564 170.638 58.3776 171.854 57.8481" stroke="#EF977F" stroke-miterlimit="10"/>
<path d="M168.98 50.7028C169.236 48.7864 171.559 50.2215 172.503 51.0939C172.786 51.3557 174.444 51.8431 174.715 52.1198C174.985 52.3966 175.202 52.7366 175.274 53.1187C175.337 53.4526 175.283 53.7956 175.202 54.1235C175.058 54.7162 174.823 55.2818 174.591 55.8444C174.338 56.4582 173.884 57.6796 173.009 57.5533C172.84 57.5292 172.654 57.4961 172.542 57.3667C172.431 57.2374 172.428 57.0508 172.446 56.8824C172.476 56.6086 172.56 56.3408 172.687 56.0971C172.506 56.1453 172.32 56.2566 172.145 56.1874C172.088 56.1633 172.061 56.1092 172.028 56.055C171.914 55.8685 172.052 54.629 172.63 54.1416C171.796 53.7475 171.143 53.7114 170.295 53.3533C169.612 53.0645 169.317 52.7155 169.074 52.3876C168.719 51.9183 168.902 51.2835 168.98 50.7028Z" fill="#374151"/>
<path d="M172.479 55.9858C172.692 55.6879 173.017 55.345 173.33 55.6579C173.441 55.7692 173.471 55.9527 173.483 56.1302C173.523 56.7139 172.93 57.46 172.415 57.2554C172.163 57.1561 172.093 56.8131 172.048 56.5303" fill="#FFCBBB"/>
<path d="M169.732 54.244C169.732 54.244 168.893 55.0683 168.893 55.3481C168.893 55.6279 169.521 55.8024 169.521 55.8024" stroke="#F7A794" stroke-width="0.5" stroke-miterlimit="10"/>
<path d="M168.577 55.9015L170.081 56.4641C170.081 56.4641 169.732 57.3546 168.83 56.9455C168.186 56.6536 168.577 55.9015 168.577 55.9015Z" fill="white"/>
<path d="M169.095 53.7836C169.083 53.7986 169.071 53.8166 169.062 53.8317C169.05 53.8497 169.041 53.8678 169.029 53.8828C169.008 53.9159 168.986 53.949 168.968 53.9851C168.953 54.0152 168.947 54.0453 168.956 54.0754C168.965 54.1025 168.986 54.1325 169.011 54.1476C169.038 54.1626 169.071 54.1686 169.101 54.1596C169.131 54.1506 169.155 54.1325 169.173 54.1055C169.194 54.0694 169.209 54.0333 169.227 53.9941C169.248 53.949 169.266 53.9069 169.284 53.8588C169.293 53.8347 169.287 53.7986 169.275 53.7805C169.263 53.7625 169.248 53.7475 169.227 53.7384C169.206 53.7294 169.182 53.7264 169.161 53.7324C169.152 53.7354 169.146 53.7384 169.137 53.7414C169.116 53.7535 169.104 53.7655 169.095 53.7836Z" fill="#212237"/>
<path d="M169.741 53.4978C169.741 53.4978 169.555 53.0796 169.106 53.2751" stroke="#212237" stroke-width="0.5" stroke-miterlimit="10" stroke-linecap="round" stroke-linejoin="round"/>
<path d="M170.972 54.6861C170.96 54.7042 170.951 54.7192 170.942 54.7373C170.933 54.7553 170.921 54.7734 170.912 54.7914C170.903 54.8095 170.894 54.8275 170.885 54.8456C170.87 54.8727 170.861 54.8997 170.849 54.9268C170.843 54.9418 170.843 54.9569 170.846 54.9749C170.846 54.99 170.852 55.005 170.861 55.0201C170.876 55.0411 170.894 55.0592 170.918 55.0682C170.942 55.0772 170.969 55.0832 170.996 55.0742C171.023 55.0652 171.053 55.0471 171.068 55.0201C171.089 54.9749 171.107 54.9298 171.126 54.8847C171.141 54.8456 171.153 54.8095 171.165 54.7704C171.174 54.7463 171.168 54.7132 171.156 54.6921C171.144 54.6741 171.129 54.659 171.107 54.65C171.053 54.6229 170.999 54.641 170.972 54.6861Z" fill="#212237"/>
<path d="M171.035 53.9942C171.035 53.9942 171.492 53.943 171.823 54.5447" stroke="#212237" stroke-width="0.5" stroke-miterlimit="10" stroke-linecap="round" stroke-linejoin="round"/>
<path d="M163.021 44.2645C162.897 42.6369 163.117 38.0309 162.831 37.9105C162.545 37.7902 162.428 39.3486 162.211 39.2072C161.995 39.0628 162.013 36.6499 161.697 36.6048C161.267 36.5446 161.381 39.0146 161.381 39.0146C161.381 39.0146 161.122 36.313 160.731 36.3671C160.457 36.4062 160.56 38.4761 160.499 39.2734C160.454 38.4009 160.199 36.7793 159.913 36.8274C159.63 36.8726 159.684 38.5032 159.66 39.5863C159.612 38.9093 159.477 37.4291 159.212 37.4592C158.947 37.4893 158.866 41.3372 158.863 44.5804" fill="#FFCBBD"/>
<path d="M162.611 60.5587C162.611 60.5587 160.863 56.9003 159.771 52.6372C158.679 48.3711 158.871 42.8264 158.871 42.8264L162.975 43.5184C162.975 43.5184 163.162 51.2593 167.834 58.9431" fill="#FFCBBD"/>
<path d="M159.717 39.7727C160.054 40.2872 160.502 40.8919 160.481 41.8968" stroke="#F7A794" stroke-miterlimit="10"/>
<path d="M162.178 39.5773C161.783 39.9293 161.356 40.8769 161.561 41.3643" stroke="#F7A794" stroke-miterlimit="10"/>
<path d="M176.228 43.4793C176.827 42.7753 177.359 41.9931 177.795 41.1326C178.235 40.2722 178.557 39.3847 178.773 38.4851L176.342 37.6608C176.523 36.8214 176.586 35.973 176.541 35.1366L179.074 34.7064C178.924 32.82 178.328 30.9878 177.344 29.3723L175.04 30.5095C174.585 29.8055 174.038 29.1556 173.397 28.584L174.883 26.4901C174.179 25.8914 173.397 25.3589 172.536 24.9226C171.676 24.4834 170.789 24.1615 169.889 23.9449L169.065 26.3757C168.225 26.1952 167.377 26.1321 166.54 26.1772L166.11 23.644C164.224 23.7944 162.392 24.3901 160.776 25.3739L161.913 27.6784C161.209 28.1327 160.559 28.6803 159.988 29.3211L157.894 27.8349C157.295 28.5389 156.763 29.3211 156.326 30.1815C155.887 31.042 155.565 31.9295 155.349 32.8291L157.78 33.6534C157.599 34.4928 157.536 35.3412 157.581 36.1776L155.048 36.6078C155.198 38.4941 155.794 40.3263 156.778 41.9419L159.082 40.8047C159.537 41.5087 160.084 42.1585 160.725 42.7302L159.239 44.8241C159.943 45.4228 160.725 45.9553 161.585 46.3915C162.446 46.8308 163.333 47.1527 164.233 47.3693L165.057 44.9384C165.897 45.1189 166.745 45.1821 167.581 45.137L168.012 47.6702C169.898 47.5197 171.73 46.9241 173.346 45.9403L172.209 43.6357C172.913 43.1814 173.562 42.6339 174.134 41.9931L176.228 43.4793ZM164.961 39.7758C162.687 38.6145 161.784 35.8316 162.942 33.5571C164.104 31.2827 166.886 30.3801 169.161 31.5384C171.435 32.6997 172.338 35.4826 171.18 37.757C170.021 40.0315 167.235 40.9371 164.961 39.7758Z" fill="#EF4444"/>
<path d="M169.185 58.9281C167.963 58.9281 166.059 55.023 166.059 55.023L161.155 58.6694C161.155 58.6694 162.722 63.5462 165.379 66.636" fill="#EF4444"/>
<path d="M166.467 55.8022L161.47 59.5539" stroke="#EF4444" stroke-width="0.75" stroke-miterlimit="10"/>
<path d="M181.869 42.2728C181.607 40.4827 180.924 36.2648 180.623 36.1956C180.323 36.1264 180.196 37.1312 180.32 37.5404C180.127 36.7732 179.598 35.0975 179.279 35.1095C178.845 35.1245 179.39 37.5374 179.39 37.5374C179.39 37.5374 178.662 34.923 178.289 35.0463C178.024 35.1336 178.49 37.1523 178.569 37.9496C178.373 37.1011 177.838 35.5487 177.564 35.645C177.293 35.7413 177.633 37.3358 177.798 38.4069C177.633 37.748 177.242 36.3159 176.986 36.3911C176.73 36.4663 177.395 39.7757 177.792 43.0761" fill="#FFCBBD"/>
<path d="M181.021 59.1057C181.021 59.1057 182.107 55.2006 182.444 50.8111C182.781 46.4217 181.631 40.9943 181.631 40.9943L177.708 42.3872C177.708 42.3872 178.866 50.041 175.596 58.4227" fill="#FFCBBD"/>
<path d="M169.185 58.9281C169.185 58.9281 169.423 59.6141 170.777 59.6833C172.518 59.7735 173.487 58.9281 173.487 58.9281C173.487 58.9281 178.68 59.6171 179.101 65.2912C179.586 71.8257 179.718 81.0048 179.718 81.0048H163.523C163.523 81.0048 163.631 70.523 163.971 65.5198C164.296 60.7272 169.185 58.9281 169.185 58.9281Z" fill="#EF4444"/>
<path d="M179.089 66.0073C181.041 60.9288 181.736 57.0538 181.736 57.0538L176.537 54.5357C176.537 54.5357 175.301 57.9865 173.49 58.9252" fill="#EF4444"/>
<path d="M176.117 55.5346L181.511 58.1159" stroke="#EF4444" stroke-width="0.75" stroke-miterlimit="10"/>
<path d="M163.52 80.1082H179.699" stroke="#EF4444" stroke-width="0.75" stroke-miterlimit="10"/>
<path d="M179.23 65.6342C179.23 65.6342 178.571 67.0452 178.501 67.7552" stroke="#EF4444" stroke-width="0.75" stroke-miterlimit="10"/>
<path d="M165.172 61.9036C165.172 61.9036 164.188 63.5704 163.972 65.5199" stroke="#EF4444" stroke-width="0.75" stroke-miterlimit="10"/>
<path d="M168.568 58.6694C168.568 58.6694 168.845 60.5588 170.951 60.5588C173.538 60.5588 174.05 58.6694 174.05 58.6694" stroke="#EF4444" stroke-width="0.75" stroke-miterlimit="10"/>
<path d="M180.32 37.5405C180.317 37.5225 180.344 37.5706 180.353 37.5887L180.392 37.6609L180.458 37.8083C180.503 37.9076 180.536 38.0068 180.57 38.1091C180.633 38.3137 180.681 38.5183 180.702 38.7379C180.636 38.6477 180.588 38.5514 180.54 38.4551C180.491 38.3588 180.458 38.2565 180.425 38.1543C180.395 38.052 180.365 37.9497 180.347 37.8414L180.32 37.6819L180.314 37.6007L180.311 37.5586C180.308 37.5526 180.314 37.5074 180.32 37.5405Z" fill="#EF977F"/>
<path d="M142.009 112.528L142.292 121.44L142.003 124.244L131.38 124.186C131.112 124.186 130.896 123.967 130.896 123.699C130.896 123.497 131.022 123.317 131.208 123.248L135.947 121.069L135.231 111.797" fill="#FFCBBD"/>
<path d="M130.413 124.069C130.525 123.717 130.732 123.323 130.94 123.233L135.964 121.07C138.735 122.192 142.318 121.334 142.318 121.334L142.592 125.119C142.592 125.245 142.49 125.345 142.363 125.345L130.495 125.281C130.251 125.275 130.41 124.078 130.413 124.069Z" fill="#374151"/>
<path d="M134.878 121.283C135.161 121.65 135.399 122.05 135.585 122.472" stroke="#374151" stroke-width="0.75" stroke-miterlimit="10"/>
<path d="M134.243 121.662C134.535 122.065 134.652 122.3 134.827 122.673" stroke="#374151" stroke-width="0.75" stroke-miterlimit="10"/>
<path d="M133.711 121.939C133.91 122.204 134.103 122.574 134.259 122.869" stroke="#374151" stroke-width="0.75" stroke-miterlimit="10"/>
<path d="M142.53 124.523L130.363 124.46" stroke="#374151" stroke-width="0.75" stroke-miterlimit="10"/>
<path d="M142.421 122.712C142.421 122.712 139.602 122.733 139.35 124.505" stroke="#374151" stroke-width="0.75" stroke-miterlimit="10"/>
<path d="M131.969 122.787C131.969 122.787 132.782 123.94 132.941 124.472" stroke="#374151" stroke-width="0.75" stroke-miterlimit="10"/>
<path d="M140.778 77.5149C140.778 77.5149 142.072 79.6931 142.445 81.3147C143.038 83.896 142.445 86.5375 142.445 86.5375L142.418 117.688H134.529C134.529 117.688 132.779 81.7901 133.558 77.1479" fill="#374151"/>
<path d="M135.733 117.688C135.733 117.688 133.982 81.7901 134.761 77.1479" stroke="#374151" stroke-width="0.75" stroke-miterlimit="10"/>
<path d="M133.299 109.02L136.882 117.182L137.658 119.89L127.778 123.798C127.529 123.898 127.246 123.774 127.146 123.524C127.071 123.338 127.122 123.124 127.27 122.989L130.856 119.201L126.737 110.865" fill="#FFCBBD"/>
<path d="M126.84 124.048C126.813 123.681 126.858 123.236 127.017 123.076L130.874 119.195C133.862 119.204 136.87 117.071 136.87 117.071L138.534 120.48C138.579 120.597 138.522 120.726 138.408 120.775L127.369 125.14C127.141 125.23 126.84 124.06 126.84 124.048Z" fill="#374151"/>
<path d="M129.944 119.803C130.341 120.038 130.711 120.32 131.045 120.642" stroke="#374151" stroke-width="0.75" stroke-miterlimit="10"/>
<path d="M129.499 120.39C129.92 120.654 130.115 120.829 130.416 121.112" stroke="#374151" stroke-width="0.75" stroke-miterlimit="10"/>
<path d="M129.105 120.844C129.388 121.018 129.707 121.286 129.956 121.503" stroke="#374151" stroke-width="0.75" stroke-miterlimit="10"/>
<path d="M138.254 119.956L126.939 124.433" stroke="#374151" stroke-width="0.75" stroke-miterlimit="10"/>
<path d="M137.478 118.317C137.478 118.317 134.87 119.385 135.297 121.127" stroke="#374151" stroke-width="0.75" stroke-miterlimit="10"/>
<path d="M127.806 122.282C127.806 122.282 128.989 123.049 129.337 123.482" stroke="#374151" stroke-width="0.75" stroke-miterlimit="10"/>
<path d="M127.18 82.5903C123.127 92.5516 123.055 93.6046 122.387 98.4664C121.701 103.455 129.195 118.139 129.195 118.139L136.386 114.965C136.386 114.965 131.617 101.529 131.924 99.2185C132.493 94.9674 137.397 87.7169 137.397 87.7169C137.397 87.7169 139.725 85.8726 140.234 83.4237C140.739 80.9747 139.626 78.4084 139.626 78.4084" fill="#374151"/>
<path d="M134.572 83.7637C134.677 83.7276 137.8 82.7468 137.8 82.7468" stroke="#374151" stroke-width="0.75" stroke-miterlimit="10"/>
<path d="M141.458 81.8351L142.484 81.5072" stroke="#374151" stroke-width="0.75" stroke-miterlimit="10"/>
<path d="M129.586 82.2895C129.586 82.2895 124.577 93.1774 123.891 98.1655C123.205 103.154 130.495 117.429 130.495 117.429" stroke="#374151" stroke-width="0.75" stroke-miterlimit="10"/>
<path d="M133.593 94.4289C135.149 91.0052 137.399 87.7138 137.399 87.7138C137.399 87.7138 139.728 85.8696 140.236 83.4207" stroke="#374151" stroke-width="0.75" stroke-miterlimit="10"/>
<path d="M126.496 57.9414L128.557 61.5306C128.557 61.5306 127.32 64.2052 123.981 62.9355L123.124 61.0402L126.496 57.9414Z" fill="#FFCBBD"/>
<path d="M121.019 55.5135C121.019 55.5135 120.005 60.2851 121.771 61.1365C122.688 61.5788 125.258 61.305 125.865 60.3272C126.317 59.5991 126.139 56.1604 125.589 55.7422C123.483 54.1477 121.019 55.5135 121.019 55.5135Z" fill="#FFCBBD"/>
<path d="M125.491 54.1024C124.718 52.7546 123.148 53.0224 120.591 54.4785C120.248 54.6741 119.501 54.7433 119.495 55.1374C119.483 55.6549 119.856 56.5063 120.455 56.6778C120.855 56.7921 121.066 56.756 121.472 56.6597C122.005 56.5364 122.715 56.75 122.706 57.3757C122.703 57.5382 122.654 57.8391 122.808 57.8992C122.886 57.9293 123.085 57.9052 123.169 57.9082C123.41 57.9173 123.539 58.2091 123.509 58.4468C123.479 58.6845 123.629 58.8589 123.599 59.0966C123.527 59.6592 124.246 60.276 124.811 60.3211C125.311 60.3602 126.773 60.1165 127.465 59.1748C128.067 58.3595 127.989 56.9816 126.987 54.9298C126.602 54.1416 125.759 53.9039 125.491 54.1024Z" fill="#374151"/>
<path d="M122.66 58.1099C122.823 57.3457 123.217 57.2615 123.56 57.4691C124.014 57.7459 123.915 58.835 123.746 59.0967C123.406 59.6262 122.997 59.7887 122.768 59.4126" fill="#FFCBBD"/>
<path d="M123.289 61.3381C123.816 60.9018 123.737 60.0655 123.737 60.0655" stroke="#E88872" stroke-width="0.5" stroke-miterlimit="10" stroke-linejoin="round"/>
<path d="M121.175 57.7939C121.102 57.9594 121.078 58.2031 121.214 58.3084C121.253 58.3385 121.298 58.3385 121.34 58.3114C121.605 58.1489 121.328 57.4509 121.175 57.7939Z" fill="#28364C"/>
<path d="M120.958 57.2674C121.162 57.2433 121.52 57.2614 121.734 57.4299" stroke="#28364C" stroke-width="0.75" stroke-miterlimit="10"/>
<path d="M121.837 59.5509L121.067 59.5239C121.067 59.5239 121.036 60.4716 121.397 60.4896C121.798 60.5137 121.837 59.5509 121.837 59.5509Z" fill="white"/>
<path d="M128.082 60.7002C128.082 60.7002 129.878 60.2399 132.42 60.98C134.565 61.6057 137.294 63.2123 139.349 65.3965C142.905 69.1782 141.265 78.5799 141.265 78.5799L136.641 78.4054C136.641 78.4054 137.366 72.3643 134.945 69.9424C132.523 67.5205 129.105 66.9519 129.105 66.9519" fill="#EF4444"/>
<path d="M108.46 73.9077C107.01 74.3108 102.621 74.7862 102.551 75.087C102.482 75.3879 104.029 75.2405 103.923 75.4751C103.818 75.7098 101.456 76.0979 101.465 76.4168C101.477 76.847 103.878 76.3205 103.878 76.3205C103.878 76.3205 102.882 76.498 103 76.8711C103.084 77.1328 103.49 77.2141 104.278 77.1389C103.845 77.2351 103.677 77.4457 103.77 77.7165C103.863 77.9843 104.281 77.9662 104.727 77.909C104.42 77.9782 104.185 78.1798 104.384 78.3573C104.642 78.589 106.432 78.4897 109.606 77.9512" fill="#FFCBBD"/>
<path d="M123.515 61.9036C123.515 61.9036 124.752 62.4361 126.12 61.9036C127.489 61.3711 128.082 60.7032 128.082 60.7032C128.082 60.7032 131.19 60.4896 134.975 64.2743C138.795 68.0952 141.768 78.9349 141.768 78.9349L126.105 84.1999C126.105 84.1999 123.428 74.7109 122.372 70.3907C121.316 66.0644 123.515 61.9036 123.515 61.9036Z" fill="#EF4444"/>
<path d="M134.771 63.2785C137.902 66.9339 141.768 78.932 141.768 78.932" stroke="#EF4444" stroke-width="0.75" stroke-miterlimit="10"/>
<path d="M123.515 61.9036C121.451 62.6949 119.679 64.6955 118.593 66.7594C116.812 70.138 115.726 72.5899 115.726 72.5899L106.746 73.9348L107.191 78.7244C107.191 78.7244 113.286 78.5438 118.148 77.8128C121.602 77.2923 124.273 70.138 124.273 70.138" fill="#EF4444"/>
<path d="M122.911 62.1744C122.911 62.1744 123.903 63.5012 126.286 62.6076C128.669 61.7141 128.753 60.61 128.753 60.61" stroke="#EF4444" stroke-width="0.75" stroke-miterlimit="10"/>
<path d="M123.127 72.599L124.102 70.5351" stroke="#EF4444" stroke-width="0.75" stroke-miterlimit="10"/>
<path d="M108.148 73.7211L108.488 78.6551" stroke="#EF4444" stroke-width="0.75" stroke-miterlimit="10"/>
<path d="M125.817 83.1711L141.459 78.0024" stroke="#EF4444" stroke-width="0.75" stroke-miterlimit="10"/>
<path d="M64.2114 70.0598C64.2806 70.1049 64.3528 70.153 64.425 70.1981C65.126 70.6434 65.8421 71.0917 66.6363 71.3263C67.0996 71.4617 67.602 71.5339 67.9781 71.8348C68.1315 71.9551 68.2609 72.0845 68.4294 72.1838C68.4745 72.2109 68.9168 72.3763 68.8987 72.3282C68.9649 72.4876 69.1394 72.5659 69.2989 72.629C69.3169 72.6351 69.338 72.6441 69.356 72.6411C69.3771 72.6381 69.3921 72.617 69.3861 72.599C69.4433 72.7103 69.6448 72.7614 69.711 72.6982C69.7742 72.6381 69.6148 72.3553 69.6148 72.3553C69.6148 72.3553 69.7231 72.3613 69.7562 72.3282C69.8073 72.268 69.8193 72.1868 69.8254 72.1086C69.8735 71.3835 69.5907 70.6434 69.0642 70.1289" fill="#FFCBBD"/>
<path d="M69.2109 71.558C69.2109 71.5941 69.2109 71.6212 69.226 71.6543C69.238 71.6844 69.247 71.7145 69.2591 71.7416C69.2831 71.8017 69.3072 71.8589 69.3313 71.9191C69.3553 71.9792 69.3824 72.0394 69.4065 72.0996C69.4306 72.1628 69.4667 72.2199 69.4998 72.2771C69.5298 72.3312 69.6051 72.2921 69.593 72.238C69.581 72.1748 69.569 72.1086 69.5449 72.0484C69.5178 71.9822 69.4937 71.9191 69.4637 71.8559C69.4366 71.7957 69.4035 71.7385 69.3734 71.6814C69.3584 71.6513 69.3373 71.6272 69.3192 71.6002C69.2982 71.5701 69.2771 71.555 69.247 71.537C69.232 71.5279 69.2109 71.54 69.2109 71.558Z" fill="#F49C8E"/>
<path d="M68.4588 71.585C68.5912 71.7325 68.7326 71.8709 68.868 72.0153C68.9342 72.0845 68.9944 72.1537 69.0515 72.2319C69.0816 72.271 69.1087 72.3131 69.1358 72.3552C69.1628 72.3974 69.1989 72.4335 69.229 72.4756C69.2531 72.5117 69.3133 72.4906 69.3012 72.4455C69.2892 72.3974 69.2772 72.3402 69.2531 72.2981C69.229 72.2559 69.2019 72.2198 69.1719 72.1807C69.1087 72.0995 69.0395 72.0243 68.9673 71.9521C68.8229 71.8077 68.6574 71.6813 68.51 71.5399C68.4739 71.5008 68.4257 71.5489 68.4588 71.585Z" fill="#F49C8E"/>
<path d="M63.6089 125.339L58.2627 70.7787" stroke="#374151" stroke-miterlimit="10"/>
<path d="M84.4219 125.339L79.0758 70.7787H58.2627" stroke="#374151" stroke-miterlimit="10"/>
<path d="M73.7295 125.339L79.0757 70.7787" stroke="#374151" stroke-miterlimit="10"/>
<path d="M52.9199 125.339L58.2631 70.7787H79.0761" stroke="#374151" stroke-miterlimit="10"/>
<path d="M83.5651 117.61H53.6753" stroke="#374151" stroke-miterlimit="10"/>
<path d="M82.8705 110.931H54.3315" stroke="#374151" stroke-miterlimit="10"/>
<path d="M82.3379 104.065H55.0054" stroke="#374151" stroke-miterlimit="10"/>
<path d="M81.6689 97.5217H55.645" stroke="#374151" stroke-miterlimit="10"/>
<path d="M81.0258 90.6863H56.2866" stroke="#374151" stroke-miterlimit="10"/>
<path d="M80.3645 83.914H56.9551" stroke="#374151" stroke-miterlimit="10"/>
<path d="M79.5844 77.5179H57.604" stroke="#374151" stroke-miterlimit="10"/>
<path d="M63.0493 70.6434C65.1854 70.6494 67.3214 70.6464 69.4545 70.6284C69.2529 70.2673 69.1266 70.0417 68.8979 69.813C68.6151 69.5332 68.3985 69.3678 68.1037 69.2173C67.1108 68.7089 65.9977 68.4351 64.8815 68.4231" fill="#FFCBBD"/>
<path d="M55.5939 55.9226C55.5939 55.9226 58.5152 63.5372 59.2433 64.175C59.9744 64.8128 66.9301 68.2727 66.9301 68.2727L64.7971 72.7855C64.7971 72.7855 56.4273 69.443 55.2269 68.2727C54.0265 67.1023 50.2117 62.5715 49.8296 58.0256" fill="#EF4444"/>
<path d="M50.0196 105.684L49.7188 113.876L49.9715 116.454L59.7432 116.451C59.9899 116.451 60.1885 116.25 60.1885 116.003C60.1885 115.82 60.0741 115.651 59.9026 115.585L55.5553 113.56L56.2563 105.037" fill="#FFCBBD"/>
<path d="M60.6307 116.349C60.5284 116.024 60.3419 115.66 60.1493 115.576L55.5373 113.563C52.986 114.583 49.6917 113.777 49.6917 113.777L49.4209 117.255C49.4209 117.369 49.5142 117.462 49.6285 117.462L60.5435 117.459C60.7751 117.462 60.6337 116.358 60.6307 116.349Z" fill="#374151"/>
<path d="M56.5387 113.768C56.2769 114.105 56.0573 114.472 55.8828 114.86" stroke="#374151" stroke-width="0.75" stroke-miterlimit="10"/>
<path d="M57.1162 114.12C56.8455 114.49 56.7372 114.703 56.5747 115.046" stroke="#374151" stroke-width="0.75" stroke-miterlimit="10"/>
<path d="M57.607 114.375C57.4235 114.619 57.243 114.956 57.1016 115.227" stroke="#374151" stroke-width="0.75" stroke-miterlimit="10"/>
<path d="M49.4844 116.713L60.6761 116.71" stroke="#374151" stroke-width="0.75" stroke-miterlimit="10"/>
<path d="M49.5957 115.049C49.5957 115.049 52.1861 115.08 52.4117 116.713" stroke="#374151" stroke-width="0.75" stroke-miterlimit="10"/>
<path d="M59.2038 115.164C59.2038 115.164 58.4517 116.22 58.3013 116.71" stroke="#374151" stroke-width="0.75" stroke-miterlimit="10"/>
<path d="M47.8593 74.8824C47.8593 74.8824 46.9176 79.0582 48.9424 84.1156C48.9424 84.1156 49.9232 89.4046 50.0014 95.4517C50.0826 101.619 49.2613 109.478 49.2613 112.414H57.3001C57.3001 112.414 58.2869 104.056 58.3742 95.6323C58.4734 86.1975 57.6732 75.5473 57.6732 72.7975" fill="#374151"/>
<path d="M56.0977 112.414C56.0977 112.414 57.0845 103.903 57.1747 95.3706C57.271 85.999 56.4707 75.5203 56.4707 72.7945" stroke="#374151" stroke-width="0.75" stroke-miterlimit="10"/>
<path d="M63.6094 99.017L63.3086 107.212L63.5613 109.791L73.333 109.788C73.5797 109.788 73.7783 109.586 73.7783 109.339C73.7783 109.156 73.664 108.987 73.4925 108.921L69.1452 106.896L69.8461 98.3732" fill="#FFCBBD"/>
<path d="M74.2205 109.679C74.1183 109.354 73.9317 108.99 73.7392 108.906L69.1271 106.893C66.5759 107.913 63.2815 107.107 63.2815 107.107L63.0107 110.585C63.0107 110.699 63.104 110.792 63.2183 110.792L74.1333 110.789C74.365 110.792 74.2236 109.691 74.2205 109.679Z" fill="#374151"/>
<path d="M70.129 107.101C69.8673 107.438 69.6476 107.805 69.4731 108.193" stroke="#374151" stroke-width="0.75" stroke-miterlimit="10"/>
<path d="M70.7066 107.45C70.4358 107.82 70.3275 108.034 70.165 108.376" stroke="#374151" stroke-width="0.75" stroke-miterlimit="10"/>
<path d="M71.1964 107.706C71.0128 107.949 70.8323 108.286 70.6909 108.557" stroke="#374151" stroke-width="0.75" stroke-miterlimit="10"/>
<path d="M63.0732 110.043L74.265 110.04" stroke="#374151" stroke-width="0.75" stroke-miterlimit="10"/>
<path d="M63.1846 108.38C63.1846 108.38 65.7749 108.41 66.0006 110.043" stroke="#374151" stroke-width="0.75" stroke-miterlimit="10"/>
<path d="M72.7942 108.497C72.7942 108.497 72.042 109.553 71.8916 110.043" stroke="#374151" stroke-width="0.75" stroke-miterlimit="10"/>
<path d="M61.4 75.3397C61.4 75.3397 69.1229 82.6594 70.8649 87.428C72.0773 90.7524 70.3143 105.921 70.3143 105.921H62.6215C62.6215 105.921 63.5601 92.1123 63.0727 90.6862C62.5011 89.0105 55.8793 83.2973 55.8793 83.2973C55.8793 83.2973 53.0543 82.6655 51.7215 79.6599C50.5211 76.9523 51.0747 73.6669 51.0747 73.6669" fill="#374151"/>
<path d="M59.5957 75.3398C59.5957 75.3398 67.6014 83.8028 69.0606 87.4281C70.1677 90.1809 68.51 105.922 68.51 105.922" stroke="#374151" stroke-width="0.75" stroke-miterlimit="10"/>
<path d="M58.2115 85.3793C57.6038 84.8287 56.5538 83.8841 56.2349 83.6013C56.0303 83.4207 55.7956 83.2793 55.5369 83.1891C54.7427 82.9123 52.7721 82.0158 51.7251 79.6571" stroke="#374151" stroke-width="0.75" stroke-miterlimit="10"/>
<path d="M53.8525 77.9722C53.8525 77.9722 56.1571 78.0535 57.1198 77.9722" stroke="#374151" stroke-width="0.75" stroke-miterlimit="10"/>
<path d="M47.6426 77.9722H49.4988" stroke="#374151" stroke-width="0.75" stroke-miterlimit="10"/>
<path d="M75.2036 56.8011C76.0099 56.4341 79.6863 54.8245 79.7736 55.0472C79.8578 55.2608 78.6935 56.037 78.8229 56.0731C78.8951 56.0941 79.933 55.8234 80.4535 55.5676C80.9168 55.339 81.699 55.0502 81.8254 55.2397C82.0631 55.5977 79.5028 56.8162 79.5028 56.8162C79.5028 56.8162 79.9541 56.6086 80.1858 56.8884C80.5167 57.2915 79.8157 57.6646 79.8157 57.6646C79.8157 57.6646 80.2188 57.46 80.3512 57.809C80.4896 58.17 79.8879 58.4649 79.8879 58.4649C79.8879 58.4649 80.3663 58.2362 80.4264 58.6724C80.5047 59.2471 76.6838 60.5949 76.6838 60.5949" fill="#FFCBBD"/>
<path d="M56.5776 53.0827C56.5776 53.0827 55.8104 53.6934 54.583 53.4828C53.3555 53.2752 53.0576 52.6825 53.0576 52.6825C53.0576 52.6825 49.7934 53.1368 48.2259 63.2004C47.1248 70.2704 47.4888 76.0228 47.4888 76.0228H62.366C62.366 76.0228 62.8203 60.6461 62.0652 57.788" fill="#EF4444"/>
<path d="M57.748 60.4776C57.748 60.4776 62.1555 65.3454 66.2682 65.3454C70.3809 65.3454 78.1218 60.98 78.1218 60.98L76.2716 55.9046L67.2761 59.1297C67.2761 59.1297 62.5406 54.7042 60.3534 53.8889C58.1692 53.0735 56.5747 53.0796 56.5747 53.0796" fill="#EF4444"/>
<path d="M62.4869 64.2263C62.4869 64.2263 59.7191 62.1143 58.3833 61.1245" stroke="#EF4444" stroke-width="0.75" stroke-miterlimit="10"/>
<path d="M75.4146 56.2145L77.1084 61.5306" stroke="#EF4444" stroke-width="0.75" stroke-miterlimit="10"/>
<path d="M47.4443 74.7831H62.3998" stroke="#EF4444" stroke-width="0.75" stroke-miterlimit="10"/>
<path d="M59.8608 62.2345C60.0052 66.5126 59.8608 76.0226 59.8608 76.0226" stroke="#EF4444" stroke-width="0.75" stroke-miterlimit="10"/>
<path d="M53.1128 50.4893L52.7759 53.206C52.7759 53.206 55.3963 54.5809 57.1353 53.1187V51.5362L53.1128 50.4893Z" fill="#FFCBBD"/>
<path d="M56.672 46.2262C56.672 46.2262 59.7346 50.0891 58.6155 51.5182C58.0348 52.2613 56.1334 52.0838 55.2279 51.5182C54.557 51.097 52.6796 48.8587 52.9684 48.284C54.0636 46.0998 56.672 46.2262 56.672 46.2262Z" fill="#FFCBBD"/>
<path d="M56.278 46.9331C56.3292 48.4976 56.1276 49.8966 56.1276 49.8966L55.8929 54.978C55.8929 54.978 51.8495 55.4082 49.2651 53.6121C49.2651 53.6121 50.1316 48.2719 52.0601 46.6534C53.8923 45.113 56.278 45.2243 57.4905 46.2201C57.4905 46.2201 57.322 46.6865 57.0964 46.7948C56.8677 46.9061 56.278 46.9331 56.278 46.9331Z" fill="#374151"/>
<path d="M56.5422 49.3851C56.1691 48.9097 55.8653 48.9849 55.6998 49.2467C55.4802 49.5926 55.9224 50.3147 56.127 50.438C56.5452 50.6878 56.8822 50.6607 56.9153 50.3237" fill="#FFCBBD"/>
<path d="M57.1686 51.9965C56.7264 51.9965 56.585 51.6264 56.585 51.6264" stroke="#E88872" stroke-width="0.5" stroke-miterlimit="10" stroke-linejoin="round"/>
<path d="M57.4752 48.1846C57.6045 48.2929 57.7249 48.4855 57.6527 48.6269C57.6316 48.666 57.5925 48.6871 57.5504 48.681C57.2616 48.657 57.2074 47.962 57.4752 48.1846Z" fill="#28364C"/>
<path d="M57.4385 47.6582C57.1497 47.6582 56.9691 47.8838 56.8608 48.1125" stroke="#28364C" stroke-width="0.5" stroke-miterlimit="10" stroke-linecap="round"/>
<path d="M57.7095 50.1793L58.3894 49.9597C58.3894 49.9597 58.6572 50.7961 58.3383 50.9044C57.9893 51.0247 57.7095 50.1793 57.7095 50.1793Z" fill="white"/>
<path d="M53.9998 45.7478C54.2706 45.6786 54.4571 45.3958 54.4511 45.119C54.4421 44.8392 54.2615 44.5805 54.0148 44.4511C53.7681 44.3187 53.4703 44.3067 53.2025 44.3819C53.1002 44.409 53.001 44.4511 52.9137 44.5143C52.5647 44.773 52.5738 45.3296 52.8205 45.6876C52.9227 45.832 53.0611 45.9614 53.2356 46.0005C53.4071 46.0396 53.7651 45.9794 53.9697 45.8591" fill="#374151"/>
<path d="M57.7998 48.1426C57.875 48.1847 58.6843 48.5337 58.6873 48.8586C58.6903 49.0421 58.2421 49.2407 58.2421 49.2407" fill="#FFCBBD"/>
<path d="M68.4072 70.0056C68.8886 70.5231 69.0481 71.0346 69.2436 71.4528C69.2526 71.4708 69.2617 71.4919 69.2617 71.5129C69.2647 71.6092 69.1203 71.6182 69.03 71.5821C68.8254 71.5039 68.6359 71.3926 68.4674 71.2482C68.4012 71.191 68.338 71.1308 68.2628 71.0857C68.1244 71.0075 67.962 70.9985 67.8025 70.9774C67.1557 70.8962 66.5058 70.5773 66.1899 70.0056" fill="#FFCBBD"/>
<path d="M68.4076 70.0056C68.7386 70.3125 68.9763 70.7096 69.1598 71.1188L69.3012 71.4196C69.3102 71.4557 69.3343 71.4888 69.3252 71.54C69.3162 71.5941 69.2651 71.6362 69.229 71.6483C69.1508 71.6753 69.0876 71.6663 69.0184 71.6483C68.7957 71.567 68.5942 71.4497 68.4167 71.2993C68.3294 71.2211 68.2602 71.1519 68.167 71.1158C68.0767 71.0796 67.9684 71.0646 67.8571 71.0496C67.6314 71.0225 67.4058 70.9713 67.1922 70.8841C66.771 70.7156 66.3829 70.4148 66.1934 70.0026C66.4371 70.3817 66.8221 70.6344 67.2343 70.7758C67.4419 70.842 67.6555 70.8931 67.8721 70.9142C67.9834 70.9262 68.1008 70.9352 68.2181 70.9804C68.3384 71.0255 68.4317 71.1158 68.5129 71.1819C68.6724 71.3233 68.8619 71.4377 69.0605 71.5129C69.0996 71.5279 69.1507 71.5309 69.1808 71.5189C69.1959 71.5129 69.1959 71.5099 69.1959 71.5099C69.1989 71.5069 69.1869 71.4858 69.1838 71.4708C69.1357 71.3685 69.0966 71.2632 69.0545 71.1609C68.892 70.7487 68.6904 70.3516 68.4076 70.0056Z" fill="#E88872"/>
<path d="M17.1643 112.995L16.8936 121.581L17.1733 124.283L27.4114 124.228C27.6701 124.228 27.8777 124.018 27.8777 123.759C27.8777 123.567 27.7574 123.392 27.5769 123.323L23.0099 121.223L23.6989 112.288" fill="#FFCBBD"/>
<path d="M28.3375 124.114C28.2292 123.774 28.0307 123.395 27.8291 123.308L22.9853 121.223C20.3168 122.306 16.86 121.479 16.86 121.479L16.5952 125.125C16.5952 125.245 16.6945 125.342 16.8148 125.342L28.2533 125.282C28.494 125.279 28.3405 124.123 28.3375 124.114Z" fill="#374151"/>
<path d="M24.035 121.431C23.7642 121.786 23.5356 122.171 23.3521 122.577" stroke="#374151" stroke-width="0.75" stroke-miterlimit="10"/>
<path d="M24.6456 121.795C24.3658 122.183 24.2515 122.408 24.083 122.769" stroke="#374151" stroke-width="0.75" stroke-miterlimit="10"/>
<path d="M25.1603 122.062C24.9707 122.318 24.7812 122.673 24.6338 122.956" stroke="#374151" stroke-width="0.75" stroke-miterlimit="10"/>
<path d="M16.6611 124.553L28.3854 124.49" stroke="#374151" stroke-width="0.75" stroke-miterlimit="10"/>
<path d="M16.7666 122.809C16.7666 122.809 19.4833 122.827 19.727 124.535" stroke="#374151" stroke-width="0.75" stroke-miterlimit="10"/>
<path d="M26.836 122.881C26.836 122.881 26.0538 123.994 25.9004 124.505" stroke="#374151" stroke-width="0.75" stroke-miterlimit="10"/>
<path d="M18.1104 82.2655C18.1104 82.2655 23.5499 92.4614 25.2768 98.8756C27.0037 105.287 24.7081 119.731 24.7081 119.731H16.2421C16.2421 119.731 17.9299 104.056 15.9322 98.8756C13.9346 93.6949 6.78027 80.0662 6.78027 80.0662" fill="#374151"/>
<path d="M17.4005 119.728C17.4005 119.728 18.7874 103.421 17.945 99.393C17.0997 95.3646 11.248 85.99 11.248 85.99" stroke="#374151" stroke-width="0.75" stroke-miterlimit="10"/>
<path d="M7.4647 108.217L2.4615 115.116L1.09863 117.465L9.40821 123.443C9.61881 123.594 9.91064 123.546 10.0611 123.338C10.1754 123.182 10.1784 122.971 10.0731 122.808L7.61512 118.425L13.1599 111.192" fill="#FFCBBD"/>
<path d="M10.2258 123.895C10.3371 123.558 10.4003 123.13 10.289 122.944L7.59932 118.41C4.80439 117.715 2.49684 115.013 2.49684 115.013L0.138149 117.805C0.0689531 117.905 0.0900128 118.04 0.189295 118.109L9.47364 124.788C9.66619 124.929 10.2228 123.907 10.2258 123.895Z" fill="#374151"/>
<path d="M8.32709 119.195C7.89988 119.322 7.48771 119.499 7.09961 119.722" stroke="#374151" stroke-width="0.75" stroke-miterlimit="10"/>
<path d="M8.60404 119.848C8.14674 119.998 7.92411 120.113 7.57812 120.305" stroke="#374151" stroke-width="0.75" stroke-miterlimit="10"/>
<path d="M8.86574 120.368C8.56187 120.465 8.20085 120.639 7.91504 120.784" stroke="#374151" stroke-width="0.75" stroke-miterlimit="10"/>
<path d="M0.526855 117.384L10.0459 124.231" stroke="#374151" stroke-width="0.75" stroke-miterlimit="10"/>
<path d="M1.63672 116.033C1.63672 116.033 3.82092 117.646 3.01463 119.171" stroke="#374151" stroke-width="0.75" stroke-miterlimit="10"/>
<path d="M9.73871 122.017C9.73871 122.017 8.45106 122.457 8.02686 122.778" stroke="#374151" stroke-width="0.75" stroke-miterlimit="10"/>
<path d="M4.54907 80.0632C2.93649 84.6331 4.54907 88.2283 4.54907 88.2283C4.54907 88.2283 10.0457 98.2738 10.0457 100.314C10.0457 102.185 2.99365 112.853 2.99365 112.853L9.44095 118.037C9.44095 118.037 19.5677 107.137 19.3781 99.5946C19.1405 90.2681 14.0651 80.0632 14.0651 80.0632" fill="#374151"/>
<path d="M5.75155 80.364C4.13898 84.934 6.0855 88.0117 6.0855 88.0117C6.0855 88.0117 11.2482 98.5747 11.2482 100.614C11.2482 102.486 3.92236 113.599 3.92236 113.599" stroke="#374151" stroke-width="0.75" stroke-miterlimit="10"/>
<path d="M16.8113 107.865C18.3216 105.094 19.4408 102.152 19.3746 99.5946C19.1369 90.2681 14.0615 80.0632 14.0615 80.0632" stroke="#374151" stroke-width="0.75" stroke-miterlimit="10"/>
<path d="M5.22217 83.9473C5.22217 83.9473 8.09833 84.1158 9.22653 81.8022" stroke="#374151" stroke-width="0.75" stroke-miterlimit="10"/>
<path d="M16.2495 85.268C16.2495 85.268 17.0377 85.3553 16.9625 84.9642C16.8873 84.573 16.2495 82.4731 16.2495 82.4731" stroke="#374151" stroke-width="0.75" stroke-miterlimit="10"/>
<path fill-rule="evenodd" clip-rule="evenodd" d="M19.9042 55.8234C20.199 57.6646 19.9674 59.2922 18.3939 59.5389C16.8204 59.7826 14.6362 59.3344 14.209 56.7109C13.9082 54.8697 14.9491 53.1759 16.5226 52.9322C18.0961 52.6885 19.6093 53.9822 19.9042 55.8234Z" fill="#FFCBBB"/>
<path d="M18.6318 55.8415C18.5987 56.0099 18.6287 56.2446 18.7792 56.3108C18.8213 56.3289 18.8664 56.3198 18.8965 56.2867C19.1101 56.0791 18.7009 55.4895 18.6318 55.8415Z" fill="#28364C"/>
<path d="M18.1079 55.4232C18.496 55.2127 18.8661 55.2337 19.194 55.348" stroke="#28364C" stroke-width="0.5" stroke-miterlimit="10" stroke-linecap="round" stroke-linejoin="round"/>
<path d="M19.6551 57.7518L18.6292 57.7548C18.6292 57.7548 18.569 58.6063 19.0774 58.6965C19.5016 58.7687 19.6551 57.7518 19.6551 57.7518Z" fill="white"/>
<path fill-rule="evenodd" clip-rule="evenodd" d="M17.5607 61.5576C17.5607 61.5576 16.3362 61.7682 15.1839 61.4554C13.8241 61.0853 13.439 60.5317 13.439 60.5317L15.3223 56.5996L18.2286 57.9173L17.5607 61.5576Z" fill="#FFCBBB"/>
<path d="M17.9249 59.5871C17.9249 59.5871 16.6583 59.6292 16.0024 59.0064" stroke="#EF977F" stroke-miterlimit="10"/>
<path fill-rule="evenodd" clip-rule="evenodd" d="M19.5728 55.7693C19.5728 55.7693 20.358 56.9245 20.3189 57.1291C20.2798 57.3337 19.7081 57.424 19.7081 57.424" fill="#FFCBBB"/>
<path d="M15.3401 58.3716C15.1686 58.4468 14.964 58.4769 14.7985 58.4949C14.4285 58.5371 14.0464 58.4799 13.7155 58.3084C13.1108 57.9925 12.7227 57.2735 12.858 56.6026C12.8791 56.4943 12.9152 56.386 12.9333 56.2746C13.0145 55.7602 12.7136 55.2698 12.6294 54.7553C12.5482 54.2559 12.6775 53.7324 12.9603 53.3112C13.2401 52.89 13.6643 52.5741 14.1367 52.3936C14.5127 52.2492 14.9249 52.1981 15.2378 51.9273C15.3822 51.8009 15.5146 51.6595 15.6801 51.5573C16.4623 51.0639 17.5784 51.3346 18.2764 51.8551C18.3607 51.9153 18.4419 51.9845 18.5412 52.0115C18.7127 52.0567 18.8932 51.9845 19.0677 52.0206C19.7386 52.156 20.0334 53.1458 20.0274 53.7384C20.0244 53.9129 19.9823 54.0935 19.877 54.2318C19.7265 54.4334 19.4708 54.5297 19.2211 54.5598C18.8721 54.6019 18.5111 54.5327 18.1681 54.635C17.9274 54.7072 17.7228 54.8636 17.4882 54.9569C17.1302 55.1013 16.709 55.0863 16.36 54.9208C16.4292 55.1645 16.4803 55.4232 16.4442 55.6759C16.372 56.1483 15.9719 56.3829 15.5477 56.5003C15.6891 56.9786 15.8034 57.5773 15.653 58.0647C15.6048 58.2121 15.4845 58.3084 15.3401 58.3716Z" fill="#374151"/>
<path d="M15.9213 56.1122C15.9213 56.1122 15.5452 55.6549 15.1029 56.0219C14.5313 56.4973 15.2744 57.5232 15.7287 57.6917C16.18 57.8601 16.3154 57.3577 16.3154 57.3577" fill="#FFCBBB"/>
<path d="M38.7159 65.8815C39.3116 65.3791 39.8591 64.8044 40.3405 64.1516C40.8219 63.4987 41.213 62.8068 41.5168 62.0907L39.6124 61.0739C39.8772 60.403 40.0487 59.708 40.1239 59.007L42.284 58.998C42.4194 57.4125 42.1787 55.8119 41.583 54.3347L39.5162 54.9605C39.2364 54.3137 38.8723 53.6999 38.4211 53.1373L39.9404 51.606C39.4379 51.0103 38.8633 50.4627 38.2105 49.9814C37.5576 49.5 36.8656 49.1089 36.1496 48.805L35.1327 50.7095C34.4618 50.4447 33.7668 50.2732 33.0659 50.198L33.0568 48.0379C31.4713 47.9025 29.8708 48.1432 28.3936 48.7389L29.0194 50.8057C28.3725 51.0855 27.7588 51.4495 27.1962 51.9008L25.6649 50.3815C25.0692 50.8839 24.5216 51.4586 24.0403 52.1114C23.5589 52.7643 23.1678 53.4562 22.8639 54.1723L24.7683 55.1892C24.5036 55.8601 24.3321 56.555 24.2569 57.256L22.0967 57.265C21.9614 58.8505 22.202 60.4511 22.7977 61.9283L24.8646 61.3025C25.1444 61.9493 25.5084 62.5631 25.9597 63.1257L24.4404 64.657C24.9428 65.2527 25.5174 65.8003 26.1703 66.2816C26.8231 66.763 27.5151 67.1541 28.2311 67.458L29.248 65.5536C29.9189 65.8183 30.6139 65.9898 31.3149 66.065L31.3239 68.2251C32.9094 68.3605 34.51 68.1199 35.9871 67.5242L35.3614 65.4573C36.0082 65.1775 36.622 64.8135 37.1845 64.3622L38.7159 65.8815ZM29.9219 61.2032C28.2251 59.9487 27.8641 57.5569 29.1187 55.8601C30.3732 54.1632 32.765 53.8022 34.4618 55.0568C36.1586 56.3113 36.5197 58.7031 35.2651 60.3999C34.0105 62.0968 31.6188 62.4578 29.9219 61.2032Z" fill="#EF4444"/>
<path d="M31.3456 75.7068C32.2301 75.782 36.2225 76.1882 36.1864 76.4258C36.1533 76.6545 34.8024 76.7297 34.8536 76.853C34.9258 77.0275 35.9427 77.181 36.5233 77.2141C37.0378 77.2442 37.8621 77.3765 37.8772 77.6022C37.9072 78.0324 35.0792 77.8338 35.0792 77.8338C35.0882 77.9632 38.16 77.4788 38.2231 77.8368C38.3134 78.3513 35.0401 78.604 34.9348 78.7274C34.9348 78.7274 37.7117 77.7195 37.7809 78.1016C37.8471 78.4837 35.3891 79.4434 34.6069 79.4584C35.2477 79.3261 37.1371 78.261 37.1852 78.5408C37.2333 78.8176 35.5636 79.5427 35.2928 79.5878C33.0575 79.9578 30.771 79.7382 30.771 79.7382" fill="#FFCBBD"/>
<path d="M17.6121 61.305C17.6121 61.305 16.7546 61.7111 15.4549 61.1485C14.0439 60.5348 13.7461 59.8308 13.7461 59.8308C13.7461 59.8308 6.09237 60.5077 3.29443 81.7419L18.9659 83.6855C18.9659 83.6855 20.2265 76.0949 20.0249 69.9545C19.8986 66.0434 18.3792 62.9988 17.6121 61.305Z" fill="#EF4444"/>
<path d="M13.0117 69.8041C13.0117 69.8041 15.4216 77.879 21.932 79.627C27.7325 81.1824 32.2543 81.1764 32.2543 81.1764L32.8861 75.7339C32.8861 75.7339 25.798 74.4613 22.8797 72.5329C20.6594 71.0647 20.2262 66.3563 19.6636 64.6926C18.8844 62.3821 17.6088 61.308 17.6088 61.308" fill="#EF4444"/>
<path d="M13.123 59.9932C13.123 59.9932 13.6044 61.4734 15.8367 61.9608C17.4674 62.3158 18.1082 61.8284 18.1082 61.8284" stroke="#EF4444" stroke-width="0.75" stroke-miterlimit="10"/>
<path d="M19.3778 78.7123C19.3778 78.7123 13.442 75.9715 13.123 68.2035" stroke="#EF4444" stroke-width="0.75" stroke-miterlimit="10"/>
<path d="M31.5683 75.4691L30.771 81.1131" stroke="#EF4444" stroke-width="0.75" stroke-miterlimit="10"/>
<path d="M141.091 121.286C143.543 100.822 151.798 89.0256 159.256 92.2267C165.358 94.8441 162.211 106.237 152.704 121.271" fill="#9CA3AF"/>
<path d="M159.256 92.2267L147.054 121.274" stroke="#EF4444" stroke-miterlimit="10" stroke-linejoin="round"/>
<path d="M38.7887 121.334C35.016 115.645 27.1186 101.267 33.966 96.3213C37.7237 93.6046 42.7058 96.0776 45.1157 102.068C47.4022 107.757 48.2777 114.478 49.2314 121.253" fill="#9CA3AF"/>
<path d="M35.9038 95.4699L44.797 121.352" stroke="#EF4444" stroke-miterlimit="10" stroke-linejoin="round"/>
</svg>
