<svg width="84" height="85" viewBox="0 0 84 85" fill="none" xmlns="http://www.w3.org/2000/svg">
<path d="M83.8547 72.8497C83.7347 73.3744 83.6212 73.8991 83.4968 74.4217C82.1282 80.2003 76.8919 84.4243 70.9135 84.433C51.7646 84.4613 32.618 84.4461 13.4691 84.4439C12.2621 84.4439 11.7229 83.9475 11.8583 82.7412C11.9783 81.6744 12.1748 80.577 12.5851 79.5928C13.2661 77.9577 14.6172 77.0236 16.3612 76.66C22.2261 75.4363 28.0867 74.1887 33.9538 72.9868C34.8683 72.7996 35.0408 72.0136 35.5559 71.3996C29.1736 68.1314 26.0568 62.9189 26.2052 55.7032C25.7359 55.7032 25.3081 55.712 24.8803 55.7011C22.7238 55.6445 21.0387 53.9984 20.9972 51.8624C20.9645 50.1489 20.9732 48.4332 21.0038 46.7196C21.0103 46.3887 21.0955 45.9445 21.3181 45.7551C21.7634 45.3784 21.6913 45.0148 21.58 44.5532C20.2486 39.0598 21.2155 33.9365 24.0792 29.1138C24.4808 28.4388 25.0483 28.2581 25.7926 28.2603C32.1487 28.2755 38.5025 28.269 44.8586 28.269C45.1554 28.269 45.4544 28.269 45.8713 28.269C45.8713 27.9445 45.8713 27.6593 45.8713 27.3719C45.8713 22.2029 45.8626 17.0318 45.8844 11.8628C45.8866 11.3381 45.9979 10.7785 46.2009 10.293C47.3403 7.55827 48.5058 4.83662 49.702 2.12585C49.9115 1.65337 50.3088 1.26145 50.6187 0.83252C50.9461 0.83252 51.2735 0.83252 51.6009 0.83252C51.9218 1.28758 52.3278 1.70345 52.5482 2.20206C53.716 4.83444 54.8575 7.48206 55.9598 10.1428C56.1912 10.7023 56.3287 11.3425 56.3308 11.9478C56.3592 17.0906 56.3483 22.2334 56.3483 27.3784C56.3483 27.6637 56.3483 27.9511 56.3483 28.269C56.7979 28.269 57.1297 28.3125 57.4484 28.2624C58.8453 28.0382 59.642 28.6718 60.2837 29.8889C62.8724 34.7966 63.6123 39.9002 62.2154 45.0039C62.5013 45.7311 62.8484 46.2275 62.8702 46.7392C62.9401 48.4506 62.9226 50.1685 62.8877 51.882C62.844 53.9832 61.1743 55.6292 59.068 55.7011C58.6161 55.7163 58.1621 55.7032 57.6492 55.7032C57.7976 59.089 57.145 62.1851 55.4425 65.0222C53.7422 67.8527 51.3521 69.9277 48.3836 71.3299C48.794 72.3685 49.3942 73.0304 50.5336 73.0979C51.0967 73.1305 51.6511 73.3309 52.2121 73.4506C54.1198 73.8556 56.0253 74.2562 58.0181 74.6786C57.898 73.8251 57.7518 73.0826 57.695 72.3336C57.1952 65.6928 61.9011 59.666 68.4645 58.5185C75.1785 57.3449 81.6415 61.4601 83.3898 68.0291C83.5688 68.7062 83.6976 69.3942 83.8504 70.0779C83.8547 70.9989 83.8547 71.9243 83.8547 72.8497ZM55.1871 47.891C53.9451 47.8148 52.9651 47.7865 51.9895 47.6907C46.3057 47.1355 40.7878 46.1513 36.8044 41.7705C35.4751 42.2975 34.2506 42.8984 32.9606 43.2577C31.6401 43.6256 30.2541 43.7584 28.8833 43.9958C28.8833 48.6901 28.8812 53.3648 28.8877 58.0395C28.8877 58.2812 28.9532 58.5229 28.9838 58.7667C29.811 64.9765 35.0866 69.8188 41.2877 70.0605C47.7856 70.3153 53.6396 66.0434 54.6567 59.7248C55.2766 55.8753 55.0387 51.8842 55.1871 47.891ZM26.2314 45.2238C26.2314 44.5749 26.2314 43.9827 26.2314 43.3905C26.2314 41.6508 26.5151 41.3939 28.2569 41.3111C30.2213 41.2175 32.1705 40.9954 33.9931 40.1855C34.7352 39.8567 35.3507 39.4343 35.4402 38.4893C35.4991 37.8623 35.9684 37.4769 36.6145 37.4311C37.3042 37.3811 37.66 37.8013 37.9918 38.3739C38.5134 39.2775 39.0307 40.2355 39.7641 40.9562C41.4994 42.6589 43.7388 43.4841 46.0459 44.1003C50.1691 45.202 54.3904 45.2848 58.6227 45.2695C59.2207 45.2673 59.4718 45.0866 59.6289 44.5227C60.8949 39.9438 60.2641 35.5957 58.1163 31.4087C57.8893 30.9667 57.6034 30.8752 57.1515 30.8752C47.0107 30.8861 36.8677 30.8861 26.7268 30.873C26.2641 30.873 25.9891 30.9906 25.7686 31.4196C23.7649 35.3344 23.0293 39.4256 24.0923 43.7388C24.5463 45.583 24.1556 45.2434 26.2314 45.2238ZM81.2333 71.3669C81.242 65.6732 76.5405 60.9506 70.8458 60.9288C65.0158 60.907 60.2837 65.5752 60.2815 71.3517C60.2794 77.1499 64.97 81.8268 70.7891 81.8268C76.5405 81.8268 81.2268 77.1346 81.2333 71.3669ZM14.6521 81.7745C23.3 81.7745 31.9457 81.7745 40.6372 81.7745C40.6372 80.9058 40.611 80.0914 40.6481 79.2815C40.6678 78.8199 40.5193 78.5499 40.109 78.3148C38.6466 77.4743 37.2213 76.5707 35.7501 75.7477C35.4074 75.5561 34.9163 75.4581 34.5344 75.53C32.4499 75.9306 30.3807 76.4031 28.3049 76.8385C24.4721 77.6441 20.6393 78.4476 16.8021 79.2379C15.6081 79.484 14.7787 80.4333 14.6521 81.7745ZM62.5232 81.7941C61.5301 80.5704 60.5566 79.3403 59.5416 78.1449C59.3015 77.8619 58.9566 77.5723 58.6118 77.4939C55.532 76.8037 52.4435 76.1483 49.3506 75.5191C49.0122 75.4494 48.5692 75.5016 48.2745 75.6693C46.7139 76.5555 45.1794 77.4917 43.6472 78.4258C43.4856 78.5259 43.2848 78.7284 43.2783 78.8896C43.2434 79.8563 43.2608 80.823 43.2608 81.7919C49.7915 81.7941 56.2086 81.7941 62.5232 81.7941ZM46.5938 73.6117C45.8495 72.2422 45.8582 72.3619 44.5311 72.4469C42.7784 72.5579 41.0039 72.5492 39.2512 72.4207C37.9656 72.3271 37.8455 72.2836 37.3588 73.6422C38.7513 74.474 40.1439 75.3209 41.5561 76.1309C41.7482 76.2419 42.104 76.2702 42.2851 76.1657C43.7257 75.3449 45.1401 74.4827 46.5938 73.6117ZM48.5473 14.6019C48.5473 19.1874 48.5473 23.7053 48.5473 28.2058C48.9926 28.2058 49.3811 28.2058 49.8046 28.2058C49.8046 24.4521 49.7544 20.7594 49.8351 17.0688C49.8613 15.954 49.5121 15.2072 48.5473 14.6019ZM53.6963 14.6215C52.605 15.2116 52.378 16.0694 52.3998 17.1733C52.4653 20.5656 52.4238 23.96 52.4238 27.3545C52.4238 27.6441 52.4238 27.9315 52.4238 28.208C52.9171 28.208 53.3078 28.208 53.6963 28.208C53.6963 23.653 53.6963 19.159 53.6963 14.6215ZM51.1404 13.4915C51.566 12.9994 51.8498 12.6336 52.1728 12.307C53.6003 10.8569 53.6112 10.8591 52.6508 9.05845C52.5657 8.89732 52.3736 8.71878 52.2077 8.6883C50.1822 8.32469 49.6932 8.60339 48.9599 10.4846C48.9402 10.5347 48.8857 10.5869 48.8944 10.6305C48.9337 10.8482 48.9184 11.1204 49.0472 11.2663C49.6714 11.9761 50.3371 12.6489 51.1404 13.4915ZM26.1986 47.9324C25.2863 47.9324 24.459 47.9324 23.6121 47.9324C23.6121 49.2235 23.5968 50.4472 23.6165 51.6708C23.6318 52.5831 24.1294 53.0556 25.0527 53.0883C25.4238 53.1013 25.797 53.0905 26.1986 53.0905C26.1986 51.3203 26.1986 49.6437 26.1986 47.9324ZM57.6798 53.0839C58.1818 53.0839 58.614 53.1101 59.0418 53.0774C59.6857 53.0273 60.1942 52.6572 60.2292 52.0366C60.3056 50.6649 60.2532 49.2867 60.2532 47.9302C59.343 47.9302 58.5136 47.9302 57.6798 47.9302C57.6798 49.6525 57.6798 51.3072 57.6798 53.0839Z" fill="#DC2626"/>
<path d="M83.8538 13.8986C83.7184 14.4778 83.6049 15.0635 83.4434 15.6339C82.566 18.7671 80.7128 21.1622 77.8906 22.7864C77.4606 23.0346 77.2358 23.2807 77.2991 23.7902C77.6199 26.3507 76.8975 28.7283 76.0069 31.082C75.7319 31.8092 75.2888 32.1946 74.4943 32.1881C72.8857 32.175 71.277 32.1729 69.6705 32.1903C68.8826 32.199 68.4133 31.8484 68.1361 31.1147C67.2455 28.7632 66.5187 26.3855 66.8308 23.825C66.8919 23.3286 66.7108 23.063 66.2677 22.8082C61.8281 20.2564 59.5537 15.3639 60.4748 10.4193C61.3828 5.54206 65.2811 1.79489 70.2926 0.976223C70.4498 0.950095 70.6004 0.880421 70.7553 0.83252C71.6284 0.83252 72.5015 0.83252 73.3746 0.83252C73.5274 0.880421 73.678 0.947917 73.8329 0.976223C78.576 1.83626 81.7213 4.55791 83.3037 9.0802C83.5525 9.79219 83.6726 10.5477 83.8516 11.2837C83.8538 12.1568 83.8538 13.0277 83.8538 13.8986ZM72.0693 21.7348C77.0655 21.7457 81.2061 17.6588 81.2323 12.6924C81.2585 7.57568 77.1419 3.4453 72.0191 3.44966C67.0316 3.45401 62.9129 7.55826 62.902 12.5356C62.8889 17.6197 66.9793 21.7239 72.0693 21.7348ZM74.6602 24.2278C72.8878 24.2278 71.1941 24.2278 69.4981 24.2278C69.4981 24.6502 69.4981 25.1249 69.4981 25.5974C71.253 25.5974 72.9555 25.5974 74.6602 25.5974C74.6602 25.0813 74.6602 24.6219 74.6602 24.2278ZM74.1014 28.295C72.7285 28.295 71.4036 28.295 70.0743 28.295C70.2337 29.5753 70.2337 29.5753 71.4167 29.5753C71.8249 29.5753 72.2308 29.5753 72.639 29.5753C73.8177 29.5753 73.8177 29.5753 74.1014 28.295Z" fill="#DC2626"/>
<path d="M35.7237 14.6694C34.473 13.4196 33.2835 12.2329 31.9891 10.9418C31.1248 11.8192 30.2015 12.7664 29.2673 13.7048C28.4313 14.5431 28.0865 14.5779 27.0279 14.0815C26.3403 13.7592 25.6309 13.474 24.9128 13.2214C23.8651 12.8513 23.6141 12.5421 23.6097 11.4469C23.6054 10.1188 23.6097 8.79059 23.6097 7.41671C21.8658 7.41671 20.1851 7.41671 18.3713 7.41671C18.3713 8.57286 18.3713 9.75732 18.3713 10.9396C18.3713 12.7141 18.3472 12.7272 16.6928 13.3347C16.0314 13.5785 15.3875 13.879 14.7523 14.1903C14.0517 14.5322 13.4493 14.4625 12.8992 13.8942C11.9345 12.897 10.9544 11.9107 10.0486 10.9875C8.79137 12.2438 7.58652 13.4479 6.29436 14.739C7.13689 15.5642 8.09072 16.4852 9.03147 17.4193C9.85653 18.238 9.88054 18.5863 9.37852 19.6576C9.02273 20.4175 8.71279 21.2035 8.43341 21.996C8.1824 22.7102 7.7153 23.0477 6.96663 23.0433C5.55661 23.0368 4.1444 23.0411 2.69727 23.0411C2.69727 24.7982 2.69727 26.4748 2.69727 28.2667C3.99816 28.2667 5.29468 28.2667 6.59121 28.2667C7.88118 28.2667 8.13656 28.4714 8.54909 29.6537C8.78919 30.3439 9.07731 31.0232 9.38943 31.6829C9.88709 32.7302 9.84998 33.0742 9.00527 33.9147C8.08199 34.8357 7.14779 35.7458 6.28126 36.6037C7.53631 37.86 8.7368 39.0662 10.0093 40.3399C10.8846 39.4581 11.8144 38.5088 12.7552 37.5704C13.5518 36.7757 13.9033 36.7452 14.9291 37.222C15.6669 37.566 16.4243 37.8861 17.197 38.1387C18.0133 38.4065 18.3953 38.8985 18.38 39.7608C18.3538 41.1172 18.3734 42.4759 18.3734 43.8977C18.8078 43.926 19.2007 43.9499 19.6372 43.9782C19.6372 44.81 19.6372 45.6177 19.6372 46.5148C18.6921 46.5148 17.7143 46.5975 16.7604 46.4865C16.0598 46.4038 15.7498 45.8159 15.7542 45.1017C15.7586 43.8236 15.7498 42.5434 15.7564 41.2653C15.7586 40.8059 15.835 40.3661 15.202 40.1875C14.6367 40.0264 14.187 39.6976 13.6392 40.3465C12.8512 41.2805 11.9279 42.0992 11.0527 42.9592C10.2014 43.7953 9.5706 43.8062 8.74117 42.9854C7.01684 41.2805 5.29905 39.5692 3.59218 37.8469C2.79985 37.0478 2.81295 36.4142 3.614 35.6021C4.51328 34.692 5.37981 33.7383 6.34675 32.9044C6.99937 32.3426 6.51045 31.9094 6.39913 31.3977C6.2769 30.8381 5.89056 30.8708 5.46712 30.873C4.18587 30.8838 2.90244 30.8838 1.6212 30.8751C0.508018 30.8664 0.0452802 30.3983 0.0409148 29.2704C0.0343667 26.8493 0.032184 24.4259 0.0409148 22.0047C0.0452802 20.8921 0.514565 20.4349 1.64739 20.4284C2.95701 20.4196 4.26663 20.3979 5.57407 20.4414C6.09137 20.4588 6.30091 20.2476 6.4275 19.8035C6.55847 19.3419 6.97099 18.9543 6.38385 18.4383C5.40381 17.5761 4.51109 16.6137 3.59218 15.684C2.80204 14.8827 2.80203 14.247 3.60745 13.437C5.31651 11.7169 7.03429 10.0055 8.75863 8.3007C9.56186 7.50598 10.1992 7.51033 11.0134 8.30505C11.9672 9.23912 12.9385 10.1579 13.84 11.1421C14.3835 11.7365 14.7698 11.1704 15.2216 11.0877C15.6232 11.0136 15.776 10.772 15.7651 10.3408C15.7345 9.00833 15.7476 7.67363 15.7564 6.34111C15.7629 5.21979 16.2257 4.75602 17.3519 4.75385C19.7791 4.74514 22.2084 4.74514 24.6356 4.75385C25.7575 4.7582 26.2224 5.22415 26.229 6.34329C26.2377 7.67581 26.2617 9.0105 26.2159 10.343C26.1984 10.8569 26.4625 11.0093 26.8467 11.1138C27.2723 11.2292 27.6434 11.6973 28.1498 11.1421C29.0512 10.1579 30.0225 9.2413 30.9764 8.30505C31.784 7.51251 32.4213 7.5038 33.2311 8.3007C34.9773 10.023 36.7125 11.7539 38.4368 13.498C39.1659 14.2339 39.1637 14.8936 38.4456 15.6295C37.4961 16.605 36.5401 17.5782 35.5469 18.5101C35.1781 18.8563 35.2261 19.1568 35.4356 19.5052C35.6604 19.8775 35.5797 20.4784 36.3327 20.4436C37.6663 20.3826 39.0043 20.4196 40.3423 20.4284C41.4686 20.4349 41.9357 20.8943 41.9444 22.0113C41.9532 23.5071 41.9466 25.0051 41.9444 26.5009C41.9444 26.6098 41.9313 26.7165 41.9226 26.8906C41.0954 26.8906 40.2681 26.8906 39.3492 26.8906C39.3492 25.6517 39.3492 24.3889 39.3492 23.0368C37.9326 23.0368 36.6056 23.039 35.2785 23.0368C34.1238 23.0346 33.8379 22.7973 33.4472 21.6977C33.1853 20.9574 32.895 20.2193 32.5348 19.5226C32.1201 18.7213 32.2336 18.0921 32.8797 17.4781C33.8597 16.5484 34.807 15.5795 35.7237 14.6694Z" fill="#DC2626"/>
<path d="M20.9629 33.5271C20.9629 34.3959 20.9629 35.2015 20.9629 36.0028C16.3116 36.7474 11.0426 31.9486 10.5449 26.54C10.0014 20.6482 14.7444 15.3398 20.6595 15.2092C27.0876 15.0655 31.5294 20.3281 31.4268 25.6016C30.5995 25.6016 29.7701 25.6016 28.8818 25.6016C28.7421 23.0563 27.7511 20.9247 25.6797 19.3766C24.0646 18.1682 22.2224 17.6522 20.2165 17.8546C16.1588 18.2662 13.1249 21.6563 13.1336 25.7039C13.1423 29.327 15.8642 33.2528 20.9629 33.5271Z" fill="#DC2626"/>
<path d="M4.61643 71.6156C5.12063 72.0685 5.62484 72.5236 6.15742 73.0026C5.50042 73.6014 4.8849 74.1587 4.23227 74.751C3.00122 73.5339 1.64576 72.2384 0.349234 70.8884C-0.115682 70.4051 -0.120046 69.741 0.357966 69.2533C1.66541 67.9142 3.02305 66.6209 4.38069 65.2906C4.96784 65.8828 5.54189 66.4576 6.16614 67.0868C5.66848 67.6072 5.1752 68.1232 4.59678 68.7264C7.05887 68.7264 9.38782 68.7264 11.8259 68.7264C11.8259 68.4324 11.8259 68.145 11.8259 67.8576C11.8259 65.2187 11.8215 62.5798 11.8281 59.9431C11.8303 58.7739 12.2886 58.3232 13.4695 58.321C15.5081 58.3144 17.549 58.3188 19.6356 58.3188C19.6356 59.1854 19.6356 59.991 19.6356 60.888C17.9615 60.888 16.259 60.888 14.4451 60.888C14.4451 61.2625 14.4451 61.5499 14.4451 61.8373C14.4451 64.4479 14.4473 67.0607 14.443 69.6713C14.4408 70.9472 14.0042 71.3805 12.723 71.3827C10.3242 71.387 7.92323 71.3848 5.52443 71.3848C5.26032 71.3848 4.99839 71.3848 4.73429 71.3848C4.695 71.4589 4.65571 71.5373 4.61643 71.6156Z" fill="#DC2626"/>
<path d="M24.8599 60.8975C24.0131 60.8975 23.2077 60.8975 22.3521 60.8975C22.3521 60.044 22.3521 59.221 22.3521 58.3567C23.1836 58.3567 23.989 58.3567 24.8599 58.3567C24.8599 59.1688 24.8599 59.9918 24.8599 60.8975Z" fill="#DC2626"/>
<path d="M64.2402 53.0898C64.2402 52.1841 64.2402 51.3785 64.2402 50.4858C66.4055 50.4858 68.5423 50.4858 70.7032 50.4858C70.7272 50.2985 70.7534 50.1962 70.7534 50.0939C70.7556 46.1268 70.7556 42.1575 70.7556 38.0032C70.1313 38.5954 69.6162 39.0832 69.0705 39.5992C68.4725 38.9765 67.8984 38.3777 67.2785 37.731C68.5576 36.453 69.8476 35.1291 71.179 33.8489C71.6898 33.359 72.3642 33.3045 72.8837 33.8097C74.2283 35.1139 75.5182 36.4725 76.8497 37.829C76.2669 38.4038 75.6885 38.9743 75.0577 39.597C74.5404 39.1027 74.0231 38.6107 73.3748 37.9923C73.3748 38.4539 73.3748 38.7413 73.3748 39.0287C73.3748 43.109 73.3748 47.1893 73.3748 51.2696C73.3748 52.6979 72.9754 53.0898 71.5152 53.0898C69.1207 53.0898 66.7241 53.0898 64.2402 53.0898Z" fill="#DC2626"/>
<path d="M41.9844 58.3161C43.6193 58.3161 45.252 58.3095 46.8868 58.3183C48.0371 58.3248 48.5282 58.8452 48.4824 59.9752C48.3449 63.3892 45.3851 66.1675 41.9059 66.1523C38.4725 66.1349 35.5367 63.3479 35.408 59.9796C35.3643 58.8408 35.8511 58.3248 36.9992 58.3183C38.6624 58.3095 40.3234 58.3161 41.9844 58.3161ZM45.5641 60.9768C43.126 60.9768 40.7534 60.9768 38.3677 60.9768C38.7759 62.4269 40.2165 63.4851 41.8011 63.5395C43.4818 63.5961 44.9573 62.6163 45.5641 60.9768Z" fill="#DC2626"/>
<path d="M35.0217 48.2917C36.3662 49.6221 37.6955 50.8676 38.9243 52.2067C39.2015 52.5072 39.3107 53.2214 39.147 53.5894C38.9833 53.9596 38.3874 54.345 37.9661 54.3602C35.8467 54.4364 33.7208 54.395 31.5337 54.395C31.5337 53.5458 31.5337 52.7228 31.5337 51.8017C32.553 51.8017 33.5964 51.8017 34.6375 51.8017C34.679 51.7299 34.7204 51.6602 34.7641 51.5884C34.2119 51.1311 33.6575 50.6738 33.0856 50.2013C33.8168 49.4828 34.3931 48.9123 35.0217 48.2917Z" fill="#DC2626"/>
<path d="M52.3763 54.3863C50.1478 54.3863 47.9476 54.4342 45.7518 54.3667C44.6735 54.3341 44.1628 53.0407 44.9093 52.2482C46.1731 50.9047 47.5242 49.6419 48.8775 48.3071C49.4428 48.932 49.9972 49.5482 50.6389 50.2581C50.1871 50.6195 49.637 51.0593 49.0848 51.5013C49.1307 51.5819 49.1765 51.6646 49.2223 51.7452C50.2569 51.7452 51.2937 51.7452 52.3742 51.7452C52.3764 52.6706 52.3763 53.4936 52.3763 54.3863Z" fill="#DC2626"/>
<path d="M68.1472 72.2591C68.9548 71.4056 69.6337 70.6653 70.3387 69.9533C71.8535 68.4249 73.377 66.9051 74.9093 65.394C75.6077 64.7038 76.2735 64.6385 76.9239 65.246C77.8188 66.0821 78.6875 66.9508 79.5279 67.8413C80.0998 68.4488 80.0932 69.1281 79.4886 69.7334C76.0486 73.1888 72.5978 76.6312 69.1338 80.0626C68.4725 80.718 67.7915 80.6984 67.117 80.0365C65.4254 78.3774 63.7469 76.703 62.0837 75.0178C61.3939 74.3189 61.4092 73.6613 62.1011 72.9472C62.8782 72.1459 63.6683 71.3555 64.4737 70.5804C65.1897 69.8902 65.8379 69.8815 66.5495 70.563C67.0581 71.0551 67.5208 71.5929 68.1472 72.2591ZM75.9504 67.9175C75.6732 68.2507 75.4986 68.4967 75.2891 68.7057C73.2875 70.711 71.2838 72.7142 69.2713 74.7086C68.4616 75.5099 67.8264 75.5055 67.0144 74.7195C66.5168 74.2361 66.03 73.7397 65.5149 73.228C65.2268 73.5372 65.0282 73.7484 64.8688 73.9204C65.9973 75.0439 67.0886 76.1282 68.0992 77.1341C70.9018 74.3493 73.7502 71.5188 76.603 68.6861C76.4612 68.5163 76.2713 68.2942 75.9504 67.9175Z" fill="#DC2626"/>
<path d="M72.1113 8.62769C72.1113 7.77637 72.1113 6.94681 72.1113 6.12162C75.4858 5.90824 78.6507 9.04573 78.5787 12.5425C77.7493 12.5425 76.9198 12.5425 76.0467 12.5425C75.763 10.2324 74.4665 8.90203 72.1113 8.62769Z" fill="#DC2626"/>
<path d="M78.5745 16.4771C77.7188 16.4771 76.9134 16.4771 76.0513 16.4771C76.0513 15.6409 76.0513 14.8178 76.0513 13.9468C76.8829 13.9468 77.7079 13.9468 78.5745 13.9468C78.5745 14.7786 78.5745 15.5821 78.5745 16.4771Z" fill="#DC2626"/>
</svg>
