<svg width="78" height="79" viewBox="0 0 78 79" fill="none" xmlns="http://www.w3.org/2000/svg">
<path d="M38.9933 68.3292C36.7919 68.3292 34.7108 68.3292 32.5603 68.3292C32.5603 67.4798 32.5603 66.6626 32.5603 65.7485C34.6599 65.7485 36.7827 65.7485 38.9933 65.7485C38.9933 64.5343 38.9933 63.4079 38.9933 62.2814C38.9979 60.9518 39.4095 60.5363 40.7368 60.5363C48.8856 60.5363 57.0389 60.5363 65.1877 60.5363C65.5114 60.5363 65.8351 60.5363 66.2236 60.5363C66.2236 54.7193 66.2236 48.9254 66.2236 43.0346C65.9739 43.2654 65.7565 43.4454 65.5577 43.644C61.4787 47.7159 57.4089 51.797 53.3068 55.8412C52.8952 56.2474 52.2893 56.566 51.7251 56.6999C49.8059 57.1523 47.8635 57.5124 45.9257 57.8864C44.7696 58.1126 44.0296 57.3508 44.2562 56.192C44.6308 54.2854 44.9777 52.3694 45.4263 50.4812C45.565 49.8903 45.8934 49.2624 46.3188 48.8331C52.7657 42.3467 59.2403 35.8926 65.7288 29.4431C66.1496 29.023 66.3069 28.6121 66.3069 28.0304C66.2837 24.4617 66.293 20.8931 66.293 17.3244C66.293 17.0566 66.293 16.7935 66.293 16.4657C65.9785 16.4518 65.7195 16.4288 65.4559 16.4288C63.1806 16.4241 60.9052 16.438 58.6298 16.4241C55.5452 16.4057 53.3114 14.1758 53.2929 11.0919C53.279 8.58044 53.2883 6.06898 53.2883 3.45133C52.9553 3.45133 52.6686 3.45133 52.3865 3.45133C39.8211 3.45133 27.2558 3.45133 14.695 3.45133C12.711 3.45133 11.6982 4.46238 11.6982 6.44754C11.6982 18.5016 11.6982 30.5604 11.6982 42.6144C11.6982 42.933 11.6982 43.2562 11.6982 43.6255C10.8195 43.6255 10.0009 43.6255 9.09912 43.6255C9.09912 43.3393 9.09912 43.0761 9.09912 42.813C9.09912 30.7035 9.09912 18.594 9.09912 6.48447C9.09912 3.01736 11.2542 0.861384 14.7135 0.861384C27.82 0.861384 40.9264 0.866001 54.0329 0.847534C54.7959 0.847534 55.3648 1.06452 55.9013 1.60467C59.9849 5.70888 64.0824 9.79924 68.1938 13.8757C68.6932 14.3697 68.9106 14.896 68.9013 15.5978C68.8782 18.8156 68.8921 22.0334 68.8921 25.2466C68.8921 25.5097 68.8921 25.7729 68.8921 26.1884C69.1881 25.9298 69.3777 25.7683 69.5673 25.5974C71.6253 23.7231 74.6175 23.7508 76.5275 25.6621C78.4699 27.6057 78.5069 30.6481 76.5414 32.6655C74.2197 35.0477 71.8473 37.3838 69.4748 39.7198C69.0586 40.1307 68.8736 40.5277 68.8736 41.1233C68.8967 47.2865 68.8875 53.4497 68.8875 59.613C68.8875 59.8807 68.8875 60.1485 68.8875 60.5409C69.2066 60.5409 69.4933 60.5409 69.7754 60.5409C71.9675 60.5409 74.1643 60.5363 76.3564 60.5409C77.5264 60.5456 77.9797 60.998 77.9843 62.1568C77.9889 65.4023 77.9889 68.6432 77.9843 71.8887C77.9843 73.0521 77.5264 73.5137 76.361 73.5137C64.4477 73.5184 52.5298 73.5184 40.6166 73.5137C39.4511 73.5137 39.0025 73.0567 38.9933 71.8933C38.9887 70.7345 38.9933 69.5757 38.9933 68.3292ZM70.1778 63.1817C69.2574 63.1817 68.4527 63.1817 67.5648 63.1817C67.5648 64.045 67.5648 64.8667 67.5648 65.6654C66.6537 65.6654 65.8305 65.6654 64.9518 65.6654C64.9518 64.7975 64.9518 63.9988 64.9518 63.1955C64.0685 63.1955 63.2499 63.1955 62.3666 63.1955C62.3666 64.0542 62.3666 64.8575 62.3666 65.6793C61.4833 65.6793 60.6647 65.6793 59.7536 65.6793C59.7536 64.8067 59.7536 63.9896 59.7536 63.177C58.8611 63.177 58.061 63.177 57.1684 63.177C57.1684 64.0404 57.1684 64.8621 57.1684 65.6654C56.2574 65.6654 55.4342 65.6654 54.5555 65.6654C54.5555 64.8021 54.5555 63.9988 54.5555 63.1909C53.6721 63.1909 52.8536 63.1909 51.9425 63.1909C51.9425 64.0681 51.9425 64.8898 51.9425 65.6839C51.0499 65.6839 50.2499 65.6839 49.3573 65.6839C49.3573 64.816 49.3573 63.9988 49.3573 63.177C48.4647 63.177 47.6646 63.177 46.7721 63.177C46.7721 64.0357 46.7721 64.8575 46.7721 65.6747C45.861 65.6747 45.0378 65.6747 44.1591 65.6747C44.1591 64.816 44.1591 64.0127 44.1591 63.1909C43.2758 63.1909 42.4572 63.1909 41.6433 63.1909C41.6433 65.7901 41.6433 68.3431 41.6433 70.8822C52.9044 70.8822 64.1009 70.8822 75.3251 70.8822C75.3251 68.2923 75.3251 65.7393 75.3251 63.2001C74.451 63.2001 73.6278 63.2001 72.7491 63.2001C72.7491 64.0634 72.7491 64.8667 72.7491 65.6793C71.8658 65.6793 71.0472 65.6793 70.1639 65.6793C70.1778 64.8206 70.1778 64.0173 70.1778 63.1817ZM51.9564 53.2651C58.6483 46.5802 65.3588 39.8814 71.9768 33.2796C70.9686 32.2685 69.8864 31.1882 68.869 30.1679C62.214 36.8067 55.5035 43.5008 48.8439 50.1488C49.8752 51.183 50.9528 52.2633 51.9564 53.2651ZM55.9059 5.49189C55.9059 7.51861 55.8596 9.53609 55.9244 11.549C55.9614 12.6385 56.8817 13.6911 57.9778 13.7465C60.0635 13.8573 62.1585 13.7788 64.2535 13.7788C61.4694 11.0134 58.7131 8.28035 55.9059 5.49189ZM74.1735 31.336C75.0245 30.6481 75.5979 29.8078 75.3112 28.6306C75.0707 27.6472 74.4094 27.0286 73.4243 26.8486C72.282 26.6408 71.4727 27.2133 70.8576 28.0212C71.9675 29.1292 73.0451 30.2049 74.1735 31.336ZM49.163 54.5901C48.6312 53.9945 48.1595 53.459 47.586 52.8173C47.438 53.5836 47.3178 54.2253 47.1744 54.9686C47.919 54.8301 48.5433 54.7101 49.163 54.5901Z" fill="#DC2626"/>
<path d="M19.4402 78.7031C13.5391 78.7031 7.63795 78.7031 1.73682 78.7031C0.418773 78.7031 0.00254831 78.283 0.00254831 76.9488C0.00254831 65.1393 0.00254831 53.3298 0.00254831 41.5158C0.00254831 41.2988 -0.0113258 41.0772 0.0256719 40.8694C0.192162 39.923 1.22347 39.4798 2.02355 40.0107C2.26866 40.1723 2.47215 40.4031 2.68026 40.6109C14.5103 52.4204 26.3449 64.2298 38.175 76.0393C38.2906 76.1547 38.4062 76.2701 38.5172 76.3856C38.9242 76.8011 39.1323 77.2766 38.901 77.8537C38.6606 78.4538 38.1888 78.7031 37.5552 78.6985C36.7182 78.6939 35.8765 78.6985 35.0394 78.6985C29.8366 78.7031 24.6384 78.7031 19.4402 78.7031ZM34.2624 76.0762C23.7181 65.5502 13.1691 55.0196 2.64789 44.5166C2.64789 54.9641 2.64789 65.504 2.64789 76.0762C13.2385 76.0762 23.7828 76.0762 34.2624 76.0762Z" fill="#DC2626"/>
<path d="M51.9928 32.6887C51.9928 34.9324 51.9743 37.1761 52.0021 39.4151C52.0113 40.2554 51.683 40.7678 50.9106 41.1095C47.2016 42.7391 43.5111 44.415 39.7882 46.0123C39.3304 46.2062 38.6459 46.1924 38.1834 45.9939C34.4605 44.3965 30.77 42.7207 27.0564 41.0956C26.3164 40.7724 25.9788 40.2923 25.9834 39.4798C26.0019 34.9139 26.0019 30.348 25.9834 25.7822C25.9788 25.0066 26.2887 24.5218 26.9963 24.2079C30.7284 22.5644 34.4467 20.8839 38.1973 19.2773C38.6552 19.0834 39.3396 19.0834 39.7975 19.2819C43.5204 20.8793 47.2109 22.5551 50.9245 24.1802C51.7015 24.5218 52.0113 25.0435 51.9974 25.8791C51.9697 28.1505 51.9928 30.4219 51.9928 32.6887ZM28.6334 27.5827C28.6195 27.8781 28.5964 28.1136 28.5964 28.349C28.5964 31.6453 28.6103 34.9462 28.5779 38.2425C28.5733 38.8057 28.7814 39.0366 29.2577 39.2443C31.8337 40.3662 34.4004 41.5157 36.9671 42.6514C37.1799 42.7437 37.4019 42.8084 37.6886 42.9146C37.6886 39.1935 37.6978 35.5741 37.6655 31.9546C37.6655 31.733 37.3649 31.4145 37.129 31.3083C34.4975 30.1126 31.8522 28.9446 29.2069 27.7766C29.045 27.6981 28.8646 27.6565 28.6334 27.5827ZM40.2923 42.8315C40.4449 42.8407 40.505 42.8638 40.5513 42.8453C43.3724 41.6034 46.1934 40.3708 48.996 39.0966C49.1995 39.0043 49.3706 38.6026 49.3752 38.3441C49.4122 36.8021 49.3937 35.2648 49.3937 33.7228C49.3937 31.7007 49.3937 29.6786 49.3937 27.6704C49.2781 27.6473 49.218 27.615 49.1764 27.6334C46.3322 28.8846 43.488 30.1311 40.653 31.4052C40.4865 31.4791 40.3108 31.7561 40.3108 31.9408C40.2877 35.5556 40.2923 39.1751 40.2923 42.8315ZM30.5804 25.4682C30.8024 25.6067 30.881 25.6667 30.9735 25.7083C33.5125 26.8394 36.0468 27.9797 38.5997 29.0738C38.8679 29.1893 39.2841 29.1339 39.5708 29.0138C41.6288 28.132 43.673 27.2133 45.7171 26.2992C46.2443 26.0638 46.7715 25.8191 47.3126 25.5698C47.2294 25.4544 47.2109 25.3897 47.1739 25.3759C44.5609 24.2079 41.9526 23.0445 39.3304 21.8949C39.1408 21.8118 38.8494 21.8211 38.6552 21.9042C36.0052 23.0583 33.3691 24.231 30.5804 25.4682Z" fill="#DC2626"/>
<path d="M37.7505 9.97009C38.6061 9.97009 39.4107 9.97009 40.2524 9.97009C40.2524 12.103 40.2524 14.1943 40.2524 16.3549C39.4524 16.3549 38.6292 16.3549 37.7505 16.3549C37.7505 14.2635 37.7505 12.1537 37.7505 9.97009Z" fill="#DC2626"/>
<path d="M40.2478 56.6077C39.4154 56.6077 38.6153 56.6077 37.7505 56.6077C37.7505 54.4932 37.7505 52.3788 37.7505 50.2136C38.5598 50.2136 39.3784 50.2136 40.2478 50.2136C40.2478 52.3419 40.2478 54.4563 40.2478 56.6077Z" fill="#DC2626"/>
<path d="M17.4466 20.4452C19.2919 21.327 21.0586 22.1719 22.8853 23.049C22.5061 23.8431 22.1639 24.5679 21.7754 25.3805C19.9764 24.5264 18.2097 23.6861 16.3506 22.8043C16.7113 22.0287 17.0535 21.2854 17.4466 20.4452Z" fill="#DC2626"/>
<path d="M16.332 43.7871C18.1865 42.9008 19.9347 42.0698 21.7661 41.1973C22.136 41.9728 22.4922 42.7115 22.8853 43.5286C21.0585 44.4011 19.2918 45.2506 17.4605 46.1277C17.0859 45.3475 16.7298 44.6089 16.332 43.7871Z" fill="#DC2626"/>
<path d="M60.5083 20.436C60.9014 21.2578 61.2436 21.978 61.6229 22.7721C59.8007 23.6447 58.0341 24.4895 56.1934 25.3713C55.8142 24.5773 55.4581 23.8386 55.0742 23.0353C56.8964 22.1627 58.663 21.3178 60.5083 20.436Z" fill="#DC2626"/>
<path d="M14.3447 6.08301C15.1726 6.08301 15.9726 6.08301 16.8328 6.08301C16.8328 6.89091 16.8328 7.70805 16.8328 8.58521C16.0281 8.58521 15.2095 8.58521 14.3447 8.58521C14.3447 7.75883 14.3447 6.9417 14.3447 6.08301Z" fill="#DC2626"/>
<path d="M19.5366 6.07825C20.3876 6.07825 21.183 6.07825 22.0386 6.07825C22.0386 6.90929 22.0386 7.72648 22.0386 8.58984C21.2154 8.58984 20.3968 8.58984 19.5366 8.58984C19.5366 7.76342 19.5366 6.96469 19.5366 6.07825Z" fill="#DC2626"/>
<path d="M27.2503 8.60352C26.4086 8.60352 25.6085 8.60352 24.7529 8.60352C24.7529 7.78171 24.7529 6.96453 24.7529 6.09656C25.5715 6.09656 26.3901 6.09656 27.2503 6.09656C27.2503 6.90913 27.2503 7.70784 27.2503 8.60352Z" fill="#DC2626"/>
<path d="M14.3109 70.9195C12.6876 70.9195 11.069 70.9241 9.44572 70.9195C8.26641 70.9149 7.80394 70.4716 7.80394 69.3221C7.79932 66.0581 7.80857 62.7894 7.79932 59.5254C7.79932 58.8791 7.95656 58.3482 8.59014 58.0666C9.2746 57.7619 9.7787 58.0712 10.2504 58.5421C13.5525 61.8476 16.8591 65.1486 20.1704 68.4449C20.6375 68.9112 20.9798 69.4006 20.6977 70.0931C20.4017 70.8133 19.8005 70.9333 19.1021 70.9241C17.4974 70.9056 15.9018 70.9195 14.3109 70.9195ZM16.0544 68.2833C14.1953 66.4182 12.313 64.5253 10.4585 62.6648C10.4585 64.493 10.4585 66.3905 10.4585 68.2833C12.3917 68.2833 14.2693 68.2833 16.0544 68.2833Z" fill="#DC2626"/>
</svg>
