<svg width="70" height="80" viewBox="0 0 70 80" fill="none" xmlns="http://www.w3.org/2000/svg">
<path d="M53.263 0.847534C53.7172 1.28355 54.1846 1.71521 54.6301 2.1643C59.4958 7.01716 64.3527 11.8787 69.2315 16.7229C69.76 17.2461 70.0003 17.7868 70.0003 18.5367C69.9828 37.4031 69.9872 56.2652 69.9872 75.1316C69.9872 77.8305 68.524 79.2781 65.8072 79.2781C48.572 79.2781 31.3368 79.2781 14.1016 79.2781C13.9487 79.2781 13.7958 79.2825 13.643 79.2781C12.8175 79.2432 12.2802 78.7418 12.3021 78.0224C12.3239 77.3291 12.8393 76.8669 13.6342 76.832C13.8657 76.8233 14.0928 76.8277 14.3243 76.8277C31.4329 76.8277 48.5371 76.8277 65.6456 76.8277C67.218 76.8277 67.5368 76.5137 67.5368 74.9615C67.5368 56.4047 67.5325 37.8435 67.5499 19.2867C67.5499 18.7285 67.384 18.3492 66.9909 17.9568C62.8895 13.8888 58.81 9.80766 54.7262 5.72219C54.5471 5.54343 54.4117 5.32106 54.1191 4.93736C54.071 5.38646 54.0361 5.57395 54.0361 5.76143C54.0317 8.90075 54.0317 12.0401 54.0361 15.1794C54.0361 16.3741 54.4467 16.7796 55.6565 16.7796C57.8797 16.7839 60.1073 16.7752 62.3305 16.7839C63.2957 16.7883 63.8548 17.2505 63.8504 18.0178C63.8461 18.7765 63.2826 19.23 62.313 19.2343C60.0112 19.2387 57.7094 19.243 55.4076 19.2343C53.1625 19.2212 51.5901 17.6647 51.5858 15.4279C51.5727 11.7 51.5814 7.97204 51.5814 4.24846C51.5814 3.96941 51.5814 3.69472 51.5814 3.31102C51.2713 3.31102 51.0005 3.31102 50.7297 3.31102C38.0981 3.31102 25.4665 3.31102 12.8349 3.31102C11.4285 3.31102 11.0747 3.6642 11.0747 5.07689C11.0747 22.2298 11.0747 39.387 11.0747 56.5399C11.0747 56.8189 11.1009 57.1067 11.0529 57.3814C10.9349 58.0398 10.5244 58.4409 9.84738 58.4409C9.17037 58.4409 8.75543 58.0441 8.64187 57.3857C8.59382 57.111 8.62003 56.8276 8.62003 56.5442C8.62003 39.544 8.64187 22.5437 8.59383 5.54343C8.58509 3.24998 9.30577 1.64108 11.5377 0.864975C25.4403 0.847534 39.3516 0.847534 53.263 0.847534Z" fill="#DC2626"/>
<path d="M25.405 55.6678C24.1645 56.9061 22.911 58.1444 21.688 59.4045C21.5788 59.5178 21.5657 59.8274 21.6356 59.9931C22.5747 62.2386 22.1073 64.1658 20.4083 65.8619C16.4423 69.8078 12.5026 73.7799 8.52355 77.7128C5.7937 80.4117 1.40845 79.4307 0.272834 75.8815C-0.303712 74.0808 0.0238805 72.3934 1.34731 71.0548C5.49233 66.8516 9.65918 62.6746 13.8784 58.5455C15.3635 57.0936 17.2067 56.8363 19.1372 57.6386C19.6002 57.8305 19.8492 57.7738 20.1811 57.4293C21.3211 56.2608 22.496 55.1228 23.6972 53.9368C19.0542 48.3515 17.3639 42.0423 19.0848 34.9876C20.3078 29.9603 23.1556 25.9621 27.3967 22.9754C35.9051 16.9845 47.7199 18.3143 54.7258 26.0362C61.7885 33.8234 61.9588 45.5828 55.263 53.5008C48.1698 61.868 34.7258 63.8475 25.405 55.6678ZM39.3207 21.6804C29.1787 21.6717 20.9062 29.9036 20.8887 40.0192C20.8712 50.1435 29.1089 58.4147 39.2421 58.4409C49.4146 58.4714 57.7134 50.2089 57.7134 40.0628C57.7134 29.9429 49.4583 21.6891 39.3207 21.6804ZM5.25647 76.8408C5.54911 76.6925 6.19118 76.5312 6.59738 76.1301C10.7468 72.0446 14.8568 67.9286 18.9713 63.8039C19.5871 63.1847 19.8011 62.4043 19.5871 61.5453C19.1023 59.6138 16.8267 59.047 15.3591 60.5032C11.9173 63.9216 8.48861 67.3531 5.05555 70.7845C4.40475 71.4342 3.73211 72.062 3.11626 72.7422C2.41741 73.514 2.2689 74.4209 2.70131 75.3714C3.12935 76.3219 3.9112 76.7797 5.25647 76.8408Z" fill="#DC2626"/>
<path d="M36.9145 38.8377C40.8018 38.8377 44.6891 38.8377 48.5764 38.8377C48.8298 38.8377 49.0962 38.8116 49.3408 38.8683C49.9566 39.0121 50.3279 39.4133 50.3323 40.0586C50.3367 40.7039 49.9654 41.105 49.3495 41.2532C49.1049 41.3099 48.8429 41.2838 48.5852 41.2838C40.7581 41.2838 32.9355 41.2838 25.1084 41.2838C24.8769 41.2838 24.6411 41.3056 24.4183 41.2663C23.7588 41.1442 23.3569 40.7431 23.3526 40.0629C23.3482 39.3871 23.75 38.9773 24.4096 38.8552C24.6323 38.8116 24.8682 38.8377 25.0997 38.8377C29.0394 38.8377 32.9791 38.8377 36.9145 38.8377Z" fill="#DC2626"/>
<path d="M39.9152 47.4138C36.207 47.4138 32.4988 47.4138 28.7905 47.4138C28.559 47.4138 28.3232 47.4356 28.1004 47.3964C27.4409 47.2743 27.0391 46.8688 27.0391 46.193C27.0391 45.5172 27.4365 45.1074 28.0961 44.9853C28.3188 44.9417 28.5547 44.9679 28.7862 44.9679C36.2026 44.9679 43.6191 44.9679 51.0356 44.9679C51.2671 44.9679 51.5029 44.9461 51.7257 44.9853C52.3852 45.1074 52.787 45.5129 52.787 46.1887C52.787 46.8645 52.3852 47.27 51.73 47.3964C51.5073 47.44 51.2714 47.4138 51.0399 47.4138C47.3317 47.4138 43.6235 47.4138 39.9152 47.4138Z" fill="#DC2626"/>
<path d="M37.4547 32.7072C40.3942 32.7072 43.3381 32.6985 46.2776 32.7159C46.6445 32.7203 47.1424 32.7465 47.3477 32.9732C47.6316 33.2915 47.8456 33.8147 47.8151 34.2289C47.767 34.8045 47.2691 35.1359 46.6663 35.149C45.6443 35.1664 44.6222 35.1577 43.5958 35.1577C38.7126 35.1577 33.8294 35.1577 28.9419 35.1577C28.7366 35.1577 28.5314 35.1664 28.3304 35.1533C27.5442 35.1141 27.0332 34.6257 27.0332 33.9281C27.0332 33.2305 27.5442 32.7203 28.3304 32.7116C30.2217 32.6941 32.1129 32.7029 34.0085 32.7029C35.1529 32.7072 36.306 32.7072 37.4547 32.7072Z" fill="#DC2626"/>
<path d="M43.172 24.5973C43.6918 24.7673 44.4125 24.9461 45.0938 25.2295C50.4662 27.4663 53.777 31.4253 54.9694 37.1241C55.1572 38.0179 54.8078 38.6371 54.0871 38.8027C53.3839 38.9641 52.7855 38.5237 52.5933 37.6386C51.3965 32.1927 48.1338 28.6523 42.7877 27.0346C42.1194 26.8341 41.7351 26.4068 41.7875 25.6873C41.8224 25.0856 42.364 24.6147 43.172 24.5973Z" fill="#DC2626"/>
</svg>
