<svg width="84" height="85" viewBox="0 0 84 85" fill="none" xmlns="http://www.w3.org/2000/svg">
<path d="M10.3092 65.7053C13.0946 68.4754 15.7741 71.1353 18.5763 73.9245C19.2414 73.2445 19.9787 72.476 20.7353 71.7218C21.6027 70.8576 22.1039 70.7857 23.1207 71.4345C26.6507 73.6851 30.453 75.27 34.554 76.1606C35.8527 76.4431 36.1371 76.831 36.1419 78.1382C36.1443 79.1509 36.1419 80.1637 36.1419 81.2291C40.0116 81.2291 43.8163 81.2291 47.7077 81.2291C47.7077 79.9194 47.7029 78.641 47.7101 77.3625C47.7149 76.2157 48.2281 75.5645 49.1245 75.5453C50.0522 75.5262 50.5943 76.2013 50.5991 77.396C50.6039 79.0408 50.6064 80.688 50.5991 82.3328C50.5943 83.6376 50.0979 84.1523 48.8185 84.1523C44.2114 84.1595 39.602 84.1595 34.9949 84.1523C33.7709 84.1499 33.2649 83.6232 33.2553 82.383C33.2456 81.2195 33.2528 80.0559 33.2528 78.8445C29.3253 77.894 25.6676 76.4144 21.9569 74.1376C21.2172 74.9803 20.4823 75.8853 19.6751 76.7209C18.7715 77.6546 18.039 77.6474 17.121 76.7376C13.8994 73.5486 10.6851 70.3524 7.4756 67.149C6.56479 66.2392 6.57925 65.5353 7.51174 64.6112C8.31894 63.8091 9.15023 63.0286 10.0128 62.1979C7.87076 58.7287 6.31179 55.092 5.3552 51.1153C4.17694 51.1153 3.00831 51.1201 1.83968 51.1129C0.49757 51.1057 0.00602385 50.6125 0.00361431 49.2574C-0.00120477 44.7396 -0.00120477 40.2195 0.00361431 35.7017C0.00602385 34.3657 0.502389 33.8869 1.87101 33.8797C2.9553 33.8725 4.03959 33.8701 5.12389 33.863C5.18172 33.863 5.23713 33.8294 5.23954 33.8294C5.89735 31.9405 6.45636 30.0491 7.21296 28.2391C7.96955 26.4219 8.91891 24.6861 9.84417 22.79C9.11167 22.0478 8.29243 21.2266 7.48042 20.3958C6.57202 19.4693 6.55756 18.7534 7.46355 17.8508C10.6731 14.6498 13.8898 11.4536 17.1113 8.2646C18.0246 7.362 18.7426 7.37636 19.6703 8.29572C20.4775 9.09776 21.2654 9.92375 22.1063 10.7856C25.5881 8.65006 29.253 7.113 33.2553 6.15534C33.2553 4.96305 33.248 3.77075 33.2577 2.57846C33.2673 1.35026 33.7781 0.840301 35.0263 0.837906C39.6333 0.830724 44.2428 0.830724 48.8498 0.837906C50.0835 0.840301 50.5943 1.35744 50.6015 2.59522C50.6112 4.29986 50.6112 6.0069 50.6015 7.71154C50.5967 8.77934 50.0594 9.42576 49.192 9.44492C48.2908 9.46646 47.7221 8.80089 47.7149 7.6876C47.7077 6.40433 47.7125 5.11867 47.7125 3.77075C43.8645 3.77075 40.0598 3.77075 36.1467 3.77075C36.1467 4.83855 36.1515 5.90395 36.1443 6.97175C36.1371 8.11855 35.8311 8.53753 34.6986 8.78413C30.5132 9.70349 26.6218 11.3076 23.0171 13.6132C22.1039 14.1997 21.5497 14.1207 20.769 13.3546C19.998 12.6148 19.251 11.8415 18.5474 11.1352C15.7909 13.8789 13.0971 16.5556 10.3044 19.3328C10.9983 19.9912 11.7646 20.6999 12.5091 21.4325C13.3838 22.2968 13.4585 22.8067 12.8127 23.8027C10.5405 27.3078 8.94782 31.0857 8.05148 35.1606C7.76233 36.4798 7.37681 36.7503 5.97927 36.7527C4.98895 36.7551 3.99863 36.7527 2.95048 36.7527C2.95048 40.5882 2.95048 44.3685 2.95048 48.2447C4.042 48.2447 5.11666 48.2399 6.19372 48.2471C7.33584 48.2543 7.7551 48.5631 8.00811 49.6956C8.93096 53.8542 10.5454 57.7208 12.873 61.2977C13.4561 62.1931 13.3766 62.7581 12.5983 63.5314C11.8345 64.2928 11.0393 65.0158 10.3092 65.7053Z" fill="#DC2626"/>
<path d="M47.6093 62.6128C49.8381 62.6128 52.0646 62.5984 54.2934 62.6224C54.8789 62.6296 55.2355 62.5338 55.5512 61.9305C56.4668 60.1899 58.4956 59.3951 60.3992 59.9002C62.3051 60.4054 63.6159 62.1029 63.6111 64.0637C63.6063 65.979 62.3003 67.6884 60.4618 68.1864C58.5077 68.7131 56.4861 67.9183 55.5343 66.1442C55.2403 65.5959 54.9199 65.4738 54.3536 65.4762C50.349 65.4978 46.3443 65.4906 42.3397 65.4858C30.4582 65.4738 21.0249 57.5492 19.0442 45.9159C17.0057 33.9499 25.7307 21.8307 37.8145 19.901C39.3229 19.6592 40.865 19.5539 42.3951 19.5347C46.3997 19.4844 50.4044 19.506 54.409 19.5323C54.9584 19.5347 55.2428 19.3863 55.5102 18.8859C56.4523 17.1262 58.4233 16.3002 60.3341 16.7862C62.2666 17.277 63.5942 18.941 63.6135 20.8946C63.6328 22.8985 62.3148 24.6055 60.3582 25.1131C58.4523 25.6087 56.4596 24.7971 55.5247 23.0422C55.2307 22.4891 54.9006 22.3766 54.3392 22.379C50.2743 22.3981 46.2094 22.3814 42.1445 22.3909C31.9136 22.4149 23.6223 29.3867 21.9164 39.3895C20.0345 50.4218 28.3065 61.3391 39.4892 62.4117C42.171 62.6679 44.8986 62.45 47.6069 62.45C47.6093 62.5051 47.6093 62.5578 47.6093 62.6128ZM59.2402 19.5251C58.4595 19.5467 57.8306 20.1931 57.8354 20.9688C57.8402 21.7756 58.5438 22.4316 59.3534 22.3862C60.1269 22.3407 60.7437 21.6679 60.7124 20.8994C60.6835 20.1261 60.0161 19.5036 59.2402 19.5251ZM59.2715 65.4786C60.0474 65.4786 60.698 64.8418 60.7124 64.0709C60.7269 63.2688 60.0377 62.5913 59.2281 62.6152C58.4547 62.6391 57.821 63.2975 57.833 64.0685C57.8475 64.8418 58.498 65.4786 59.2715 65.4786Z" fill="#DC2626"/>
<path d="M53.0446 52.5569C56.8685 52.5569 60.6948 52.5473 64.5188 52.5665C65.0513 52.5689 65.3573 52.4564 65.632 51.9368C66.5862 50.1388 68.5861 49.3248 70.5354 49.8443C72.4365 50.3519 73.7425 52.0589 73.7329 54.0197C73.7232 55.9351 72.41 57.6373 70.5667 58.1281C68.6078 58.6501 66.5982 57.8504 65.6488 56.0644C65.3501 55.5041 65.0079 55.4131 64.4561 55.4155C56.9576 55.4275 49.4592 55.4443 41.9607 55.4179C34.5779 55.394 28.8191 49.5355 28.9203 42.2069C29.0142 35.3644 34.7345 29.6352 41.6354 29.5825C49.1941 29.5275 56.7528 29.561 64.3116 29.5753C64.9573 29.5777 65.3597 29.4748 65.7139 28.8164C66.6392 27.0902 68.6945 26.3336 70.598 26.8652C72.4534 27.3847 73.7377 29.0726 73.7377 30.9951C73.7401 32.9176 72.4582 34.6079 70.6053 35.1346C68.7066 35.6733 66.6512 34.9191 65.7187 33.1929C65.3645 32.5393 64.9694 32.4268 64.3188 32.4268C56.8805 32.4435 49.4423 32.4124 42.0041 32.4459C36.2139 32.4723 31.725 37.0164 31.8141 42.6834C31.8984 47.9912 36.2284 52.4109 41.5752 52.5234C45.3991 52.6024 49.223 52.5378 53.0494 52.5378C53.0446 52.5497 53.0446 52.5521 53.0446 52.5569ZM69.3836 32.4388C70.1595 32.4436 70.8149 31.8115 70.8342 31.0406C70.8535 30.2697 70.227 29.6065 69.4511 29.5777C68.6391 29.5466 67.95 30.2122 67.9572 31.019C67.962 31.7947 68.6054 32.434 69.3836 32.4388ZM69.3523 55.4227C70.1258 55.4443 70.7956 54.8218 70.8318 54.0533C70.8703 53.2512 70.1981 52.5569 69.386 52.5617C68.6126 52.5641 67.962 53.2057 67.9524 53.9766C67.9451 54.7452 68.5788 55.4012 69.3523 55.4227Z" fill="#DC2626"/>
<path d="M57.7976 41.0641C63.395 41.0641 68.9948 41.057 74.5921 41.0737C75.1535 41.0761 75.4788 40.9612 75.7752 40.4081C76.7077 38.658 78.7004 37.8511 80.6087 38.3419C82.5267 38.8375 83.8472 40.5183 83.8544 42.4767C83.8616 44.4352 82.5436 46.1542 80.6545 46.645C78.7365 47.1454 76.7246 46.3601 75.7993 44.6267C75.4861 44.0378 75.1415 43.9228 74.5463 43.9252C63.4697 43.9396 52.393 43.9348 41.3164 43.9348C41.0465 43.9348 40.7742 43.9468 40.5043 43.93C39.6393 43.8702 39.0586 43.3027 39.0466 42.5198C39.0345 41.7034 39.6369 41.1168 40.5525 41.0665C40.7935 41.0522 41.0344 41.0617 41.2754 41.0617C46.7812 41.0641 52.2894 41.0641 57.7976 41.0641ZM80.9557 42.4839C80.9485 41.713 80.3003 41.0737 79.522 41.0689C78.7486 41.0641 78.0908 41.701 78.0763 42.4719C78.0595 43.2788 78.7438 43.9563 79.5534 43.9324C80.3268 43.9085 80.963 43.2524 80.9557 42.4839Z" fill="#DC2626"/>
</svg>
