<svg width="84" height="85" viewBox="0 0 84 85" fill="none" xmlns="http://www.w3.org/2000/svg">
<path d="M2.84156 42.6032C2.84156 46.357 2.84156 50.0041 2.84156 53.7533C3.94069 53.7533 5.00722 53.7509 6.07375 53.7533C7.30096 53.7579 7.56643 54.0506 8.00655 55.2028C8.78898 57.2563 9.63894 59.2865 10.5332 61.2935C10.9966 62.3319 11.0198 62.7523 10.2328 63.5444C9.47593 64.3087 8.70282 65.0544 8.02517 65.721C10.6729 68.3669 13.2903 70.9825 15.9846 73.6725C16.6575 72.9756 17.447 72.1695 18.2247 71.3495C18.8372 70.7014 19.4822 70.7107 20.2763 71.0568C22.3977 71.986 24.5378 72.8803 26.6988 73.7096C27.5557 74.0395 27.9865 74.518 27.9656 75.4356C27.94 76.5343 27.9586 77.6331 27.9586 78.7852C31.6938 78.7852 35.3707 78.7852 39.1362 78.7852C39.1362 77.6354 39.1478 76.5111 39.1315 75.3891C39.1199 74.5134 39.5297 74.0488 40.3587 73.7305C42.5477 72.8873 44.7087 71.9721 46.8604 71.0382C47.6195 70.7084 48.2506 70.7084 48.8397 71.324C49.6245 72.1416 50.4186 72.95 51.1288 73.6794C53.7905 71.0266 56.3986 68.4319 59.1185 65.721C58.4572 65.0846 57.6631 64.3366 56.89 63.57C56.0773 62.7639 56.0889 62.3505 56.5407 61.3307C57.4418 59.2958 58.2988 57.2377 59.0975 55.161C59.519 54.0669 59.8101 53.7602 60.9744 53.7556C62.0456 53.7509 63.1168 53.7556 64.2346 53.7556C64.2346 50.0366 64.2346 46.3896 64.2346 42.652C63.0796 42.652 61.9013 42.652 60.6577 42.652C60.6577 41.6833 60.6577 40.8052 60.6577 39.8366C62.3926 39.8366 64.1298 39.7901 65.8623 39.8575C66.6168 39.8877 67.0639 40.4568 67.0662 41.2234C67.0802 45.8692 67.0849 50.5151 67.0616 55.161C67.0569 56.0135 66.4748 56.5176 65.5782 56.5385C64.5024 56.564 63.4242 56.5687 62.3484 56.5362C61.843 56.5222 61.6009 56.6593 61.4099 57.1726C60.8673 58.6384 60.2526 60.0786 59.6075 61.5026C59.4072 61.9463 59.4142 62.2088 59.7798 62.5456C60.5483 63.2541 61.2795 64.0044 62.0084 64.7547C62.8001 65.57 62.8001 66.2878 61.9944 67.0962C58.8321 70.2647 55.6627 73.4262 52.4841 76.5808C51.6784 77.3799 50.9728 77.3613 50.1415 76.5529C49.3916 75.8235 48.6395 75.0941 47.9199 74.3345C47.6125 74.0116 47.3704 73.9675 46.9465 74.1556C45.4632 74.8153 43.9426 75.3961 42.4592 76.0581C42.2217 76.165 41.9585 76.5181 41.9469 76.7689C41.891 77.8398 41.9329 78.9153 41.9189 79.9908C41.905 81.1221 41.3973 81.6285 40.2493 81.6308C35.7666 81.6378 31.2839 81.6401 26.8012 81.6308C25.6672 81.6285 25.1712 81.1105 25.1572 79.963C25.1455 78.9176 25.1362 77.8723 25.1618 76.827C25.1735 76.3903 25.0477 76.1766 24.6053 76.007C23.087 75.4286 21.6036 74.7619 20.0877 74.1789C19.8455 74.0859 19.41 74.1533 19.2214 74.3206C18.4227 75.0383 17.6915 75.8328 16.9184 76.5785C16.0987 77.3683 15.3861 77.3659 14.5734 76.5599C11.3994 73.403 8.22777 70.2415 5.06544 67.073C4.2667 66.2739 4.283 65.5654 5.09338 64.7361C5.82458 63.9881 6.55811 63.2401 7.31959 62.5224C7.6456 62.2157 7.68519 61.9718 7.49657 61.5514C6.83523 60.0717 6.25306 58.5548 5.59172 57.0751C5.48693 56.8381 5.12831 56.578 4.87681 56.5663C3.8033 56.5106 2.72512 56.5524 1.64695 56.5385C0.512889 56.5245 0.00756817 56.0181 0.0052395 54.8706C-0.0017465 50.399 -0.0017465 45.9273 0.0052395 41.4556C0.00756817 40.3244 0.522204 39.8296 1.67489 39.818C2.7228 39.8064 3.7707 39.7994 4.8186 39.8226C5.25406 39.8319 5.46597 39.7181 5.63596 39.2698C6.21347 37.7552 6.88646 36.2778 7.47328 34.7656C7.56643 34.524 7.50355 34.0873 7.33356 33.9015C6.59304 33.0838 5.77568 32.3358 5.01188 31.539C4.2993 30.8003 4.29698 30.057 5.02352 29.3276C8.22544 26.1173 11.4367 22.914 14.6549 19.7199C15.3814 18.9998 16.115 19.0161 16.8741 19.7408C17.6309 20.4633 18.3761 21.1996 19.091 21.9616C19.438 22.3309 19.7058 22.3983 20.2041 22.1683C21.599 21.5249 23.0241 20.9418 24.4656 20.4075C24.9919 20.2124 25.1875 19.9801 25.1642 19.4203C25.1199 18.3773 25.1362 17.3296 25.1549 16.2843C25.1735 15.2576 25.6928 14.7349 26.7314 14.7326C31.2723 14.721 35.8132 14.721 40.3541 14.7326C41.381 14.7349 41.8957 15.2692 41.912 16.3052C41.9306 17.3784 41.9306 18.4539 41.9096 19.5271C41.9003 19.9569 42.0098 20.1706 42.4639 20.3425C43.9845 20.9162 45.4632 21.5922 46.9791 22.1776C47.2213 22.2705 47.6591 22.2101 47.8477 22.0429C48.6674 21.3042 49.4173 20.4911 50.216 19.7269C50.9588 19.0161 51.6831 19.0254 52.4352 19.7292C52.9825 20.2426 53.518 20.7653 54.0723 21.2972C53.3527 21.9802 52.7263 22.5748 52.051 23.2136C51.867 23.065 51.6062 22.8536 51.2523 22.5679C50.4628 23.3716 49.6664 24.1637 48.891 24.9767C48.2529 25.6481 47.5986 25.6457 46.7696 25.2764C44.6807 24.3472 42.5617 23.4761 40.4309 22.6445C39.4436 22.2589 39.1339 21.95 39.1269 20.8744C39.1199 19.8012 39.1245 18.728 39.1245 17.5852C35.4196 17.5852 31.7427 17.5852 27.9469 17.5852C27.9469 18.656 27.9516 19.7478 27.9469 20.8396C27.9423 21.9569 27.6209 22.2821 26.5986 22.677C24.4912 23.4901 22.4 24.3495 20.3322 25.2532C19.3518 25.6829 18.9117 25.6968 18.1502 24.9372C17.3725 24.1591 16.6203 23.3577 15.8984 22.6073C13.2204 25.2903 10.6147 27.8943 7.92737 30.582C8.6609 31.2882 9.45963 32.0408 10.2351 32.8143C11.0012 33.5809 10.9942 34.0292 10.5704 34.9909C9.6599 37.0537 8.78898 39.135 7.97161 41.2373C7.5641 42.2873 7.26836 42.5939 6.1506 42.6009C5.07941 42.6078 4.00589 42.6032 2.84156 42.6032Z" fill="#DC2626"/>
<path d="M69.8798 9.58718C68.7271 8.66265 67.6046 7.74974 66.4706 6.85309C65.935 6.43032 65.5438 5.94483 65.7301 5.2224C65.914 4.51391 66.4683 4.24909 67.1412 4.10275C72.0245 3.04814 76.9077 1.97727 81.7885 0.911049C83.1601 0.611392 83.882 1.17122 83.8331 2.558C83.6631 7.45938 83.4722 12.3607 83.2929 17.2644C83.2673 17.952 83.0577 18.5235 82.3684 18.8022C81.6651 19.0879 81.1365 18.772 80.6615 18.2796C79.7975 17.3852 78.9243 16.5002 78.0161 15.571C75.4918 18.4166 73.0467 21.1763 70.5993 23.9359C66.1283 28.9813 61.6712 34.0383 57.1652 39.0512C56.795 39.4646 56.0801 39.7713 55.5212 39.7806C51.8256 39.8456 48.13 39.7945 44.4344 39.8363C43.9338 39.841 43.3516 40.0431 42.9487 40.345C39.7328 42.7423 36.5542 45.1883 33.3616 47.6135C32.2555 48.4544 31.6454 48.38 30.7814 47.3068C29.0885 45.2023 27.3979 43.0954 25.7119 40.9838C24.8713 39.9292 24.9761 39.23 26.0892 38.4519C30.5416 35.3368 34.9917 32.2194 39.465 29.1346C39.8632 28.8582 40.4244 28.6956 40.9111 28.6886C44.0828 28.6491 47.2544 28.6816 50.4261 28.6514C50.787 28.6491 51.2504 28.5121 51.4926 28.2658C57.5308 22.1798 63.5435 16.0705 69.5607 9.96349C69.6632 9.85896 69.7493 9.74281 69.8798 9.58718ZM70.4456 6.27236C70.4689 6.37225 70.4619 6.44658 70.4945 6.47446C71.1908 7.0459 71.8964 7.60572 72.5903 8.17716C73.6173 9.02271 73.6638 9.77998 72.7207 10.737C66.1353 17.4247 59.5521 24.1124 52.934 30.7676C52.5545 31.1486 51.8792 31.4018 51.3296 31.4204C49.2082 31.4947 47.0681 31.6085 44.963 31.4111C42.164 31.1486 39.8912 31.943 37.6906 33.6782C34.8007 35.957 31.678 37.9431 28.5832 40.1035C29.8639 41.6993 31.1121 43.2533 32.3882 44.8445C35.5808 42.4171 38.7106 40.0059 41.8869 37.6597C42.3805 37.295 43.0908 37.0627 43.7055 37.0535C47.3126 36.9977 50.9198 37.014 54.5269 37.0395C55.0764 37.0442 55.428 36.8746 55.7843 36.4634C57.5355 34.4448 59.3192 32.4541 61.0914 30.454C66.2563 24.6281 71.419 18.7999 76.5863 12.9763C77.5154 11.931 78.2094 11.9171 79.22 12.8973C79.6229 13.2899 80.0211 13.6871 80.5939 14.2516C80.7243 10.6697 80.8454 7.3502 80.9689 3.94247C77.6272 4.66722 74.395 5.36874 71.1652 6.07259C70.9253 6.12602 70.6878 6.205 70.4456 6.27236Z" fill="#DC2626"/>
<path d="M33.5048 27.3014C33.5048 28.2213 33.5048 29.0808 33.5048 30.0076C26.8937 30.284 21.6542 33.0716 18.1007 38.6884C15.5019 42.7977 14.7521 47.3181 15.8139 52.0593C17.9982 61.8133 27.5039 67.9412 37.2633 65.9133C47.0228 63.8853 53.9902 53.9641 50.9978 43.0091C51.8338 42.7536 52.6768 42.4957 53.5174 42.2379C55.562 47.6155 54.7935 56.9862 47.8029 63.4881C40.9426 69.8669 30.4822 70.9029 22.5228 65.9435C14.3911 60.8818 10.6792 51.0999 13.5155 42.0218C16.4683 32.5745 25.1542 27.2224 33.5048 27.3014Z" fill="#DC2626"/>
<path d="M79.8741 55.7924C80.0651 55.9179 80.2537 56.0456 80.447 56.1687C82.6569 57.5672 83.8072 59.5719 83.8375 62.1805C83.8631 64.3571 83.8212 66.536 83.8538 68.7126C83.8654 69.5768 83.572 70.2295 82.7477 70.4757C81.269 70.9171 80.9453 71.8509 81.0082 73.3237C81.1409 76.4248 81.0524 79.5329 81.0478 82.641C81.0454 83.9418 80.5634 84.4134 79.2477 84.4157C76.7165 84.4203 74.1852 84.4203 71.6516 84.4157C70.3476 84.4134 69.8725 83.9372 69.8725 82.6224C69.8679 79.138 69.8586 75.6559 69.8819 72.1715C69.8865 71.5861 69.7934 71.161 69.167 70.9821C67.4181 70.4874 66.8686 69.3189 67.0479 67.5604C67.1946 66.1249 67.1364 64.6568 67.0665 63.2096C66.9058 59.9528 68.0795 57.4394 71.0695 55.8157C70.0355 54.3313 69.5861 52.7378 70.0542 50.97C70.3918 49.6901 71.0974 48.654 72.1686 47.8666C74.3133 46.2893 77.2544 46.4519 79.2384 48.2545C81.3621 50.1895 81.6043 52.9515 79.8741 55.7924ZM72.6669 81.5655C74.5881 81.5655 76.4021 81.5655 78.2557 81.5655C78.2557 78.4597 78.2441 75.4166 78.258 72.3736C78.272 69.4792 77.9041 69.7487 80.5424 68.4571C80.78 68.341 81.0222 67.9507 81.0268 67.6836C81.0664 65.7997 81.0757 63.9134 81.0384 62.0272C80.9919 59.7484 79.1918 57.9899 76.8958 57.9388C75.9946 57.9179 75.0934 57.9272 74.1922 57.9365C71.654 57.9621 69.8912 59.7391 69.8725 62.2943C69.8632 63.7741 69.9703 65.2607 69.8399 66.7288C69.7328 67.9135 70.138 68.564 71.2301 68.9054C72.3758 69.2655 72.7112 70.0715 72.6879 71.2493C72.625 74.6663 72.6669 78.0857 72.6669 81.5655ZM78.2534 52.3754C78.2627 50.8632 77.0145 49.5948 75.5009 49.5739C73.978 49.553 72.7019 50.7842 72.6716 52.2987C72.6413 53.8458 73.9197 55.1467 75.4683 55.1443C76.9819 55.1397 78.2441 53.8876 78.2534 52.3754Z" fill="#DC2626"/>
<path d="M43.2795 60.6821C42.376 60.6821 41.5144 60.6821 40.5923 60.6821C40.5923 56.0827 40.5923 51.4903 40.5923 46.8398C41.4702 46.8398 42.3504 46.8398 43.2795 46.8398C43.2795 51.4346 43.2795 56.0061 43.2795 60.6821Z" fill="#DC2626"/>
<path d="M37.677 60.6816C36.7525 60.6816 35.8909 60.6816 34.9873 60.6816C34.9873 57.4621 34.9873 54.2844 34.9873 51.0347C35.8513 51.0347 36.7339 51.0347 37.677 51.0347C37.677 54.2147 37.677 57.4133 37.677 60.6816Z" fill="#DC2626"/>
<path d="M32.1174 53.8228C32.1174 56.1109 32.1174 58.3595 32.1174 60.6663C31.2093 60.6663 30.3267 60.6663 29.3999 60.6663C29.3999 58.3944 29.3999 56.1434 29.3999 53.8228C30.2592 53.8228 31.1417 53.8228 32.1174 53.8228Z" fill="#DC2626"/>
<path d="M26.5432 56.5938C26.5432 57.9806 26.5432 59.2815 26.5432 60.6521C25.6513 60.6521 24.7688 60.6521 23.8257 60.6521C23.8257 59.3326 23.8257 57.9922 23.8257 56.5938C24.7059 56.5938 25.5861 56.5938 26.5432 56.5938Z" fill="#DC2626"/>
</svg>
