<svg width="73" height="74" viewBox="0 0 73 74" fill="none" xmlns="http://www.w3.org/2000/svg">
<path d="M17.6174 59.8693C17.6174 57.4374 17.6174 55.1127 17.6174 52.7881C17.6174 51.4604 18.0115 51.0759 19.364 51.0759C24.3438 51.0759 29.3236 51.0759 34.3079 51.0759C34.59 51.0759 34.8722 51.0759 35.2394 51.0759C35.2394 50.7317 35.2394 50.4545 35.2394 50.1729C35.2394 47.2403 35.2349 44.3121 35.2394 41.3795C35.2394 40.1948 35.6648 39.7701 36.8471 39.7701C41.8269 39.7657 46.8067 39.7701 51.791 39.7701C52.1045 39.7701 52.4179 39.7701 52.8613 39.7701C52.8613 39.4706 52.8613 39.1979 52.8613 38.9252C52.8613 35.626 52.8613 32.3313 52.8613 29.0321C52.8613 27.5479 53.2151 27.2082 54.7287 27.2037C57.0082 27.2037 59.2831 27.2037 61.6118 27.2037C61.6342 26.9668 61.67 26.7701 61.67 26.5689C61.6745 24.3963 61.6566 22.2236 61.6834 20.051C61.6879 19.5637 61.5446 19.3178 61.0968 19.1077C56.211 16.8278 51.3432 14.5166 46.4619 12.2277C45.8707 11.9505 45.3199 11.6555 45.3065 10.9C45.293 10.1445 45.8349 9.83153 46.4081 9.52754C51.5536 6.76928 56.6902 4.00654 61.8312 1.23933C63.3628 0.416765 64.1868 0.895103 64.1868 2.6207C64.1868 10.4708 64.1868 18.3209 64.1868 26.171C64.1868 26.4795 64.1868 26.7924 64.1868 27.159C64.4913 27.1724 64.7421 27.1948 64.9974 27.1948C67.0932 27.1992 69.1935 27.1948 71.2893 27.1992C72.588 27.1992 73 27.6016 73 28.8667C73 43.2616 73 57.652 73 72.0468C73 73.2672 72.5746 73.683 71.3386 73.683C63.4479 73.683 55.5572 73.683 47.6665 73.683C32.4091 73.683 17.1517 73.683 1.89431 73.683C0.340352 73.683 0 73.3477 0 71.8009C0 68.3721 0 64.9433 0 61.5144C0 60.2761 0.411992 59.8604 1.64351 59.8604C6.6502 59.8559 11.6569 59.8604 16.6636 59.8604C16.9457 59.8693 17.2278 59.8693 17.6174 59.8693ZM2.57051 62.3817C2.57051 65.3635 2.57051 68.2514 2.57051 71.1169C25.2349 71.1169 47.8412 71.1169 70.4384 71.1169C70.4384 57.2988 70.4384 43.5432 70.4384 29.7653C65.4094 29.7653 60.4206 29.7653 55.3736 29.7653C55.3736 30.0961 55.3736 30.3822 55.3736 30.6638C55.3736 33.963 55.3736 37.2578 55.3736 40.5569C55.3736 41.8891 54.9795 42.2825 53.6405 42.2825C48.6338 42.2825 43.6271 42.2825 38.6204 42.2825C38.3428 42.2825 38.0696 42.2825 37.7561 42.2825C37.7561 45.537 37.7561 48.6753 37.7561 51.8135C37.7561 53.2083 37.38 53.5928 35.9962 53.5928C31.0164 53.5928 26.0366 53.5928 21.0523 53.5928C20.7701 53.5928 20.488 53.5928 20.1342 53.5928C20.1342 53.9236 20.1342 54.1784 20.1342 54.4332C20.1342 56.5254 20.1387 58.622 20.1342 60.7142C20.1342 61.9838 19.7222 62.3862 18.428 62.3862C15.4903 62.3906 12.557 62.3862 9.61929 62.3862C7.28612 62.3817 4.95742 62.3817 2.57051 62.3817ZM49.3638 10.7927C53.5151 12.7507 57.5455 14.6551 61.6028 16.5685C61.6028 12.4065 61.6028 8.35182 61.6028 4.21218C57.5097 6.41164 53.5062 8.5664 49.3638 10.7927Z" fill="#DC2626"/>
<path d="M41.5213 27.7981C30.0122 34.3965 18.5971 40.9457 7.13281 47.5173C6.71185 46.7842 6.32225 46.1136 5.87891 45.3447C17.3432 38.7686 28.7717 32.2149 40.2629 25.621C39.8867 24.9996 39.5463 24.4274 39.1926 23.8596C38.8746 23.35 38.7985 22.8359 39.1567 22.3218C39.524 21.7943 40.0614 21.7272 40.6301 21.8703C42.1796 22.2592 43.7246 22.6526 45.2606 23.0818C46.0801 23.3098 46.416 23.882 46.2144 24.7001C45.8293 26.2737 45.4039 27.8383 44.9874 29.403C44.8396 29.9573 44.4903 30.3195 43.8947 30.3776C43.3081 30.4357 42.8916 30.1764 42.605 29.6712C42.2646 29.0633 41.9064 28.4597 41.5213 27.7981Z" fill="#DC2626"/>
</svg>
