<svg width="84" height="85" viewBox="0 0 84 85" fill="none" xmlns="http://www.w3.org/2000/svg">
<path d="M57.3371 43.8079C56.3507 43.8079 55.4899 43.8079 54.5663 43.8079C54.5663 35.0517 54.5663 26.3394 54.5663 17.4976C54.1987 17.4976 53.8916 17.4976 53.5869 17.4976C38.2348 17.4976 22.885 17.4976 7.53296 17.4976C4.58306 17.4976 2.90106 19.1827 2.89873 22.1323C2.8964 23.7781 2.89873 25.424 2.89873 27.1368C1.9891 27.1368 1.10738 27.1368 0 27.1368C0.116321 24.712 -0.027908 22.2294 0.416439 19.8577C1.012 16.6908 3.94562 14.726 7.3864 14.7237C20.8192 14.7191 34.2496 14.7214 47.6824 14.7214C49.9414 14.7214 52.2003 14.7214 54.5011 14.7214C54.5011 13.7806 54.5011 12.9253 54.5011 11.9475C53.6683 11.9475 52.8377 11.9359 52.0095 11.9521C51.3046 11.966 50.7509 11.7441 50.4671 11.0622C50.1949 10.408 50.4508 9.89019 50.9161 9.42556C53.6101 6.75107 56.2971 4.06965 59.0004 1.40209C59.7775 0.634646 60.487 0.643892 61.278 1.42289C63.979 4.09045 66.6683 6.77188 69.36 9.44868C69.8276 9.91331 70.0579 10.4427 69.7718 11.0922C69.4903 11.7279 68.9669 11.9567 68.2968 11.9498C67.4617 11.9382 66.6265 11.9475 65.7517 11.9475C65.7517 12.8883 65.7517 13.7436 65.7517 14.6705C66.003 14.6867 66.2519 14.7191 66.5032 14.7191C67.9851 14.7237 69.4694 14.7191 70.9513 14.7214C75.3064 14.7329 78.2679 17.6848 78.2725 22.0329C78.2795 30.2367 78.2749 38.4404 78.2749 46.6465C78.2749 47.5342 78.2749 48.4218 78.2749 49.3511C77.3303 49.3511 76.4696 49.3511 75.4832 49.3511C75.4832 49.0182 75.4832 48.6853 75.4832 48.3525C75.4832 40.9 75.3692 33.4428 75.5134 25.9926C75.667 18.0454 74.8899 17.2063 66.8847 17.493C66.5381 17.5045 66.1914 17.4953 65.7494 17.4953C65.7494 25.8031 65.7494 34.0762 65.7494 42.4048C64.7746 42.4048 63.8929 42.4048 62.9205 42.4048C62.9205 42.0765 62.9205 41.7668 62.9205 41.4594C62.9205 31.3763 62.9205 21.2955 62.9205 11.2124C62.9205 9.59893 63.2625 9.24064 64.6769 9.15742C63.1764 7.66646 61.5805 6.0784 60.045 4.55276C58.6236 5.96745 57.03 7.55088 55.4457 9.12968C55.5597 9.13893 55.797 9.1528 56.0319 9.18516C56.7927 9.28918 57.2277 9.72376 57.3254 10.482C57.3464 10.653 57.3371 10.8287 57.3371 11.0021C57.3371 21.6908 57.3371 32.3795 57.3371 43.0682C57.3371 43.2924 57.3371 43.5167 57.3371 43.8079Z" fill="#DC2626"/>
<path d="M23.8376 53.5182C24.8147 53.5182 25.6778 53.5182 26.6293 53.5182C26.6293 53.1715 26.6293 52.864 26.6293 52.5543C26.6293 46.1396 26.6293 39.7273 26.6293 33.3127C26.6293 31.7778 27.0457 31.3663 28.5928 31.3663C31.0635 31.364 33.5365 31.3617 36.0071 31.3663C37.3169 31.3686 37.7915 31.8402 37.7938 33.1439C37.7985 39.5586 37.7962 45.9709 37.7962 52.3855C37.7962 52.73 37.7962 53.0767 37.7962 53.4882C38.7081 53.4882 39.5898 53.4882 40.5879 53.4882C40.5879 53.1669 40.5879 52.8317 40.5879 52.4965C40.5879 42.8757 40.5879 33.2549 40.5879 23.634C40.5879 22.0506 40.9927 21.6553 42.6072 21.6553C45.1081 21.6553 47.609 21.6484 50.1099 21.6576C51.208 21.6623 51.7477 22.1685 51.75 23.2272C51.7593 30.8832 51.7547 38.5391 51.7524 46.1951C51.7524 46.3061 51.7291 46.4147 51.7105 46.5696C50.8241 46.5696 49.9634 46.5696 49.0049 46.5696C49.0049 39.2372 49.0049 31.8887 49.0049 24.4847C47.0995 24.4847 45.2872 24.4847 43.4098 24.4847C43.4098 35.0648 43.4098 45.6288 43.4098 56.2598C31.2985 56.2598 19.2522 56.2598 7.14551 56.2598C7.14551 55.3999 7.14551 54.5238 7.14551 53.5829C8.95314 53.5829 10.7445 53.5829 12.6708 53.5829C12.6708 53.2177 12.6708 52.9126 12.6708 52.6098C12.6708 49.3736 12.6684 46.1373 12.6708 42.9034C12.6731 41.535 13.1291 41.075 14.49 41.0726C16.9909 41.068 19.4918 41.068 21.9904 41.0726C23.3653 41.075 23.833 41.5303 23.8353 42.8803C23.8399 46.0865 23.8376 49.295 23.8376 52.5011C23.8376 52.8178 23.8376 53.1299 23.8376 53.5182ZM34.9416 53.5182C34.9416 47.025 34.9416 40.6057 34.9416 34.2095C33.0689 34.2095 31.2566 34.2095 29.4652 34.2095C29.4652 40.6797 29.4652 47.0805 29.4652 53.5182C31.3031 53.5182 33.0921 53.5182 34.9416 53.5182ZM15.5323 43.8835C15.5323 47.1637 15.5323 50.349 15.5323 53.509C17.3934 53.509 19.1848 53.509 20.9877 53.509C20.9877 50.2751 20.9877 47.0897 20.9877 43.8835C19.1429 43.8835 17.3539 43.8835 15.5323 43.8835Z" fill="#DC2626"/>
<path d="M2.96028 61.8499C2.96028 62.6635 2.86722 63.3385 2.97656 63.9811C3.33251 66.0592 5.04474 67.4231 7.25485 67.4254C14.9879 67.4346 22.7209 67.43 30.4563 67.43C34.4112 67.43 38.3638 67.43 42.3187 67.43C42.6351 67.43 42.9492 67.43 43.3214 67.43C43.3214 68.3592 43.3214 69.2353 43.3214 70.1831C39.9713 70.1831 36.6376 70.1831 33.2596 70.1831C32.1429 73.8747 31.0425 77.5154 29.9189 81.2324C36.1188 81.2324 42.2512 81.2324 48.4512 81.2324C47.951 79.5496 47.4578 77.8968 46.9436 76.17C47.8184 75.8973 48.6396 75.643 49.5841 75.3494C50.189 77.3258 50.7846 79.2653 51.3987 81.2694C52.4177 81.2694 53.4204 81.2694 54.4859 81.2694C54.4859 82.2194 54.4859 83.0955 54.4859 84.0225C44.3125 84.0225 34.1483 84.0225 23.9097 84.0225C23.9097 83.1741 23.9097 82.298 23.9097 81.2971C24.7123 81.2971 25.5452 81.3272 26.3734 81.2786C26.627 81.2648 27.0294 81.0821 27.0876 80.8903C28.1834 77.3698 29.2372 73.8354 30.3306 70.2016C29.9282 70.2016 29.6188 70.2016 29.3094 70.2016C22.0695 70.2016 14.8297 70.2039 7.59218 70.2016C3.04868 70.1993 0.110409 67.2913 0.110409 62.7884C0.108083 52.1875 0.110409 41.5843 0.110409 30.9834C0.110409 30.6945 0.110409 30.4079 0.110409 30.0496C1.02004 30.0496 1.90175 30.0496 2.87884 30.0496C2.87884 39.6911 2.87884 49.3489 2.87884 59.0991C15.9487 59.0991 28.9255 59.0991 41.9442 59.0991C41.9442 60.0468 41.9442 60.9021 41.9442 61.8499C28.9604 61.8499 15.9836 61.8499 2.96028 61.8499Z" fill="#DC2626"/>
<path d="M70.0528 76.2626C61.3264 81.0614 52.0183 77.6426 47.6633 71.2627C43.1454 64.6447 43.9456 55.8191 49.6291 50.1211C55.2474 44.4878 64.2437 43.6256 70.8275 48.0083C77.3833 52.3726 80.8357 61.6859 75.9828 70.382C77.7323 72.1156 79.5004 73.8678 81.2661 75.6177C81.7384 76.0869 82.2269 76.5423 82.6783 77.0323C84.2579 78.7383 84.2416 81.2093 82.655 82.8182C81.0405 84.4548 78.493 84.5264 76.7785 82.8898C74.6219 80.8279 72.5327 78.6967 70.4134 76.5978C70.311 76.4937 70.2017 76.399 70.0528 76.2626ZM61.5776 48.013C53.7887 48.0199 47.5609 54.2172 47.5656 61.954C47.5702 69.5452 53.8516 75.7402 61.552 75.7471C69.192 75.7563 75.4943 69.4851 75.478 61.8893C75.464 54.2426 69.2176 48.006 61.5776 48.013ZM72.3815 74.6399C74.4637 76.7064 76.5272 78.7706 78.6117 80.8141C79.2817 81.4705 80.1308 81.4705 80.6938 80.8811C81.2336 80.3171 81.2149 79.5242 80.5915 78.8723C79.8121 78.0587 78.9979 77.2774 78.1976 76.4822C76.9157 75.2062 75.6362 73.9302 74.3566 72.6565C73.6797 73.3385 73.0701 73.951 72.3815 74.6399Z" fill="#DC2626"/>
<path d="M68.5513 3.5962C68.5513 2.68082 68.5513 1.80012 68.5513 0.924034C72.804 0.593481 76.9473 4.68263 76.8403 9.11621C75.9586 9.11621 75.0745 9.11621 74.123 9.11621C74.016 7.65762 73.5275 6.3354 72.462 5.26977C71.3918 4.19952 70.0658 3.70484 68.5513 3.5962Z" fill="#DC2626"/>
<path d="M9.83607 20.3289C9.83607 21.2536 9.83607 22.1066 9.83607 23.0012C8.93575 23.0012 8.07729 23.0012 7.15137 23.0012C7.15137 22.1366 7.15137 21.2605 7.15137 20.3289C8.0168 20.3289 8.8962 20.3289 9.83607 20.3289Z" fill="#DC2626"/>
<path d="M12.7075 22.9827C12.7075 22.072 12.7075 21.2191 12.7075 20.3176C13.6032 20.3176 14.4616 20.3176 15.3922 20.3176C15.3922 21.1682 15.3922 22.0442 15.3922 22.9827C14.5407 22.9827 13.6613 22.9827 12.7075 22.9827Z" fill="#DC2626"/>
<path d="M18.3003 20.3105C19.2029 20.3105 20.0614 20.3105 20.9827 20.3105C20.9827 21.189 20.9827 22.0629 20.9827 22.9922C20.1056 22.9922 19.2262 22.9922 18.3003 22.9922C18.3003 22.1183 18.3003 21.2653 18.3003 20.3105Z" fill="#DC2626"/>
<path d="M72.6883 61.8754C72.6766 67.9941 67.6772 72.9755 61.547 72.9731C55.3471 72.9708 50.35 68.001 50.3569 61.8431C50.3639 55.7105 55.4076 50.7615 61.6238 50.787C67.6934 50.8101 72.6999 55.8284 72.6883 61.8754ZM61.5284 70.1993C66.1813 70.1808 69.9222 66.4176 69.8966 61.783C69.871 57.2616 66.0859 53.5493 61.5145 53.5585C56.8919 53.5701 53.1486 57.2963 53.1486 61.8847C53.151 66.4662 56.9314 70.2178 61.5284 70.1993Z" fill="#DC2626"/>
<path d="M61.4752 59.0596C59.8676 59.2861 58.9208 60.1899 58.6928 61.8403C57.8018 61.8403 56.9131 61.8403 56.029 61.8403C55.7475 59.3416 58.2368 56.2765 61.4752 56.3805C61.4752 57.2612 61.4752 58.1465 61.4752 59.0596Z" fill="#DC2626"/>
</svg>
