<svg width="441" height="382" viewBox="0 0 441 382" fill="none" xmlns="http://www.w3.org/2000/svg">
<path d="M220.67 8.57001C295.07 8.57001 356.07 68.87 355.97 142.17C355.87 216.67 295.07 276.07 219.07 276.07C144.87 275.97 84.77 215.67 84.77 141.17C84.87 68.27 146.07 8.57001 220.67 8.57001ZM179.57 55.47C181.27 63.77 179.57 71.57 177.07 79.27C175.37 84.57 172.87 89.67 171.47 95.07C169.07 103.97 166.37 112.87 165.37 121.87C163.97 134.87 169.07 146.37 177.87 157.77C163.57 154.77 150.57 152.07 137.37 149.27C137.47 150.57 137.37 151.07 137.47 151.47C141.27 162.67 148.07 172.07 155.67 181.07C156.47 181.97 158.27 182.47 159.67 182.47C200.07 182.57 240.37 182.57 280.77 182.47C282.07 182.47 283.67 182.27 284.47 181.47C293.17 172.47 299.77 162.17 303.87 149.17C289.07 152.07 274.97 154.77 260.97 157.47C263.77 151.97 267.07 147.07 268.87 141.77C275.17 123.57 272.57 105.97 263.47 89.37C256.17 76.07 249.37 62.77 253.07 46.77C245.37 54.37 242.37 63.97 240.47 73.97C238.57 83.77 237.57 93.67 236.07 103.67C235.87 103.37 235.57 103.17 235.57 102.87C235.37 101.87 235.27 100.77 235.17 99.77C234.27 83.47 231.07 67.77 224.37 52.87C220.37 44.07 215.97 35.07 220.07 24.57C217.27 26.07 214.77 27.47 212.97 29.57C207.57 35.77 205.37 43.07 204.87 51.17C204.37 58.07 203.67 65.07 202.47 71.87C201.07 78.97 198.97 85.97 194.17 92.57C192.37 78.27 192.17 64.37 179.57 55.47ZM283.67 194.77H157.07V216.67H283.67V194.77ZM182.17 227.87C182.07 246.07 200.77 259.67 223.77 258.67C242.87 257.87 259.77 242.87 258.37 227.87H182.17Z" fill="#E75225"/>
<path d="M37.5909 360V313.455H55.0455C58.6212 313.455 61.6212 314.121 64.0455 315.455C66.4849 316.788 68.3258 318.621 69.5682 320.955C70.8258 323.273 71.4545 325.909 71.4545 328.864C71.4545 331.848 70.8258 334.5 69.5682 336.818C68.3106 339.136 66.4545 340.962 64 342.295C61.5455 343.614 58.5227 344.273 54.9318 344.273H43.3636V337.341H53.7955C55.8864 337.341 57.5985 336.977 58.9318 336.25C60.2652 335.523 61.25 334.523 61.8864 333.25C62.5379 331.977 62.8636 330.515 62.8636 328.864C62.8636 327.212 62.5379 325.758 61.8864 324.5C61.25 323.242 60.2576 322.265 58.9091 321.568C57.5758 320.856 55.8561 320.5 53.75 320.5H46.0227V360H37.5909ZM78.4148 360V325.091H86.392V330.909H86.7557C87.392 328.894 88.483 327.341 90.0284 326.25C91.589 325.144 93.3693 324.591 95.3693 324.591C95.8239 324.591 96.3314 324.614 96.892 324.659C97.4678 324.689 97.9451 324.742 98.3239 324.818V332.386C97.9754 332.265 97.4223 332.159 96.6648 332.068C95.9223 331.962 95.2027 331.909 94.5057 331.909C93.0057 331.909 91.6572 332.235 90.4602 332.886C89.2784 333.523 88.3466 334.409 87.6648 335.545C86.983 336.682 86.642 337.992 86.642 339.477V360H78.4148ZM117.58 360.682C114.17 360.682 111.216 359.932 108.716 358.432C106.216 356.932 104.277 354.833 102.898 352.136C101.534 349.439 100.852 346.288 100.852 342.682C100.852 339.076 101.534 335.917 102.898 333.205C104.277 330.492 106.216 328.386 108.716 326.886C111.216 325.386 114.17 324.636 117.58 324.636C120.989 324.636 123.943 325.386 126.443 326.886C128.943 328.386 130.875 330.492 132.239 333.205C133.617 335.917 134.307 339.076 134.307 342.682C134.307 346.288 133.617 349.439 132.239 352.136C130.875 354.833 128.943 356.932 126.443 358.432C123.943 359.932 120.989 360.682 117.58 360.682ZM117.625 354.091C119.473 354.091 121.019 353.583 122.261 352.568C123.504 351.538 124.428 350.159 125.034 348.432C125.655 346.705 125.966 344.78 125.966 342.659C125.966 340.523 125.655 338.591 125.034 336.864C124.428 335.121 123.504 333.735 122.261 332.705C121.019 331.674 119.473 331.159 117.625 331.159C115.731 331.159 114.155 331.674 112.898 332.705C111.655 333.735 110.723 335.121 110.102 336.864C109.496 338.591 109.193 340.523 109.193 342.659C109.193 344.78 109.496 346.705 110.102 348.432C110.723 350.159 111.655 351.538 112.898 352.568C114.155 353.583 115.731 354.091 117.625 354.091ZM141.29 360V325.091H149.153V331.023H149.562C150.29 329.023 151.494 327.462 153.176 326.341C154.858 325.205 156.866 324.636 159.199 324.636C161.562 324.636 163.555 325.212 165.176 326.364C166.813 327.5 167.964 329.053 168.631 331.023H168.994C169.767 329.083 171.07 327.538 172.903 326.386C174.752 325.22 176.941 324.636 179.472 324.636C182.684 324.636 185.305 325.652 187.335 327.682C189.366 329.712 190.381 332.674 190.381 336.568V360H182.131V337.841C182.131 335.674 181.555 334.091 180.403 333.091C179.252 332.076 177.843 331.568 176.176 331.568C174.191 331.568 172.638 332.189 171.517 333.432C170.411 334.659 169.858 336.258 169.858 338.227V360H161.79V337.5C161.79 335.697 161.244 334.258 160.153 333.182C159.078 332.106 157.669 331.568 155.926 331.568C154.744 331.568 153.669 331.871 152.699 332.477C151.729 333.068 150.956 333.909 150.381 335C149.805 336.076 149.517 337.333 149.517 338.773V360H141.29ZM214.182 360.682C210.682 360.682 207.659 359.955 205.114 358.5C202.583 357.03 200.636 354.955 199.273 352.273C197.909 349.576 197.227 346.402 197.227 342.75C197.227 339.159 197.909 336.008 199.273 333.295C200.652 330.568 202.576 328.447 205.045 326.932C207.515 325.402 210.417 324.636 213.75 324.636C215.902 324.636 217.932 324.985 219.841 325.682C221.765 326.364 223.462 327.424 224.932 328.864C226.417 330.303 227.583 332.136 228.432 334.364C229.28 336.576 229.705 339.212 229.705 342.273V344.795H201.091V339.25H221.818C221.803 337.674 221.462 336.273 220.795 335.045C220.129 333.803 219.197 332.826 218 332.114C216.818 331.402 215.439 331.045 213.864 331.045C212.182 331.045 210.705 331.455 209.432 332.273C208.159 333.076 207.167 334.136 206.455 335.455C205.758 336.758 205.402 338.189 205.386 339.75V344.591C205.386 346.621 205.758 348.364 206.5 349.818C207.242 351.258 208.28 352.364 209.614 353.136C210.947 353.894 212.508 354.273 214.295 354.273C215.492 354.273 216.576 354.106 217.545 353.773C218.515 353.424 219.356 352.917 220.068 352.25C220.78 351.583 221.318 350.758 221.682 349.773L229.364 350.636C228.879 352.667 227.955 354.439 226.591 355.955C225.242 357.455 223.515 358.621 221.409 359.455C219.303 360.273 216.894 360.682 214.182 360.682ZM254.097 325.091V331.455H234.028V325.091H254.097ZM238.983 316.727H247.21V349.5C247.21 350.606 247.377 351.455 247.71 352.045C248.059 352.621 248.513 353.015 249.074 353.227C249.634 353.439 250.256 353.545 250.938 353.545C251.453 353.545 251.922 353.508 252.347 353.432C252.786 353.356 253.119 353.288 253.347 353.227L254.733 359.659C254.294 359.811 253.665 359.977 252.847 360.159C252.044 360.341 251.059 360.447 249.892 360.477C247.831 360.538 245.975 360.227 244.324 359.545C242.672 358.848 241.362 357.773 240.392 356.318C239.438 354.864 238.968 353.045 238.983 350.864V316.727ZM269.955 339.545V360H261.727V313.455H269.773V331.023H270.182C271 329.053 272.265 327.5 273.977 326.364C275.705 325.212 277.902 324.636 280.568 324.636C282.992 324.636 285.106 325.144 286.909 326.159C288.712 327.174 290.106 328.659 291.091 330.614C292.091 332.568 292.591 334.955 292.591 337.773V360H284.364V339.045C284.364 336.697 283.758 334.871 282.545 333.568C281.348 332.25 279.667 331.591 277.5 331.591C276.045 331.591 274.742 331.909 273.591 332.545C272.455 333.167 271.561 334.068 270.909 335.25C270.273 336.432 269.955 337.864 269.955 339.545ZM316.432 360.682C312.932 360.682 309.909 359.955 307.364 358.5C304.833 357.03 302.886 354.955 301.523 352.273C300.159 349.576 299.477 346.402 299.477 342.75C299.477 339.159 300.159 336.008 301.523 333.295C302.902 330.568 304.826 328.447 307.295 326.932C309.765 325.402 312.667 324.636 316 324.636C318.152 324.636 320.182 324.985 322.091 325.682C324.015 326.364 325.712 327.424 327.182 328.864C328.667 330.303 329.833 332.136 330.682 334.364C331.53 336.576 331.955 339.212 331.955 342.273V344.795H303.341V339.25H324.068C324.053 337.674 323.712 336.273 323.045 335.045C322.379 333.803 321.447 332.826 320.25 332.114C319.068 331.402 317.689 331.045 316.114 331.045C314.432 331.045 312.955 331.455 311.682 332.273C310.409 333.076 309.417 334.136 308.705 335.455C308.008 336.758 307.652 338.189 307.636 339.75V344.591C307.636 346.621 308.008 348.364 308.75 349.818C309.492 351.258 310.53 352.364 311.864 353.136C313.197 353.894 314.758 354.273 316.545 354.273C317.742 354.273 318.826 354.106 319.795 353.773C320.765 353.424 321.606 352.917 322.318 352.25C323.03 351.583 323.568 350.758 323.932 349.773L331.614 350.636C331.129 352.667 330.205 354.439 328.841 355.955C327.492 357.455 325.765 358.621 323.659 359.455C321.553 360.273 319.144 360.682 316.432 360.682ZM361.165 345.318V325.091H369.392V360H361.415V353.795H361.051C360.263 355.75 358.968 357.348 357.165 358.591C355.377 359.833 353.172 360.455 350.551 360.455C348.263 360.455 346.241 359.947 344.483 358.932C342.741 357.902 341.377 356.409 340.392 354.455C339.407 352.485 338.915 350.106 338.915 347.318V325.091H347.142V346.045C347.142 348.258 347.748 350.015 348.96 351.318C350.172 352.621 351.763 353.273 353.733 353.273C354.945 353.273 356.119 352.977 357.256 352.386C358.392 351.795 359.324 350.917 360.051 349.75C360.794 348.568 361.165 347.091 361.165 345.318ZM405.443 334.318L397.943 335.136C397.731 334.379 397.36 333.667 396.83 333C396.314 332.333 395.617 331.795 394.739 331.386C393.86 330.977 392.784 330.773 391.511 330.773C389.799 330.773 388.36 331.144 387.193 331.886C386.042 332.629 385.473 333.591 385.489 334.773C385.473 335.788 385.845 336.614 386.602 337.25C387.375 337.886 388.648 338.409 390.42 338.818L396.375 340.091C399.678 340.803 402.133 341.932 403.739 343.477C405.36 345.023 406.178 347.045 406.193 349.545C406.178 351.742 405.534 353.682 404.261 355.364C403.004 357.03 401.254 358.333 399.011 359.273C396.769 360.212 394.193 360.682 391.284 360.682C387.011 360.682 383.572 359.788 380.966 358C378.36 356.197 376.807 353.689 376.307 350.477L384.33 349.705C384.693 351.28 385.466 352.47 386.648 353.273C387.83 354.076 389.367 354.477 391.261 354.477C393.216 354.477 394.784 354.076 395.966 353.273C397.163 352.47 397.761 351.477 397.761 350.295C397.761 349.295 397.375 348.47 396.602 347.818C395.845 347.167 394.663 346.667 393.057 346.318L387.102 345.068C383.754 344.371 381.277 343.197 379.67 341.545C378.064 339.879 377.269 337.773 377.284 335.227C377.269 333.076 377.852 331.212 379.034 329.636C380.231 328.045 381.89 326.818 384.011 325.955C386.148 325.076 388.61 324.636 391.398 324.636C395.489 324.636 398.708 325.508 401.057 327.25C403.42 328.992 404.883 331.348 405.443 334.318Z" fill="white"/>
</svg>
