<svg width="244" height="258" viewBox="0 0 244 258" fill="none" xmlns="http://www.w3.org/2000/svg">
<path d="M35.52 206.94H25.92V201.21H51.64V206.94H42V235.6H35.52V206.94Z" fill="white"/>
<path d="M58.43 231C61.0374 230.986 63.6285 230.589 66.12 229.82L67.12 234.57C64.1564 235.636 61.0296 236.178 57.88 236.17C49.98 236.17 47.24 232.5 47.24 226.46V219.8C47.24 214.48 49.62 209.99 57.67 209.99C65.72 209.99 67.53 214.69 67.53 220.11V225.48H53.53V226.77C53.52 229.77 54.6 231 58.43 231ZM53.52 220.42H61.52V219.18C61.52 216.8 60.8 215.18 57.7 215.18C54.6 215.18 53.52 216.83 53.52 219.18V220.42Z" fill="white"/>
<path d="M84.35 215.72C82.0365 216.772 79.8066 217.999 77.68 219.39V235.6H71.39V210.45H76.7L77.12 213.24C79.1684 211.854 81.391 210.744 83.73 209.94L84.35 215.72Z" fill="white"/>
<path d="M99.73 215.72C97.4197 216.772 95.1932 217.999 93.07 219.39V235.6H86.77V210.45H92.09L92.5 213.24C94.5496 211.856 96.7719 210.746 99.11 209.94L99.73 215.72Z" fill="white"/>
<path d="M120.8 235.6H115.64L115.17 233.9C112.939 235.345 110.338 236.116 107.68 236.12C103.09 236.12 101.13 232.97 101.13 228.63C101.13 223.52 103.35 221.56 108.46 221.56H114.46V218.92C114.46 216.13 113.69 215.15 109.66 215.15C107.306 215.172 104.961 215.434 102.66 215.93L101.88 211.13C104.69 210.349 107.593 209.949 110.51 209.94C118.41 209.94 120.73 212.73 120.73 219.03L120.8 235.6ZM114.5 226.1H109.85C107.79 226.1 107.22 226.67 107.22 228.58C107.22 230.33 107.79 231.11 109.75 231.11C111.417 231.085 113.05 230.642 114.5 229.82V226.1Z" fill="white"/>
<path d="M140.16 204.72C138.973 204.464 137.764 204.326 136.55 204.31C134.07 204.31 133.71 205.39 133.71 207.31V210.46H140.11L139.75 215.46H133.75V235.6H127.45V215.46H123.45V210.46H127.45V206.95C127.45 201.74 129.88 199.15 135.45 199.15C137.282 199.141 139.106 199.386 140.87 199.88L140.16 204.72Z" fill="white"/>
<path d="M152.45 236.12C143.83 236.12 141.5 231.37 141.5 226.2V219.85C141.5 214.69 143.83 209.94 152.45 209.94C161.07 209.94 163.45 214.69 163.45 219.85V226.2C163.4 231.37 161.08 236.12 152.45 236.12ZM152.45 215.31C149.1 215.31 147.8 216.81 147.8 219.64V226.41C147.8 229.25 149.1 230.75 152.45 230.75C155.8 230.75 157.1 229.25 157.1 226.41V219.64C157.1 216.81 155.81 215.31 152.45 215.31Z" fill="white"/>
<path d="M179.61 215.72C177.299 216.77 175.072 217.997 172.95 219.39V235.6H166.65V210.45H172L172.41 213.24C174.46 211.856 176.682 210.746 179.02 209.94L179.61 215.72Z" fill="white"/>
<path d="M196.91 235.6V218C196.91 216.66 196.34 216 194.91 216C192.603 216.26 190.373 216.981 188.35 218.12V235.6H182V210.45H186.8L187.42 212.57C190.557 211.002 193.987 210.106 197.49 209.94C198.461 209.849 199.436 210.057 200.285 210.536C201.134 211.015 201.816 211.742 202.24 212.62C205.382 211.012 208.834 210.098 212.36 209.94C216.54 209.94 218.04 212.88 218.04 217.37V235.6H211.74V218C211.74 216.66 211.17 216 209.74 216C207.429 216.24 205.194 216.962 203.18 218.12V235.6H196.91Z" fill="white"/>
<path d="M32.59 192.7V187.88H28.17V192.7H25.92V181.11H28.17V186H32.59V181.14H34.85V192.7H32.59ZM43.11 192.7H41.32L41.16 192.14C40.3827 192.624 39.4855 192.88 38.57 192.88C36.97 192.88 36.3 191.88 36.3 190.39C36.3 188.68 37.06 188.03 38.84 188.03H40.93V187.16C40.93 186.23 40.66 185.9 39.26 185.9C38.4503 185.912 37.6435 185.999 36.85 186.16L36.58 184.56C37.5591 184.302 38.5674 184.171 39.58 184.17C42.32 184.17 43.12 185.09 43.12 187.17L43.11 192.7ZM40.93 189.54H39.32C38.6 189.54 38.41 189.73 38.41 190.37C38.41 191.01 38.6 191.21 39.28 191.21C39.8566 191.202 40.4227 191.054 40.93 190.78V189.54ZM47.68 192.88C46.6614 192.864 45.6506 192.699 44.68 192.39L44.98 190.8C45.828 191.029 46.7016 191.15 47.58 191.16C48.58 191.16 48.68 190.95 48.68 190.32C48.68 189.69 48.58 189.54 47.16 189.22C45.03 188.72 44.78 188.22 44.78 186.59C44.78 184.96 45.55 184.17 48.04 184.17C48.9181 184.169 49.7935 184.267 50.65 184.46L50.44 186.13C49.6481 185.981 48.8455 185.898 48.04 185.88C47.09 185.88 46.93 186.09 46.93 186.61C46.93 187.13 46.93 187.33 48.17 187.61C50.6 188.23 50.83 188.54 50.83 190.25C50.83 191.96 50.31 192.88 47.68 192.88ZM57.68 192.7V186.86C57.68 186.42 57.49 186.19 56.99 186.19C56.191 186.276 55.4164 186.517 54.71 186.9V192.7H52.52V181L54.7 181.32V185C55.6965 184.515 56.7827 184.243 57.89 184.2C59.34 184.2 59.89 185.2 59.89 186.67V192.73L57.68 192.7ZM61.68 183.15V181.15H63.86V183.15H61.68ZM61.68 192.7V184.34H63.86V192.7H61.68ZM65.6 184.41C65.6 182.31 66.87 181.09 69.84 181.09C70.9311 181.09 72.0185 181.218 73.08 181.47L72.83 183.34C71.8693 183.166 70.8962 183.069 69.92 183.05C68.36 183.05 67.86 183.57 67.86 184.79V189.18C67.86 190.4 68.36 190.92 69.92 190.92C70.8962 190.901 71.8693 190.804 72.83 190.63L73.08 192.5C72.0185 192.752 70.9311 192.88 69.84 192.88C66.84 192.88 65.6 191.66 65.6 189.56V184.41ZM77.9 192.88C74.9 192.88 74.11 191.3 74.11 189.58V187.46C74.11 185.75 74.92 184.17 77.9 184.17C80.88 184.17 81.7 185.75 81.7 187.46V189.58C81.71 191.3 80.9 192.88 77.91 192.88H77.9ZM77.9 185.95C76.74 185.95 76.29 186.45 76.29 187.4V189.65C76.29 190.59 76.74 191.09 77.9 191.09C79.06 191.09 79.51 190.59 79.51 189.65V187.4C79.52 186.45 79.08 186 77.91 186L77.9 185.95ZM87.84 186.09C87.0408 186.439 86.2687 186.847 85.53 187.31V192.7H83.36V184.34H85.2L85.35 185.27C86.0611 184.803 86.8312 184.433 87.64 184.17L87.84 186.09ZM96.57 189.92C96.57 191.78 95.71 192.92 93.69 192.92C92.9078 192.909 92.128 192.829 91.36 192.68V196.09L89.18 196.42V184.42H90.91L91.13 185.12C91.9331 184.55 92.8949 184.245 93.88 184.25C95.64 184.25 96.57 185.25 96.57 187.15V189.92ZM91.36 190.92C91.9948 191.055 92.6411 191.129 93.29 191.14C94.08 191.14 94.38 190.78 94.38 190.02V187C94.38 186.31 94.12 185.93 93.31 185.93C92.5927 185.955 91.9052 186.223 91.36 186.69V190.92Z" fill="white"/>
<path fill-rule="evenodd" clip-rule="evenodd" d="M102.58 46.91L141.41 69.33V114.16L102.58 91.75V46.91Z" fill="#7B42BC"/>
<path fill-rule="evenodd" clip-rule="evenodd" d="M145.67 69.33V114.16L184.5 91.75V46.91L145.67 69.33Z" fill="#7B42BC"/>
<path fill-rule="evenodd" clip-rule="evenodd" d="M59.5 21.88V66.72L98.33 89.14V44.3L59.5 21.88Z" fill="#7B42BC"/>
<path fill-rule="evenodd" clip-rule="evenodd" d="M102.58 141.49L141.41 163.91V119.38V119.08L102.58 96.66V141.49Z" fill="#7B42BC"/>
</svg>
