<svg width="256" height="215" viewBox="0 0 256 215" fill="none" xmlns="http://www.w3.org/2000/svg">
<g clip-path="url(#clip0_1_27)">
<path fill-rule="evenodd" clip-rule="evenodd" d="M38.617 173.984V157.622C38.617 155.472 39.961 153.745 42.187 153.745H42.803C45.028 153.745 46.366 155.475 46.366 157.622V192.069C46.366 200.469 42.216 207.153 34.984 211.411C31.6712 213.374 27.8896 214.405 24.039 214.396H22.502C14.1 214.396 7.425 210.243 3.16 203.016C1.1945 199.704 0.163295 195.921 0.176004 192.069V190.534C0.176004 182.131 4.328 175.451 11.554 171.184C14.8662 169.217 18.6499 168.186 22.502 168.199H24.039C29.725 168.199 34.539 170.403 38.617 173.983V173.984ZM7.924 191.3C7.924 197.368 10.864 201.93 16.182 204.84C18.332 206.016 20.666 206.648 23.119 206.648C29.075 206.648 33.493 203.848 36.539 198.791C37.956 196.443 38.616 193.874 38.616 191.143C38.616 185.883 36.116 181.778 31.886 178.729C29.316 176.881 26.423 175.954 23.268 175.954C16.776 175.954 12.104 179.234 9.3 185.06C8.354 187.03 7.922 189.12 7.922 191.3H7.924ZM73.248 168.2H74.322C83.3 168.2 90.128 172.555 94.455 180.392C96.185 183.527 97.111 186.949 97.111 190.534V192.069C97.111 200.469 92.969 207.162 85.726 211.412C82.373 213.379 78.669 214.396 74.783 214.396H73.248C64.846 214.396 58.168 210.243 53.906 203.016C51.9395 199.704 50.9073 195.921 50.919 192.069V190.534C50.919 182.13 55.089 175.472 62.296 171.187C65.6073 169.214 69.3937 168.182 73.248 168.2V168.2ZM58.668 191.3C58.668 197.2 61.568 201.523 66.533 204.57C68.869 206 71.433 206.648 74.171 206.648C79.991 206.648 84.293 203.698 87.287 198.785C88.715 196.443 89.361 193.87 89.361 191.143C89.361 185.666 86.723 181.483 82.213 178.45C79.7967 176.806 76.9376 175.935 74.015 175.954C67.523 175.954 62.851 179.234 60.048 185.06C59.1 187.03 58.668 189.12 58.668 191.3V191.3ZM129.324 176.573C128.154 176.025 125.964 175.843 124.7 175.795C118.226 175.551 113.542 179.197 110.794 184.908C109.844 186.878 109.412 188.963 109.412 191.143C109.412 197.78 112.897 202.427 118.812 205.26C120.976 206.294 123.77 206.49 126.135 206.49C128.215 206.49 131.155 205.216 133.001 204.34L133.321 204.188H134.754L134.912 204.22C136.674 204.587 138.004 205.704 138.004 207.6V208.367C138.004 213.085 129.382 214.165 126.092 214.395C114.492 215.198 105.799 208.822 102.489 197.748C101.914 195.825 101.655 193.915 101.655 191.911V190.378C101.655 181.975 105.825 175.318 113.032 171.038C116.34 169.057 120.127 168.02 123.982 168.038H125.518C129.648 168.038 133.452 169.211 136.862 171.54L137.142 171.734L137.319 172.026C137.687 172.626 138.004 173.342 138.004 174.068V174.835C138.004 176.813 136.524 177.877 134.738 178.221L134.59 178.247H134.132C132.976 178.247 130.347 177.05 129.315 176.564L129.324 176.573ZM154.458 181.82L163.543 172.834C164.393 172.007 167.617 168.507 168.886 168.507H170.274L170.432 168.54C172.2 168.907 173.524 170.026 173.524 171.926V172.692C173.524 173.988 172.006 175.494 171.169 176.392C169.389 178.279 167.515 180.104 165.693 181.952L156.331 191.456L168.387 203.61C169.496 204.734 170.596 205.866 171.688 207.006C172.073 207.411 172.641 207.906 172.964 208.476C173.311 209.002 173.524 209.596 173.524 210.228V211.028L173.479 211.213C173.044 212.981 171.922 214.407 169.963 214.407H169.346C168.064 214.407 166.616 212.957 165.738 212.127C163.938 210.421 162.181 208.627 160.408 206.884L154.458 201.044V210.378C154.458 212.528 153.112 214.256 150.888 214.256H150.288C148.062 214.256 146.718 212.528 146.718 210.378V157.782C146.718 155.632 148.063 153.912 150.288 153.912H150.888C153.111 153.912 154.458 155.632 154.458 157.782V181.83V181.82ZM251.035 168.507H251.805C254.129 168.507 255.68 170.073 255.68 172.384C255.68 175.592 252.613 176.414 249.96 176.414C246.48 176.414 243.157 178.521 240.758 180.884C237.758 183.834 236.458 187.61 236.458 191.762V210.522C236.458 212.672 235.115 214.398 232.888 214.398H232.276C230.049 214.398 228.706 212.673 228.706 210.522V190.686C228.706 183.069 232.414 176.851 238.606 172.49C242.306 169.885 246.526 168.51 251.044 168.51L251.035 168.507ZM195.961 205.683C198.781 206.668 201.996 206.527 204.889 206.023C206.369 205.393 210.153 203.743 211.545 203.985L211.762 204.022L211.962 204.12C212.812 204.532 213.622 205.115 214.057 205.98C215.071 208.007 214.584 210.045 212.592 211.196L211.929 211.579C204.579 215.821 196.761 215.233 189.434 211.271C185.931 209.377 183.251 206.566 181.274 203.139L180.812 202.339C176.092 194.167 176.73 185.571 182.052 177.799C183.889 175.113 186.29 173.039 189.097 171.415L190.159 170.802C197.081 166.806 204.499 167.08 211.609 170.587C215.432 172.473 218.529 175.284 220.663 178.981L221.047 179.647C222.597 182.333 220.589 184.673 218.517 186.273C216.111 188.129 213.682 190.373 211.377 192.353L195.963 205.683H195.961ZM189.306 201.009L212.606 180.972C211.046 179.006 208.44 177.589 206.226 176.744C201.756 175.041 197.349 175.614 193.25 177.979C187.885 181.077 185.6 186.009 185.8 192.149C185.88 194.567 186.53 196.897 187.813 198.954C188.265 199.679 188.77 200.36 189.316 201.009H189.306ZM147.488 45.732H170.354V69.107H181.914C187.254 69.107 192.744 68.157 197.801 66.443C200.286 65.6 203.074 64.428 205.525 62.943C202.297 58.729 200.649 53.408 200.165 48.163C199.505 41.028 200.945 31.743 205.773 26.158L208.177 23.378L211.041 25.681C218.241 31.474 224.317 39.581 225.386 48.799C234.069 46.245 244.264 46.849 251.916 51.266L255.056 53.078L253.404 56.304C246.934 68.946 233.4 72.86 220.17 72.167C200.373 121.467 157.272 144.82 105.013 144.82C78.013 144.82 53.243 134.727 39.137 110.773L38.907 110.373L36.852 106.191C32.084 95.647 30.5 84.096 31.574 72.554L31.897 69.097H51.45V45.732H74.315V22.866H120.048V0H147.488V45.732Z" fill="white"/>
<path fill-rule="evenodd" clip-rule="evenodd" d="M221.57 54.38C223.103 42.464 214.186 33.105 208.656 28.66C202.283 36.028 201.293 55.338 211.291 63.468C205.711 68.424 193.954 72.916 181.915 72.916H35.37C34.2 85.483 36.406 97.056 41.445 106.961L43.112 110.011C44.1675 111.801 45.3209 113.532 46.567 115.195C52.592 115.582 58.147 115.715 63.229 115.603H63.231C73.218 115.383 81.367 114.203 87.543 112.063C87.9796 111.927 88.4519 111.967 88.8601 112.173C89.2682 112.379 89.5801 112.736 89.7299 113.168C89.8797 113.6 89.8555 114.073 89.6626 114.488C89.4696 114.902 89.123 115.225 88.696 115.389C87.874 115.675 87.018 115.941 86.134 116.194H86.131C81.268 117.594 76.053 118.517 69.325 118.932C69.725 118.939 68.909 118.992 68.907 118.992C68.677 119.007 68.39 119.04 68.16 119.052C65.512 119.202 62.654 119.232 59.732 119.232C56.536 119.232 53.389 119.172 49.87 118.992L49.77 119.052C61.97 132.776 81.072 141.007 105.004 141.007C155.652 141.007 198.612 118.555 217.636 68.15C231.132 69.535 244.103 66.093 250.003 54.575C240.605 49.152 228.519 50.881 221.56 54.379" fill="#22A0C8"/>
<path fill-rule="evenodd" clip-rule="evenodd" d="M221.57 54.38C223.103 42.464 214.186 33.105 208.656 28.66C202.283 36.028 201.293 55.338 211.291 63.468C205.711 68.424 193.954 72.916 181.915 72.916H44.048C43.45 92.162 50.592 106.771 63.228 115.603H63.231C73.218 115.383 81.367 114.203 87.543 112.063C87.9796 111.927 88.4519 111.967 88.8601 112.173C89.2682 112.379 89.5801 112.736 89.7299 113.168C89.8797 113.6 89.8555 114.073 89.6626 114.488C89.4696 114.902 89.123 115.225 88.696 115.389C87.874 115.675 87.018 115.941 86.134 116.194H86.131C81.268 117.594 75.605 118.637 68.877 119.052C68.875 119.052 68.714 118.897 68.712 118.897C85.949 127.739 110.942 127.697 139.597 116.7C171.727 104.356 201.627 80.84 222.497 53.943C222.188 54.0822 221.883 54.2275 221.58 54.379" fill="#37B1D9"/>
<path fill-rule="evenodd" clip-rule="evenodd" d="M35.645 88.186C36.545 94.918 38.525 101.221 41.445 106.962L43.112 110.012C44.1673 111.802 45.3208 113.533 46.567 115.196C52.593 115.583 58.147 115.716 63.231 115.604C73.218 115.384 81.367 114.204 87.543 112.064C87.9796 111.928 88.4519 111.968 88.8601 112.174C89.2682 112.38 89.5801 112.737 89.7299 113.169C89.8797 113.601 89.8555 114.074 89.6626 114.489C89.4696 114.903 89.123 115.226 88.696 115.39C87.874 115.676 87.018 115.942 86.134 116.195H86.131C81.268 117.595 75.635 118.578 68.907 118.995C68.677 119.009 68.273 119.012 68.04 119.025C65.394 119.173 62.565 119.265 59.642 119.265C56.3138 119.271 52.986 119.191 49.662 119.025C61.862 132.75 81.082 141 105.014 141C148.374 141 186.098 124.542 207.994 88.178H35.645" fill="#1B81A5"/>
<path fill-rule="evenodd" clip-rule="evenodd" d="M45.367 88.186C47.959 100.006 54.187 109.286 63.231 115.604C73.218 115.384 81.367 114.204 87.543 112.064C87.9796 111.928 88.4519 111.968 88.8601 112.174C89.2682 112.38 89.5801 112.737 89.7299 113.169C89.8797 113.601 89.8555 114.074 89.6626 114.489C89.4696 114.903 89.123 115.226 88.696 115.39C87.874 115.676 87.018 115.942 86.134 116.195H86.131C81.268 117.595 75.516 118.578 68.787 118.995C86.023 127.835 110.944 127.708 139.587 116.702C156.921 110.042 173.604 100.128 188.571 88.187H45.367" fill="#1D91B4"/>
<path fill-rule="evenodd" clip-rule="evenodd" d="M55.26 49.543H75.078V69.36H55.26V49.543ZM56.91 51.195H58.474V67.7H56.9V51.195H56.91ZM59.85 51.195H61.477V67.7H59.85V51.195V51.195ZM62.852 51.195H64.479V67.7H62.852V51.195ZM65.856 51.195H67.482V67.7H65.856V51.195ZM68.859 51.195H70.485V67.7H68.86V51.195H68.859ZM71.861 51.195H73.426V67.7H71.86V51.195H71.861ZM78.125 26.677H97.945V46.494H78.125V26.677V26.677ZM79.777 28.329H81.34V44.843H79.777V28.33V28.329ZM82.717 28.329H84.343V44.843H82.72V28.33L82.717 28.329ZM85.719 28.329H87.345V44.843H85.72V28.33L85.719 28.329ZM88.722 28.329H90.348V44.843H88.722V28.33V28.329ZM91.725 28.329H93.352V44.843H91.725V28.33V28.329ZM94.727 28.329H96.293V44.843H94.727V28.33V28.329Z" fill="#23A3C2"/>
<path fill-rule="evenodd" clip-rule="evenodd" d="M78.126 49.543H97.946V69.36H78.126V49.543ZM79.778 51.195H81.341V67.7H79.778V51.195ZM82.718 51.195H84.344V67.7H82.72V51.195H82.718ZM85.72 51.195H87.346V67.7H85.72V51.195ZM88.723 51.195H90.349V67.7H88.723V51.195ZM91.726 51.195H93.353V67.7H91.726V51.195ZM94.728 51.195H96.294V67.7H94.728V51.195Z" fill="#34BBDE"/>
<path fill-rule="evenodd" clip-rule="evenodd" d="M100.993 49.543H120.811V69.36H100.993V49.543ZM102.643 51.195H104.206V67.7H102.643V51.195ZM105.583 51.195H107.209V67.7H105.583V51.195ZM108.586 51.195H110.212V67.7H108.586V51.195ZM111.589 51.195H113.215V67.7H111.6V51.195H111.589ZM114.591 51.195H116.219V67.7H114.591V51.195ZM117.594 51.195H119.158V67.7H117.594V51.195Z" fill="#23A3C2"/>
<path fill-rule="evenodd" clip-rule="evenodd" d="M100.993 26.677H120.811V46.494H100.993V26.677ZM102.643 28.329H104.206V44.843H102.643V28.33V28.329ZM105.583 28.329H107.209V44.843H105.583V28.33V28.329ZM108.586 28.329H110.212V44.843H108.586V28.33V28.329ZM111.589 28.329H113.215V44.843H111.6V28.33L111.589 28.329ZM114.591 28.329H116.219V44.843H114.591V28.33V28.329ZM117.594 28.329H119.158V44.843H117.594V28.33V28.329ZM123.858 49.543H143.676V69.36H123.86V49.543H123.858ZM125.51 51.195H127.073V67.7H125.5V51.195H125.51ZM128.45 51.195H130.076V67.7H128.45V51.195ZM131.452 51.195H133.078V67.7H131.452V51.195ZM134.455 51.195H136.082V67.7H134.455V51.195ZM137.458 51.195H139.085V67.7H137.458V51.195ZM140.461 51.195H142.025V67.7H140.461V51.195Z" fill="#34BBDE"/>
<path fill-rule="evenodd" clip-rule="evenodd" d="M123.86 26.677H143.678V46.494H123.86V26.677ZM125.512 28.329H127.075V44.843H125.512V28.33V28.329ZM128.452 28.329H130.078V44.843H128.452V28.33V28.329ZM131.454 28.329H133.08V44.843H131.454V28.33V28.329ZM134.457 28.329H136.084V44.843H134.457V28.33V28.329ZM137.46 28.329H139.087V44.843H137.46V28.33V28.329ZM140.463 28.329H142.027V44.843H140.463V28.33V28.329Z" fill="#23A3C2"/>
<path fill-rule="evenodd" clip-rule="evenodd" d="M123.86 3.8H143.678V23.62H123.86V3.8ZM125.512 5.45H127.075V21.966H125.512V5.46V5.45ZM128.452 5.45H130.078V21.966H128.452V5.46V5.45ZM131.454 5.45H133.08V21.966H131.454V5.46V5.45ZM134.457 5.45H136.084V21.966H134.457V5.46V5.45ZM137.46 5.45H139.087V21.966H137.46V5.46V5.45ZM140.463 5.45H142.027V21.966H140.463V5.46V5.45Z" fill="#34BBDE"/>
<path fill-rule="evenodd" clip-rule="evenodd" d="M146.725 49.543H166.543V69.36H146.725V49.543ZM148.375 51.195H149.94V67.7H148.376V51.195H148.375ZM151.315 51.195H152.942V67.7H151.316V51.195H151.315ZM154.319 51.195H155.946V67.7H154.319V51.195ZM157.321 51.195H158.948V67.7H157.321V51.195ZM160.325 51.195H161.951V67.7H160.325V51.195ZM163.327 51.195H164.891V67.7H163.327V51.195Z" fill="#23A3C2"/>
<path fill-rule="evenodd" clip-rule="evenodd" d="M96.704 101.492C97.4282 101.482 98.1472 101.617 98.819 101.887C99.4909 102.158 100.102 102.559 100.618 103.068C101.133 103.576 101.543 104.183 101.822 104.851C102.101 105.519 102.245 106.236 102.245 106.961C102.245 107.685 102.101 108.402 101.821 109.07C101.542 109.738 101.132 110.344 100.616 110.853C100.101 111.361 99.4892 111.762 98.8172 112.033C98.1452 112.303 97.4262 112.437 96.702 112.427C95.2647 112.407 93.893 111.822 92.8837 110.799C91.8744 109.776 91.3087 108.396 91.3089 106.959C91.3092 105.521 91.8754 104.142 92.8851 103.119C93.8948 102.096 95.2667 101.511 96.704 101.492Z" fill="#D3ECEC"/>
<path fill-rule="evenodd" clip-rule="evenodd" d="M96.704 103.043C97.1887 103.043 97.6692 103.132 98.121 103.308C97.8174 103.484 97.5802 103.756 97.4463 104.08C97.3123 104.405 97.2889 104.764 97.3797 105.103C97.4705 105.442 97.6705 105.742 97.9487 105.956C98.2269 106.171 98.5679 106.287 98.919 106.288C99.524 106.288 100.049 105.953 100.321 105.458C100.643 106.234 100.707 107.093 100.504 107.908C100.3 108.723 99.8398 109.45 99.1908 109.984C98.5418 110.517 97.7385 110.827 96.8996 110.869C96.0606 110.911 95.2305 110.682 94.5319 110.215C93.8332 109.749 93.303 109.07 93.0197 108.28C92.7363 107.489 92.7148 106.628 92.9583 105.824C93.2018 105.02 93.6974 104.316 94.3719 103.815C95.0464 103.315 95.864 103.044 96.704 103.044M0 90.162H254.327C248.79 88.758 236.807 86.86 238.783 79.602C228.713 91.254 204.43 87.777 198.301 82.032C191.477 91.93 151.747 88.167 148.976 80.456C140.42 90.496 113.909 90.496 105.353 80.456C102.58 88.156 62.851 91.93 56.026 82.031C49.898 87.777 25.626 91.254 15.546 79.603C17.522 86.86 5.54 88.758 0 90.163" fill="#333333"/>
<path fill-rule="evenodd" clip-rule="evenodd" d="M111.237 140.9C97.697 134.475 90.267 125.74 86.131 116.206C81.101 117.641 75.056 118.559 68.031 118.953C65.385 119.101 62.601 119.177 59.681 119.177C56.313 119.177 52.764 119.077 49.038 118.88C61.455 131.28 76.73 140.844 105.014 141.018C107.102 141.018 109.174 140.978 111.237 140.9" fill="#BDD9D7"/>
<path fill-rule="evenodd" clip-rule="evenodd" d="M91.16 124.994C89.287 122.451 87.46 119.254 86.134 116.194C81.104 117.631 75.057 118.549 68.031 118.944C72.857 121.564 79.758 123.99 91.161 124.994" fill="#D3ECEC"/>
</g>
<defs>
<clipPath id="clip0_1_27">
<rect width="256" height="215" fill="white"/>
</clipPath>
</defs>
</svg>
