<svg width="363" height="283" viewBox="0 0 363 283" fill="none" xmlns="http://www.w3.org/2000/svg">
<path d="M16.811 252.546C17.763 251.476 18.715 250.405 19.785 249.334C20.7803 248.227 21.772 247.117 22.76 246.004C23.711 244.813 24.663 243.742 25.497 242.79C26.331 241.838 27.162 240.887 27.757 240.173H39.297C37.037 242.79 34.775 245.408 32.516 247.787C30.374 250.167 27.9947 252.665 25.378 255.282C26.8127 256.626 28.1636 258.057 29.423 259.566C30.85 261.231 32.159 262.896 33.468 264.561C34.7651 266.23 35.9568 267.979 37.036 269.797C38.106 271.581 39.06 273.127 39.773 274.556H28.59C27.875 273.366 27.043 272.176 26.21 270.866C25.3397 269.424 24.3861 268.035 23.354 266.704C22.3871 265.277 21.3137 263.925 20.143 262.659C19.1947 261.472 18.1171 260.394 16.93 259.446V274.436H7.175V225.302L16.93 223.755V252.546" fill="white"/>
<path d="M73.679 273.366C71.5713 273.954 69.4246 274.391 67.255 274.675C64.5416 275.118 61.7939 275.317 59.045 275.269C56.5325 275.36 54.0266 274.956 51.67 274.08C49.8962 273.41 48.3273 272.29 47.1175 270.829C45.9078 269.369 45.0988 267.619 44.77 265.752C44.2842 263.645 44.0443 261.489 44.055 259.327V240.173H53.812V258.138C53.812 261.231 54.169 263.492 55.002 264.92C55.835 266.348 57.38 267.061 59.641 267.061C60.3963 267.078 61.1517 267.038 61.901 266.942C62.734 266.823 63.33 266.823 64.043 266.704V240.174H73.798L73.679 273.366" fill="white"/>
<path d="M104.97 257.067C104.97 250.762 102.708 247.669 98.068 247.669C97.0661 247.67 96.0678 247.79 95.094 248.025C94.2596 248.227 93.4585 248.548 92.715 248.977V266.704C93.19 266.823 93.785 266.823 94.499 266.942C95.213 266.942 96.045 267.062 96.879 267.062C98.0344 267.114 99.1858 266.893 100.24 266.418C101.294 265.942 102.222 265.225 102.947 264.324C104.37 262.179 105.077 259.639 104.969 257.067M114.843 257.305C114.893 259.854 114.49 262.392 113.653 264.801C112.937 266.935 111.759 268.884 110.203 270.511C108.582 272.074 106.687 273.324 104.612 274.199C102.165 275.045 99.5859 275.448 96.997 275.389C95.808 275.389 94.618 275.269 93.309 275.151C92 275.033 90.812 274.913 89.503 274.793C88.313 274.675 87.123 274.437 85.933 274.198C84.9157 274.023 83.9192 273.745 82.959 273.366V225.3L92.715 223.754V240.886C93.8227 240.405 94.9795 240.046 96.165 239.816C97.4194 239.574 98.6944 239.454 99.972 239.459C102.183 239.418 104.377 239.865 106.396 240.767C108.239 241.569 109.87 242.792 111.156 244.337C112.524 246.002 113.5 247.953 114.011 250.047C114.55 252.429 114.829 254.862 114.843 257.304" fill="white"/>
<path d="M120.674 257.662C120.61 254.936 121.095 252.226 122.101 249.692C122.961 247.573 124.213 245.635 125.79 243.98C127.248 242.446 129.038 241.266 131.023 240.53C132.985 239.725 135.089 239.32 137.21 239.34C139.343 239.242 141.473 239.594 143.461 240.373C145.449 241.152 147.251 242.34 148.75 243.861C151.605 246.835 153.032 251.239 153.032 256.948C153.048 257.585 153.009 258.222 152.914 258.852C152.914 259.447 152.795 260.041 152.795 260.636H130.665C130.762 261.59 131.068 262.512 131.562 263.334C132.055 264.157 132.724 264.861 133.521 265.395C135.502 266.668 137.831 267.292 140.183 267.179C141.94 267.204 143.694 267.044 145.418 266.704C146.883 266.458 148.319 266.059 149.701 265.514L151.009 273.484C150.533 273.723 149.819 273.961 148.869 274.317C147.906 274.641 146.906 274.841 145.893 274.913C144.754 275.146 143.602 275.304 142.443 275.388C141.253 275.508 139.946 275.626 138.755 275.626C135.991 275.69 133.241 275.205 130.665 274.199C128.539 273.354 126.599 272.101 124.955 270.511C123.486 268.841 122.355 266.902 121.625 264.801C121 262.472 120.68 260.073 120.671 257.662M143.633 253.855C143.601 253.041 143.441 252.238 143.157 251.475C142.922 250.707 142.56 249.983 142.087 249.334C141.522 248.623 140.796 248.057 139.967 247.684C139.139 247.312 138.234 247.143 137.327 247.192C136.345 247.193 135.373 247.396 134.472 247.787C133.726 248.093 133.071 248.585 132.569 249.215C132.035 249.843 131.63 250.571 131.379 251.357C131.125 252.135 130.926 252.931 130.784 253.737H143.634" fill="white"/>
<path d="M181.23 248.74C180.218 248.451 179.183 248.251 178.136 248.144C176.882 247.902 175.607 247.782 174.329 247.787C173.572 247.825 172.817 247.905 172.069 248.025C171.429 248.111 170.793 248.23 170.165 248.382V274.675H160.409V241.958C162.434 241.273 164.5 240.716 166.595 240.292C169.209 239.696 171.885 239.417 174.566 239.46C175.203 239.447 175.84 239.486 176.47 239.578C177.228 239.605 177.983 239.684 178.73 239.816C179.445 239.936 180.158 240.054 180.991 240.173C181.704 240.293 182.419 240.531 182.894 240.649L181.229 248.739" fill="white"/>
<path d="M188.13 241.363C192.906 240.103 197.824 239.464 202.763 239.46C205.238 239.357 207.707 239.762 210.02 240.649C211.838 241.262 213.447 242.375 214.66 243.861C215.78 245.35 216.59 247.05 217.04 248.858C217.539 250.962 217.778 253.12 217.753 255.282V274.675H207.997V256.474C207.997 253.38 207.641 251.12 206.807 249.811C205.973 248.502 204.428 247.907 202.167 247.907C201.412 247.891 200.656 247.931 199.907 248.027C199.188 248.041 198.472 248.12 197.767 248.264V274.795H188.129V241.365" fill="white"/>
<path d="M225.01 257.662C224.946 254.936 225.431 252.226 226.437 249.692C227.297 247.573 228.549 245.635 230.127 243.98C231.585 242.446 233.376 241.265 235.361 240.53C237.323 239.725 239.427 239.32 241.548 239.34C243.681 239.242 245.811 239.594 247.799 240.373C249.787 241.152 251.589 242.34 253.088 243.861C255.942 246.835 257.37 251.239 257.37 256.948C257.386 257.585 257.346 258.222 257.251 258.852C257.251 259.447 257.131 260.041 257.131 260.636H235.004C235.101 261.59 235.407 262.512 235.901 263.334C236.394 264.157 237.063 264.861 237.86 265.395C239.84 266.668 242.169 267.291 244.52 267.179C246.277 267.204 248.033 267.044 249.757 266.704C251.222 266.457 252.657 266.059 254.039 265.514L255.348 273.484C254.872 273.723 254.158 273.961 253.206 274.317C252.244 274.641 251.245 274.841 250.232 274.913C249.093 275.146 247.941 275.304 246.782 275.388C245.592 275.508 244.283 275.626 243.094 275.626C240.33 275.69 237.58 275.205 235.004 274.199C232.878 273.354 230.938 272.101 229.294 270.511C227.824 268.841 226.692 266.902 225.962 264.801C225.338 262.472 225.018 260.073 225.01 257.662M247.971 253.855C247.94 253.042 247.779 252.238 247.496 251.475C247.26 250.707 246.898 249.983 246.425 249.334C245.86 248.623 245.134 248.057 244.305 247.684C243.477 247.312 242.572 247.143 241.665 247.192C240.683 247.193 239.711 247.396 238.81 247.787C238.064 248.093 237.409 248.585 236.907 249.215C236.373 249.843 235.968 250.571 235.717 251.357C235.463 252.135 235.265 252.931 235.123 253.737H247.971" fill="white"/>
<path d="M264.627 231.607L274.383 230.061V240.173H286.043V248.263H274.383V260.398C274.301 262.09 274.671 263.773 275.453 265.276C276.168 266.466 277.714 267.061 279.856 267.061C280.93 267.041 282.003 266.961 283.068 266.823C284.12 266.631 285.155 266.353 286.161 265.99L287.588 273.604C286.326 274.142 285.01 274.541 283.662 274.794C281.902 275.162 280.105 275.322 278.308 275.269C276.041 275.331 273.782 274.968 271.648 274.199C270.045 273.548 268.618 272.529 267.483 271.224C266.381 269.829 265.608 268.202 265.222 266.466C264.824 264.468 264.625 262.435 264.628 260.398V231.607" fill="white"/>
<path d="M291.039 257.662C290.975 254.936 291.461 252.226 292.467 249.692C293.327 247.573 294.578 245.636 296.155 243.98C297.613 242.446 299.404 241.265 301.389 240.53C303.351 239.725 305.455 239.32 307.576 239.34C309.709 239.242 311.839 239.594 313.827 240.373C315.815 241.152 317.617 242.34 319.116 243.861C321.972 246.835 323.399 251.239 323.399 256.948C323.415 257.585 323.375 258.222 323.279 258.852C323.279 259.447 323.16 260.041 323.16 260.636H301.032C301.129 261.59 301.435 262.512 301.929 263.334C302.422 264.157 303.091 264.861 303.888 265.395C305.869 266.668 308.197 267.292 310.549 267.179C312.306 267.204 314.061 267.044 315.785 266.704C317.25 266.457 318.685 266.059 320.067 265.514L321.377 273.484C320.901 273.723 320.187 273.961 319.234 274.317C318.272 274.641 317.273 274.841 316.26 274.913C315.122 275.146 313.969 275.304 312.81 275.388C311.62 275.508 310.313 275.626 309.122 275.626C306.358 275.69 303.608 275.205 301.032 274.199C298.906 273.354 296.966 272.101 295.322 270.511C293.853 268.841 292.722 266.902 291.992 264.801C291.31 262.484 290.988 260.076 291.039 257.662M313.882 253.855C313.85 253.041 313.689 252.238 313.405 251.475C313.17 250.707 312.808 249.983 312.335 249.334C311.771 248.623 311.044 248.057 310.216 247.685C309.388 247.312 308.483 247.143 307.576 247.192C306.593 247.193 305.621 247.396 304.72 247.787C303.974 248.093 303.319 248.585 302.816 249.215C302.282 249.844 301.879 250.572 301.628 251.357C301.374 252.135 301.174 252.931 301.032 253.737H313.882" fill="white"/>
<path d="M340.65 267.536C341.938 267.631 343.232 267.469 344.457 267.061C344.813 266.865 345.104 266.569 345.295 266.21C345.485 265.85 345.565 265.443 345.527 265.038C345.527 264.205 345.052 263.611 344.1 263.016C342.709 262.186 341.233 261.507 339.697 260.993C338.151 260.398 336.723 259.803 335.535 259.208C334.396 258.663 333.352 257.94 332.44 257.067C331.566 256.181 330.878 255.129 330.418 253.973C329.911 252.604 329.669 251.151 329.704 249.691C329.639 248.228 329.929 246.771 330.551 245.444C331.172 244.118 332.107 242.963 333.273 242.077C335.653 240.173 338.984 239.221 343.148 239.221C345.184 239.236 347.215 239.436 349.216 239.816C350.761 240.051 352.276 240.451 353.736 241.007L352.071 248.621C350.881 248.263 349.691 247.906 348.381 247.55C346.942 247.196 345.462 247.035 343.981 247.073C340.887 247.073 339.459 247.906 339.459 249.571C339.481 249.939 339.561 250.301 339.697 250.643C339.864 251.042 340.157 251.376 340.53 251.595C340.887 251.833 341.482 252.189 342.077 252.546C342.791 252.903 343.623 253.141 344.694 253.617C346.535 254.275 348.325 255.071 350.048 255.996C351.298 256.569 352.398 257.425 353.261 258.495C354.082 259.312 354.659 260.342 354.926 261.469C355.282 262.705 355.443 263.99 355.402 265.276C355.477 266.783 355.167 268.284 354.501 269.637C353.835 270.99 352.834 272.151 351.594 273.01C349.096 274.794 345.527 275.626 340.768 275.626C338.204 275.705 335.641 275.425 333.155 274.794C331.727 274.498 330.331 274.059 328.991 273.484L330.656 265.514C332.321 266.154 334.031 266.671 335.772 267.06C337.375 267.401 339.011 267.56 340.649 267.536" fill="white"/>
<path d="M76.493 135.952H87.112V144.384H76.492L76.493 135.952Z" fill="white"/>
<path d="M200.658 129.007C200.377 128.951 200.09 128.929 199.803 128.942C199.308 128.968 198.823 129.094 198.378 129.312C197.514 129.729 196.844 130.464 196.508 131.363C196.172 132.262 196.196 133.255 196.575 134.137L196.549 134.174L205.077 154.777C213.236 149.571 219.427 141.794 222.672 132.675L200.696 128.961L200.658 129.007ZM166.464 131.927C166.279 131.115 165.827 130.388 165.18 129.863C164.533 129.339 163.729 129.046 162.896 129.033C162.65 129.03 162.405 129.052 162.163 129.098L162.126 129.053L140.341 132.751C143.612 141.798 149.778 149.512 157.881 154.697L166.323 134.298L166.257 134.218C166.569 133.496 166.641 132.693 166.464 131.927V131.927ZM184.709 139.927C184.391 139.334 183.918 138.838 183.34 138.493C182.762 138.148 182.101 137.966 181.428 137.967C180.755 137.967 180.095 138.151 179.518 138.498C178.941 138.844 178.469 139.341 178.152 139.935H178.134L167.421 159.307C175.092 161.919 183.338 162.343 191.236 160.532C192.701 160.199 194.131 159.799 195.528 159.333L184.79 139.926L184.709 139.927ZM218.623 94.927L202.14 109.68L202.149 109.727C201.643 110.17 201.266 110.741 201.058 111.381C200.85 112.021 200.819 112.705 200.969 113.361C201.119 114.016 201.443 114.619 201.908 115.105C202.373 115.592 202.961 115.943 203.609 116.122L203.629 116.211L224.979 122.361C225.902 112.769 223.67 103.138 218.623 94.929V94.927ZM188 96.58C188.031 97.2519 188.243 97.9029 188.615 98.4639C188.986 99.0248 189.502 99.4748 190.108 99.766C190.715 100.057 191.389 100.179 192.058 100.118C192.728 100.057 193.369 99.8158 193.913 99.42L193.978 99.448L212.014 86.659C205.149 79.9345 196.264 75.6516 186.727 74.469L187.98 96.574L188 96.58ZM168.9 99.502C169.444 99.8975 170.085 100.138 170.755 100.198C171.425 100.258 172.099 100.136 172.705 99.8432C173.31 99.5507 173.825 99.0996 174.195 98.5376C174.565 97.9757 174.775 97.324 174.804 96.652L174.896 96.608L176.149 74.469C174.636 74.6504 173.134 74.9091 171.648 75.244C163.742 77.0211 156.49 80.9728 150.711 86.653L168.865 99.522L168.9 99.502ZM159.222 116.23C159.872 116.053 160.461 115.702 160.928 115.216C161.394 114.73 161.719 114.127 161.869 113.47C162.02 112.813 161.989 112.128 161.78 111.488C161.571 110.848 161.192 110.276 160.684 109.834L160.702 109.747L144.128 94.922C139.072 103.152 136.901 112.832 137.96 122.433L159.205 116.303L159.222 116.23ZM175.32 122.742L181.434 125.682L187.53 122.749L189.044 116.167L184.825 110.891H178.035L173.804 116.159L175.32 122.742Z" fill="#326CE5"/>
<path d="M282.508 135.708L265.086 60.033C264.618 58.0753 263.72 56.2459 262.459 54.6769C261.198 53.1079 259.604 51.8384 257.793 50.96L187.272 17.29C185.444 16.4178 183.445 15.9651 181.419 15.9651C179.394 15.9651 177.395 16.4178 175.567 17.29L105.06 50.978C103.248 51.8559 101.654 53.125 100.393 54.6939C99.1311 56.2627 98.2336 58.0921 97.765 60.05L80.371 135.723C79.942 137.636 79.9406 139.62 80.367 141.533C80.4926 142.116 80.6566 142.69 80.858 143.251C81.1984 144.209 81.6491 145.124 82.201 145.977C82.44 146.342 82.692 146.697 82.966 147.041L131.77 207.719C131.983 207.983 132.218 208.224 132.451 208.469C133.217 209.284 134.081 210.001 135.025 210.602C136.218 211.353 137.519 211.919 138.882 212.279C140 212.585 141.153 212.744 142.312 212.752H143.071L220.575 212.734C221.046 212.732 221.517 212.704 221.985 212.651C222.657 212.575 223.321 212.449 223.974 212.273C224.442 212.15 224.903 212.002 225.355 211.831C225.708 211.696 226.06 211.561 226.4 211.398C226.909 211.154 227.403 210.88 227.879 210.576C229.107 209.804 230.2 208.836 231.116 207.711L232.604 205.861L279.903 147.021C280.81 145.884 281.522 144.605 282.011 143.236C282.215 142.673 282.382 142.097 282.511 141.512C282.938 139.599 282.937 137.615 282.507 135.703L282.508 135.708ZM209.361 165.14C209.559 165.722 209.794 166.291 210.064 166.843C209.633 167.598 209.515 168.492 209.737 169.333C210.763 171.683 212.016 173.927 213.479 176.033C214.298 177.11 215.053 178.233 215.742 179.397C215.912 179.712 216.134 180.2 216.295 180.533C216.599 181.041 216.793 181.606 216.865 182.194C216.937 182.781 216.885 183.377 216.713 183.943C216.541 184.509 216.253 185.033 215.866 185.481C215.48 185.928 215.004 186.29 214.469 186.543C213.934 186.796 213.352 186.934 212.76 186.949C212.169 186.963 211.581 186.854 211.034 186.627C210.488 186.401 209.995 186.063 209.586 185.634C209.178 185.206 208.865 184.697 208.665 184.14C208.504 183.81 208.28 183.37 208.143 183.058C207.661 181.793 207.252 180.502 206.918 179.19C206.186 176.736 205.216 174.359 204.022 172.093C203.503 171.392 202.729 170.923 201.868 170.786C201.733 170.553 201.233 169.637 200.965 169.163C188.411 173.917 174.546 173.882 162.017 169.063L161.062 170.794C160.38 170.9 159.746 171.208 159.243 171.68C157.804 174.042 156.704 176.594 155.975 179.262C155.644 180.574 155.238 181.865 154.757 183.13C154.622 183.44 154.396 183.874 154.235 184.203V184.212L154.228 184.22C154.029 184.778 153.715 185.288 153.307 185.717C152.898 186.146 152.405 186.484 151.857 186.711C151.31 186.937 150.721 187.046 150.129 187.031C149.537 187.016 148.955 186.877 148.42 186.623C147.885 186.369 147.409 186.006 147.023 185.557C146.637 185.108 146.349 184.583 146.178 184.016C146.008 183.448 145.958 182.852 146.032 182.264C146.106 181.677 146.303 181.111 146.609 180.604C146.768 180.269 146.981 179.784 147.149 179.469C147.837 178.302 148.593 177.176 149.411 176.096C150.9 173.934 152.179 171.635 153.231 169.23C153.343 168.415 153.212 167.584 152.855 166.843L153.623 165.003C142.072 158.186 133.415 147.377 129.285 134.616L127.446 134.929C126.733 134.423 125.891 134.126 125.018 134.074C122.502 134.556 120.038 135.281 117.662 136.239C116.428 136.794 115.164 137.278 113.875 137.689C113.57 137.773 113.13 137.857 112.782 137.933C112.754 137.943 112.73 137.955 112.702 137.962C112.68 137.965 112.659 137.967 112.637 137.968C112.077 138.152 111.484 138.218 110.897 138.16C110.311 138.102 109.742 137.922 109.229 137.632C108.716 137.342 108.268 136.947 107.916 136.474C107.564 136.001 107.314 135.46 107.183 134.885C107.052 134.31 107.043 133.714 107.155 133.135C107.268 132.557 107.5 132.008 107.837 131.524C108.174 131.04 108.608 130.631 109.112 130.325C109.616 130.019 110.178 129.821 110.763 129.744L110.824 129.729L110.861 129.719C111.214 129.636 111.666 129.519 111.988 129.457C113.331 129.271 114.683 129.162 116.038 129.131C118.594 128.964 121.127 128.548 123.602 127.889C124.335 127.422 124.955 126.797 125.416 126.059L127.183 125.543C125.266 112.224 128.333 98.6666 135.796 87.47L134.443 86.264C134.394 85.3887 134.1 84.5447 133.595 83.828C131.651 82.1571 129.549 80.6801 127.318 79.418C126.113 78.8037 124.945 78.1205 123.819 77.372C123.563 77.181 123.223 76.894 122.945 76.668L122.882 76.624C121.922 75.9345 121.274 74.893 121.08 73.7271C120.885 72.5613 121.16 71.3658 121.844 70.402C122.248 69.9072 122.763 69.5146 123.348 69.2561C123.932 68.9975 124.569 68.8803 125.207 68.914C126.281 68.9601 127.312 69.3491 128.149 70.024C128.436 70.249 128.829 70.55 129.084 70.769C130.066 71.6982 130.995 72.6832 131.864 73.719C133.589 75.614 135.495 77.3362 137.554 78.861C138.326 79.2668 139.226 79.354 140.061 79.104C140.564 79.4707 141.071 79.8313 141.583 80.186C148.999 72.3031 158.603 66.817 169.16 64.432C171.673 63.8629 174.222 63.471 176.79 63.259L176.89 61.475C177.545 60.8924 178.021 60.1347 178.26 59.291C178.352 56.7305 178.195 54.167 177.79 51.637C177.522 50.3111 177.329 48.9709 177.214 47.623C177.203 47.316 177.22 46.892 177.224 46.542C177.224 46.502 177.214 46.463 177.214 46.424C177.154 45.834 177.219 45.238 177.403 44.6744C177.588 44.1109 177.889 43.5923 178.286 43.1522C178.684 42.7121 179.169 42.3602 179.711 42.1193C180.253 41.8784 180.839 41.7537 181.432 41.7535C182.025 41.7532 182.612 41.8772 183.154 42.1177C183.696 42.3581 184.182 42.7095 184.58 43.1492C184.978 43.589 185.279 44.1072 185.464 44.6706C185.649 45.234 185.714 45.8299 185.655 46.42C185.655 46.79 185.677 47.281 185.664 47.62C185.548 48.9677 185.355 50.3076 185.085 51.633C184.678 54.1635 184.518 56.7275 184.607 59.289C184.774 60.1453 185.269 60.9025 185.986 61.399C186.001 61.704 186.051 62.722 186.088 63.283C199.43 64.4964 211.878 70.5111 221.12 80.21L222.726 79.063C223.589 79.211 224.475 79.1147 225.286 78.785C227.345 77.2576 229.251 75.5335 230.976 73.637C231.847 72.6006 232.778 71.6156 233.763 70.687C234.022 70.465 234.413 70.167 234.699 69.941C235.123 69.5234 235.629 69.1996 236.186 68.9905C236.743 68.7814 237.337 68.6917 237.931 68.7272C238.525 68.7627 239.104 68.9227 239.632 69.1968C240.16 69.4708 240.624 69.8528 240.995 70.3179C241.365 70.783 241.634 71.3209 241.783 71.8966C241.933 72.4723 241.959 73.073 241.862 73.6596C241.764 74.2462 241.544 74.8057 241.215 75.3018C240.887 75.7979 240.459 76.2194 239.957 76.539C239.674 76.768 239.3 77.087 239.028 77.289C237.899 78.0381 236.729 78.7212 235.521 79.335C233.291 80.5978 231.188 82.0748 229.244 83.745C228.678 84.4077 228.394 85.2655 228.452 86.135C228.217 86.351 227.392 87.082 226.955 87.478C234.439 98.6346 237.568 112.15 235.747 125.461L237.451 125.957C237.877 126.724 238.507 127.358 239.271 127.788C241.747 128.448 244.282 128.865 246.839 129.033C248.193 129.064 249.544 129.172 250.885 129.357C251.24 129.422 251.753 129.564 252.115 129.647C252.7 129.724 253.262 129.922 253.766 130.229C254.269 130.535 254.704 130.944 255.04 131.428C255.377 131.912 255.609 132.461 255.721 133.04C255.834 133.619 255.824 134.215 255.693 134.79C255.561 135.365 255.311 135.906 254.959 136.379C254.606 136.852 254.159 137.246 253.645 137.536C253.132 137.826 252.563 138.005 251.977 138.063C251.39 138.12 250.797 138.055 250.237 137.87L250.176 137.862C250.148 137.855 250.122 137.84 250.093 137.833C249.745 137.757 249.308 137.681 249.003 137.601C247.714 137.187 246.45 136.699 245.218 136.139C242.84 135.18 240.374 134.455 237.855 133.974C236.983 133.946 236.135 134.261 235.493 134.851C234.893 134.737 234.292 134.632 233.689 134.535C229.608 147.375 220.95 158.268 209.361 165.14V165.14Z" fill="#326CE5"/>
<path d="M291.707 137.649L272.7 55.088C272.189 52.9517 271.21 50.9554 269.834 49.2434C268.458 47.5314 266.719 46.1462 264.742 45.188L187.807 8.458C185.813 7.50625 183.631 7.01231 181.422 7.01231C179.212 7.01231 177.03 7.50625 175.036 8.458L98.108 45.21C96.1314 46.1674 94.3921 47.5516 93.0154 49.2627C91.6387 50.9739 90.659 52.9693 90.147 55.105L71.173 137.67C70.745 139.573 70.701 141.543 71.0436 143.464C71.3861 145.384 72.1084 147.217 73.168 148.855C73.429 149.255 73.706 149.643 74.006 150.017L127.252 216.222C128.648 217.926 130.402 219.301 132.389 220.249C134.377 221.197 136.549 221.696 138.751 221.709L224.138 221.689C226.34 221.676 228.512 221.179 230.499 220.232C232.487 219.285 234.241 217.911 235.638 216.209L288.865 149.998C290.228 148.281 291.191 146.282 291.682 144.146C292.174 142.01 292.182 139.791 291.707 137.651V137.649ZM282.51 141.515C282.382 142.1 282.216 142.675 282.012 143.238C281.522 144.607 280.809 145.886 279.902 147.023L232.603 205.861L231.117 207.713C230.2 208.838 229.106 209.806 227.877 210.578C227.403 210.882 226.91 211.156 226.403 211.4C226.061 211.558 225.713 211.702 225.358 211.831C224.905 212.003 224.443 212.151 223.975 212.275C223.322 212.451 222.658 212.578 221.986 212.654C221.518 212.707 221.047 212.734 220.576 212.736L143.072 212.754H142.312C141.153 212.747 140.001 212.588 138.883 212.282C137.52 211.921 136.221 211.355 135.028 210.604C134.084 210.003 133.218 209.287 132.452 208.472C132.219 208.226 131.984 207.985 131.772 207.722L82.967 147.043C82.695 146.7 82.44 146.345 82.202 145.977C81.6501 145.124 81.1994 144.209 80.859 143.251C80.6575 142.689 80.4935 142.115 80.368 141.532C79.9418 139.619 79.9431 137.635 80.372 135.723L97.766 60.048C98.2349 58.0905 99.1324 56.2615 100.394 54.693C101.656 53.1245 103.25 51.8556 105.061 50.978L175.569 17.292C177.397 16.4199 179.396 15.9672 181.422 15.9672C183.447 15.9672 185.446 16.4199 187.274 17.292L257.793 50.962C259.604 51.8404 261.198 53.1099 262.459 54.6789C263.72 56.2479 264.618 58.0773 265.086 60.035L282.508 135.71C282.937 137.622 282.938 139.605 282.51 141.517V141.515Z" fill="white"/>
<path d="M252.114 129.647C251.754 129.564 251.24 129.422 250.887 129.357C249.546 129.172 248.195 129.063 246.841 129.031C244.283 128.864 241.748 128.448 239.271 127.789C238.507 127.358 237.877 126.724 237.451 125.957L235.747 125.461C237.569 112.151 234.441 98.6348 226.957 87.478C227.393 87.082 228.219 86.351 228.452 86.136C228.394 85.2665 228.678 84.4087 229.244 83.746C231.188 82.0758 233.291 80.5988 235.521 79.336C236.728 78.7222 237.899 78.0391 239.028 77.29C239.3 77.088 239.672 76.768 239.957 76.54C240.458 76.2204 240.887 75.799 241.215 75.3031C241.543 74.8072 241.763 74.2478 241.861 73.6613C241.959 73.0748 241.933 72.4743 241.784 71.8987C241.634 71.323 241.366 70.7852 240.996 70.3201C240.625 69.8549 240.161 69.4729 239.633 69.1987C239.106 68.9244 238.526 68.7642 237.933 68.7284C237.339 68.6925 236.745 68.7819 236.188 68.9906C235.631 69.1994 235.125 69.5228 234.701 69.94C234.413 70.167 234.021 70.465 233.765 70.687C232.779 71.6156 231.848 72.6005 230.976 73.637C229.251 75.5334 227.345 77.2576 225.286 78.785C224.475 79.1147 223.589 79.211 222.726 79.063L221.12 80.21C211.878 70.5111 199.43 64.4964 186.088 63.283C186.049 62.722 186.001 61.706 185.986 61.399C185.269 60.9021 184.775 60.145 184.609 59.289C184.52 56.7275 184.68 54.1635 185.087 51.633C185.356 50.3079 185.548 48.9683 185.662 47.621C185.675 47.281 185.655 46.787 185.655 46.42C185.714 45.8299 185.649 45.234 185.464 44.6706C185.279 44.1072 184.978 43.589 184.58 43.1492C184.182 42.7095 183.696 42.3581 183.154 42.1177C182.612 41.8772 182.025 41.7532 181.432 41.7535C180.839 41.7537 180.253 41.8784 179.711 42.1193C179.169 42.3602 178.684 42.7121 178.286 43.1522C177.889 43.5923 177.588 44.1109 177.403 44.6744C177.219 45.238 177.154 45.834 177.214 46.424C177.214 46.464 177.223 46.502 177.224 46.542C177.22 46.892 177.203 47.316 177.214 47.622C177.329 48.9702 177.522 50.3107 177.79 51.637C178.195 54.167 178.352 56.7305 178.26 59.291C178.02 60.134 177.545 60.891 176.89 61.473L176.79 63.259C174.222 63.471 171.673 63.863 169.16 64.432C158.604 66.8176 149.002 72.3037 141.586 80.186C141.073 79.832 140.564 79.4713 140.06 79.104C139.225 79.3538 138.325 79.2665 137.554 78.861C135.495 77.3365 133.589 75.6147 131.864 73.72C130.996 72.6842 130.068 71.6993 129.087 70.77C128.83 70.55 128.437 70.25 128.149 70.021C127.312 69.3461 126.281 68.9571 125.207 68.911C124.569 68.8775 123.932 68.9948 123.348 69.2535C122.763 69.5122 122.248 69.905 121.844 70.4C121.16 71.3638 120.885 72.5593 121.079 73.7251C121.274 74.891 121.922 75.9325 122.882 76.622L122.947 76.668C123.223 76.894 123.563 77.183 123.819 77.37C124.945 78.1192 126.113 78.803 127.318 79.418C129.549 80.6808 131.651 82.1585 133.594 83.83C134.099 84.5461 134.393 85.3893 134.443 86.264L135.794 87.472C128.331 98.6688 125.265 112.227 127.183 125.545L125.416 126.059C124.955 126.795 124.335 127.42 123.602 127.886C121.127 128.547 118.593 128.964 116.037 129.133C114.682 129.164 113.33 129.273 111.988 129.459C111.664 129.519 111.214 129.633 110.861 129.721L110.824 129.729L110.764 129.747C110.179 129.824 109.617 130.022 109.114 130.328C108.61 130.635 108.176 131.043 107.839 131.527C107.502 132.011 107.27 132.56 107.158 133.139C107.045 133.718 107.055 134.314 107.186 134.888C107.317 135.463 107.567 136.004 107.919 136.477C108.271 136.95 108.718 137.344 109.232 137.634C109.745 137.925 110.313 138.104 110.9 138.162C111.486 138.22 112.079 138.155 112.639 137.971L112.702 137.961C112.73 137.955 112.754 137.941 112.782 137.936C113.13 137.857 113.568 137.773 113.874 137.69C115.163 137.279 116.427 136.794 117.66 136.239C120.037 135.281 122.501 134.555 125.018 134.074C125.891 134.127 126.731 134.424 127.444 134.931L129.284 134.616C133.415 147.377 142.072 158.186 153.624 165.003L152.855 166.843C153.212 167.584 153.344 168.415 153.232 169.23C152.18 171.634 150.901 173.933 149.412 176.094C148.593 177.173 147.838 178.299 147.149 179.466C146.981 179.784 146.768 180.271 146.607 180.604C146.302 181.111 146.107 181.676 146.034 182.263C145.961 182.85 146.012 183.446 146.183 184.012C146.354 184.578 146.642 185.103 147.027 185.551C147.413 185.999 147.889 186.362 148.423 186.615C148.957 186.869 149.539 187.008 150.13 187.023C150.722 187.038 151.31 186.93 151.856 186.704C152.403 186.478 152.897 186.141 153.305 185.713C153.714 185.285 154.028 184.777 154.228 184.22L154.235 184.212V184.202C154.395 183.872 154.622 183.439 154.757 183.13C155.238 181.865 155.644 180.574 155.975 179.262C156.704 176.594 157.804 174.042 159.243 171.68C159.746 171.208 160.38 170.898 161.062 170.792L162.019 169.062C174.548 173.88 188.412 173.915 200.965 169.161C201.233 169.639 201.733 170.553 201.865 170.784C202.727 170.922 203.501 171.392 204.02 172.094C205.215 174.359 206.185 176.736 206.918 179.19C207.252 180.502 207.661 181.793 208.143 183.058C208.28 183.37 208.503 183.809 208.665 184.14C208.865 184.697 209.178 185.206 209.586 185.634C209.995 186.063 210.488 186.401 211.034 186.627C211.581 186.854 212.169 186.963 212.76 186.949C213.352 186.934 213.934 186.796 214.469 186.543C215.004 186.29 215.48 185.928 215.866 185.481C216.253 185.033 216.541 184.509 216.713 183.943C216.885 183.377 216.937 182.781 216.865 182.194C216.793 181.606 216.599 181.041 216.295 180.533C216.134 180.2 215.912 179.713 215.745 179.397C215.056 178.233 214.301 177.11 213.482 176.033C212.019 173.927 210.766 171.683 209.74 169.333C209.517 168.493 209.634 167.598 210.064 166.843C209.794 166.291 209.559 165.722 209.361 165.14C220.95 158.268 229.608 147.375 233.689 134.535C234.235 134.622 235.186 134.788 235.495 134.851C236.137 134.262 236.984 133.947 237.855 133.974C240.373 134.455 242.838 135.18 245.215 136.139C246.448 136.699 247.713 137.187 249.003 137.601C249.308 137.681 249.743 137.757 250.093 137.834C250.122 137.842 250.148 137.855 250.176 137.862L250.236 137.871C250.796 138.055 251.388 138.12 251.974 138.062C252.561 138.003 253.129 137.824 253.642 137.534C254.155 137.244 254.602 136.85 254.954 136.377C255.306 135.905 255.555 135.364 255.687 134.789C255.818 134.215 255.828 133.619 255.716 133.041C255.603 132.462 255.372 131.913 255.036 131.429C254.699 130.945 254.266 130.537 253.763 130.23C253.26 129.923 252.698 129.725 252.114 129.647V129.647ZM212.014 86.66L193.977 99.447L193.914 99.418C193.37 99.8145 192.729 100.056 192.059 100.118C191.389 100.179 190.715 100.057 190.109 99.7662C189.502 99.475 188.986 99.0249 188.615 98.4637C188.244 97.9024 188.032 97.2511 188.001 96.579L187.981 96.57L186.728 74.466C196.265 75.6501 205.149 79.9344 212.013 86.66H212.014ZM178.036 110.888H184.824L189.044 116.164L187.531 122.745L181.435 125.678L175.321 122.738L173.805 116.155L178.036 110.888ZM171.65 75.24C173.137 74.9054 174.64 74.647 176.153 74.466L174.898 96.603L174.806 96.647C174.778 97.3192 174.567 97.9711 174.198 98.5333C173.828 99.0955 173.313 99.547 172.707 99.8397C172.102 100.132 171.428 100.255 170.758 100.195C170.088 100.135 169.446 99.8946 168.902 99.499L168.867 99.519L150.713 86.647C156.492 80.9675 163.744 77.0165 171.65 75.24ZM144.13 94.921L160.704 109.744L160.686 109.835C161.194 110.277 161.572 110.849 161.78 111.489C161.989 112.129 162.02 112.814 161.87 113.47C161.72 114.126 161.394 114.729 160.928 115.215C160.462 115.701 159.873 116.052 159.224 116.229L159.207 116.301L137.962 122.432C136.903 112.831 139.074 103.152 144.13 94.922V94.921ZM166.321 134.301L157.88 154.697C149.778 149.511 143.614 141.796 140.344 132.749L162.127 129.05L162.164 129.098C162.405 129.052 162.649 129.03 162.894 129.033C163.505 129.042 164.104 129.201 164.639 129.497C165.173 129.793 165.627 130.215 165.96 130.728C166.292 131.24 166.493 131.827 166.545 132.436C166.597 133.044 166.499 133.656 166.258 134.218L166.321 134.301ZM191.237 160.531C183.339 162.342 175.093 161.918 167.422 159.307L178.135 139.935H178.153C178.472 139.343 178.944 138.848 179.521 138.503C180.098 138.158 180.758 137.976 181.43 137.975C182.102 137.975 182.762 138.156 183.339 138.5C183.917 138.844 184.39 139.338 184.71 139.929H184.79L195.53 159.333C194.136 159.798 192.705 160.198 191.237 160.532V160.531ZM205.078 154.779L196.55 134.174L196.576 134.137C196.198 133.256 196.174 132.262 196.51 131.364C196.846 130.465 197.515 129.731 198.379 129.314C198.824 129.096 199.309 128.97 199.804 128.944C200.09 128.931 200.378 128.952 200.659 129.007L200.696 128.961L222.673 132.675C219.429 141.795 213.238 149.573 205.078 154.78V154.779ZM224.981 122.36L203.629 116.21L203.609 116.12C202.96 115.941 202.372 115.59 201.908 115.103C201.443 114.617 201.118 114.014 200.968 113.358C200.819 112.702 200.849 112.018 201.057 111.378C201.265 110.738 201.642 110.167 202.149 109.724L202.141 109.681L218.623 94.93C223.67 103.138 225.902 112.769 224.98 122.36H224.981Z" fill="white"/>
</svg>
