<svg width="200" height="204" viewBox="0 0 200 204" fill="none" xmlns="http://www.w3.org/2000/svg">
<g clip-path="url(#clip0_1_64)">
<path d="M40.3832 184.244C39.9629 195.313 31.136 204 20.2074 204C8.71841 204 0.171707 194.753 0.171707 183.404C0.171707 172.055 9.41896 162.808 20.7679 162.808C25.8118 162.808 30.8558 165.049 35.0591 168.973L31.8365 173.036C28.614 170.234 24.6909 168.272 20.7679 168.272C12.5014 168.272 5.63599 174.997 5.63599 183.404C5.63599 191.951 12.081 198.536 20.2074 198.536C27.4931 198.536 33.2376 193.212 34.4986 186.206H17.8256V181.302H40.3832V184.244V184.244Z" fill="white"/>
<path d="M59.4382 181.442H56.3558C52.9931 181.442 50.1909 184.244 50.1909 187.607V203.58H44.7267V176.118H49.2102V178.36C50.7514 176.819 52.9931 176.118 55.6552 176.118H61.5398L59.4382 181.442Z" fill="white"/>
<path d="M89.4217 203.58H84.658V200.077C81.0151 203.58 75.4107 205.261 69.6662 202.739C65.4629 200.918 62.2404 196.995 61.3997 192.371C59.7184 183.544 66.5838 175.698 75.2706 175.698C78.9135 175.698 82.2761 177.239 84.658 179.621V176.118H89.4217V203.58V203.58ZM83.8173 191.951C85.0783 186.346 80.875 181.302 75.4107 181.302C70.647 181.302 66.864 185.225 66.864 189.849C66.864 195.173 71.4876 199.236 76.9519 198.396C80.1745 197.835 82.9767 195.173 83.8173 191.951Z" fill="white"/>
<path d="M100.35 174.717V176.258H109.037V181.022H100.35V203.58H95.0261V174.857C95.0261 168.832 99.3695 165.33 104.834 165.33H111.419L109.177 170.514H104.834C102.312 170.374 100.35 172.335 100.35 174.717Z" fill="white"/>
<path d="M138.18 203.58H133.556V200.077C129.913 203.58 124.309 205.261 118.565 202.739C114.361 200.918 111.139 196.995 110.298 192.371C108.617 183.544 115.482 175.698 124.169 175.698C127.812 175.698 131.174 177.239 133.556 179.621V176.118H138.32V203.58H138.18ZM132.576 191.951C133.837 186.346 129.633 181.302 124.169 181.302C119.405 181.302 115.622 185.225 115.622 189.849C115.622 195.173 120.246 199.236 125.71 198.396C129.073 197.835 131.735 195.173 132.576 191.951Z" fill="white"/>
<path d="M167.463 187.467V203.58H161.999V187.327C161.999 183.964 159.196 181.162 155.834 181.162C152.331 181.162 149.669 183.964 149.669 187.327V203.58H144.205V176.118H148.688V178.5C150.65 176.679 153.312 175.698 155.974 175.698C162.419 175.838 167.463 181.022 167.463 187.467Z" fill="white"/>
<path d="M199.688 203.58H195.065V200.077C191.422 203.58 185.817 205.261 180.073 202.739C175.869 200.918 172.647 196.995 171.806 192.371C170.125 183.544 176.99 175.698 185.677 175.698C189.32 175.698 192.683 177.239 195.065 179.621V176.118H199.828V203.58H199.688ZM194.084 191.951C195.345 186.346 191.141 181.302 185.677 181.302C180.913 181.302 177.13 185.225 177.13 189.849C177.13 195.173 181.754 199.236 187.218 198.396C190.581 197.835 193.243 195.173 194.084 191.951Z" fill="white"/>
<path d="M172.367 69.9148C172.087 67.2528 171.666 64.1703 170.826 60.8077C169.985 57.4451 168.584 53.8022 166.762 49.8791C164.801 46.0962 162.419 42.033 159.196 38.25C157.935 36.7088 156.534 35.3077 155.133 33.7665C157.375 24.9396 152.471 17.2335 152.471 17.2335C143.924 16.6731 138.6 19.8956 136.639 21.2967C136.359 21.1566 135.938 21.0165 135.658 20.8764C134.257 20.3159 132.716 19.7555 131.174 19.1951C129.633 18.7747 128.092 18.2143 126.551 17.9341C125.01 17.5137 123.328 17.2335 121.647 16.9533C121.367 16.9533 121.087 16.8132 120.806 16.8132C117.163 5.04396 106.515 3.8147e-06 106.515 3.8147e-06C94.3256 7.84616 91.9437 18.3544 91.9437 18.3544C91.9437 18.3544 91.9437 18.6346 91.8036 18.9148C91.103 19.0549 90.5426 19.3352 89.842 19.4753C89.0014 19.7555 88.0206 20.0357 87.1799 20.456C86.3393 20.8764 85.3585 21.1566 84.5179 21.5769C82.6964 22.4176 81.0151 23.2582 79.1937 24.239C77.5124 25.2198 75.831 26.2006 74.2898 27.3214C74.0096 27.1813 73.8695 27.0412 73.8695 27.0412C57.4766 20.7363 42.9052 28.3022 42.9052 28.3022C41.6442 45.8159 49.4904 56.7445 51.0316 58.706C50.6113 59.8269 50.331 60.8077 49.9107 61.9286C48.6497 65.8517 47.8091 69.9148 47.2486 74.1181C47.1085 74.6786 47.1085 75.3791 46.9684 75.9396C31.8365 83.3654 27.353 98.7775 27.353 98.7775C39.9629 113.349 54.8146 114.19 54.8146 114.19C56.636 117.552 58.8777 120.775 61.2596 123.717C62.2404 124.978 63.3613 126.099 64.4821 127.36C59.8585 140.53 65.1827 151.599 65.1827 151.599C79.3338 152.159 88.581 145.434 90.5426 143.893C91.9437 144.313 93.3448 144.734 94.7459 145.154C99.0893 146.275 103.573 146.975 107.916 147.115C109.037 147.115 110.158 147.115 111.279 147.115H111.839H112.26H112.96H113.661C120.246 156.643 132.015 157.904 132.015 157.904C140.282 149.077 140.842 140.53 140.842 138.569C140.842 138.569 140.842 138.569 140.842 138.429C140.842 138.288 140.842 138.148 140.842 138.148C140.842 138.008 140.842 137.868 140.842 137.728C142.523 136.467 144.205 135.206 145.886 133.805C149.249 130.863 152.051 127.36 154.573 123.717C154.853 123.437 154.993 123.016 155.273 122.736C164.661 123.297 171.246 116.852 171.246 116.852C169.705 107.044 164.1 102.28 162.979 101.44C162.979 101.44 162.979 101.44 162.839 101.299L162.699 101.159L162.559 101.019C162.559 100.459 162.699 99.8984 162.699 99.1978C162.839 98.0769 162.839 97.0962 162.839 95.9753V95.1346V94.7143V94.5742C162.839 94.294 162.839 94.4341 162.839 94.294V93.5934V92.7527C162.839 92.4725 162.839 92.1923 162.839 91.9121C162.839 91.6319 162.839 91.3516 162.699 91.0714L162.559 90.2308L162.419 89.3901C162.279 88.2692 161.999 87.2885 161.859 86.1676C160.878 81.9643 159.196 77.9011 157.095 74.3984C154.853 70.7555 152.191 67.6731 149.109 64.8709C146.026 62.2088 142.663 59.967 139.021 58.4258C135.378 56.7445 131.735 55.7637 127.952 55.3434C126.13 55.0632 124.169 55.0632 122.348 55.0632H121.647H121.507H121.227H120.946H120.246C119.966 55.0632 119.685 55.0632 119.545 55.0632C118.565 55.2033 117.584 55.3434 116.743 55.4835C112.96 56.1841 109.457 57.5852 106.375 59.4066C103.293 61.228 100.63 63.6099 98.3887 66.272C96.147 68.9341 94.4657 71.7363 93.3448 74.8187C92.2239 77.761 91.5234 80.9835 91.3832 83.9258C91.3832 84.6264 91.3832 85.467 91.3832 86.1676C91.3832 86.3077 91.3832 86.5879 91.3832 86.728V87.2885C91.3832 87.7088 91.3832 87.989 91.5233 88.4093C91.6635 89.9505 91.9437 91.3516 92.364 92.7527C93.2047 95.5549 94.4657 98.0769 96.147 100.319C97.8283 102.56 99.6497 104.242 101.751 105.643C103.853 107.044 105.955 108.025 108.196 108.725C110.438 109.426 112.54 109.706 114.501 109.566C114.782 109.566 115.062 109.566 115.202 109.566C115.342 109.566 115.482 109.566 115.622 109.566C115.762 109.566 115.902 109.566 116.043 109.566C116.323 109.566 116.463 109.566 116.743 109.566H116.883H117.023C117.163 109.566 117.304 109.566 117.444 109.566C117.724 109.566 118.004 109.426 118.144 109.426C118.424 109.426 118.565 109.286 118.845 109.286C119.265 109.146 119.826 109.005 120.246 108.865C121.087 108.585 121.927 108.165 122.768 107.885C123.609 107.464 124.309 107.044 124.87 106.624C125.01 106.484 125.29 106.343 125.43 106.203C126.13 105.643 126.271 104.662 125.71 103.962C125.15 103.401 124.309 103.261 123.609 103.541C123.468 103.681 123.328 103.681 123.048 103.821C122.488 104.102 121.787 104.382 121.227 104.522C120.526 104.662 119.826 104.942 119.125 105.082C118.705 105.082 118.424 105.223 118.004 105.223C117.864 105.223 117.584 105.223 117.444 105.223C117.304 105.223 117.023 105.223 116.883 105.223C116.743 105.223 116.463 105.223 116.323 105.223C116.043 105.223 115.902 105.223 115.622 105.223C115.622 105.223 115.482 105.223 115.622 105.223H115.482H115.342C115.202 105.223 115.202 105.223 115.062 105.223C114.922 105.223 114.641 105.223 114.501 105.082C112.96 104.802 111.279 104.382 109.738 103.681C108.196 102.981 106.655 102 105.394 100.739C103.993 99.478 102.872 98.0769 101.891 96.3956C100.911 94.7143 100.35 92.8929 100.07 91.0714C99.9299 90.0907 99.7898 89.1099 99.9299 88.1291C99.9299 87.8489 99.9299 87.5687 99.9299 87.2885C99.9299 87.4286 99.9299 87.2885 99.9299 87.2885V87.1484V87.0082C99.9299 86.8681 99.9299 86.728 99.9299 86.5879C99.9299 86.0275 100.07 85.6071 100.21 85.0467C100.911 80.8434 103.012 76.7802 106.235 73.6978C107.076 72.8571 107.916 72.1566 108.897 71.5962C109.878 70.8956 110.859 70.3352 111.839 69.9148C112.82 69.4945 113.941 69.0742 115.062 68.794C116.183 68.5137 117.304 68.2335 118.424 68.2335C118.985 68.2335 119.545 68.0934 120.106 68.0934C120.246 68.0934 120.386 68.0934 120.526 68.0934H120.946H121.227C121.367 68.0934 121.227 68.0934 121.227 68.0934H121.367H121.787C123.048 68.2335 124.309 68.3736 125.43 68.6538C127.812 69.2143 130.194 70.0549 132.435 71.3159C136.919 73.8379 140.702 77.6209 142.944 82.2445C144.065 84.4863 144.905 87.0082 145.326 89.6703C145.466 90.3709 145.466 90.9313 145.606 91.6319V92.0522V92.4725C145.606 92.6126 145.606 92.7528 145.606 92.8929C145.606 93.033 145.606 93.1731 145.606 93.3132V93.7335V94.1538C145.606 94.4341 145.606 94.9945 145.606 95.2747C145.606 95.9753 145.466 96.6758 145.466 97.3764C145.326 98.0769 145.326 98.7775 145.185 99.478C145.045 100.179 144.905 100.879 144.765 101.58C144.485 102.981 143.924 104.242 143.504 105.643C142.523 108.305 141.122 110.827 139.441 113.069C136.078 117.692 131.455 121.475 126.271 123.857C123.609 124.978 120.946 125.959 118.144 126.379C116.743 126.659 115.342 126.799 113.941 126.799H113.661H113.38H112.96H112.26H111.839C111.979 126.799 111.839 126.799 111.839 126.799H111.699C110.999 126.799 110.158 126.799 109.457 126.659C106.375 126.379 103.433 125.819 100.49 124.978C97.5481 124.137 94.7459 123.016 92.0838 121.615C86.7596 118.813 81.9959 114.75 78.2129 110.126C76.3915 107.745 74.7102 105.223 73.3091 102.56C71.908 99.8983 70.9272 97.0962 70.0865 94.294C69.2459 91.4918 68.8256 88.5494 68.6854 85.6071V85.0467V84.9066V84.7665V84.4863V84.0659V83.9258V83.7857V83.5055V82.8049V82.6648V82.3846C68.6854 81.9643 68.6854 81.6841 68.6854 81.2637C68.6854 79.8626 68.8256 78.3214 69.1058 76.7802C69.2459 75.239 69.5261 73.8379 69.8063 72.2967C70.0865 70.7555 70.5069 69.3544 70.9272 67.8132C71.7679 64.8709 72.7486 62.0687 74.0096 59.4066C76.5316 54.0824 79.7541 49.3187 83.5371 45.5357C84.5179 44.5549 85.4986 43.7143 86.6195 42.8736C87.0398 42.4533 88.0206 41.6126 89.1415 40.9121C90.2624 40.2115 91.3832 39.511 92.6442 38.9506C93.2047 38.6703 93.7651 38.3901 94.4657 38.1099C94.7459 37.9698 95.0261 37.8297 95.4464 37.6896C95.7266 37.5495 96.0069 37.4093 96.4272 37.2692C97.6882 36.7088 98.9492 36.2885 100.21 35.8681C100.49 35.728 100.911 35.728 101.191 35.5879C101.471 35.4478 101.891 35.4478 102.172 35.3077C102.872 35.1676 103.433 35.0275 104.133 34.7473C104.413 34.6071 104.834 34.6071 105.114 34.467C105.394 34.467 105.815 34.3269 106.095 34.3269C106.375 34.3269 106.795 34.1868 107.076 34.1868L107.636 34.0467L108.196 33.9066C108.477 33.9066 108.897 33.7665 109.177 33.7665C109.598 33.7665 109.878 33.6264 110.298 33.6264C110.578 33.6264 111.139 33.4863 111.419 33.4863C111.699 33.4863 111.839 33.4863 112.12 33.3462H112.54H112.82H113.1C113.521 33.3462 113.801 33.3462 114.221 33.206H114.782C114.782 33.206 114.922 33.206 114.782 33.206H114.922H115.202C115.482 33.206 115.902 33.206 116.183 33.206C117.444 33.206 118.705 33.206 119.966 33.206C122.488 33.3462 125.01 33.6264 127.391 34.0467C132.155 34.8874 136.779 36.4286 140.842 38.5302C144.905 40.4918 148.688 43.0137 151.771 45.6758C151.911 45.8159 152.191 45.956 152.331 46.2363C152.471 46.3764 152.751 46.5165 152.891 46.7967C153.312 47.0769 153.592 47.4973 154.012 47.7775C154.433 48.0577 154.713 48.478 155.133 48.7582C155.413 49.1786 155.834 49.4588 156.114 49.8791C157.515 51.2802 158.776 52.8214 159.897 54.2225C162.139 57.1648 163.96 60.1071 165.361 62.9093C165.501 63.0495 165.501 63.1896 165.641 63.4698C165.782 63.6099 165.782 63.75 165.922 64.0302C166.062 64.3104 166.202 64.7308 166.482 65.011C166.622 65.2912 166.762 65.7115 166.902 65.9918C167.043 66.272 167.183 66.6923 167.323 66.9725C167.883 68.2335 168.304 69.4945 168.724 70.7555C169.424 72.717 169.845 74.3984 170.265 75.7994C170.405 76.3599 170.966 76.7802 171.526 76.7802C172.227 76.7802 172.647 76.2198 172.647 75.5192C172.507 73.8379 172.507 72.0165 172.367 69.9148Z" fill="url(#paint0_linear_1_64)"/>
</g>
<defs>
<linearGradient id="paint0_linear_1_64" x1="100" y1="193.507" x2="100" y2="49.4006" gradientUnits="userSpaceOnUse">
<stop stop-color="#FCEE1F"/>
<stop offset="1" stop-color="#F15B2A"/>
</linearGradient>
<clipPath id="clip0_1_64">
<rect width="200" height="204" fill="white"/>
</clipPath>
</defs>
</svg>
