<svg width="70" height="70" viewBox="0 0 70 70" fill="none" xmlns="http://www.w3.org/2000/svg">
<path d="M0 39.375C0 36.4123 0 33.451 0 30.4883C0.29668 30.61 0.255664 30.368 0.270703 30.2217C0.455273 28.3268 0.929687 26.4961 1.48066 24.6791C2.21621 22.251 3.21699 19.9432 4.46387 17.7311C5.6752 15.5818 7.07109 13.5598 8.72812 11.7482C10.2607 10.0721 11.8904 8.4834 13.7238 7.10527C16.6646 4.89453 19.8338 3.12402 23.3078 1.9209C25.5992 1.12656 27.9303 0.466211 30.3652 0.269336C30.5088 0.257031 30.7658 0.307617 30.6264 0C30.7631 0 30.8998 0 31.0365 0C30.9955 0.360938 31.2293 0.374609 31.5027 0.418359C34.542 0.913281 37.4896 1.72949 40.3006 2.99551C45.1199 5.1666 49.2434 8.25781 52.6941 12.2732C55.0867 15.0582 56.9598 18.1467 58.3994 21.51C60.0523 25.3709 60.8508 29.4273 61.1037 33.5973C61.224 35.5715 61.0941 37.5498 60.8234 39.5076C60.3012 43.2879 59.273 46.9232 57.5477 50.3439C56.6932 49.7766 55.8113 49.268 54.8215 48.9631C53.3449 48.5092 51.8766 48.0252 50.3986 47.5754C49.6412 47.3443 48.9111 47.0162 48.1182 46.9055C47.8338 46.7223 47.5645 46.5104 47.2637 46.3613C45.3414 45.4057 43.4123 44.4623 41.4859 43.5162C41.3041 43.4273 41.1277 43.3166 40.9117 43.3371L40.8598 43.3549C40.8557 41.9795 40.8529 40.6041 40.8488 39.2301C40.9295 38.9621 41.1783 38.8623 41.3793 38.7256C42.4061 38.0283 43.2414 37.1396 43.9455 36.1279C44.9859 34.6309 45.6381 32.9861 45.8186 31.1596C45.876 30.584 45.9881 30.1027 46.7797 30.0084C47.6342 29.9059 48.1182 29.1758 48.1264 28.2967C48.1359 27.0703 48.1236 25.8439 48.1209 24.6176C48.125 22.2496 48.1482 19.8816 48.1277 17.5137C48.1127 15.7418 46.8207 14.4525 45.0324 14.3527C44.1369 14.3035 43.8143 13.9973 43.7322 13.1223C43.5805 11.4912 42.5318 10.31 40.9445 10.0311C40.3854 9.93262 39.8111 9.9627 39.2438 10.0215C35.8982 10.0174 32.5527 9.95176 29.2086 10.0256C25.0086 10.1186 21.901 13.3451 21.8709 17.5355C21.8545 19.9021 21.8736 22.2688 21.8764 24.6354C21.8764 25.818 21.8709 27.0006 21.8764 28.1832C21.8805 29.1758 22.3221 29.8498 23.2736 29.9893C24.0064 30.0973 24.1309 30.5088 24.1938 31.0844C24.5438 34.2904 26.0627 36.8211 28.6467 38.7188C28.998 38.9771 29.1443 39.2355 29.1361 39.6717C29.1115 40.8994 29.1361 42.1271 29.1416 43.3549L29.0883 43.3371C28.8244 43.3289 28.6166 43.4793 28.3951 43.5873C26.8338 44.3543 25.2711 45.1199 23.7125 45.8924C23.0863 46.2027 22.4219 46.442 21.8832 46.9096C19.1953 47.6793 16.465 48.3643 13.9166 49.5072C11.5021 50.59 10.1172 52.6176 9.67969 55.2563C9.46914 56.5264 9.6209 57.8033 9.56621 59.0762C8.47109 58.0836 7.58789 56.9105 6.71016 55.7307C4.7291 53.0688 3.1623 50.184 2.05215 47.06C1.18945 44.6291 0.466211 42.16 0.265234 39.5691C0.255664 39.4297 0.232422 39.2396 0 39.375Z" fill="#CAE1FE"/>
<path d="M57.5476 50.3439C59.2716 46.9232 60.3011 43.2865 60.8234 39.5076C61.0941 37.5498 61.2226 35.5715 61.1036 33.5973C60.8507 29.4273 60.0523 25.3695 58.3993 21.51C56.9597 18.1467 55.0866 15.0582 52.6941 12.2732C49.2433 8.25781 45.1198 5.1666 40.3005 2.99551C37.4882 1.72949 34.5405 0.913281 31.5026 0.418359C31.2292 0.373242 30.9954 0.360938 31.0364 0C33.8159 0 36.5968 0 39.3763 0C39.2382 0.307617 39.4952 0.258398 39.6388 0.269336C41.5898 0.422461 43.4655 0.921484 45.3304 1.48477C47.7612 2.22031 50.0745 3.21563 52.2866 4.4707C54.4345 5.68887 56.4566 7.08477 58.2708 8.7418C59.9648 10.2895 61.5753 11.9328 62.9562 13.7895C65.0616 16.6209 66.7761 19.6547 67.9573 22.9852C68.8077 25.3818 69.5077 27.8141 69.7333 30.3625C69.7456 30.5061 69.695 30.7631 70.0027 30.625C70.0027 33.5412 70.0027 36.4588 70.0027 39.375C69.695 39.2369 69.732 39.4967 69.7361 39.6375C69.7607 40.6273 69.5214 41.5912 69.2958 42.5264C68.3046 46.6389 66.8171 50.5518 64.4204 54.0859C63.2187 55.8564 62.0128 57.6119 60.4351 59.0762C60.4323 58.1014 60.472 57.1238 60.4187 56.1518C60.2929 53.8467 59.3837 51.9148 57.5653 50.4465C57.5544 50.4137 57.5489 50.3795 57.5476 50.3439Z" fill="#BDD7FA"/>
<path d="M60.431 59.0762C59.1308 60.5937 57.6337 61.9049 56.0382 63.0902C52.7884 65.5047 49.2405 67.3476 45.3495 68.518C43.5011 69.073 41.6321 69.5092 39.7126 69.7293C39.5458 69.7484 39.312 69.6924 39.3735 70.0014C38.3714 70.0014 37.3679 70.0014 36.3657 70.0014C36.9946 68.9555 37.9694 68.2363 38.8226 67.401C39.446 67.6416 39.8903 67.1617 40.3661 66.9525C44.9489 64.9428 48.8823 62.0129 52.2169 58.2969C53.487 56.8818 54.6382 55.3642 55.6595 53.7469C56.339 52.6695 56.8831 51.5211 57.5599 50.4465C59.3782 51.9148 60.2874 53.8467 60.4132 56.1517C60.4679 57.1238 60.4282 58.1014 60.431 59.0762Z" fill="#407093"/>
<path d="M38.824 67.3996C37.9709 68.2336 36.9961 68.9528 36.3672 70C36.0937 70 35.8203 70 35.5469 70C35.7109 69.5434 36.0391 69.1565 36.1225 68.6657L36.1061 68.652C36.1471 68.6 36.1867 68.5494 36.2277 68.4975C37.167 66.7338 37.9545 64.9032 38.6641 63.0369C40.1639 59.2744 41.4312 55.4463 41.9289 51.4022C41.9699 51.111 42.0301 50.8225 42.0506 50.5299C42.2242 48.0457 42.1613 45.5971 40.9117 43.3371C41.1277 43.3166 41.3041 43.4274 41.4859 43.5162C43.4137 44.4623 45.3428 45.4043 47.2637 46.3614C47.5644 46.5104 47.8338 46.7223 48.1182 46.9055C48.1852 47.4442 48.0539 47.9295 47.79 48.4053C47.4359 49.0397 47.1228 49.6987 46.8043 50.3522C46.3449 51.2955 46.4324 51.8205 47.1557 52.5588C47.3949 52.8022 47.6519 53.0291 47.8748 53.2862C48.3164 53.7975 48.5324 54.369 48.2603 55.0416C48.1154 55.3985 47.9924 55.7676 47.8242 56.1121C46.1986 59.4371 43.7418 62.1469 41.2932 64.8567C40.5002 65.733 39.6484 66.5533 38.824 67.3996Z" fill="#375E7D"/>
<path d="M21.8833 46.9096C22.422 46.442 23.0878 46.2014 23.7126 45.8924C25.2712 45.1199 26.8339 44.3543 28.3952 43.5873C28.6167 43.4793 28.8245 43.3289 29.0884 43.3371C27.6911 45.9949 27.6638 48.8086 28.1437 51.6797C28.1573 51.9285 28.1464 52.1828 28.1888 52.4275C28.8177 56.0875 29.9401 59.6039 31.336 63.0369C32.1194 65.0932 32.9931 67.1098 34.0417 69.0457C34.1784 69.3629 34.3165 69.6814 34.4532 69.9986C34.1798 69.9986 33.9063 69.9986 33.6329 69.9986C33.5974 69.6527 33.3403 69.4859 33.086 69.315C33.0026 69.2084 32.9274 69.0922 32.8331 68.9965C30.4022 66.5711 27.9194 64.1949 25.7661 61.5098C24.3128 59.6982 22.9265 57.8402 21.9804 55.6992C21.3966 54.3772 21.4909 53.915 22.4985 52.9061C22.6106 52.7926 22.7241 52.6818 22.8362 52.567C23.5649 51.8232 23.6579 51.2955 23.2013 50.359C22.8827 49.7041 22.5683 49.0451 22.2142 48.4094C21.9489 47.935 21.8122 47.4496 21.8833 46.9096Z" fill="#375E7D"/>
<path d="M34.453 70C34.3163 69.6828 34.1782 69.3643 34.0415 69.0471C34.762 69.0662 35.3868 68.559 36.1237 68.6656C36.0403 69.1578 35.7108 69.5434 35.5481 70C35.1817 70 34.8181 70 34.453 70Z" fill="#D6636F"/>
<path d="M33.086 69.3164C33.3403 69.4873 33.5974 69.6541 33.6329 70C32.721 70 31.8105 70 30.8985 70C30.9505 69.8646 30.822 69.8824 30.7632 69.8414C31.4769 69.3984 32.3163 69.5078 33.086 69.3164Z" fill="#407093"/>
<path d="M29.1403 43.3549C29.1349 42.1272 29.1103 40.8994 29.1349 39.6717C29.1431 39.2342 28.9968 38.9772 28.6454 38.7188C26.0614 36.8211 24.5425 34.2891 24.1925 31.0844C24.1296 30.5088 24.0038 30.0973 23.2724 29.9893C22.3208 29.8498 21.8792 29.1744 21.8751 28.1832C21.871 27.0006 21.8751 25.818 21.8751 24.6354C22.6038 24.6367 23.3325 24.6531 24.0612 24.6367C25.3806 24.6067 26.2802 23.7317 26.3554 22.4178C26.3773 22.0322 26.3554 21.644 26.3636 21.257C26.3964 19.5207 27.8169 18.4024 29.4726 18.9233C32.7019 19.9404 35.9476 20.0553 39.237 19.3061C39.2384 21.1285 39.2685 22.951 39.2329 24.7721C39.1823 27.4313 39.4079 30.0959 39.1044 32.751C38.8433 35.0397 37.8821 37.0016 36.3153 38.6818C35.6249 39.4215 34.8429 40.0545 33.8544 40.6902C35.938 40.8789 37.7468 40.5986 39.4763 39.8084C39.9275 39.602 40.3294 39.2725 40.8503 39.2315C40.8544 40.6068 40.8571 41.9822 40.8612 43.3563C40.5058 43.5723 40.2501 43.8949 39.9862 44.2053C38.5316 45.9156 37.0851 47.6315 35.629 49.3404C35.4513 49.5496 35.2339 49.726 35.2722 50.0391C35.182 50.0336 35.0904 50.0295 35.0001 50.024C34.903 49.6043 34.5982 49.3268 34.3275 49.0233C33.7081 48.3301 33.1216 47.6041 32.4736 46.9397C31.332 45.7721 30.3995 44.4117 29.1403 43.3549Z" fill="#FEDCCD"/>
<path d="M33.086 69.3164C32.3149 69.5078 31.4769 69.3984 30.7632 69.8414C29.5642 69.5912 28.3433 69.4681 27.1456 69.192C22.1991 68.049 17.7161 65.9463 13.6856 62.8537C12.1981 61.7121 10.8146 60.4721 9.56768 59.0762C9.62236 57.8033 9.4706 56.5263 9.68115 55.2562C10.1187 52.6176 11.5036 50.59 13.9181 49.5072C16.4651 48.3642 19.1968 47.6793 21.8847 46.9095C21.8136 47.4496 21.9503 47.9349 22.2155 48.4107C22.5696 49.0465 22.8841 49.7054 23.2026 50.3603C23.6579 51.2969 23.5663 51.8246 22.8376 52.5683C22.7255 52.6818 22.612 52.7939 22.4999 52.9074C21.4923 53.9164 21.3979 54.3785 21.9817 55.7006C22.9278 57.8416 24.3155 59.6996 25.7675 61.5111C27.9208 64.1976 30.4036 66.5738 32.8345 68.9978C32.9274 69.0935 33.0026 69.2097 33.086 69.3164Z" fill="#4A80A9"/>
<path d="M39.2356 19.306C35.9462 20.0539 32.7019 19.9404 29.4712 18.9232C27.8155 18.4023 26.3937 19.5193 26.3622 21.257C26.3554 21.6439 26.3759 22.0322 26.354 22.4177C26.2802 23.7316 25.3792 24.6066 24.0599 24.6367C23.3311 24.6531 22.6024 24.6367 21.8737 24.6353C21.871 22.2687 21.8505 19.9021 21.8683 17.5355C21.8983 13.3451 25.006 10.1185 29.206 10.0256C32.5487 9.95173 35.8956 10.0174 39.2411 10.0215C39.2397 12.8379 39.237 15.6556 39.2384 18.472C39.2384 18.714 39.1741 18.9806 39.4093 19.1679C39.3532 19.2144 39.2944 19.2595 39.2356 19.306Z" fill="#375E7D"/>
<path d="M39.2355 19.3061C39.2943 19.2596 39.3531 19.2145 39.4105 19.168C39.8262 19.0668 40.2418 18.9656 40.6561 18.8631C42.1504 18.4953 43.508 19.451 43.6379 20.9809C43.6857 21.5441 43.6516 22.1156 43.7185 22.6762C43.8553 23.8301 44.7207 24.593 45.8746 24.6121C46.6225 24.6244 47.3703 24.6162 48.1195 24.6162C48.1223 25.8426 48.1346 27.069 48.125 28.2953C48.1182 29.1758 47.6328 29.9059 46.7783 30.007C45.9867 30.1014 45.8746 30.5826 45.8172 31.1582C45.6353 32.9848 44.9846 34.6295 43.9441 36.1266C43.24 37.1397 42.4047 38.027 41.3779 38.7242C41.1769 38.8609 40.9281 38.9607 40.8475 39.2287C40.3266 39.2697 39.9246 39.5992 39.4734 39.8057C37.7439 40.5959 35.9365 40.8762 33.8516 40.6875C34.84 40.0518 35.6221 39.4188 36.3125 38.6791C37.8807 37.0002 38.8404 35.0383 39.1016 32.7482C39.4051 30.0932 39.1795 27.4285 39.2301 24.7693C39.267 22.951 39.2369 21.1285 39.2355 19.3061Z" fill="#FECABD"/>
<path d="M38.824 67.3996C39.6484 66.5533 40.5001 65.7316 41.2904 64.8566C43.7404 62.1469 46.1958 59.4371 47.8214 56.1121C47.991 55.7662 48.1126 55.3984 48.2576 55.0416C48.531 54.3689 48.315 53.7961 47.872 53.2861C47.6492 53.0291 47.3921 52.8021 47.1529 52.5588C46.4283 51.8205 46.3408 51.2955 46.8015 50.3521C47.1201 49.6986 47.4332 49.041 47.7873 48.4053C48.0525 47.9295 48.1837 47.4441 48.1154 46.9055C48.9083 47.0162 49.6384 47.3443 50.3958 47.5754C51.8738 48.0252 53.3421 48.5092 54.8187 48.9631C55.8099 49.2666 56.6904 49.7766 57.5449 50.3439C57.5462 50.3781 57.5517 50.4123 57.5599 50.4465C56.8818 51.5197 56.339 52.6695 55.6595 53.7469C54.6382 55.3656 53.4871 56.8818 52.2169 58.2969C48.8824 62.0129 44.949 64.9414 40.3662 66.9525C39.8917 67.1603 39.4474 67.6402 38.824 67.3996Z" fill="#4A80A9"/>
<path d="M48.1196 24.6176C47.3717 24.6162 46.6225 24.6258 45.8747 24.6135C44.7208 24.5943 43.8553 23.8315 43.7186 22.6776C43.6516 22.117 43.6858 21.5455 43.638 20.9822C43.5081 19.4524 42.1505 18.4953 40.6561 18.8645C40.2405 18.967 39.8262 19.0668 39.4106 19.1694C39.1755 18.9807 39.2397 18.7154 39.2397 18.4735C39.2383 15.6571 39.2411 12.8393 39.2424 10.0229C39.8098 9.96408 40.384 9.93537 40.9432 10.0324C42.5305 10.3114 43.5792 11.4926 43.7309 13.1237C43.8129 14 44.1342 14.3049 45.0311 14.3541C46.8208 14.4526 48.1114 15.7432 48.1264 17.5151C48.1469 19.8817 48.1237 22.2496 48.1196 24.6176Z" fill="#2C4D66"/>
<path d="M29.1402 43.3549C30.3993 44.4117 31.3318 45.7707 32.4706 46.9396C33.1187 47.6041 33.7052 48.3301 34.3245 49.0232C34.5952 49.3267 34.9001 49.6043 34.9972 50.024C34.0607 50.8142 33.1173 51.5976 32.1917 52.4002C31.9812 52.582 31.6599 52.6914 31.6462 53.0469C30.4417 53.6307 29.5175 53.2465 28.7888 52.2115C28.6193 51.9709 28.4949 51.6906 28.1421 51.6797C27.6609 48.8086 27.6882 45.9949 29.0868 43.3371C29.0868 43.3371 29.1402 43.3549 29.1402 43.3549Z" fill="#F2F9FD"/>
<path d="M35.2693 50.0391C35.231 49.7246 35.4484 49.5496 35.6262 49.3405C37.0822 47.6315 38.5273 45.9143 39.9834 44.2053C40.2473 43.8949 40.5029 43.5723 40.8584 43.3563L40.9103 43.3385C42.1599 45.5985 42.2242 48.0457 42.0492 50.5313C42.0287 50.8238 41.9699 51.1123 41.9275 51.4035C41.542 51.7112 41.2289 52.0817 40.9377 52.4809C40.4373 53.1645 39.7441 53.3737 38.9703 53.1112C38.7789 53.0469 38.5916 52.9744 38.4016 52.9047C38.3851 52.6354 38.1473 52.5438 37.9846 52.4002C37.0836 51.6072 36.1758 50.8252 35.2693 50.0391Z" fill="#F2F9FD"/>
<path d="M36.1224 68.6656C35.3854 68.559 34.7606 69.0662 34.0401 69.0471C32.9915 67.1098 32.1179 65.0946 31.3345 63.0369C31.6872 62.177 31.8444 61.2623 32.0618 60.3668C32.4884 58.6155 33.0339 56.8928 33.3319 55.1114C34.4435 55.1114 35.555 55.11 36.6651 55.11C37.2243 57.7787 37.9093 60.416 38.6626 63.0369C37.9544 64.9031 37.1655 66.7338 36.2263 68.4975C36.1853 68.5494 36.1456 68.6 36.1046 68.652L36.1224 68.6656Z" fill="#E18086"/>
<path d="M38.664 63.0369C37.9106 60.416 37.2257 57.7787 36.6665 55.11C37.2448 54.3744 37.8231 53.6389 38.4015 52.9033C38.5915 52.9717 38.7788 53.0442 38.9702 53.1098C39.744 53.3736 40.4372 53.1631 40.9376 52.4795C41.2288 52.0817 41.5419 51.7111 41.9274 51.4022C41.4298 55.4463 40.1624 59.2744 38.664 63.0369Z" fill="#E2F3FD"/>
<path d="M36.106 68.6519C36.147 68.6 36.1866 68.5494 36.2276 68.4974C36.1866 68.5494 36.147 68.6 36.106 68.6519Z" fill="#D6636F"/>
<path d="M33.332 55.1113C33.034 56.8941 32.4885 58.6154 32.0619 60.3668C31.8445 61.2623 31.6873 62.177 31.3346 63.0369C29.94 59.6025 28.8176 56.0875 28.1887 52.4275C28.1463 52.1828 28.1572 51.9299 28.1436 51.6797C28.4963 51.6906 28.6207 51.9709 28.7902 52.2115C29.5176 53.2465 30.4432 53.6307 31.6477 53.0469C32.2082 53.7359 32.7701 54.4236 33.332 55.1113Z" fill="#E2F3FD"/>
<path d="M33.332 55.1114C32.7701 54.4237 32.2082 53.736 31.6462 53.0469C31.6599 52.6914 31.9812 52.5821 32.1917 52.4002C33.1173 51.5977 34.0607 50.8143 34.9972 50.024C35.0874 50.0295 35.1791 50.0336 35.2693 50.0391C36.1744 50.8252 37.0835 51.6073 37.9845 52.3989C38.1472 52.5424 38.3851 52.634 38.4015 52.9033C37.8232 53.6389 37.2449 54.3744 36.6666 55.11C35.555 55.1113 34.4435 55.1114 33.332 55.1114Z" fill="#DC646F"/>
</svg>
