<svg width="114" height="108" viewBox="0 0 114 108" fill="none" xmlns="http://www.w3.org/2000/svg">
<path d="M28.8843 24.9363C33.3008 21.2846 38.3789 18.4095 43.8284 16.4753C49.278 14.541 54.9924 13.5854 60.6453 13.6631C66.2982 13.7407 71.779 14.8501 76.7746 16.9279C81.7703 19.0057 86.183 22.0112 89.7609 25.7727L88.495 26.8194C85.0518 23.1995 80.8051 20.3071 75.9975 18.3076C71.1899 16.308 65.9154 15.2403 60.4753 15.1656C55.0352 15.0909 49.5359 16.0105 44.2914 17.8719C39.047 19.7334 34.1601 22.5002 29.9098 26.0145L28.8843 24.9363Z" fill="#374151"/>
<path d="M12.8484 39.7482V29.9482H16.6844C17.2164 29.9482 17.6877 30.0742 18.0984 30.3262C18.5184 30.5782 18.8497 30.9235 19.0924 31.3622C19.3351 31.8008 19.4564 32.3002 19.4564 32.8602C19.4564 33.4295 19.3351 33.9428 19.0924 34.4002C18.8497 34.8575 18.5184 35.2215 18.0984 35.4922C17.6877 35.7628 17.2164 35.8982 16.6844 35.8982H13.9544V39.7482H12.8484ZM13.9544 34.8202H16.6844C17.0017 34.8202 17.2817 34.7362 17.5244 34.5682C17.7671 34.3908 17.9584 34.1528 18.0984 33.8542C18.2477 33.5555 18.3224 33.2242 18.3224 32.8602C18.3224 32.5055 18.2477 32.1928 18.0984 31.9222C17.9584 31.6422 17.7671 31.4228 17.5244 31.2642C17.2817 31.0962 17.0017 31.0122 16.6844 31.0122H13.9544V34.8202ZM24.3889 39.7482L28.1689 29.9482H29.3589L33.1249 39.7482H31.9349L29.5409 33.4482C29.5129 33.3828 29.4616 33.2382 29.3869 33.0142C29.3122 32.7808 29.2236 32.5195 29.1209 32.2302C29.0182 31.9408 28.9202 31.6655 28.8269 31.4042C28.7336 31.1335 28.6589 30.9282 28.6029 30.7882H28.8689C28.8129 30.9468 28.7429 31.1522 28.6589 31.4042C28.5749 31.6562 28.4816 31.9175 28.3789 32.1882C28.2856 32.4588 28.1969 32.7108 28.1129 32.9442C28.0289 33.1775 27.9636 33.3642 27.9169 33.5042L25.5369 39.7482H24.3889ZM25.9849 37.0462L26.3909 35.9682H31.0249L31.4869 37.0462H25.9849ZM42.8016 39.8882C42.111 39.8882 41.4763 39.7668 40.8976 39.5242C40.3283 39.2815 39.829 38.9362 39.3996 38.4882C38.9796 38.0402 38.653 37.5082 38.4196 36.8922C38.1956 36.2762 38.0836 35.5995 38.0836 34.8622C38.0836 34.1528 38.205 33.4948 38.4476 32.8882C38.6903 32.2722 39.0263 31.7402 39.4556 31.2922C39.8943 30.8348 40.403 30.4802 40.9816 30.2282C41.5603 29.9762 42.195 29.8502 42.8856 29.8502C43.3616 29.8502 43.8236 29.9202 44.2716 30.0602C44.7196 30.2002 45.1256 30.3962 45.4896 30.6482C45.863 30.9002 46.1756 31.1895 46.4276 31.5162L45.6716 32.2862C45.2703 31.8568 44.8316 31.5302 44.3556 31.3062C43.889 31.0728 43.399 30.9562 42.8856 30.9562C42.363 30.9562 41.8776 31.0542 41.4296 31.2502C40.9816 31.4462 40.5896 31.7168 40.2536 32.0622C39.927 32.4075 39.6703 32.8228 39.4836 33.3082C39.297 33.7842 39.2036 34.3022 39.2036 34.8622C39.2036 35.4502 39.297 35.9868 39.4836 36.4722C39.6703 36.9482 39.927 37.3588 40.2536 37.7042C40.5896 38.0402 40.9863 38.3015 41.4436 38.4882C41.901 38.6748 42.4096 38.7682 42.9696 38.7682C43.315 38.7682 43.651 38.7262 43.9776 38.6422C44.3043 38.5488 44.6076 38.4182 44.8876 38.2502C45.1676 38.0822 45.4243 37.8862 45.6576 37.6622L46.2316 38.5722C45.9983 38.8242 45.6996 39.0528 45.3356 39.2582C44.9716 39.4542 44.5703 39.6082 44.1316 39.7202C43.7023 39.8322 43.259 39.8882 42.8016 39.8882ZM52.2644 39.7482V29.9482H58.2004V31.0122H53.3704V38.6842H58.1724V39.7482H52.2644ZM52.7824 35.2402V34.1762H57.4164V35.2402H52.7824Z" fill="#374151"/>
<path d="M99.312 25.7482L107.106 39.2482H91.5178L99.312 25.7482Z" fill="#374151"/>
<path d="M58.8432 50.7482V44.5082H56.8232V43.7482H61.6932V44.5082H59.6332V50.7482H58.8432ZM66.4522 50.7482L64.1622 47.4882L61.4622 43.7482H62.4722L64.6822 46.9282L67.4622 50.7482H66.4522ZM61.4122 50.7482L64.0622 46.9982L64.5522 47.5682L62.3522 50.7482H61.4122ZM64.8022 47.4082L64.3122 46.8582L66.4222 43.7482H67.3622L64.8022 47.4082ZM69.2159 50.7482V44.5082H67.1959V43.7482H72.0659V44.5082H70.0059V50.7482H69.2159ZM76.7683 50.8382C76.3183 50.8382 75.9163 50.7302 75.5623 50.5142C75.2143 50.2982 74.9383 50.0072 74.7343 49.6412C74.5363 49.2692 74.4373 48.8492 74.4373 48.3812C74.4373 47.9192 74.5363 47.5052 74.7343 47.1392C74.9383 46.7672 75.2143 46.4762 75.5623 46.2662C75.9163 46.0502 76.3183 45.9422 76.7683 45.9422C77.1763 45.9422 77.5453 46.0232 77.8753 46.1852C78.2053 46.3412 78.4663 46.5602 78.6583 46.8422L78.2623 47.3102C78.1543 47.1662 78.0223 47.0402 77.8663 46.9322C77.7103 46.8182 77.5423 46.7312 77.3623 46.6712C77.1823 46.6052 77.0023 46.5722 76.8223 46.5722C76.4923 46.5722 76.1953 46.6502 75.9313 46.8062C75.6733 46.9622 75.4693 47.1782 75.3193 47.4542C75.1693 47.7242 75.0943 48.0332 75.0943 48.3812C75.0943 48.7292 75.1693 49.0412 75.3193 49.3172C75.4753 49.5932 75.6853 49.8122 75.9493 49.9742C76.2133 50.1362 76.5073 50.2172 76.8313 50.2172C77.0113 50.2172 77.1853 50.1902 77.3533 50.1362C77.5273 50.0762 77.6893 49.9922 77.8393 49.8842C77.9893 49.7762 78.1303 49.6442 78.2623 49.4882L78.6493 49.9652C78.4513 50.2232 78.1813 50.4332 77.8393 50.5952C77.5033 50.7572 77.1463 50.8382 76.7683 50.8382ZM81.6394 50.8382C81.1774 50.8382 80.7634 50.7332 80.3974 50.5232C80.0374 50.3072 79.7524 50.0162 79.5424 49.6502C79.3324 49.2782 79.2274 48.8552 79.2274 48.3812C79.2274 47.9072 79.3324 47.4872 79.5424 47.1212C79.7524 46.7552 80.0374 46.4672 80.3974 46.2572C80.7634 46.0472 81.1774 45.9422 81.6394 45.9422C82.1014 45.9422 82.5124 46.0472 82.8724 46.2572C83.2384 46.4672 83.5234 46.7552 83.7274 47.1212C83.9374 47.4872 84.0424 47.9072 84.0424 48.3812C84.0424 48.8552 83.9374 49.2782 83.7274 49.6502C83.5234 50.0162 83.2384 50.3072 82.8724 50.5232C82.5124 50.7332 82.1014 50.8382 81.6394 50.8382ZM81.6394 50.2082C81.9694 50.2082 82.2634 50.1302 82.5214 49.9742C82.7854 49.8122 82.9894 49.5932 83.1334 49.3172C83.2834 49.0412 83.3554 48.7292 83.3494 48.3812C83.3554 48.0272 83.2834 47.7152 83.1334 47.4452C82.9894 47.1752 82.7854 46.9622 82.5214 46.8062C82.2634 46.6502 81.9694 46.5722 81.6394 46.5722C81.3094 46.5722 81.0124 46.6502 80.7484 46.8062C80.4904 46.9622 80.2864 47.1782 80.1364 47.4542C79.9864 47.7242 79.9144 48.0332 79.9204 48.3812C79.9144 48.7292 79.9864 49.0412 80.1364 49.3172C80.2864 49.5932 80.4904 49.8122 80.7484 49.9742C81.0124 50.1302 81.3094 50.2082 81.6394 50.2082ZM85.0165 50.7482V46.0232H85.7005L85.7095 47.0942L85.5475 47.1572C85.6195 46.9772 85.7125 46.8152 85.8265 46.6712C85.9405 46.5212 86.0725 46.3952 86.2225 46.2932C86.3785 46.1852 86.5435 46.1012 86.7175 46.0412C86.8975 45.9812 87.0805 45.9512 87.2665 45.9512C87.5305 45.9512 87.7645 45.9962 87.9685 46.0862C88.1785 46.1702 88.3495 46.3022 88.4815 46.4822C88.6195 46.6622 88.7185 46.8902 88.7785 47.1662H88.6525L88.7065 47.0132C88.7785 46.8572 88.8715 46.7162 88.9855 46.5902C89.1055 46.4582 89.2405 46.3442 89.3905 46.2482C89.5465 46.1522 89.7085 46.0802 89.8765 46.0322C90.0505 45.9782 90.2215 45.9512 90.3895 45.9512C90.7375 45.9512 91.0285 46.0202 91.2625 46.1582C91.4965 46.2962 91.6735 46.5092 91.7935 46.7972C91.9135 47.0792 91.9735 47.4392 91.9735 47.8772V50.7482H91.2895V47.9042C91.2895 47.4482 91.1965 47.1152 91.0105 46.9052C90.8245 46.6952 90.5485 46.5902 90.1825 46.5902C89.9905 46.5902 89.8105 46.6232 89.6425 46.6892C89.4805 46.7492 89.3395 46.8362 89.2195 46.9502C89.0995 47.0642 89.0065 47.1902 88.9405 47.3282C88.8745 47.4662 88.8415 47.6132 88.8415 47.7692V50.7482H88.1485V47.8952C88.1485 47.4572 88.0555 47.1302 87.8695 46.9142C87.6835 46.6982 87.4165 46.5902 87.0685 46.5902C86.8705 46.5902 86.6875 46.6232 86.5195 46.6892C86.3575 46.7552 86.2135 46.8422 86.0875 46.9502C85.9675 47.0582 85.8745 47.1812 85.8085 47.3192C85.7425 47.4512 85.7095 47.5862 85.7095 47.7242V50.7482H85.0165ZM93.1997 52.7552V46.0232H93.8837L93.8927 47.2742L93.7667 47.2292C93.8207 47.0012 93.9347 46.7912 94.1087 46.5992C94.2887 46.4072 94.5047 46.2512 94.7567 46.1312C95.0147 46.0112 95.2817 45.9512 95.5577 45.9512C95.9897 45.9512 96.3737 46.0562 96.7097 46.2662C97.0457 46.4762 97.3097 46.7642 97.5017 47.1302C97.6937 47.4962 97.7897 47.9132 97.7897 48.3812C97.7897 48.8492 97.6937 49.2692 97.5017 49.6412C97.3097 50.0072 97.0457 50.2982 96.7097 50.5142C96.3797 50.7242 96.0077 50.8292 95.5937 50.8292C95.2997 50.8292 95.0177 50.7692 94.7477 50.6492C94.4837 50.5292 94.2557 50.3702 94.0637 50.1722C93.8777 49.9742 93.7637 49.7612 93.7217 49.5332L93.8927 49.4612V52.7552H93.1997ZM95.4857 50.1992C95.8037 50.1992 96.0857 50.1212 96.3317 49.9652C96.5837 49.8092 96.7787 49.5932 96.9167 49.3172C97.0607 49.0412 97.1327 48.7292 97.1327 48.3812C97.1327 48.0392 97.0607 47.7332 96.9167 47.4632C96.7787 47.1932 96.5867 46.9802 96.3407 46.8242C96.0947 46.6682 95.8097 46.5902 95.4857 46.5902C95.1737 46.5902 94.8947 46.6682 94.6487 46.8242C94.4087 46.9742 94.2167 47.1842 94.0727 47.4542C93.9347 47.7242 93.8657 48.0362 93.8657 48.3902C93.8657 48.7382 93.9347 49.0502 94.0727 49.3262C94.2167 49.5962 94.4087 49.8092 94.6487 49.9652C94.8947 50.1212 95.1737 50.1992 95.4857 50.1992ZM101.778 50.7482V47.5982C101.778 47.2922 101.67 47.0462 101.454 46.8602C101.238 46.6742 100.953 46.5812 100.599 46.5812C100.305 46.5812 100.038 46.6412 99.7976 46.7612C99.5576 46.8812 99.3446 47.0612 99.1586 47.3012L98.7086 46.8512C98.9786 46.5452 99.2726 46.3172 99.5906 46.1672C99.9146 46.0172 100.266 45.9422 100.644 45.9422C101.004 45.9422 101.316 46.0022 101.58 46.1222C101.844 46.2422 102.045 46.4162 102.183 46.6442C102.327 46.8722 102.399 47.1482 102.399 47.4722V50.7482H101.778ZM100.158 50.8382C99.8516 50.8382 99.5786 50.7782 99.3386 50.6582C99.0986 50.5382 98.9066 50.3732 98.7626 50.1632C98.6246 49.9472 98.5556 49.6952 98.5556 49.4072C98.5556 49.1732 98.5976 48.9662 98.6816 48.7862C98.7716 48.6062 98.9006 48.4562 99.0686 48.3362C99.2366 48.2162 99.4496 48.1262 99.7076 48.0662C99.9656 48.0002 100.26 47.9672 100.59 47.9672H102.084L102.03 48.5342H100.5C100.29 48.5342 100.104 48.5522 99.9416 48.5882C99.7856 48.6242 99.6506 48.6812 99.5366 48.7592C99.4286 48.8312 99.3446 48.9212 99.2846 49.0292C99.2306 49.1312 99.2036 49.2542 99.2036 49.3982C99.2036 49.5662 99.2456 49.7162 99.3296 49.8482C99.4196 49.9742 99.5366 50.0732 99.6806 50.1452C99.8306 50.2112 99.9986 50.2442 100.185 50.2442C100.431 50.2442 100.662 50.2022 100.878 50.1182C101.094 50.0282 101.286 49.9082 101.454 49.7582C101.628 49.6022 101.766 49.4282 101.868 49.2362L102.057 49.6682C101.925 49.8962 101.76 50.1002 101.562 50.2802C101.364 50.4542 101.145 50.5922 100.905 50.6942C100.671 50.7902 100.422 50.8382 100.158 50.8382ZM103.606 50.7482V46.0232H104.29V47.0312L104.155 47.1122C104.221 46.9022 104.341 46.7102 104.515 46.5362C104.689 46.3622 104.899 46.2212 105.145 46.1132C105.391 45.9992 105.646 45.9422 105.91 45.9422C106.264 45.9422 106.561 46.0112 106.801 46.1492C107.047 46.2812 107.233 46.4882 107.359 46.7702C107.485 47.0522 107.548 47.4092 107.548 47.8412V50.7482H106.864V47.8862C106.864 47.5802 106.819 47.3282 106.729 47.1302C106.645 46.9322 106.516 46.7882 106.342 46.6982C106.174 46.6082 105.961 46.5662 105.703 46.5722C105.499 46.5722 105.31 46.6052 105.136 46.6712C104.968 46.7372 104.821 46.8272 104.695 46.9412C104.569 47.0492 104.47 47.1722 104.398 47.3102C104.326 47.4422 104.29 47.5742 104.29 47.7062V50.7482H103.957C103.903 50.7482 103.846 50.7482 103.786 50.7482C103.726 50.7482 103.666 50.7482 103.606 50.7482ZM109.548 52.8182L110.466 50.6312L110.493 51.1712L108.189 46.0232H108.99L110.61 49.7492C110.646 49.8212 110.679 49.9052 110.709 50.0012C110.745 50.0912 110.775 50.1782 110.799 50.2622L110.61 50.3162C110.652 50.2082 110.691 50.1032 110.727 50.0012C110.769 49.8932 110.808 49.7882 110.844 49.6862L112.23 46.0232H113.031L111.078 50.7842L110.286 52.8182H109.548Z" fill="#374151"/>
</svg>
